G04 EAGLE Gerber RS-274X export*
G75*
%MOMM*%
%FSLAX34Y34*%
%LPD*%
%INSilkscreen Top*%
%IPPOS*%
%AMOC8*
5,1,8,0,0,1.08239X$1,22.5*%
G01*
%ADD10C,0.152400*%
%ADD11C,0.177800*%
%ADD12C,0.127000*%
%ADD13C,0.304800*%


D10*
X488950Y299720D02*
X542290Y299720D01*
X488950Y299720D02*
X488946Y300029D01*
X488935Y300338D01*
X488916Y300647D01*
X488890Y300955D01*
X488856Y301263D01*
X488815Y301569D01*
X488766Y301875D01*
X488710Y302179D01*
X488646Y302481D01*
X488575Y302782D01*
X488497Y303082D01*
X488412Y303379D01*
X488319Y303674D01*
X488219Y303967D01*
X488112Y304257D01*
X487998Y304544D01*
X487877Y304829D01*
X487749Y305111D01*
X487615Y305389D01*
X487473Y305664D01*
X487325Y305936D01*
X487170Y306203D01*
X487009Y306467D01*
X486842Y306727D01*
X486668Y306983D01*
X486488Y307235D01*
X486302Y307482D01*
X486110Y307724D01*
X485912Y307962D01*
X485709Y308195D01*
X485499Y308423D01*
X485285Y308645D01*
X485065Y308863D01*
X484839Y309075D01*
X484609Y309281D01*
X484374Y309482D01*
X484134Y309677D01*
X483889Y309866D01*
X483640Y310049D01*
X483386Y310226D01*
X483128Y310396D01*
X482866Y310561D01*
X482600Y310719D01*
X482330Y310870D01*
X482057Y311015D01*
X481780Y311153D01*
X481500Y311284D01*
X481217Y311408D01*
X480931Y311526D01*
X480642Y311636D01*
X480351Y311740D01*
X480057Y311836D01*
X479761Y311925D01*
X479462Y312007D01*
X479162Y312082D01*
X478860Y312149D01*
X478557Y312209D01*
X478252Y312261D01*
X477946Y312306D01*
X477639Y312344D01*
X477331Y312374D01*
X477023Y312396D01*
X476714Y312412D01*
X476405Y312419D01*
X476095Y312419D01*
X475786Y312412D01*
X475477Y312396D01*
X475169Y312374D01*
X474861Y312344D01*
X474554Y312306D01*
X474248Y312261D01*
X473943Y312209D01*
X473640Y312149D01*
X473338Y312082D01*
X473038Y312007D01*
X472739Y311925D01*
X472443Y311836D01*
X472149Y311740D01*
X471858Y311636D01*
X471569Y311526D01*
X471283Y311408D01*
X471000Y311284D01*
X470720Y311153D01*
X470443Y311015D01*
X470170Y310870D01*
X469900Y310719D01*
X469634Y310561D01*
X469372Y310396D01*
X469114Y310226D01*
X468860Y310049D01*
X468611Y309866D01*
X468366Y309677D01*
X468126Y309482D01*
X467891Y309281D01*
X467661Y309075D01*
X467435Y308863D01*
X467215Y308645D01*
X467001Y308423D01*
X466791Y308195D01*
X466588Y307962D01*
X466390Y307724D01*
X466198Y307482D01*
X466012Y307235D01*
X465832Y306983D01*
X465658Y306727D01*
X465491Y306467D01*
X465330Y306203D01*
X465175Y305936D01*
X465027Y305664D01*
X464885Y305389D01*
X464751Y305111D01*
X464623Y304829D01*
X464502Y304544D01*
X464388Y304257D01*
X464281Y303967D01*
X464181Y303674D01*
X464088Y303379D01*
X464003Y303082D01*
X463925Y302782D01*
X463854Y302481D01*
X463790Y302179D01*
X463734Y301875D01*
X463685Y301569D01*
X463644Y301263D01*
X463610Y300955D01*
X463584Y300647D01*
X463565Y300338D01*
X463554Y300029D01*
X463550Y299720D01*
X410210Y652780D02*
X542290Y652780D01*
X463550Y299720D02*
X410210Y299720D01*
X410210Y652780D01*
X542290Y652780D02*
X542290Y299720D01*
D11*
X508885Y297561D02*
X508885Y281559D01*
X507107Y281559D02*
X510663Y281559D01*
X510663Y297561D02*
X507107Y297561D01*
X520457Y281559D02*
X524013Y281559D01*
X520457Y281559D02*
X520341Y281561D01*
X520224Y281567D01*
X520108Y281576D01*
X519993Y281589D01*
X519878Y281606D01*
X519763Y281627D01*
X519650Y281652D01*
X519537Y281680D01*
X519425Y281712D01*
X519314Y281748D01*
X519204Y281787D01*
X519096Y281830D01*
X518989Y281876D01*
X518884Y281926D01*
X518781Y281979D01*
X518679Y282035D01*
X518579Y282095D01*
X518481Y282158D01*
X518386Y282225D01*
X518292Y282294D01*
X518201Y282366D01*
X518112Y282441D01*
X518026Y282520D01*
X517943Y282601D01*
X517862Y282684D01*
X517783Y282770D01*
X517708Y282859D01*
X517636Y282950D01*
X517567Y283044D01*
X517500Y283139D01*
X517437Y283237D01*
X517377Y283337D01*
X517321Y283439D01*
X517268Y283542D01*
X517218Y283647D01*
X517172Y283754D01*
X517129Y283862D01*
X517090Y283972D01*
X517054Y284083D01*
X517022Y284195D01*
X516994Y284308D01*
X516969Y284421D01*
X516948Y284536D01*
X516931Y284651D01*
X516918Y284766D01*
X516909Y284882D01*
X516903Y284999D01*
X516901Y285115D01*
X516901Y294005D01*
X516903Y294121D01*
X516909Y294238D01*
X516918Y294354D01*
X516931Y294469D01*
X516948Y294584D01*
X516969Y294699D01*
X516994Y294812D01*
X517022Y294925D01*
X517054Y295037D01*
X517090Y295148D01*
X517129Y295258D01*
X517172Y295366D01*
X517218Y295473D01*
X517268Y295578D01*
X517321Y295681D01*
X517377Y295783D01*
X517437Y295883D01*
X517500Y295981D01*
X517567Y296076D01*
X517636Y296170D01*
X517708Y296261D01*
X517783Y296350D01*
X517862Y296436D01*
X517943Y296519D01*
X518026Y296600D01*
X518112Y296679D01*
X518201Y296754D01*
X518292Y296826D01*
X518386Y296895D01*
X518481Y296962D01*
X518579Y297025D01*
X518679Y297085D01*
X518781Y297141D01*
X518884Y297194D01*
X518989Y297244D01*
X519096Y297290D01*
X519204Y297333D01*
X519314Y297372D01*
X519425Y297408D01*
X519537Y297440D01*
X519650Y297468D01*
X519763Y297493D01*
X519878Y297514D01*
X519993Y297531D01*
X520108Y297544D01*
X520224Y297553D01*
X520341Y297559D01*
X520457Y297561D01*
X524013Y297561D01*
X529971Y294005D02*
X534416Y297561D01*
X534416Y281559D01*
X529971Y281559D02*
X538861Y281559D01*
D10*
X844550Y568960D02*
X1022350Y568960D01*
X1022350Y510540D02*
X844550Y510540D01*
X1022350Y510540D02*
X1022350Y568960D01*
X844550Y568960D02*
X844550Y549910D01*
X844550Y529590D02*
X844550Y510540D01*
X844550Y529590D02*
X844797Y529593D01*
X845045Y529602D01*
X845292Y529617D01*
X845538Y529638D01*
X845784Y529665D01*
X846029Y529698D01*
X846274Y529737D01*
X846517Y529782D01*
X846759Y529833D01*
X847000Y529890D01*
X847239Y529952D01*
X847477Y530021D01*
X847713Y530095D01*
X847947Y530175D01*
X848179Y530260D01*
X848409Y530352D01*
X848637Y530448D01*
X848862Y530551D01*
X849085Y530658D01*
X849305Y530772D01*
X849522Y530890D01*
X849737Y531014D01*
X849948Y531143D01*
X850156Y531277D01*
X850361Y531416D01*
X850562Y531560D01*
X850760Y531708D01*
X850954Y531862D01*
X851144Y532020D01*
X851330Y532183D01*
X851512Y532350D01*
X851690Y532522D01*
X851864Y532698D01*
X852034Y532878D01*
X852199Y533063D01*
X852359Y533251D01*
X852515Y533443D01*
X852667Y533639D01*
X852813Y533838D01*
X852955Y534041D01*
X853091Y534248D01*
X853223Y534457D01*
X853349Y534670D01*
X853470Y534886D01*
X853586Y535104D01*
X853696Y535326D01*
X853801Y535550D01*
X853901Y535776D01*
X853995Y536005D01*
X854083Y536236D01*
X854166Y536470D01*
X854243Y536705D01*
X854314Y536942D01*
X854380Y537180D01*
X854439Y537420D01*
X854493Y537662D01*
X854541Y537905D01*
X854583Y538148D01*
X854619Y538393D01*
X854649Y538639D01*
X854673Y538885D01*
X854691Y539132D01*
X854703Y539379D01*
X854709Y539626D01*
X854709Y539874D01*
X854703Y540121D01*
X854691Y540368D01*
X854673Y540615D01*
X854649Y540861D01*
X854619Y541107D01*
X854583Y541352D01*
X854541Y541595D01*
X854493Y541838D01*
X854439Y542080D01*
X854380Y542320D01*
X854314Y542558D01*
X854243Y542795D01*
X854166Y543030D01*
X854083Y543264D01*
X853995Y543495D01*
X853901Y543724D01*
X853801Y543950D01*
X853696Y544174D01*
X853586Y544396D01*
X853470Y544614D01*
X853349Y544830D01*
X853223Y545043D01*
X853091Y545252D01*
X852955Y545459D01*
X852813Y545662D01*
X852667Y545861D01*
X852515Y546057D01*
X852359Y546249D01*
X852199Y546437D01*
X852034Y546622D01*
X851864Y546802D01*
X851690Y546978D01*
X851512Y547150D01*
X851330Y547317D01*
X851144Y547480D01*
X850954Y547638D01*
X850760Y547792D01*
X850562Y547940D01*
X850361Y548084D01*
X850156Y548223D01*
X849948Y548357D01*
X849737Y548486D01*
X849522Y548610D01*
X849305Y548728D01*
X849085Y548842D01*
X848862Y548949D01*
X848637Y549052D01*
X848409Y549148D01*
X848179Y549240D01*
X847947Y549325D01*
X847713Y549405D01*
X847477Y549479D01*
X847239Y549548D01*
X847000Y549610D01*
X846759Y549667D01*
X846517Y549718D01*
X846274Y549763D01*
X846029Y549802D01*
X845784Y549835D01*
X845538Y549862D01*
X845292Y549883D01*
X845045Y549898D01*
X844797Y549907D01*
X844550Y549910D01*
D12*
X840105Y511175D02*
X828675Y511175D01*
X840105Y509905D02*
X840105Y512445D01*
X828675Y512445D02*
X828675Y509905D01*
X840105Y519647D02*
X840105Y522187D01*
X840105Y519647D02*
X840103Y519547D01*
X840097Y519448D01*
X840087Y519348D01*
X840074Y519250D01*
X840056Y519151D01*
X840035Y519054D01*
X840010Y518958D01*
X839981Y518862D01*
X839948Y518768D01*
X839912Y518675D01*
X839872Y518584D01*
X839828Y518494D01*
X839781Y518406D01*
X839731Y518320D01*
X839677Y518236D01*
X839620Y518154D01*
X839560Y518075D01*
X839496Y517997D01*
X839430Y517923D01*
X839361Y517851D01*
X839289Y517782D01*
X839215Y517716D01*
X839137Y517652D01*
X839058Y517592D01*
X838976Y517535D01*
X838892Y517481D01*
X838806Y517431D01*
X838718Y517384D01*
X838628Y517340D01*
X838537Y517300D01*
X838444Y517264D01*
X838350Y517231D01*
X838254Y517202D01*
X838158Y517177D01*
X838061Y517156D01*
X837962Y517138D01*
X837864Y517125D01*
X837764Y517115D01*
X837665Y517109D01*
X837565Y517107D01*
X831215Y517107D01*
X831115Y517109D01*
X831016Y517115D01*
X830916Y517125D01*
X830818Y517138D01*
X830719Y517156D01*
X830622Y517177D01*
X830526Y517202D01*
X830430Y517231D01*
X830336Y517264D01*
X830243Y517300D01*
X830152Y517340D01*
X830062Y517384D01*
X829974Y517431D01*
X829888Y517481D01*
X829804Y517535D01*
X829722Y517592D01*
X829643Y517652D01*
X829565Y517716D01*
X829491Y517782D01*
X829419Y517851D01*
X829350Y517923D01*
X829284Y517997D01*
X829220Y518075D01*
X829160Y518154D01*
X829103Y518236D01*
X829049Y518320D01*
X828999Y518406D01*
X828952Y518494D01*
X828908Y518584D01*
X828868Y518675D01*
X828832Y518768D01*
X828799Y518862D01*
X828770Y518958D01*
X828745Y519054D01*
X828724Y519151D01*
X828706Y519250D01*
X828693Y519348D01*
X828683Y519448D01*
X828677Y519547D01*
X828675Y519647D01*
X828675Y522187D01*
X828675Y530161D02*
X828677Y530265D01*
X828683Y530370D01*
X828692Y530474D01*
X828705Y530577D01*
X828723Y530680D01*
X828743Y530782D01*
X828768Y530884D01*
X828796Y530984D01*
X828828Y531084D01*
X828864Y531182D01*
X828903Y531279D01*
X828945Y531374D01*
X828991Y531468D01*
X829041Y531560D01*
X829093Y531650D01*
X829149Y531738D01*
X829209Y531824D01*
X829271Y531908D01*
X829336Y531989D01*
X829404Y532068D01*
X829476Y532145D01*
X829549Y532218D01*
X829626Y532290D01*
X829705Y532358D01*
X829786Y532423D01*
X829870Y532485D01*
X829956Y532545D01*
X830044Y532601D01*
X830134Y532653D01*
X830226Y532703D01*
X830320Y532749D01*
X830415Y532791D01*
X830512Y532830D01*
X830610Y532866D01*
X830710Y532898D01*
X830810Y532926D01*
X830912Y532951D01*
X831014Y532971D01*
X831117Y532989D01*
X831220Y533002D01*
X831324Y533011D01*
X831429Y533017D01*
X831533Y533019D01*
X828675Y530161D02*
X828677Y530043D01*
X828683Y529924D01*
X828692Y529806D01*
X828705Y529689D01*
X828723Y529572D01*
X828743Y529455D01*
X828768Y529339D01*
X828796Y529224D01*
X828829Y529111D01*
X828864Y528998D01*
X828904Y528886D01*
X828946Y528776D01*
X828993Y528667D01*
X829043Y528559D01*
X829096Y528454D01*
X829153Y528350D01*
X829213Y528248D01*
X829276Y528148D01*
X829343Y528050D01*
X829412Y527954D01*
X829485Y527861D01*
X829561Y527770D01*
X829639Y527681D01*
X829721Y527595D01*
X829805Y527512D01*
X829891Y527431D01*
X829981Y527354D01*
X830072Y527279D01*
X830166Y527207D01*
X830263Y527138D01*
X830361Y527073D01*
X830462Y527010D01*
X830565Y526951D01*
X830669Y526895D01*
X830775Y526843D01*
X830883Y526794D01*
X830992Y526749D01*
X831103Y526707D01*
X831215Y526669D01*
X833755Y532067D02*
X833680Y532143D01*
X833601Y532218D01*
X833520Y532289D01*
X833436Y532358D01*
X833350Y532423D01*
X833262Y532485D01*
X833172Y532545D01*
X833080Y532601D01*
X832985Y532654D01*
X832889Y532703D01*
X832791Y532749D01*
X832692Y532792D01*
X832591Y532831D01*
X832489Y532866D01*
X832386Y532898D01*
X832282Y532926D01*
X832177Y532951D01*
X832070Y532972D01*
X831964Y532989D01*
X831857Y533002D01*
X831749Y533011D01*
X831641Y533017D01*
X831533Y533019D01*
X833755Y532066D02*
X840105Y526669D01*
X840105Y533019D01*
D10*
X857250Y378460D02*
X1035050Y378460D01*
X1035050Y320040D02*
X857250Y320040D01*
X1035050Y320040D02*
X1035050Y378460D01*
X857250Y378460D02*
X857250Y359410D01*
X857250Y339090D02*
X857250Y320040D01*
X857250Y339090D02*
X857497Y339093D01*
X857745Y339102D01*
X857992Y339117D01*
X858238Y339138D01*
X858484Y339165D01*
X858729Y339198D01*
X858974Y339237D01*
X859217Y339282D01*
X859459Y339333D01*
X859700Y339390D01*
X859939Y339452D01*
X860177Y339521D01*
X860413Y339595D01*
X860647Y339675D01*
X860879Y339760D01*
X861109Y339852D01*
X861337Y339948D01*
X861562Y340051D01*
X861785Y340158D01*
X862005Y340272D01*
X862222Y340390D01*
X862437Y340514D01*
X862648Y340643D01*
X862856Y340777D01*
X863061Y340916D01*
X863262Y341060D01*
X863460Y341208D01*
X863654Y341362D01*
X863844Y341520D01*
X864030Y341683D01*
X864212Y341850D01*
X864390Y342022D01*
X864564Y342198D01*
X864734Y342378D01*
X864899Y342563D01*
X865059Y342751D01*
X865215Y342943D01*
X865367Y343139D01*
X865513Y343338D01*
X865655Y343541D01*
X865791Y343748D01*
X865923Y343957D01*
X866049Y344170D01*
X866170Y344386D01*
X866286Y344604D01*
X866396Y344826D01*
X866501Y345050D01*
X866601Y345276D01*
X866695Y345505D01*
X866783Y345736D01*
X866866Y345970D01*
X866943Y346205D01*
X867014Y346442D01*
X867080Y346680D01*
X867139Y346920D01*
X867193Y347162D01*
X867241Y347405D01*
X867283Y347648D01*
X867319Y347893D01*
X867349Y348139D01*
X867373Y348385D01*
X867391Y348632D01*
X867403Y348879D01*
X867409Y349126D01*
X867409Y349374D01*
X867403Y349621D01*
X867391Y349868D01*
X867373Y350115D01*
X867349Y350361D01*
X867319Y350607D01*
X867283Y350852D01*
X867241Y351095D01*
X867193Y351338D01*
X867139Y351580D01*
X867080Y351820D01*
X867014Y352058D01*
X866943Y352295D01*
X866866Y352530D01*
X866783Y352764D01*
X866695Y352995D01*
X866601Y353224D01*
X866501Y353450D01*
X866396Y353674D01*
X866286Y353896D01*
X866170Y354114D01*
X866049Y354330D01*
X865923Y354543D01*
X865791Y354752D01*
X865655Y354959D01*
X865513Y355162D01*
X865367Y355361D01*
X865215Y355557D01*
X865059Y355749D01*
X864899Y355937D01*
X864734Y356122D01*
X864564Y356302D01*
X864390Y356478D01*
X864212Y356650D01*
X864030Y356817D01*
X863844Y356980D01*
X863654Y357138D01*
X863460Y357292D01*
X863262Y357440D01*
X863061Y357584D01*
X862856Y357723D01*
X862648Y357857D01*
X862437Y357986D01*
X862222Y358110D01*
X862005Y358228D01*
X861785Y358342D01*
X861562Y358449D01*
X861337Y358552D01*
X861109Y358648D01*
X860879Y358740D01*
X860647Y358825D01*
X860413Y358905D01*
X860177Y358979D01*
X859939Y359048D01*
X859700Y359110D01*
X859459Y359167D01*
X859217Y359218D01*
X858974Y359263D01*
X858729Y359302D01*
X858484Y359335D01*
X858238Y359362D01*
X857992Y359383D01*
X857745Y359398D01*
X857497Y359407D01*
X857250Y359410D01*
D12*
X852805Y320675D02*
X841375Y320675D01*
X852805Y319405D02*
X852805Y321945D01*
X841375Y321945D02*
X841375Y319405D01*
X852805Y329147D02*
X852805Y331687D01*
X852805Y329147D02*
X852803Y329047D01*
X852797Y328948D01*
X852787Y328848D01*
X852774Y328750D01*
X852756Y328651D01*
X852735Y328554D01*
X852710Y328458D01*
X852681Y328362D01*
X852648Y328268D01*
X852612Y328175D01*
X852572Y328084D01*
X852528Y327994D01*
X852481Y327906D01*
X852431Y327820D01*
X852377Y327736D01*
X852320Y327654D01*
X852260Y327575D01*
X852196Y327497D01*
X852130Y327423D01*
X852061Y327351D01*
X851989Y327282D01*
X851915Y327216D01*
X851837Y327152D01*
X851758Y327092D01*
X851676Y327035D01*
X851592Y326981D01*
X851506Y326931D01*
X851418Y326884D01*
X851328Y326840D01*
X851237Y326800D01*
X851144Y326764D01*
X851050Y326731D01*
X850954Y326702D01*
X850858Y326677D01*
X850761Y326656D01*
X850662Y326638D01*
X850564Y326625D01*
X850464Y326615D01*
X850365Y326609D01*
X850265Y326607D01*
X843915Y326607D01*
X843815Y326609D01*
X843716Y326615D01*
X843616Y326625D01*
X843518Y326638D01*
X843419Y326656D01*
X843322Y326677D01*
X843226Y326702D01*
X843130Y326731D01*
X843036Y326764D01*
X842943Y326800D01*
X842852Y326840D01*
X842762Y326884D01*
X842674Y326931D01*
X842588Y326981D01*
X842504Y327035D01*
X842422Y327092D01*
X842343Y327152D01*
X842265Y327216D01*
X842191Y327282D01*
X842119Y327351D01*
X842050Y327423D01*
X841984Y327497D01*
X841920Y327575D01*
X841860Y327654D01*
X841803Y327736D01*
X841749Y327820D01*
X841699Y327906D01*
X841652Y327994D01*
X841608Y328084D01*
X841568Y328175D01*
X841532Y328268D01*
X841499Y328362D01*
X841470Y328458D01*
X841445Y328554D01*
X841424Y328651D01*
X841406Y328750D01*
X841393Y328848D01*
X841383Y328948D01*
X841377Y329047D01*
X841375Y329147D01*
X841375Y331687D01*
X852805Y336169D02*
X852805Y339344D01*
X852803Y339455D01*
X852797Y339565D01*
X852788Y339676D01*
X852774Y339786D01*
X852757Y339895D01*
X852736Y340004D01*
X852711Y340112D01*
X852682Y340219D01*
X852650Y340325D01*
X852614Y340430D01*
X852574Y340533D01*
X852531Y340635D01*
X852484Y340736D01*
X852433Y340835D01*
X852380Y340932D01*
X852323Y341026D01*
X852262Y341119D01*
X852199Y341210D01*
X852132Y341299D01*
X852062Y341385D01*
X851989Y341468D01*
X851914Y341550D01*
X851836Y341628D01*
X851754Y341703D01*
X851671Y341776D01*
X851585Y341846D01*
X851496Y341913D01*
X851405Y341976D01*
X851312Y342037D01*
X851218Y342094D01*
X851121Y342147D01*
X851022Y342198D01*
X850921Y342245D01*
X850819Y342288D01*
X850716Y342328D01*
X850611Y342364D01*
X850505Y342396D01*
X850398Y342425D01*
X850290Y342450D01*
X850181Y342471D01*
X850072Y342488D01*
X849962Y342502D01*
X849851Y342511D01*
X849741Y342517D01*
X849630Y342519D01*
X849519Y342517D01*
X849409Y342511D01*
X849298Y342502D01*
X849188Y342488D01*
X849079Y342471D01*
X848970Y342450D01*
X848862Y342425D01*
X848755Y342396D01*
X848649Y342364D01*
X848544Y342328D01*
X848441Y342288D01*
X848339Y342245D01*
X848238Y342198D01*
X848139Y342147D01*
X848043Y342094D01*
X847948Y342037D01*
X847855Y341976D01*
X847764Y341913D01*
X847675Y341846D01*
X847589Y341776D01*
X847506Y341703D01*
X847424Y341628D01*
X847346Y341550D01*
X847271Y341468D01*
X847198Y341385D01*
X847128Y341299D01*
X847061Y341210D01*
X846998Y341119D01*
X846937Y341026D01*
X846880Y340932D01*
X846827Y340835D01*
X846776Y340736D01*
X846729Y340635D01*
X846686Y340533D01*
X846646Y340430D01*
X846610Y340325D01*
X846578Y340219D01*
X846549Y340112D01*
X846524Y340004D01*
X846503Y339895D01*
X846486Y339786D01*
X846472Y339676D01*
X846463Y339565D01*
X846457Y339455D01*
X846455Y339344D01*
X841375Y339979D02*
X841375Y336169D01*
X841375Y339979D02*
X841377Y340079D01*
X841383Y340178D01*
X841393Y340278D01*
X841406Y340376D01*
X841424Y340475D01*
X841445Y340572D01*
X841470Y340668D01*
X841499Y340764D01*
X841532Y340858D01*
X841568Y340951D01*
X841608Y341042D01*
X841652Y341132D01*
X841699Y341220D01*
X841749Y341306D01*
X841803Y341390D01*
X841860Y341472D01*
X841920Y341551D01*
X841984Y341629D01*
X842050Y341703D01*
X842119Y341775D01*
X842191Y341844D01*
X842265Y341910D01*
X842343Y341974D01*
X842422Y342034D01*
X842504Y342091D01*
X842588Y342145D01*
X842674Y342195D01*
X842762Y342242D01*
X842852Y342286D01*
X842943Y342326D01*
X843036Y342362D01*
X843130Y342395D01*
X843226Y342424D01*
X843322Y342449D01*
X843419Y342470D01*
X843518Y342488D01*
X843616Y342501D01*
X843716Y342511D01*
X843815Y342517D01*
X843915Y342519D01*
X844015Y342517D01*
X844114Y342511D01*
X844214Y342501D01*
X844312Y342488D01*
X844411Y342470D01*
X844508Y342449D01*
X844604Y342424D01*
X844700Y342395D01*
X844794Y342362D01*
X844887Y342326D01*
X844978Y342286D01*
X845068Y342242D01*
X845156Y342195D01*
X845242Y342145D01*
X845326Y342091D01*
X845408Y342034D01*
X845487Y341974D01*
X845565Y341910D01*
X845639Y341844D01*
X845711Y341775D01*
X845780Y341703D01*
X845846Y341629D01*
X845910Y341551D01*
X845970Y341472D01*
X846027Y341390D01*
X846081Y341306D01*
X846131Y341220D01*
X846178Y341132D01*
X846222Y341042D01*
X846262Y340951D01*
X846298Y340858D01*
X846331Y340764D01*
X846360Y340668D01*
X846385Y340572D01*
X846406Y340475D01*
X846424Y340376D01*
X846437Y340278D01*
X846447Y340178D01*
X846453Y340079D01*
X846455Y339979D01*
X846455Y337439D01*
D10*
X723900Y844550D02*
X711200Y844550D01*
X723900Y844550D02*
X730250Y838200D01*
X730250Y825500D02*
X723900Y819150D01*
X685800Y844550D02*
X679450Y838200D01*
X685800Y844550D02*
X698500Y844550D01*
X704850Y838200D01*
X704850Y825500D02*
X698500Y819150D01*
X685800Y819150D01*
X679450Y825500D01*
X704850Y838200D02*
X711200Y844550D01*
X704850Y825500D02*
X711200Y819150D01*
X723900Y819150D01*
X647700Y844550D02*
X635000Y844550D01*
X647700Y844550D02*
X654050Y838200D01*
X654050Y825500D02*
X647700Y819150D01*
X654050Y838200D02*
X660400Y844550D01*
X673100Y844550D01*
X679450Y838200D01*
X679450Y825500D02*
X673100Y819150D01*
X660400Y819150D01*
X654050Y825500D01*
X609600Y844550D02*
X603250Y838200D01*
X609600Y844550D02*
X622300Y844550D01*
X628650Y838200D01*
X628650Y825500D02*
X622300Y819150D01*
X609600Y819150D01*
X603250Y825500D01*
X628650Y838200D02*
X635000Y844550D01*
X628650Y825500D02*
X635000Y819150D01*
X647700Y819150D01*
X571500Y844550D02*
X558800Y844550D01*
X571500Y844550D02*
X577850Y838200D01*
X577850Y825500D02*
X571500Y819150D01*
X577850Y838200D02*
X584200Y844550D01*
X596900Y844550D01*
X603250Y838200D01*
X603250Y825500D02*
X596900Y819150D01*
X584200Y819150D01*
X577850Y825500D01*
X533400Y844550D02*
X527050Y838200D01*
X533400Y844550D02*
X546100Y844550D01*
X552450Y838200D01*
X552450Y825500D02*
X546100Y819150D01*
X533400Y819150D01*
X527050Y825500D01*
X552450Y838200D02*
X558800Y844550D01*
X552450Y825500D02*
X558800Y819150D01*
X571500Y819150D01*
X495300Y844550D02*
X482600Y844550D01*
X495300Y844550D02*
X501650Y838200D01*
X501650Y825500D02*
X495300Y819150D01*
X501650Y838200D02*
X508000Y844550D01*
X520700Y844550D01*
X527050Y838200D01*
X527050Y825500D02*
X520700Y819150D01*
X508000Y819150D01*
X501650Y825500D01*
X457200Y844550D02*
X450850Y838200D01*
X457200Y844550D02*
X469900Y844550D01*
X476250Y838200D01*
X476250Y825500D02*
X469900Y819150D01*
X457200Y819150D01*
X450850Y825500D01*
X476250Y838200D02*
X482600Y844550D01*
X476250Y825500D02*
X482600Y819150D01*
X495300Y819150D01*
X419100Y844550D02*
X406400Y844550D01*
X419100Y844550D02*
X425450Y838200D01*
X425450Y825500D02*
X419100Y819150D01*
X425450Y838200D02*
X431800Y844550D01*
X444500Y844550D01*
X450850Y838200D01*
X450850Y825500D02*
X444500Y819150D01*
X431800Y819150D01*
X425450Y825500D01*
X381000Y844550D02*
X374650Y838200D01*
X381000Y844550D02*
X393700Y844550D01*
X400050Y838200D01*
X400050Y825500D02*
X393700Y819150D01*
X381000Y819150D01*
X374650Y825500D01*
X400050Y838200D02*
X406400Y844550D01*
X400050Y825500D02*
X406400Y819150D01*
X419100Y819150D01*
X342900Y844550D02*
X330200Y844550D01*
X342900Y844550D02*
X349250Y838200D01*
X349250Y825500D02*
X342900Y819150D01*
X349250Y838200D02*
X355600Y844550D01*
X368300Y844550D01*
X374650Y838200D01*
X374650Y825500D02*
X368300Y819150D01*
X355600Y819150D01*
X349250Y825500D01*
X304800Y844550D02*
X298450Y838200D01*
X304800Y844550D02*
X317500Y844550D01*
X323850Y838200D01*
X323850Y825500D02*
X317500Y819150D01*
X304800Y819150D01*
X298450Y825500D01*
X323850Y838200D02*
X330200Y844550D01*
X323850Y825500D02*
X330200Y819150D01*
X342900Y819150D01*
X266700Y844550D02*
X254000Y844550D01*
X266700Y844550D02*
X273050Y838200D01*
X273050Y825500D02*
X266700Y819150D01*
X273050Y838200D02*
X279400Y844550D01*
X292100Y844550D01*
X298450Y838200D01*
X298450Y825500D02*
X292100Y819150D01*
X279400Y819150D01*
X273050Y825500D01*
X247650Y825500D02*
X247650Y838200D01*
X254000Y844550D01*
X247650Y825500D02*
X254000Y819150D01*
X266700Y819150D01*
X736600Y844550D02*
X749300Y844550D01*
X755650Y838200D01*
X755650Y825500D02*
X749300Y819150D01*
X730250Y838200D02*
X736600Y844550D01*
X730250Y825500D02*
X736600Y819150D01*
X749300Y819150D01*
X762000Y844550D02*
X774700Y844550D01*
X781050Y838200D01*
X781050Y825500D02*
X774700Y819150D01*
X755650Y838200D02*
X762000Y844550D01*
X755650Y825500D02*
X762000Y819150D01*
X774700Y819150D01*
X787400Y844550D02*
X800100Y844550D01*
X806450Y838200D01*
X806450Y825500D02*
X800100Y819150D01*
X781050Y838200D02*
X787400Y844550D01*
X781050Y825500D02*
X787400Y819150D01*
X800100Y819150D01*
X812800Y844550D02*
X825500Y844550D01*
X831850Y838200D01*
X831850Y825500D02*
X825500Y819150D01*
X806450Y838200D02*
X812800Y844550D01*
X806450Y825500D02*
X812800Y819150D01*
X825500Y819150D01*
X838200Y844550D02*
X850900Y844550D01*
X857250Y838200D01*
X857250Y825500D02*
X850900Y819150D01*
X831850Y838200D02*
X838200Y844550D01*
X831850Y825500D02*
X838200Y819150D01*
X850900Y819150D01*
X863600Y844550D02*
X876300Y844550D01*
X882650Y838200D01*
X882650Y825500D02*
X876300Y819150D01*
X857250Y838200D02*
X863600Y844550D01*
X857250Y825500D02*
X863600Y819150D01*
X876300Y819150D01*
X889000Y844550D02*
X901700Y844550D01*
X908050Y838200D01*
X908050Y825500D02*
X901700Y819150D01*
X882650Y838200D02*
X889000Y844550D01*
X882650Y825500D02*
X889000Y819150D01*
X901700Y819150D01*
X914400Y844550D02*
X927100Y844550D01*
X933450Y838200D01*
X933450Y825500D02*
X927100Y819150D01*
X908050Y838200D02*
X914400Y844550D01*
X908050Y825500D02*
X914400Y819150D01*
X927100Y819150D01*
X939800Y844550D02*
X952500Y844550D01*
X958850Y838200D01*
X958850Y825500D02*
X952500Y819150D01*
X933450Y838200D02*
X939800Y844550D01*
X933450Y825500D02*
X939800Y819150D01*
X952500Y819150D01*
X965200Y844550D02*
X977900Y844550D01*
X984250Y838200D01*
X984250Y825500D02*
X977900Y819150D01*
X958850Y838200D02*
X965200Y844550D01*
X958850Y825500D02*
X965200Y819150D01*
X977900Y819150D01*
X990600Y844550D02*
X1003300Y844550D01*
X1009650Y838200D01*
X1009650Y825500D02*
X1003300Y819150D01*
X984250Y838200D02*
X990600Y844550D01*
X984250Y825500D02*
X990600Y819150D01*
X1003300Y819150D01*
X1244600Y844550D02*
X1257300Y844550D01*
X1219200Y844550D02*
X1212850Y838200D01*
X1219200Y844550D02*
X1231900Y844550D01*
X1238250Y838200D01*
X1238250Y825500D02*
X1231900Y819150D01*
X1219200Y819150D01*
X1212850Y825500D01*
X1238250Y838200D02*
X1244600Y844550D01*
X1238250Y825500D02*
X1244600Y819150D01*
X1257300Y819150D01*
X1181100Y844550D02*
X1168400Y844550D01*
X1181100Y844550D02*
X1187450Y838200D01*
X1187450Y825500D02*
X1181100Y819150D01*
X1187450Y838200D02*
X1193800Y844550D01*
X1206500Y844550D01*
X1212850Y838200D01*
X1212850Y825500D02*
X1206500Y819150D01*
X1193800Y819150D01*
X1187450Y825500D01*
X1143000Y844550D02*
X1136650Y838200D01*
X1143000Y844550D02*
X1155700Y844550D01*
X1162050Y838200D01*
X1162050Y825500D02*
X1155700Y819150D01*
X1143000Y819150D01*
X1136650Y825500D01*
X1162050Y838200D02*
X1168400Y844550D01*
X1162050Y825500D02*
X1168400Y819150D01*
X1181100Y819150D01*
X1104900Y844550D02*
X1092200Y844550D01*
X1104900Y844550D02*
X1111250Y838200D01*
X1111250Y825500D02*
X1104900Y819150D01*
X1111250Y838200D02*
X1117600Y844550D01*
X1130300Y844550D01*
X1136650Y838200D01*
X1136650Y825500D02*
X1130300Y819150D01*
X1117600Y819150D01*
X1111250Y825500D01*
X1066800Y844550D02*
X1060450Y838200D01*
X1066800Y844550D02*
X1079500Y844550D01*
X1085850Y838200D01*
X1085850Y825500D02*
X1079500Y819150D01*
X1066800Y819150D01*
X1060450Y825500D01*
X1085850Y838200D02*
X1092200Y844550D01*
X1085850Y825500D02*
X1092200Y819150D01*
X1104900Y819150D01*
X1028700Y844550D02*
X1016000Y844550D01*
X1028700Y844550D02*
X1035050Y838200D01*
X1035050Y825500D02*
X1028700Y819150D01*
X1035050Y838200D02*
X1041400Y844550D01*
X1054100Y844550D01*
X1060450Y838200D01*
X1060450Y825500D02*
X1054100Y819150D01*
X1041400Y819150D01*
X1035050Y825500D01*
X1016000Y844550D02*
X1009650Y838200D01*
X1009650Y825500D02*
X1016000Y819150D01*
X1028700Y819150D01*
X1263650Y825500D02*
X1263650Y838200D01*
X1257300Y844550D01*
X1263650Y825500D02*
X1257300Y819150D01*
D12*
X251333Y853313D02*
X251333Y862203D01*
X251333Y853313D02*
X251331Y853213D01*
X251325Y853114D01*
X251315Y853014D01*
X251302Y852916D01*
X251284Y852817D01*
X251263Y852720D01*
X251238Y852624D01*
X251209Y852528D01*
X251176Y852434D01*
X251140Y852341D01*
X251100Y852250D01*
X251056Y852160D01*
X251009Y852072D01*
X250959Y851986D01*
X250905Y851902D01*
X250848Y851820D01*
X250788Y851741D01*
X250724Y851663D01*
X250658Y851589D01*
X250589Y851517D01*
X250517Y851448D01*
X250443Y851382D01*
X250365Y851318D01*
X250286Y851258D01*
X250204Y851201D01*
X250120Y851147D01*
X250034Y851097D01*
X249946Y851050D01*
X249856Y851006D01*
X249765Y850966D01*
X249672Y850930D01*
X249578Y850897D01*
X249482Y850868D01*
X249386Y850843D01*
X249289Y850822D01*
X249190Y850804D01*
X249092Y850791D01*
X248992Y850781D01*
X248893Y850775D01*
X248793Y850773D01*
X247523Y850773D01*
X257313Y850773D02*
X257313Y862203D01*
X260488Y862203D01*
X260599Y862201D01*
X260709Y862195D01*
X260820Y862186D01*
X260930Y862172D01*
X261039Y862155D01*
X261148Y862134D01*
X261256Y862109D01*
X261363Y862080D01*
X261469Y862048D01*
X261574Y862012D01*
X261677Y861972D01*
X261779Y861929D01*
X261880Y861882D01*
X261979Y861831D01*
X262076Y861778D01*
X262170Y861721D01*
X262263Y861660D01*
X262354Y861597D01*
X262443Y861530D01*
X262529Y861460D01*
X262612Y861387D01*
X262694Y861312D01*
X262772Y861234D01*
X262847Y861152D01*
X262920Y861069D01*
X262990Y860983D01*
X263057Y860894D01*
X263120Y860803D01*
X263181Y860710D01*
X263238Y860615D01*
X263291Y860519D01*
X263342Y860420D01*
X263389Y860319D01*
X263432Y860217D01*
X263472Y860114D01*
X263508Y860009D01*
X263540Y859903D01*
X263569Y859796D01*
X263594Y859688D01*
X263615Y859579D01*
X263632Y859470D01*
X263646Y859360D01*
X263655Y859249D01*
X263661Y859139D01*
X263663Y859028D01*
X263661Y858917D01*
X263655Y858807D01*
X263646Y858696D01*
X263632Y858586D01*
X263615Y858477D01*
X263594Y858368D01*
X263569Y858260D01*
X263540Y858153D01*
X263508Y858047D01*
X263472Y857942D01*
X263432Y857839D01*
X263389Y857737D01*
X263342Y857636D01*
X263291Y857537D01*
X263238Y857441D01*
X263181Y857346D01*
X263120Y857253D01*
X263057Y857162D01*
X262990Y857073D01*
X262920Y856987D01*
X262847Y856904D01*
X262772Y856822D01*
X262694Y856744D01*
X262612Y856669D01*
X262529Y856596D01*
X262443Y856526D01*
X262354Y856459D01*
X262263Y856396D01*
X262170Y856335D01*
X262075Y856278D01*
X261979Y856225D01*
X261880Y856174D01*
X261779Y856127D01*
X261677Y856084D01*
X261574Y856044D01*
X261469Y856008D01*
X261363Y855976D01*
X261256Y855947D01*
X261148Y855922D01*
X261039Y855901D01*
X260930Y855884D01*
X260820Y855870D01*
X260709Y855861D01*
X260599Y855855D01*
X260488Y855853D01*
X257313Y855853D01*
X268172Y859663D02*
X271347Y862203D01*
X271347Y850773D01*
X268172Y850773D02*
X274522Y850773D01*
D13*
X819150Y542798D02*
X825500Y542798D01*
X819150Y542798D02*
X812800Y542798D01*
D10*
X819150Y542798D02*
X819150Y554990D01*
D13*
X819150Y536448D02*
X825500Y536448D01*
X819150Y536448D02*
X812800Y536448D01*
D10*
X819150Y536448D02*
X819150Y524510D01*
X829310Y576580D02*
X808990Y576580D01*
X806450Y574040D02*
X806450Y505460D01*
X808990Y502920D02*
X829310Y502920D01*
X831850Y505460D02*
X831850Y574040D01*
X831850Y505460D02*
X831848Y505360D01*
X831842Y505261D01*
X831832Y505161D01*
X831819Y505063D01*
X831801Y504964D01*
X831780Y504867D01*
X831755Y504771D01*
X831726Y504675D01*
X831693Y504581D01*
X831657Y504488D01*
X831617Y504397D01*
X831573Y504307D01*
X831526Y504219D01*
X831476Y504133D01*
X831422Y504049D01*
X831365Y503967D01*
X831305Y503888D01*
X831241Y503810D01*
X831175Y503736D01*
X831106Y503664D01*
X831034Y503595D01*
X830960Y503529D01*
X830882Y503465D01*
X830803Y503405D01*
X830721Y503348D01*
X830637Y503294D01*
X830551Y503244D01*
X830463Y503197D01*
X830373Y503153D01*
X830282Y503113D01*
X830189Y503077D01*
X830095Y503044D01*
X829999Y503015D01*
X829903Y502990D01*
X829806Y502969D01*
X829707Y502951D01*
X829609Y502938D01*
X829509Y502928D01*
X829410Y502922D01*
X829310Y502920D01*
X808990Y502920D02*
X808890Y502922D01*
X808791Y502928D01*
X808691Y502938D01*
X808593Y502951D01*
X808494Y502969D01*
X808397Y502990D01*
X808301Y503015D01*
X808205Y503044D01*
X808111Y503077D01*
X808018Y503113D01*
X807927Y503153D01*
X807837Y503197D01*
X807749Y503244D01*
X807663Y503294D01*
X807579Y503348D01*
X807497Y503405D01*
X807418Y503465D01*
X807340Y503529D01*
X807266Y503595D01*
X807194Y503664D01*
X807125Y503736D01*
X807059Y503810D01*
X806995Y503888D01*
X806935Y503967D01*
X806878Y504049D01*
X806824Y504133D01*
X806774Y504219D01*
X806727Y504307D01*
X806683Y504397D01*
X806643Y504488D01*
X806607Y504581D01*
X806574Y504675D01*
X806545Y504771D01*
X806520Y504867D01*
X806499Y504964D01*
X806481Y505063D01*
X806468Y505161D01*
X806458Y505261D01*
X806452Y505360D01*
X806450Y505460D01*
X806450Y574040D02*
X806452Y574140D01*
X806458Y574239D01*
X806468Y574339D01*
X806481Y574437D01*
X806499Y574536D01*
X806520Y574633D01*
X806545Y574729D01*
X806574Y574825D01*
X806607Y574919D01*
X806643Y575012D01*
X806683Y575103D01*
X806727Y575193D01*
X806774Y575281D01*
X806824Y575367D01*
X806878Y575451D01*
X806935Y575533D01*
X806995Y575612D01*
X807059Y575690D01*
X807125Y575764D01*
X807194Y575836D01*
X807266Y575905D01*
X807340Y575971D01*
X807418Y576035D01*
X807497Y576095D01*
X807579Y576152D01*
X807663Y576206D01*
X807749Y576256D01*
X807837Y576303D01*
X807927Y576347D01*
X808018Y576387D01*
X808111Y576423D01*
X808205Y576456D01*
X808301Y576485D01*
X808397Y576510D01*
X808494Y576531D01*
X808593Y576549D01*
X808691Y576562D01*
X808791Y576572D01*
X808890Y576578D01*
X808990Y576580D01*
X829310Y576580D02*
X829410Y576578D01*
X829509Y576572D01*
X829609Y576562D01*
X829707Y576549D01*
X829806Y576531D01*
X829903Y576510D01*
X829999Y576485D01*
X830095Y576456D01*
X830189Y576423D01*
X830282Y576387D01*
X830373Y576347D01*
X830463Y576303D01*
X830551Y576256D01*
X830637Y576206D01*
X830721Y576152D01*
X830803Y576095D01*
X830882Y576035D01*
X830960Y575971D01*
X831034Y575905D01*
X831106Y575836D01*
X831175Y575764D01*
X831241Y575690D01*
X831305Y575612D01*
X831365Y575533D01*
X831422Y575451D01*
X831476Y575367D01*
X831526Y575281D01*
X831573Y575193D01*
X831617Y575103D01*
X831657Y575012D01*
X831693Y574919D01*
X831726Y574825D01*
X831755Y574729D01*
X831780Y574633D01*
X831801Y574536D01*
X831819Y574437D01*
X831832Y574339D01*
X831842Y574239D01*
X831848Y574140D01*
X831850Y574040D01*
D12*
X847725Y562573D02*
X847725Y560033D01*
X847723Y559933D01*
X847717Y559834D01*
X847707Y559734D01*
X847694Y559636D01*
X847676Y559537D01*
X847655Y559440D01*
X847630Y559344D01*
X847601Y559248D01*
X847568Y559154D01*
X847532Y559061D01*
X847492Y558970D01*
X847448Y558880D01*
X847401Y558792D01*
X847351Y558706D01*
X847297Y558622D01*
X847240Y558540D01*
X847180Y558461D01*
X847116Y558383D01*
X847050Y558309D01*
X846981Y558237D01*
X846909Y558168D01*
X846835Y558102D01*
X846757Y558038D01*
X846678Y557978D01*
X846596Y557921D01*
X846512Y557867D01*
X846426Y557817D01*
X846338Y557770D01*
X846248Y557726D01*
X846157Y557686D01*
X846064Y557650D01*
X845970Y557617D01*
X845874Y557588D01*
X845778Y557563D01*
X845681Y557542D01*
X845582Y557524D01*
X845484Y557511D01*
X845384Y557501D01*
X845285Y557495D01*
X845185Y557493D01*
X838835Y557493D01*
X838735Y557495D01*
X838636Y557501D01*
X838536Y557511D01*
X838438Y557524D01*
X838339Y557542D01*
X838242Y557563D01*
X838146Y557588D01*
X838050Y557617D01*
X837956Y557650D01*
X837863Y557686D01*
X837772Y557726D01*
X837682Y557770D01*
X837594Y557817D01*
X837508Y557867D01*
X837424Y557921D01*
X837342Y557978D01*
X837263Y558038D01*
X837185Y558102D01*
X837111Y558168D01*
X837039Y558237D01*
X836970Y558309D01*
X836904Y558383D01*
X836840Y558461D01*
X836780Y558540D01*
X836723Y558622D01*
X836669Y558706D01*
X836619Y558792D01*
X836572Y558880D01*
X836528Y558970D01*
X836488Y559061D01*
X836452Y559154D01*
X836419Y559248D01*
X836390Y559344D01*
X836365Y559440D01*
X836344Y559537D01*
X836326Y559636D01*
X836313Y559734D01*
X836303Y559834D01*
X836297Y559933D01*
X836295Y560033D01*
X836295Y562573D01*
X838835Y567055D02*
X836295Y570230D01*
X847725Y570230D01*
X847725Y567055D02*
X847725Y573405D01*
D13*
X831850Y422402D02*
X825500Y422402D01*
X831850Y422402D02*
X838200Y422402D01*
D10*
X831850Y422402D02*
X831850Y410210D01*
D13*
X831850Y428752D02*
X825500Y428752D01*
X831850Y428752D02*
X838200Y428752D01*
D10*
X831850Y428752D02*
X831850Y440690D01*
X821690Y388620D02*
X842010Y388620D01*
X844550Y391160D02*
X844550Y459740D01*
X842010Y462280D02*
X821690Y462280D01*
X819150Y459740D02*
X819150Y391160D01*
X819150Y459740D02*
X819152Y459840D01*
X819158Y459939D01*
X819168Y460039D01*
X819181Y460137D01*
X819199Y460236D01*
X819220Y460333D01*
X819245Y460429D01*
X819274Y460525D01*
X819307Y460619D01*
X819343Y460712D01*
X819383Y460803D01*
X819427Y460893D01*
X819474Y460981D01*
X819524Y461067D01*
X819578Y461151D01*
X819635Y461233D01*
X819695Y461312D01*
X819759Y461390D01*
X819825Y461464D01*
X819894Y461536D01*
X819966Y461605D01*
X820040Y461671D01*
X820118Y461735D01*
X820197Y461795D01*
X820279Y461852D01*
X820363Y461906D01*
X820449Y461956D01*
X820537Y462003D01*
X820627Y462047D01*
X820718Y462087D01*
X820811Y462123D01*
X820905Y462156D01*
X821001Y462185D01*
X821097Y462210D01*
X821194Y462231D01*
X821293Y462249D01*
X821391Y462262D01*
X821491Y462272D01*
X821590Y462278D01*
X821690Y462280D01*
X842010Y462280D02*
X842110Y462278D01*
X842209Y462272D01*
X842309Y462262D01*
X842407Y462249D01*
X842506Y462231D01*
X842603Y462210D01*
X842699Y462185D01*
X842795Y462156D01*
X842889Y462123D01*
X842982Y462087D01*
X843073Y462047D01*
X843163Y462003D01*
X843251Y461956D01*
X843337Y461906D01*
X843421Y461852D01*
X843503Y461795D01*
X843582Y461735D01*
X843660Y461671D01*
X843734Y461605D01*
X843806Y461536D01*
X843875Y461464D01*
X843941Y461390D01*
X844005Y461312D01*
X844065Y461233D01*
X844122Y461151D01*
X844176Y461067D01*
X844226Y460981D01*
X844273Y460893D01*
X844317Y460803D01*
X844357Y460712D01*
X844393Y460619D01*
X844426Y460525D01*
X844455Y460429D01*
X844480Y460333D01*
X844501Y460236D01*
X844519Y460137D01*
X844532Y460039D01*
X844542Y459939D01*
X844548Y459840D01*
X844550Y459740D01*
X844550Y391160D02*
X844548Y391060D01*
X844542Y390961D01*
X844532Y390861D01*
X844519Y390763D01*
X844501Y390664D01*
X844480Y390567D01*
X844455Y390471D01*
X844426Y390375D01*
X844393Y390281D01*
X844357Y390188D01*
X844317Y390097D01*
X844273Y390007D01*
X844226Y389919D01*
X844176Y389833D01*
X844122Y389749D01*
X844065Y389667D01*
X844005Y389588D01*
X843941Y389510D01*
X843875Y389436D01*
X843806Y389364D01*
X843734Y389295D01*
X843660Y389229D01*
X843582Y389165D01*
X843503Y389105D01*
X843421Y389048D01*
X843337Y388994D01*
X843251Y388944D01*
X843163Y388897D01*
X843073Y388853D01*
X842982Y388813D01*
X842889Y388777D01*
X842795Y388744D01*
X842699Y388715D01*
X842603Y388690D01*
X842506Y388669D01*
X842407Y388651D01*
X842309Y388638D01*
X842209Y388628D01*
X842110Y388622D01*
X842010Y388620D01*
X821690Y388620D02*
X821590Y388622D01*
X821491Y388628D01*
X821391Y388638D01*
X821293Y388651D01*
X821194Y388669D01*
X821097Y388690D01*
X821001Y388715D01*
X820905Y388744D01*
X820811Y388777D01*
X820718Y388813D01*
X820627Y388853D01*
X820537Y388897D01*
X820449Y388944D01*
X820363Y388994D01*
X820279Y389048D01*
X820197Y389105D01*
X820118Y389165D01*
X820040Y389229D01*
X819966Y389295D01*
X819894Y389364D01*
X819825Y389436D01*
X819759Y389510D01*
X819695Y389588D01*
X819635Y389667D01*
X819578Y389749D01*
X819524Y389833D01*
X819474Y389919D01*
X819427Y390007D01*
X819383Y390097D01*
X819343Y390188D01*
X819307Y390281D01*
X819274Y390375D01*
X819245Y390471D01*
X819220Y390567D01*
X819199Y390664D01*
X819181Y390763D01*
X819168Y390861D01*
X819158Y390961D01*
X819152Y391060D01*
X819150Y391160D01*
D12*
X814705Y394335D02*
X814705Y396875D01*
X814705Y394335D02*
X814703Y394235D01*
X814697Y394136D01*
X814687Y394036D01*
X814674Y393938D01*
X814656Y393839D01*
X814635Y393742D01*
X814610Y393646D01*
X814581Y393550D01*
X814548Y393456D01*
X814512Y393363D01*
X814472Y393272D01*
X814428Y393182D01*
X814381Y393094D01*
X814331Y393008D01*
X814277Y392924D01*
X814220Y392842D01*
X814160Y392763D01*
X814096Y392685D01*
X814030Y392611D01*
X813961Y392539D01*
X813889Y392470D01*
X813815Y392404D01*
X813737Y392340D01*
X813658Y392280D01*
X813576Y392223D01*
X813492Y392169D01*
X813406Y392119D01*
X813318Y392072D01*
X813228Y392028D01*
X813137Y391988D01*
X813044Y391952D01*
X812950Y391919D01*
X812854Y391890D01*
X812758Y391865D01*
X812661Y391844D01*
X812562Y391826D01*
X812464Y391813D01*
X812364Y391803D01*
X812265Y391797D01*
X812165Y391795D01*
X805815Y391795D01*
X805715Y391797D01*
X805616Y391803D01*
X805516Y391813D01*
X805418Y391826D01*
X805319Y391844D01*
X805222Y391865D01*
X805126Y391890D01*
X805030Y391919D01*
X804936Y391952D01*
X804843Y391988D01*
X804752Y392028D01*
X804662Y392072D01*
X804574Y392119D01*
X804488Y392169D01*
X804404Y392223D01*
X804322Y392280D01*
X804243Y392340D01*
X804165Y392404D01*
X804091Y392470D01*
X804019Y392539D01*
X803950Y392611D01*
X803884Y392685D01*
X803820Y392763D01*
X803760Y392842D01*
X803703Y392924D01*
X803649Y393008D01*
X803599Y393094D01*
X803552Y393182D01*
X803508Y393272D01*
X803468Y393363D01*
X803432Y393456D01*
X803399Y393550D01*
X803370Y393646D01*
X803345Y393742D01*
X803324Y393839D01*
X803306Y393938D01*
X803293Y394036D01*
X803283Y394136D01*
X803277Y394235D01*
X803275Y394335D01*
X803275Y396875D01*
X803275Y404850D02*
X803277Y404954D01*
X803283Y405059D01*
X803292Y405163D01*
X803305Y405266D01*
X803323Y405369D01*
X803343Y405471D01*
X803368Y405573D01*
X803396Y405673D01*
X803428Y405773D01*
X803464Y405871D01*
X803503Y405968D01*
X803545Y406063D01*
X803591Y406157D01*
X803641Y406249D01*
X803693Y406339D01*
X803749Y406427D01*
X803809Y406513D01*
X803871Y406597D01*
X803936Y406678D01*
X804004Y406757D01*
X804076Y406834D01*
X804149Y406907D01*
X804226Y406979D01*
X804305Y407047D01*
X804386Y407112D01*
X804470Y407174D01*
X804556Y407234D01*
X804644Y407290D01*
X804734Y407342D01*
X804826Y407392D01*
X804920Y407438D01*
X805015Y407480D01*
X805112Y407519D01*
X805210Y407555D01*
X805310Y407587D01*
X805410Y407615D01*
X805512Y407640D01*
X805614Y407660D01*
X805717Y407678D01*
X805820Y407691D01*
X805924Y407700D01*
X806029Y407706D01*
X806133Y407708D01*
X803275Y404850D02*
X803277Y404732D01*
X803283Y404613D01*
X803292Y404495D01*
X803305Y404378D01*
X803323Y404261D01*
X803343Y404144D01*
X803368Y404028D01*
X803396Y403913D01*
X803429Y403800D01*
X803464Y403687D01*
X803504Y403575D01*
X803546Y403465D01*
X803593Y403356D01*
X803643Y403248D01*
X803696Y403143D01*
X803753Y403039D01*
X803813Y402937D01*
X803876Y402837D01*
X803943Y402739D01*
X804012Y402643D01*
X804085Y402550D01*
X804161Y402459D01*
X804239Y402370D01*
X804321Y402284D01*
X804405Y402201D01*
X804491Y402120D01*
X804581Y402043D01*
X804672Y401968D01*
X804766Y401896D01*
X804863Y401827D01*
X804961Y401762D01*
X805062Y401699D01*
X805165Y401640D01*
X805269Y401584D01*
X805375Y401532D01*
X805483Y401483D01*
X805592Y401438D01*
X805703Y401396D01*
X805815Y401358D01*
X808355Y406755D02*
X808280Y406831D01*
X808201Y406906D01*
X808120Y406977D01*
X808036Y407046D01*
X807950Y407111D01*
X807862Y407173D01*
X807772Y407233D01*
X807680Y407289D01*
X807585Y407342D01*
X807489Y407391D01*
X807391Y407437D01*
X807292Y407480D01*
X807191Y407519D01*
X807089Y407554D01*
X806986Y407586D01*
X806882Y407614D01*
X806777Y407639D01*
X806670Y407660D01*
X806564Y407677D01*
X806457Y407690D01*
X806349Y407699D01*
X806241Y407705D01*
X806133Y407707D01*
X808355Y406755D02*
X814705Y401357D01*
X814705Y407707D01*
D13*
X377698Y273050D02*
X377698Y266700D01*
X377698Y273050D02*
X377698Y279400D01*
D10*
X377698Y273050D02*
X389890Y273050D01*
D13*
X371348Y273050D02*
X371348Y266700D01*
X371348Y273050D02*
X371348Y279400D01*
D10*
X371348Y273050D02*
X359410Y273050D01*
X411480Y262890D02*
X411480Y283210D01*
X408940Y285750D02*
X340360Y285750D01*
X337820Y283210D02*
X337820Y262890D01*
X340360Y260350D02*
X408940Y260350D01*
X340360Y260350D02*
X340260Y260352D01*
X340161Y260358D01*
X340061Y260368D01*
X339963Y260381D01*
X339864Y260399D01*
X339767Y260420D01*
X339671Y260445D01*
X339575Y260474D01*
X339481Y260507D01*
X339388Y260543D01*
X339297Y260583D01*
X339207Y260627D01*
X339119Y260674D01*
X339033Y260724D01*
X338949Y260778D01*
X338867Y260835D01*
X338788Y260895D01*
X338710Y260959D01*
X338636Y261025D01*
X338564Y261094D01*
X338495Y261166D01*
X338429Y261240D01*
X338365Y261318D01*
X338305Y261397D01*
X338248Y261479D01*
X338194Y261563D01*
X338144Y261649D01*
X338097Y261737D01*
X338053Y261827D01*
X338013Y261918D01*
X337977Y262011D01*
X337944Y262105D01*
X337915Y262201D01*
X337890Y262297D01*
X337869Y262394D01*
X337851Y262493D01*
X337838Y262591D01*
X337828Y262691D01*
X337822Y262790D01*
X337820Y262890D01*
X337820Y283210D02*
X337822Y283310D01*
X337828Y283409D01*
X337838Y283509D01*
X337851Y283607D01*
X337869Y283706D01*
X337890Y283803D01*
X337915Y283899D01*
X337944Y283995D01*
X337977Y284089D01*
X338013Y284182D01*
X338053Y284273D01*
X338097Y284363D01*
X338144Y284451D01*
X338194Y284537D01*
X338248Y284621D01*
X338305Y284703D01*
X338365Y284782D01*
X338429Y284860D01*
X338495Y284934D01*
X338564Y285006D01*
X338636Y285075D01*
X338710Y285141D01*
X338788Y285205D01*
X338867Y285265D01*
X338949Y285322D01*
X339033Y285376D01*
X339119Y285426D01*
X339207Y285473D01*
X339297Y285517D01*
X339388Y285557D01*
X339481Y285593D01*
X339575Y285626D01*
X339671Y285655D01*
X339767Y285680D01*
X339864Y285701D01*
X339963Y285719D01*
X340061Y285732D01*
X340161Y285742D01*
X340260Y285748D01*
X340360Y285750D01*
X408940Y285750D02*
X409040Y285748D01*
X409139Y285742D01*
X409239Y285732D01*
X409337Y285719D01*
X409436Y285701D01*
X409533Y285680D01*
X409629Y285655D01*
X409725Y285626D01*
X409819Y285593D01*
X409912Y285557D01*
X410003Y285517D01*
X410093Y285473D01*
X410181Y285426D01*
X410267Y285376D01*
X410351Y285322D01*
X410433Y285265D01*
X410512Y285205D01*
X410590Y285141D01*
X410664Y285075D01*
X410736Y285006D01*
X410805Y284934D01*
X410871Y284860D01*
X410935Y284782D01*
X410995Y284703D01*
X411052Y284621D01*
X411106Y284537D01*
X411156Y284451D01*
X411203Y284363D01*
X411247Y284273D01*
X411287Y284182D01*
X411323Y284089D01*
X411356Y283995D01*
X411385Y283899D01*
X411410Y283803D01*
X411431Y283706D01*
X411449Y283607D01*
X411462Y283509D01*
X411472Y283409D01*
X411478Y283310D01*
X411480Y283210D01*
X411480Y262890D02*
X411478Y262790D01*
X411472Y262691D01*
X411462Y262591D01*
X411449Y262493D01*
X411431Y262394D01*
X411410Y262297D01*
X411385Y262201D01*
X411356Y262105D01*
X411323Y262011D01*
X411287Y261918D01*
X411247Y261827D01*
X411203Y261737D01*
X411156Y261649D01*
X411106Y261563D01*
X411052Y261479D01*
X410995Y261397D01*
X410935Y261318D01*
X410871Y261240D01*
X410805Y261166D01*
X410736Y261094D01*
X410664Y261025D01*
X410590Y260959D01*
X410512Y260895D01*
X410433Y260835D01*
X410351Y260778D01*
X410267Y260724D01*
X410181Y260674D01*
X410093Y260627D01*
X410003Y260583D01*
X409912Y260543D01*
X409819Y260507D01*
X409725Y260474D01*
X409629Y260445D01*
X409533Y260420D01*
X409436Y260399D01*
X409337Y260381D01*
X409239Y260368D01*
X409139Y260358D01*
X409040Y260352D01*
X408940Y260350D01*
D12*
X397473Y244475D02*
X394933Y244475D01*
X394833Y244477D01*
X394734Y244483D01*
X394634Y244493D01*
X394536Y244506D01*
X394437Y244524D01*
X394340Y244545D01*
X394244Y244570D01*
X394148Y244599D01*
X394054Y244632D01*
X393961Y244668D01*
X393870Y244708D01*
X393780Y244752D01*
X393692Y244799D01*
X393606Y244849D01*
X393522Y244903D01*
X393440Y244960D01*
X393361Y245020D01*
X393283Y245084D01*
X393209Y245150D01*
X393137Y245219D01*
X393068Y245291D01*
X393002Y245365D01*
X392938Y245443D01*
X392878Y245522D01*
X392821Y245604D01*
X392767Y245688D01*
X392717Y245774D01*
X392670Y245862D01*
X392626Y245952D01*
X392586Y246043D01*
X392550Y246136D01*
X392517Y246230D01*
X392488Y246326D01*
X392463Y246422D01*
X392442Y246519D01*
X392424Y246618D01*
X392411Y246716D01*
X392401Y246816D01*
X392395Y246915D01*
X392393Y247015D01*
X392393Y253365D01*
X392395Y253465D01*
X392401Y253564D01*
X392411Y253664D01*
X392424Y253762D01*
X392442Y253861D01*
X392463Y253958D01*
X392488Y254054D01*
X392517Y254150D01*
X392550Y254244D01*
X392586Y254337D01*
X392626Y254428D01*
X392670Y254518D01*
X392717Y254606D01*
X392767Y254692D01*
X392821Y254776D01*
X392878Y254858D01*
X392938Y254937D01*
X393002Y255015D01*
X393068Y255089D01*
X393137Y255161D01*
X393209Y255230D01*
X393283Y255296D01*
X393361Y255360D01*
X393440Y255420D01*
X393522Y255477D01*
X393606Y255531D01*
X393692Y255581D01*
X393780Y255628D01*
X393870Y255672D01*
X393961Y255712D01*
X394054Y255748D01*
X394148Y255781D01*
X394244Y255810D01*
X394340Y255835D01*
X394437Y255856D01*
X394536Y255874D01*
X394634Y255887D01*
X394734Y255897D01*
X394833Y255903D01*
X394933Y255905D01*
X397473Y255905D01*
X401955Y244475D02*
X405130Y244475D01*
X405241Y244477D01*
X405351Y244483D01*
X405462Y244492D01*
X405572Y244506D01*
X405681Y244523D01*
X405790Y244544D01*
X405898Y244569D01*
X406005Y244598D01*
X406111Y244630D01*
X406216Y244666D01*
X406319Y244706D01*
X406421Y244749D01*
X406522Y244796D01*
X406621Y244847D01*
X406718Y244900D01*
X406812Y244957D01*
X406905Y245018D01*
X406996Y245081D01*
X407085Y245148D01*
X407171Y245218D01*
X407254Y245291D01*
X407336Y245366D01*
X407414Y245444D01*
X407489Y245526D01*
X407562Y245609D01*
X407632Y245695D01*
X407699Y245784D01*
X407762Y245875D01*
X407823Y245968D01*
X407880Y246062D01*
X407933Y246159D01*
X407984Y246258D01*
X408031Y246359D01*
X408074Y246461D01*
X408114Y246564D01*
X408150Y246669D01*
X408182Y246775D01*
X408211Y246882D01*
X408236Y246990D01*
X408257Y247099D01*
X408274Y247208D01*
X408288Y247318D01*
X408297Y247429D01*
X408303Y247539D01*
X408305Y247650D01*
X408303Y247761D01*
X408297Y247871D01*
X408288Y247982D01*
X408274Y248092D01*
X408257Y248201D01*
X408236Y248310D01*
X408211Y248418D01*
X408182Y248525D01*
X408150Y248631D01*
X408114Y248736D01*
X408074Y248839D01*
X408031Y248941D01*
X407984Y249042D01*
X407933Y249141D01*
X407880Y249237D01*
X407823Y249332D01*
X407762Y249425D01*
X407699Y249516D01*
X407632Y249605D01*
X407562Y249691D01*
X407489Y249774D01*
X407414Y249856D01*
X407336Y249934D01*
X407254Y250009D01*
X407171Y250082D01*
X407085Y250152D01*
X406996Y250219D01*
X406905Y250282D01*
X406812Y250343D01*
X406718Y250400D01*
X406621Y250453D01*
X406522Y250504D01*
X406421Y250551D01*
X406319Y250594D01*
X406216Y250634D01*
X406111Y250670D01*
X406005Y250702D01*
X405898Y250731D01*
X405790Y250756D01*
X405681Y250777D01*
X405572Y250794D01*
X405462Y250808D01*
X405351Y250817D01*
X405241Y250823D01*
X405130Y250825D01*
X405765Y255905D02*
X401955Y255905D01*
X405765Y255905D02*
X405865Y255903D01*
X405964Y255897D01*
X406064Y255887D01*
X406162Y255874D01*
X406261Y255856D01*
X406358Y255835D01*
X406454Y255810D01*
X406550Y255781D01*
X406644Y255748D01*
X406737Y255712D01*
X406828Y255672D01*
X406918Y255628D01*
X407006Y255581D01*
X407092Y255531D01*
X407176Y255477D01*
X407258Y255420D01*
X407337Y255360D01*
X407415Y255296D01*
X407489Y255230D01*
X407561Y255161D01*
X407630Y255089D01*
X407696Y255015D01*
X407760Y254937D01*
X407820Y254858D01*
X407877Y254776D01*
X407931Y254692D01*
X407981Y254606D01*
X408028Y254518D01*
X408072Y254428D01*
X408112Y254337D01*
X408148Y254244D01*
X408181Y254150D01*
X408210Y254054D01*
X408235Y253958D01*
X408256Y253861D01*
X408274Y253762D01*
X408287Y253664D01*
X408297Y253564D01*
X408303Y253465D01*
X408305Y253365D01*
X408303Y253265D01*
X408297Y253166D01*
X408287Y253066D01*
X408274Y252968D01*
X408256Y252869D01*
X408235Y252772D01*
X408210Y252676D01*
X408181Y252580D01*
X408148Y252486D01*
X408112Y252393D01*
X408072Y252302D01*
X408028Y252212D01*
X407981Y252124D01*
X407931Y252038D01*
X407877Y251954D01*
X407820Y251872D01*
X407760Y251793D01*
X407696Y251715D01*
X407630Y251641D01*
X407561Y251569D01*
X407489Y251500D01*
X407415Y251434D01*
X407337Y251370D01*
X407258Y251310D01*
X407176Y251253D01*
X407092Y251199D01*
X407006Y251149D01*
X406918Y251102D01*
X406828Y251058D01*
X406737Y251018D01*
X406644Y250982D01*
X406550Y250949D01*
X406454Y250920D01*
X406358Y250895D01*
X406261Y250874D01*
X406162Y250856D01*
X406064Y250843D01*
X405964Y250833D01*
X405865Y250827D01*
X405765Y250825D01*
X403225Y250825D01*
M02*
