G04 EAGLE Gerber RS-274X export*
G75*
%MOMM*%
%FSLAX34Y34*%
%LPD*%
%INSoldermask Bottom*%
%IPPOS*%
%AMOC8*
5,1,8,0,0,1.08239X$1,22.5*%
G01*
%ADD10C,2.032000*%
%ADD11C,2.235200*%
%ADD12P,2.199416X8X292.500000*%
%ADD13P,2.199416X8X112.500000*%
%ADD14P,2.199416X8X202.500000*%
%ADD15C,2.303200*%
%ADD16C,2.203200*%


D10*
X561594Y311150D02*
X543306Y311150D01*
X543306Y336550D02*
X561594Y336550D01*
X561594Y361950D02*
X543306Y361950D01*
X543306Y387350D02*
X561594Y387350D01*
X561594Y412750D02*
X543306Y412750D01*
X543306Y438150D02*
X561594Y438150D01*
X561594Y463550D02*
X543306Y463550D01*
X543306Y488950D02*
X561594Y488950D01*
X561594Y514350D02*
X543306Y514350D01*
X543306Y539750D02*
X561594Y539750D01*
X561594Y565150D02*
X543306Y565150D01*
X543306Y590550D02*
X561594Y590550D01*
X561594Y615950D02*
X543306Y615950D01*
X543306Y641350D02*
X561594Y641350D01*
X409194Y641350D02*
X390906Y641350D01*
X390906Y615950D02*
X409194Y615950D01*
X409194Y590550D02*
X390906Y590550D01*
X390906Y565150D02*
X409194Y565150D01*
X409194Y539750D02*
X390906Y539750D01*
X390906Y514350D02*
X409194Y514350D01*
X409194Y488950D02*
X390906Y488950D01*
X390906Y463550D02*
X409194Y463550D01*
X409194Y438150D02*
X390906Y438150D01*
X390906Y412750D02*
X409194Y412750D01*
X409194Y387350D02*
X390906Y387350D01*
X390906Y361950D02*
X409194Y361950D01*
X409194Y336550D02*
X390906Y336550D01*
X390906Y311150D02*
X409194Y311150D01*
X857250Y492506D02*
X857250Y510794D01*
X882650Y510794D02*
X882650Y492506D01*
X1009650Y492506D02*
X1009650Y510794D01*
X1009650Y568706D02*
X1009650Y586994D01*
X908050Y510794D02*
X908050Y492506D01*
X933450Y492506D02*
X933450Y510794D01*
X984250Y510794D02*
X984250Y492506D01*
X958850Y492506D02*
X958850Y510794D01*
X984250Y568706D02*
X984250Y586994D01*
X958850Y586994D02*
X958850Y568706D01*
X933450Y568706D02*
X933450Y586994D01*
X908050Y586994D02*
X908050Y568706D01*
X882650Y568706D02*
X882650Y586994D01*
X857250Y586994D02*
X857250Y568706D01*
X869950Y320294D02*
X869950Y302006D01*
X895350Y302006D02*
X895350Y320294D01*
X1022350Y320294D02*
X1022350Y302006D01*
X1022350Y378206D02*
X1022350Y396494D01*
X920750Y320294D02*
X920750Y302006D01*
X946150Y302006D02*
X946150Y320294D01*
X996950Y320294D02*
X996950Y302006D01*
X971550Y302006D02*
X971550Y320294D01*
X996950Y378206D02*
X996950Y396494D01*
X971550Y396494D02*
X971550Y378206D01*
X946150Y378206D02*
X946150Y396494D01*
X920750Y396494D02*
X920750Y378206D01*
X895350Y378206D02*
X895350Y396494D01*
X869950Y396494D02*
X869950Y378206D01*
D11*
X260350Y831850D03*
X285750Y831850D03*
X311150Y831850D03*
X336550Y831850D03*
X361950Y831850D03*
X387350Y831850D03*
X412750Y831850D03*
X438150Y831850D03*
X463550Y831850D03*
X488950Y831850D03*
X514350Y831850D03*
X539750Y831850D03*
X565150Y831850D03*
X590550Y831850D03*
X615950Y831850D03*
X641350Y831850D03*
X666750Y831850D03*
X692150Y831850D03*
X717550Y831850D03*
X742950Y831850D03*
X768350Y831850D03*
X793750Y831850D03*
X819150Y831850D03*
X844550Y831850D03*
X869950Y831850D03*
X895350Y831850D03*
X920750Y831850D03*
X946150Y831850D03*
X971550Y831850D03*
X996950Y831850D03*
X1022350Y831850D03*
X1047750Y831850D03*
X1073150Y831850D03*
X1098550Y831850D03*
X1123950Y831850D03*
X1149350Y831850D03*
X1174750Y831850D03*
X1200150Y831850D03*
X1225550Y831850D03*
X1250950Y831850D03*
D12*
X819150Y565150D03*
X819150Y514350D03*
D13*
X831850Y400050D03*
X831850Y450850D03*
D14*
X400050Y273050D03*
X349250Y273050D03*
D15*
X679450Y298450D03*
X349250Y298450D03*
X514350Y273050D03*
X793750Y273050D03*
X336550Y806450D03*
X628650Y336550D03*
X628650Y146050D03*
X171450Y806450D03*
X374650Y412750D03*
X374650Y730250D03*
X628650Y704850D03*
X628650Y438150D03*
D16*
X590550Y463550D03*
D15*
X590550Y730250D03*
X615950Y755650D03*
X615950Y488950D03*
X660400Y673100D03*
X660400Y514350D03*
X641350Y539750D03*
X641350Y806450D03*
X908050Y704850D03*
X908050Y622300D03*
X920750Y755650D03*
X692150Y565150D03*
X692150Y749300D03*
X692150Y704850D03*
X946150Y736600D03*
X717550Y590550D03*
X717550Y736600D03*
X717550Y685800D03*
X971550Y717550D03*
X742950Y615950D03*
X742950Y717550D03*
X742950Y673100D03*
X336550Y641350D03*
X120650Y641350D03*
X342900Y615950D03*
X95250Y615950D03*
X349250Y590550D03*
X69850Y590550D03*
X361950Y565150D03*
X44450Y565150D03*
X361950Y539750D03*
X19050Y539750D03*
X330200Y336550D03*
X330200Y196850D03*
X317500Y463550D03*
X933450Y641350D03*
X1009650Y641350D03*
X317500Y171450D03*
X361950Y514350D03*
X895350Y228600D03*
X146050Y234950D03*
X146050Y508000D03*
M02*
