G04 EAGLE Gerber RS-274X export*
G75*
%MOMM*%
%FSLAX34Y34*%
%LPD*%
%INSoldermask Top*%
%IPPOS*%
%AMOC8*
5,1,8,0,0,1.08239X$1,22.5*%
G01*
%ADD10C,2.032000*%
%ADD11C,2.235200*%
%ADD12P,2.199416X8X22.500000*%
%ADD13P,2.199416X8X292.500000*%
%ADD14C,2.203200*%


D10*
X1012444Y19050D02*
X994156Y19050D01*
X994156Y44450D02*
X1012444Y44450D01*
X1012444Y69850D02*
X994156Y69850D01*
X994156Y95250D02*
X1012444Y95250D01*
X1012444Y120650D02*
X994156Y120650D01*
X994156Y146050D02*
X1012444Y146050D01*
X1012444Y171450D02*
X994156Y171450D01*
X994156Y196850D02*
X1012444Y196850D01*
X1012444Y222250D02*
X994156Y222250D01*
X994156Y247650D02*
X1012444Y247650D01*
X1012444Y273050D02*
X994156Y273050D01*
X994156Y298450D02*
X1012444Y298450D01*
X1012444Y323850D02*
X994156Y323850D01*
X994156Y349250D02*
X1012444Y349250D01*
X860044Y349250D02*
X841756Y349250D01*
X841756Y323850D02*
X860044Y323850D01*
X860044Y298450D02*
X841756Y298450D01*
X841756Y273050D02*
X860044Y273050D01*
X860044Y247650D02*
X841756Y247650D01*
X841756Y222250D02*
X860044Y222250D01*
X860044Y196850D02*
X841756Y196850D01*
X841756Y171450D02*
X860044Y171450D01*
X860044Y146050D02*
X841756Y146050D01*
X841756Y120650D02*
X860044Y120650D01*
X860044Y95250D02*
X841756Y95250D01*
X841756Y69850D02*
X860044Y69850D01*
X860044Y44450D02*
X841756Y44450D01*
X841756Y19050D02*
X860044Y19050D01*
X244094Y69850D02*
X225806Y69850D01*
X225806Y95250D02*
X244094Y95250D01*
X244094Y222250D02*
X225806Y222250D01*
X167894Y222250D02*
X149606Y222250D01*
X225806Y120650D02*
X244094Y120650D01*
X244094Y146050D02*
X225806Y146050D01*
X225806Y196850D02*
X244094Y196850D01*
X244094Y171450D02*
X225806Y171450D01*
X167894Y196850D02*
X149606Y196850D01*
X149606Y171450D02*
X167894Y171450D01*
X167894Y146050D02*
X149606Y146050D01*
X149606Y120650D02*
X167894Y120650D01*
X167894Y95250D02*
X149606Y95250D01*
X149606Y69850D02*
X167894Y69850D01*
X190500Y302006D02*
X190500Y320294D01*
X215900Y320294D02*
X215900Y302006D01*
X342900Y302006D02*
X342900Y320294D01*
X342900Y378206D02*
X342900Y396494D01*
X241300Y320294D02*
X241300Y302006D01*
X266700Y302006D02*
X266700Y320294D01*
X317500Y320294D02*
X317500Y302006D01*
X292100Y302006D02*
X292100Y320294D01*
X317500Y378206D02*
X317500Y396494D01*
X292100Y396494D02*
X292100Y378206D01*
X266700Y378206D02*
X266700Y396494D01*
X241300Y396494D02*
X241300Y378206D01*
X215900Y378206D02*
X215900Y396494D01*
X190500Y396494D02*
X190500Y378206D01*
X663956Y374650D02*
X682244Y374650D01*
X682244Y400050D02*
X663956Y400050D01*
X663956Y425450D02*
X682244Y425450D01*
X682244Y450850D02*
X663956Y450850D01*
X663956Y476250D02*
X682244Y476250D01*
X682244Y501650D02*
X663956Y501650D01*
X663956Y527050D02*
X682244Y527050D01*
X682244Y552450D02*
X663956Y552450D01*
X663956Y577850D02*
X682244Y577850D01*
X682244Y603250D02*
X663956Y603250D01*
X663956Y628650D02*
X682244Y628650D01*
X682244Y654050D02*
X663956Y654050D01*
X663956Y679450D02*
X682244Y679450D01*
X682244Y704850D02*
X663956Y704850D01*
X529844Y704850D02*
X511556Y704850D01*
X511556Y679450D02*
X529844Y679450D01*
X529844Y654050D02*
X511556Y654050D01*
X511556Y628650D02*
X529844Y628650D01*
X529844Y603250D02*
X511556Y603250D01*
X511556Y577850D02*
X529844Y577850D01*
X529844Y552450D02*
X511556Y552450D01*
X511556Y527050D02*
X529844Y527050D01*
X529844Y501650D02*
X511556Y501650D01*
X511556Y476250D02*
X529844Y476250D01*
X529844Y450850D02*
X511556Y450850D01*
X511556Y425450D02*
X529844Y425450D01*
X529844Y400050D02*
X511556Y400050D01*
X511556Y374650D02*
X529844Y374650D01*
X421894Y69850D02*
X403606Y69850D01*
X403606Y95250D02*
X421894Y95250D01*
X421894Y222250D02*
X403606Y222250D01*
X345694Y222250D02*
X327406Y222250D01*
X403606Y120650D02*
X421894Y120650D01*
X421894Y146050D02*
X403606Y146050D01*
X403606Y196850D02*
X421894Y196850D01*
X421894Y171450D02*
X403606Y171450D01*
X345694Y196850D02*
X327406Y196850D01*
X327406Y171450D02*
X345694Y171450D01*
X345694Y146050D02*
X327406Y146050D01*
X327406Y120650D02*
X345694Y120650D01*
X345694Y95250D02*
X327406Y95250D01*
X327406Y69850D02*
X345694Y69850D01*
D11*
X19050Y875030D02*
X19050Y895350D01*
X44450Y895350D02*
X44450Y875030D01*
X69850Y875030D02*
X69850Y895350D01*
X95250Y895350D02*
X95250Y875030D01*
X120650Y875030D02*
X120650Y895350D01*
X146050Y895350D02*
X146050Y875030D01*
X171450Y875030D02*
X171450Y895350D01*
X196850Y895350D02*
X196850Y875030D01*
X222250Y875030D02*
X222250Y895350D01*
X247650Y895350D02*
X247650Y875030D01*
X273050Y875030D02*
X273050Y895350D01*
X298450Y895350D02*
X298450Y875030D01*
X323850Y875030D02*
X323850Y895350D01*
X349250Y895350D02*
X349250Y875030D01*
X374650Y875030D02*
X374650Y895350D01*
X400050Y895350D02*
X400050Y875030D01*
X425450Y875030D02*
X425450Y895350D01*
X450850Y895350D02*
X450850Y875030D01*
X476250Y875030D02*
X476250Y895350D01*
X501650Y895350D02*
X501650Y875030D01*
X527050Y875030D02*
X527050Y895350D01*
X552450Y895350D02*
X552450Y875030D01*
X577850Y875030D02*
X577850Y895350D01*
X603250Y895350D02*
X603250Y875030D01*
X628650Y875030D02*
X628650Y895350D01*
X654050Y895350D02*
X654050Y875030D01*
X679450Y875030D02*
X679450Y895350D01*
X704850Y895350D02*
X704850Y875030D01*
X730250Y875030D02*
X730250Y895350D01*
X755650Y895350D02*
X755650Y875030D01*
X781050Y875030D02*
X781050Y895350D01*
X806450Y895350D02*
X806450Y875030D01*
X831850Y875030D02*
X831850Y895350D01*
X857250Y895350D02*
X857250Y875030D01*
X882650Y875030D02*
X882650Y895350D01*
X908050Y895350D02*
X908050Y875030D01*
X933450Y875030D02*
X933450Y895350D01*
X958850Y895350D02*
X958850Y875030D01*
X984250Y875030D02*
X984250Y895350D01*
X1009650Y895350D02*
X1009650Y875030D01*
X19050Y54610D02*
X19050Y34290D01*
X44450Y34290D02*
X44450Y54610D01*
X69850Y54610D02*
X69850Y34290D01*
X304800Y669290D02*
X304800Y689610D01*
X330200Y689610D02*
X330200Y669290D01*
X355600Y669290D02*
X355600Y689610D01*
X38100Y391160D02*
X38100Y370840D01*
X63500Y370840D02*
X63500Y391160D01*
X88900Y391160D02*
X88900Y370840D01*
X19050Y289560D02*
X19050Y269240D01*
X44450Y269240D02*
X44450Y289560D01*
X69850Y289560D02*
X69850Y269240D01*
X19050Y143510D02*
X19050Y123190D01*
X44450Y123190D02*
X44450Y143510D01*
X69850Y143510D02*
X69850Y123190D01*
D12*
X158750Y19050D03*
X209550Y19050D03*
X336550Y19050D03*
X387350Y19050D03*
D13*
X133350Y387350D03*
X133350Y336550D03*
D14*
X1308100Y349250D03*
X1035050Y349250D03*
X101600Y44450D03*
X247650Y19050D03*
X1085850Y19050D03*
X571500Y19050D03*
X425450Y19050D03*
X298450Y19050D03*
X450850Y850900D03*
X158750Y387350D03*
X374650Y393700D03*
X488950Y374650D03*
X425450Y44450D03*
X298450Y44450D03*
X723900Y400050D03*
X1035050Y44450D03*
X1085850Y44450D03*
X450850Y95250D03*
X95250Y476250D03*
X476250Y95250D03*
X19050Y444500D03*
X158750Y285750D03*
X158750Y311150D03*
X127000Y120650D03*
X704850Y374650D03*
X44450Y463550D03*
X107950Y196850D03*
X127000Y196850D03*
X641350Y69850D03*
X107950Y425450D03*
X571500Y69850D03*
X88900Y95250D03*
X69850Y95250D03*
X463550Y69850D03*
X660400Y196850D03*
X393700Y349250D03*
X393700Y552450D03*
X495300Y196850D03*
X171450Y476250D03*
X641350Y120650D03*
X171450Y577850D03*
X469900Y476250D03*
X469900Y349250D03*
X571500Y120650D03*
X196850Y577850D03*
X196850Y450850D03*
X444500Y450850D03*
X444500Y349250D03*
X571500Y95250D03*
X641350Y95250D03*
X749300Y425450D03*
X1035050Y69850D03*
X222250Y577850D03*
X1098550Y69850D03*
X774700Y450850D03*
X1035050Y95250D03*
X247650Y577850D03*
X1117600Y95250D03*
X800100Y476250D03*
X1035050Y120650D03*
X273050Y577850D03*
X1136650Y120650D03*
X1155700Y146050D03*
X1035050Y146050D03*
X1174750Y171450D03*
X1035050Y171450D03*
X1193800Y196850D03*
X1035050Y196850D03*
X1212850Y222250D03*
X1035050Y222250D03*
X1231900Y247650D03*
X1035050Y247650D03*
X577850Y850900D03*
X298450Y171450D03*
X603250Y850900D03*
X273050Y146050D03*
X628650Y850900D03*
X273050Y69850D03*
X704850Y628650D03*
X1035050Y273050D03*
X704850Y736600D03*
X1250950Y273050D03*
X730250Y654050D03*
X1035050Y298450D03*
X730250Y736600D03*
X1270000Y298450D03*
X755650Y679450D03*
X1035050Y323850D03*
X755650Y736600D03*
X1289050Y323850D03*
X781050Y768350D03*
X482600Y704850D03*
X736600Y349250D03*
X781050Y736600D03*
X806450Y781050D03*
X457200Y679450D03*
X755650Y323850D03*
X806450Y736600D03*
X831850Y793750D03*
X431800Y654050D03*
X774700Y298450D03*
X831850Y736600D03*
X857250Y806450D03*
X406400Y628650D03*
X793750Y273050D03*
X857250Y736600D03*
X882650Y825500D03*
X381000Y603250D03*
X812800Y247650D03*
X882650Y736600D03*
X660400Y171450D03*
X419100Y527050D03*
X520700Y171450D03*
X419100Y330200D03*
X273050Y120650D03*
X520700Y120650D03*
X457200Y400050D03*
X273050Y196850D03*
X215900Y273050D03*
X660400Y222250D03*
X292100Y273050D03*
X44450Y88900D03*
X317500Y273050D03*
X444500Y146050D03*
X304800Y635000D03*
X444500Y171450D03*
X114300Y146050D03*
X469900Y171450D03*
X355600Y635000D03*
X444500Y196850D03*
X114300Y95250D03*
X63500Y342900D03*
X38100Y342900D03*
X266700Y273050D03*
X19050Y88900D03*
X450850Y120650D03*
M02*
