M48
;GenerationSoftware,Autodesk,EAGLE,9.6.2*%
;CreationDate,2022-02-26T12:39:35Z*%
FMAT,2
ICI,OFF
METRIC,TZ,000.000
T4C0.813
T3C0.900
T2C1.016
%
G90
M71
T2
X126365Y-81915
X136525Y-81915
X133985Y-84455
X133985Y-81915
X131445Y-84455
X131445Y-81915
X128905Y-84455
X128905Y-81915
X126365Y-84455
X136525Y-84455
X101600Y-87630
X99060Y-87630
X96520Y-87630
X93980Y-87630
X91440Y-87630
X88900Y-87630
X86360Y-87630
X63500Y-87630
X139065Y-81915
X139065Y-84455
X141605Y-81915
X141605Y-84455
X144145Y-81915
X144145Y-84455
X144780Y-10160
X144780Y-12700
X144780Y-15240
X144780Y-17780
X144780Y-20320
X144780Y-22860
X144780Y-25400
X144780Y-27940
X144780Y-30480
X81280Y-87630
X60960Y-87630
X58420Y-87630
X55880Y-87630
X53340Y-87630
X50800Y-87630
X48260Y-87630
X45720Y-87630
X43180Y-87630
X40640Y-87630
X38100Y-87630
X35560Y-87630
X33020Y-87630
X30480Y-87630
X27940Y-87630
X25400Y-87630
X20320Y-87630
X83820Y-87630
X78740Y-87630
X76200Y-87630
X73660Y-87630
X71120Y-87630
X68580Y-87630
X66040Y-87630
X5080Y-87630
X7620Y-87630
X10160Y-87630
X12700Y-87630
X15240Y-87630
X17780Y-87630
X22860Y-87630
X2540Y-87630
T3
X127635Y-39370
X127635Y-17780
X125095Y-41910
X125095Y-20320
X122555Y-44450
X122555Y-22860
X120015Y-46990
X120015Y-25400
X117475Y-49530
X117475Y-27940
X45720Y-57150
X33655Y-57150
X48260Y-67310
X78740Y-9525
X78740Y-70485
X12700Y-71120
X81280Y-38735
X81280Y-6985
X81280Y-76200
X9525Y-74295
X83820Y-40640
X83820Y-4445
X83820Y-79375
X6350Y-78740
X86360Y-1905
X86360Y-82550
X2540Y-82550
X86360Y-38735
X78740Y-40640
X97790Y-67310
X40005Y-71755
X103505Y-71755
X144145Y-66040
X139065Y-66040
X114935Y-52070
X114935Y-84455
X101600Y-80645
X19685Y-80645
X57150Y-15875
X57150Y-33655
X54610Y-17780
X54610Y-41275
X52070Y-15875
X52070Y-43815
X68580Y-32385
X33655Y-31115
X46990Y-23495
X38100Y-23495
X38100Y-57150
X91440Y-54610
X91440Y-65405
X38100Y-74930
X108585Y-74930
X111125Y-77470
X40640Y-77470
X60960Y-73660
X106045Y-73660
X66040Y-69215
X100965Y-69215
X68580Y-19685
X130175Y-36830
X59055Y-36195
X68580Y-36195
X71120Y-34925
X71120Y-17145
X57150Y-38735
X71120Y-38735
X73660Y-14605
X73660Y-36830
X53340Y-46355
X73660Y-46355
X76200Y-38735
X76200Y-12065
X51435Y-48895
X76200Y-48895
X49530Y-51435
X31115Y-20320
X31115Y-51435
X29210Y-24130
X29210Y-43815
X26670Y-27940
X26670Y-41275
X137160Y-30480
X137795Y-10160
X132715Y-34290
X132715Y-12700
X130175Y-15240
X49530Y-17780
T4
X10795Y-27940
X144780Y-52070
X18415Y-31750
X10795Y-31750
X137160Y-52070
X137160Y-49530
X137160Y-36830
X137160Y-34290
X137160Y-46990
X137160Y-44450
X137160Y-39370
X137160Y-41910
X144780Y-34290
X144780Y-36830
X144780Y-39370
X144780Y-41910
X144780Y-44450
X144780Y-46990
X144780Y-49530
X120015Y-10160
X43180Y-59690
X35560Y-59690
X135255Y-2540
X135255Y-10160
X132715Y-2540
X132715Y-10160
X130175Y-2540
X130175Y-10160
X127635Y-2540
X127635Y-10160
X125095Y-2540
X125095Y-10160
X122555Y-2540
X122555Y-10160
X120015Y-2540
X18415Y-27940
X117475Y-2540
X117475Y-10160
X17780Y-5080
X10160Y-5080
X18415Y-8890
X10795Y-8890
X18415Y-12700
X10795Y-12700
X18415Y-16510
X10795Y-16510
X18415Y-20320
X10795Y-20320
X18415Y-24130
X10795Y-24130
X2540Y-24130
X30480Y-62230
X30480Y-69850
X33020Y-62230
X33020Y-69850
X35560Y-62230
X35560Y-69850
X5080Y-31750
X2540Y-31750
X7620Y-27940
X5080Y-27940
X5080Y-24130
X27940Y-69850
X123825Y-69850
X126365Y-69850
X139065Y-69850
X141605Y-69850
X128905Y-69850
X131445Y-69850
X136525Y-69850
X133985Y-69850
X141605Y-77470
X139065Y-77470
X5080Y-16510
X38100Y-27305
X43180Y-27305
X88265Y-31750
X88265Y-26670
X118745Y-76835
X118745Y-71755
X22860Y-62230
X22860Y-69850
X7620Y-20320
X5080Y-20320
X136525Y-77470
X2540Y-16510
X7620Y-12700
X5080Y-12700
X5080Y-8890
X2540Y-8890
X7620Y-5080
X5080Y-5080
X25400Y-62230
X25400Y-69850
X27940Y-62230
X45720Y-51435
X96520Y-31115
X93980Y-31115
X91440Y-31115
X45720Y-31115
X45720Y-33655
X45720Y-46355
X45720Y-48895
X45720Y-36195
X45720Y-38735
X45720Y-43815
X45720Y-41275
X99060Y-31115
X45720Y-53975
X38100Y-53975
X38100Y-51435
X38100Y-48895
X38100Y-46355
X38100Y-43815
X38100Y-41275
X38100Y-38735
X38100Y-36195
X38100Y-33655
X99060Y-23495
X133985Y-77470
X131445Y-77470
X128905Y-77470
X126365Y-77470
X123825Y-77470
X91440Y-23495
X93980Y-23495
X106680Y-23495
X109220Y-23495
X96520Y-23495
X38100Y-31115
X104140Y-23495
X101600Y-23495
X111760Y-23495
X114300Y-23495
X114300Y-31115
X111760Y-31115
X109220Y-31115
X106680Y-31115
X104140Y-31115
X101600Y-31115
M30