M48
;GenerationSoftware,Autodesk,EAGLE,9.6.2*%
;CreationDate,2022-02-26T12:38:41Z*%
FMAT,2
ICI,OFF
METRIC,TZ,000.000
T4C0.813
T3C0.900
T2C1.016
%
G90
M71
T2
X102235Y-83185
X76835Y-83185
X79375Y-83185
X81915Y-83185
X84455Y-83185
X86995Y-83185
X89535Y-83185
X92075Y-83185
X94615Y-83185
X97155Y-83185
X99695Y-83185
X26035Y-83185
X104775Y-83185
X107315Y-83185
X109855Y-83185
X112395Y-83185
X114935Y-83185
X117475Y-83185
X120015Y-83185
X122555Y-83185
X125095Y-83185
X71755Y-83185
X28575Y-83185
X31115Y-83185
X33655Y-83185
X36195Y-83185
X38735Y-83185
X41275Y-83185
X43815Y-83185
X46355Y-83185
X48895Y-83185
X53975Y-83185
X74295Y-83185
X69215Y-83185
X66675Y-83185
X64135Y-83185
X61595Y-83185
X59055Y-83185
X56515Y-83185
X51435Y-83185
T3
X34925Y-29845
X67945Y-29845
X14605Y-50800
X14605Y-23495
X89535Y-22860
X36195Y-51435
X31750Y-17145
X100965Y-64135
X61595Y-75565
X94615Y-73660
X69215Y-70485
X69215Y-74930
X69215Y-56515
X92075Y-75565
X90805Y-62230
X90805Y-70485
X64135Y-80645
X64135Y-53975
X66040Y-51435
X66040Y-67310
X61595Y-48895
X31750Y-46355
X59055Y-73025
X59055Y-46355
X62865Y-43815
X62865Y-70485
X37465Y-73025
X37465Y-41275
X17145Y-80645
X62865Y-14605
X62865Y-33655
X33655Y-80645
X79375Y-27305
X51435Y-27305
X6985Y-59055
X93345Y-64135
X33020Y-19685
X33020Y-33655
X1905Y-53975
X36195Y-53975
X4445Y-56515
X71755Y-59055
X36195Y-56515
X34925Y-59055
X9525Y-61595
X34290Y-61595
X12065Y-64135
X33655Y-64135
X74295Y-67310
X74295Y-71755
X74295Y-61595
X97155Y-71755
X71755Y-68580
X71755Y-73660
T4
X97155Y-38735
X94615Y-38735
X92075Y-38735
X89535Y-38735
X86995Y-38735
X34925Y-27305
X40005Y-27305
X83185Y-45085
X83185Y-40005
X81915Y-51435
X81915Y-56515
X55245Y-61595
X40005Y-38735
X40005Y-41275
X40005Y-43815
X40005Y-46355
X40005Y-48895
X40005Y-51435
X40005Y-53975
X40005Y-56515
X40005Y-59055
X40005Y-61595
X40005Y-64135
X55245Y-64135
X40005Y-36195
X55245Y-59055
X55245Y-56515
X55245Y-53975
X55245Y-51435
X55245Y-48895
X55245Y-46355
X55245Y-43815
X55245Y-41275
X55245Y-38735
X55245Y-36195
X55245Y-33655
X55245Y-31115
X95885Y-57785
X97155Y-31115
X99695Y-31115
X94615Y-31115
X92075Y-31115
X102235Y-38735
X102235Y-31115
X89535Y-31115
X86995Y-31115
X85725Y-57785
X88265Y-57785
X90805Y-57785
X93345Y-57785
X99695Y-38735
X98425Y-57785
X95885Y-50165
X98425Y-50165
X93345Y-50165
X90805Y-50165
X100965Y-57785
X100965Y-50165
X88265Y-50165
X85725Y-50165
X40005Y-31115
X40005Y-33655
M30