M48
;GenerationSoftware,Autodesk,EAGLE,9.6.2*%
;CreationDate,2022-02-22T12:45:26Z*%
FMAT,2
ICI,OFF
METRIC,TZ,000.000
T4C0.813
T3C0.900
T2C1.016
%
G90
M71
T2
X76200Y-77470
X66040Y-77470
X68580Y-77470
X71120Y-77470
X73660Y-77470
X8890Y-38100
X8890Y-35560
X2540Y-5080
X2540Y-7620
X2540Y-10160
X2540Y-12700
X2540Y-15240
X2540Y-17780
X63500Y-77470
X78740Y-77470
X81280Y-77470
X83820Y-77470
X86360Y-77470
X88900Y-77470
X13970Y-10160
X16510Y-10160
X101600Y-77470
X99060Y-77470
X96520Y-77470
X93980Y-77470
X91440Y-77470
X10160Y-77470
X40640Y-77470
X38100Y-77470
X35560Y-77470
X33020Y-77470
X30480Y-77470
X27940Y-77470
X25400Y-77470
X22860Y-77470
X20320Y-77470
X17780Y-77470
X15240Y-77470
X12700Y-77470
X7620Y-77470
X5080Y-77470
X2540Y-77470
X43180Y-77470
X45720Y-77470
X48260Y-77470
X50800Y-77470
X53340Y-77470
X55880Y-77470
X58420Y-77470
X60960Y-77470
T3
X54610Y-54610
X66040Y-48260
X27940Y-33020
X34290Y-21590
X27940Y-22860
X50800Y-20320
X20320Y-22860
X13970Y-22860
X39370Y-54610
X27940Y-72390
X20320Y-72390
X35560Y-35560
X35560Y-59690
X35560Y-38100
X13970Y-38100
X66040Y-13970
X41910Y-2540
X41910Y-7620
X48260Y-2540
X48260Y-11430
X36830Y-15240
X45720Y-15240
X17780Y-69850
X58420Y-54610
X60960Y-54610
X60960Y-16510
X43180Y-69850
X27940Y-69850
T4
X8890Y-22860
X19050Y-15240
X8890Y-30480
X26670Y-2540
X19050Y-2540
X26670Y-5080
X19050Y-5080
X26670Y-15240
X39370Y-43180
X54610Y-30480
X54610Y-27940
X54610Y-25400
X54610Y-22860
X39370Y-22860
X39370Y-25400
X39370Y-27940
X39370Y-30480
X39370Y-40640
X39370Y-38100
X54610Y-33020
X39370Y-45720
X39370Y-33020
X39370Y-35560
X39370Y-48260
X39370Y-50800
X34290Y-17780
X39370Y-17780
X68580Y-16510
X68580Y-21590
X87630Y-13970
X74930Y-21590
X77470Y-21590
X80010Y-21590
X82550Y-21590
X85090Y-21590
X82550Y-13970
X85090Y-13970
X80010Y-13970
X77470Y-13970
X87630Y-21590
X72390Y-21590
X74930Y-13970
X72390Y-13970
X54610Y-50800
X54610Y-48260
X54610Y-45720
X54610Y-43180
X54610Y-40640
X54610Y-38100
X54610Y-35560
M30