G04 EAGLE Gerber RS-274X export*
G75*
%MOMM*%
%FSLAX34Y34*%
%LPD*%
%INBottom Copper*%
%IPPOS*%
%AMOC8*
5,1,8,0,0,1.08239X$1,22.5*%
G01*
%ADD10P,1.979475X8X112.500000*%
%ADD11P,1.979475X8X202.500000*%
%ADD12C,1.828800*%
%ADD13C,2.032000*%
%ADD14P,1.979475X8X22.500000*%
%ADD15C,2.000000*%
%ADD16C,1.270000*%


D10*
X685800Y-215900D03*
X685800Y-165100D03*
D11*
X393700Y-177800D03*
X342900Y-177800D03*
D12*
X384556Y-508000D02*
X402844Y-508000D01*
X402844Y-482600D02*
X384556Y-482600D01*
X384556Y-355600D02*
X402844Y-355600D01*
X402844Y-330200D02*
X384556Y-330200D01*
X384556Y-457200D02*
X402844Y-457200D01*
X402844Y-431800D02*
X384556Y-431800D01*
X384556Y-381000D02*
X402844Y-381000D01*
X402844Y-406400D02*
X384556Y-406400D01*
X384556Y-304800D02*
X402844Y-304800D01*
X402844Y-279400D02*
X384556Y-279400D01*
X384556Y-254000D02*
X402844Y-254000D01*
X402844Y-228600D02*
X384556Y-228600D01*
X536956Y-228600D02*
X555244Y-228600D01*
X555244Y-254000D02*
X536956Y-254000D01*
X536956Y-279400D02*
X555244Y-279400D01*
X555244Y-304800D02*
X536956Y-304800D01*
X536956Y-330200D02*
X555244Y-330200D01*
X555244Y-355600D02*
X536956Y-355600D01*
X536956Y-381000D02*
X555244Y-381000D01*
X555244Y-406400D02*
X536956Y-406400D01*
X536956Y-431800D02*
X555244Y-431800D01*
X555244Y-457200D02*
X536956Y-457200D01*
X536956Y-482600D02*
X555244Y-482600D01*
X555244Y-508000D02*
X536956Y-508000D01*
X723900Y-148844D02*
X723900Y-130556D01*
X749300Y-130556D02*
X749300Y-148844D01*
X876300Y-148844D02*
X876300Y-130556D01*
X876300Y-206756D02*
X876300Y-225044D01*
X774700Y-148844D02*
X774700Y-130556D01*
X800100Y-130556D02*
X800100Y-148844D01*
X850900Y-148844D02*
X850900Y-130556D01*
X825500Y-130556D02*
X825500Y-148844D01*
X850900Y-206756D02*
X850900Y-225044D01*
X825500Y-225044D02*
X825500Y-206756D01*
X800100Y-206756D02*
X800100Y-225044D01*
X774700Y-225044D02*
X774700Y-206756D01*
X749300Y-206756D02*
X749300Y-225044D01*
X723900Y-225044D02*
X723900Y-206756D01*
D13*
X25400Y-754380D02*
X25400Y-774700D01*
X50800Y-774700D02*
X50800Y-754380D01*
X76200Y-754380D02*
X76200Y-774700D01*
X101600Y-774700D02*
X101600Y-754380D01*
X127000Y-754380D02*
X127000Y-774700D01*
X152400Y-774700D02*
X152400Y-754380D01*
X177800Y-754380D02*
X177800Y-774700D01*
X203200Y-774700D02*
X203200Y-754380D01*
X228600Y-754380D02*
X228600Y-774700D01*
X254000Y-774700D02*
X254000Y-754380D01*
X279400Y-754380D02*
X279400Y-774700D01*
X304800Y-774700D02*
X304800Y-754380D01*
X330200Y-754380D02*
X330200Y-774700D01*
X355600Y-774700D02*
X355600Y-754380D01*
X381000Y-754380D02*
X381000Y-774700D01*
X406400Y-774700D02*
X406400Y-754380D01*
X431800Y-754380D02*
X431800Y-774700D01*
X457200Y-774700D02*
X457200Y-754380D01*
X482600Y-754380D02*
X482600Y-774700D01*
X508000Y-774700D02*
X508000Y-754380D01*
X533400Y-754380D02*
X533400Y-774700D01*
X558800Y-774700D02*
X558800Y-754380D01*
X584200Y-754380D02*
X584200Y-774700D01*
X609600Y-774700D02*
X609600Y-754380D01*
X635000Y-754380D02*
X635000Y-774700D01*
X660400Y-774700D02*
X660400Y-754380D01*
X685800Y-754380D02*
X685800Y-774700D01*
X711200Y-774700D02*
X711200Y-754380D01*
X736600Y-754380D02*
X736600Y-774700D01*
X762000Y-774700D02*
X762000Y-754380D01*
X787400Y-754380D02*
X787400Y-774700D01*
X812800Y-774700D02*
X812800Y-754380D01*
X838200Y-754380D02*
X838200Y-774700D01*
X863600Y-774700D02*
X863600Y-754380D01*
X889000Y-754380D02*
X889000Y-774700D01*
X914400Y-774700D02*
X914400Y-754380D01*
X939800Y-754380D02*
X939800Y-774700D01*
X965200Y-774700D02*
X965200Y-754380D01*
X990600Y-754380D02*
X990600Y-774700D01*
X1016000Y-774700D02*
X1016000Y-754380D01*
X165100Y-111760D02*
X165100Y-91440D01*
X139700Y-91440D02*
X139700Y-111760D01*
D14*
X190500Y-152400D03*
X266700Y-152400D03*
X190500Y-50800D03*
X266700Y-50800D03*
X190500Y-25400D03*
X266700Y-25400D03*
D13*
X35560Y-177800D02*
X15240Y-177800D01*
X15240Y-152400D02*
X35560Y-152400D01*
X35560Y-127000D02*
X15240Y-127000D01*
X15240Y-101600D02*
X35560Y-101600D01*
X35560Y-76200D02*
X15240Y-76200D01*
X15240Y-50800D02*
X35560Y-50800D01*
X78740Y-355600D02*
X99060Y-355600D01*
X99060Y-381000D02*
X78740Y-381000D01*
D10*
X88900Y-304800D03*
X88900Y-228600D03*
D15*
X177800Y-698500D03*
X546100Y-546100D03*
D16*
X546100Y-508000D02*
X546100Y-482600D01*
X876300Y-177800D02*
X876300Y-139700D01*
X876300Y-177800D02*
X850900Y-177800D01*
X850900Y-215900D01*
X850900Y-177800D02*
X825500Y-177800D01*
X800100Y-177800D01*
X800100Y-215900D01*
X800100Y-177800D02*
X774700Y-177800D01*
X749300Y-177800D02*
X749300Y-215900D01*
X749300Y-177800D02*
X685800Y-177800D01*
X685800Y-165100D01*
X749300Y-177800D02*
X774700Y-177800D01*
X774700Y-139700D01*
X825500Y-139700D02*
X825500Y-177800D01*
D15*
X279400Y-698500D03*
X431800Y-698500D03*
D16*
X279400Y-698500D01*
X431800Y-698500D02*
X431800Y-774700D01*
X546100Y-546100D02*
X546100Y-508000D01*
D15*
X609600Y-165100D03*
D16*
X685800Y-165100D01*
D15*
X609600Y-546100D03*
D16*
X177800Y-177800D02*
X25400Y-177800D01*
X177800Y-177800D02*
X177800Y-698500D01*
X177800Y-177800D02*
X342900Y-177800D01*
D15*
X584200Y-546100D03*
D16*
X546100Y-546100D01*
X584200Y-546100D02*
X609600Y-546100D01*
X457200Y-673100D02*
X457200Y-774700D01*
X457200Y-673100D02*
X279400Y-673100D01*
D15*
X279400Y-330200D03*
X342900Y-215900D03*
D16*
X279400Y-330200D02*
X279400Y-673100D01*
X393700Y-228600D02*
X393700Y-177800D01*
X393700Y-101600D02*
X165100Y-101600D01*
X393700Y-101600D02*
X393700Y-177800D01*
X685800Y-215900D02*
X723900Y-215900D01*
D15*
X279400Y-228600D03*
X508000Y-203200D03*
D16*
X647700Y-203200D01*
X647700Y-215900D01*
X685800Y-215900D01*
X393700Y-228600D02*
X342900Y-228600D01*
X279400Y-228600D01*
X342900Y-228600D02*
X342900Y-215900D01*
D15*
X203200Y-228600D03*
X139700Y-228600D03*
D16*
X203200Y-228600D02*
X279400Y-228600D01*
X139700Y-228600D02*
X88900Y-228600D01*
D15*
X393700Y-546100D03*
D16*
X393700Y-508000D01*
X393700Y-279400D02*
X228600Y-279400D01*
X228600Y-774700D01*
X254000Y-304800D02*
X393700Y-304800D01*
X254000Y-304800D02*
X254000Y-774700D01*
X203200Y-254000D02*
X393700Y-254000D01*
D15*
X279400Y-723900D03*
X203200Y-723900D03*
D16*
X203200Y-254000D01*
X406400Y-723900D02*
X406400Y-774700D01*
X406400Y-723900D02*
X279400Y-723900D01*
X533400Y-774700D02*
X533400Y-622300D01*
X330200Y-622300D01*
X330200Y-457200D01*
X393700Y-457200D01*
X393700Y-431800D01*
D15*
X355600Y-355600D03*
X355600Y-596900D03*
D16*
X558800Y-596900D02*
X558800Y-774700D01*
X558800Y-596900D02*
X355600Y-596900D01*
X355600Y-355600D02*
X393700Y-355600D01*
D15*
X355600Y-381000D03*
X139700Y-381000D03*
D16*
X88900Y-381000D01*
X355600Y-381000D02*
X355600Y-355600D01*
X508000Y-571500D02*
X609600Y-571500D01*
X508000Y-571500D02*
X508000Y-228600D01*
X546100Y-228600D01*
X609600Y-571500D02*
X609600Y-774700D01*
D15*
X660400Y-139700D03*
X660400Y-482600D03*
D16*
X660400Y-774700D01*
X660400Y-139700D02*
X723900Y-139700D01*
X685800Y-457200D02*
X546100Y-457200D01*
X685800Y-457200D02*
X685800Y-774700D01*
X711200Y-431800D02*
X546100Y-431800D01*
X711200Y-431800D02*
X711200Y-774700D01*
X736600Y-406400D02*
X546100Y-406400D01*
X736600Y-406400D02*
X736600Y-774700D01*
X762000Y-381000D02*
X546100Y-381000D01*
X762000Y-381000D02*
X762000Y-774700D01*
X787400Y-355600D02*
X546100Y-355600D01*
X787400Y-355600D02*
X787400Y-774700D01*
X812800Y-774700D02*
X812800Y-330200D01*
X546100Y-330200D01*
X838200Y-304800D02*
X838200Y-774700D01*
X838200Y-304800D02*
X546100Y-304800D01*
X863600Y-279400D02*
X863600Y-774700D01*
X863600Y-279400D02*
X546100Y-279400D01*
X889000Y-279400D02*
X889000Y-774700D01*
X889000Y-279400D02*
X927100Y-279400D01*
X927100Y-76200D01*
X431800Y-76200D01*
X431800Y-381000D02*
X393700Y-381000D01*
X431800Y-381000D02*
X431800Y-76200D01*
D15*
X419100Y-25400D03*
X419100Y-76200D03*
D16*
X431800Y-76200D01*
X419100Y-25400D02*
X266700Y-25400D01*
X914400Y-304800D02*
X914400Y-774700D01*
X952500Y-304800D02*
X952500Y-50800D01*
X482600Y-50800D01*
X266700Y-50800D01*
X914400Y-304800D02*
X952500Y-304800D01*
X482600Y-482600D02*
X393700Y-482600D01*
D15*
X482600Y-25400D03*
X482600Y-114300D03*
D16*
X482600Y-482600D01*
X482600Y-50800D02*
X482600Y-25400D01*
X482600Y-647700D02*
X482600Y-774700D01*
X482600Y-647700D02*
X304800Y-647700D01*
X304800Y-330200D01*
X393700Y-330200D01*
X546100Y-254000D02*
X901700Y-254000D01*
X901700Y-101600D02*
X749300Y-101600D01*
X749300Y-139700D01*
X901700Y-101600D02*
X901700Y-254000D01*
X88900Y-101600D02*
X25400Y-101600D01*
X88900Y-101600D02*
X88900Y-50800D01*
X190500Y-50800D01*
X63500Y-76200D02*
X25400Y-76200D01*
X63500Y-76200D02*
X63500Y-25400D01*
X190500Y-25400D01*
X393700Y-406400D02*
X457200Y-406400D01*
D15*
X368300Y-152400D03*
X457200Y-152400D03*
D16*
X457200Y-406400D01*
X368300Y-152400D02*
X266700Y-152400D01*
X190500Y-152400D02*
X25400Y-152400D01*
X114300Y-101600D02*
X139700Y-101600D01*
X114300Y-127000D02*
X25400Y-127000D01*
X114300Y-127000D02*
X114300Y-101600D01*
X88900Y-304800D02*
X88900Y-355600D01*
M02*
