G04 EAGLE Gerber RS-274X export*
G75*
%MOMM*%
%FSLAX34Y34*%
%LPD*%
%INSoldermask Top*%
%IPPOS*%
%AMOC8*
5,1,8,0,0,1.08239X$1,22.5*%
G01*
%ADD10P,2.199416X8X292.500000*%
%ADD11P,2.199416X8X202.500000*%
%ADD12C,2.032000*%
%ADD13C,2.235200*%
%ADD14P,2.199416X8X22.500000*%
%ADD15C,2.203200*%


D10*
X685800Y215900D03*
X685800Y165100D03*
D11*
X393700Y177800D03*
X342900Y177800D03*
D12*
X384556Y508000D02*
X402844Y508000D01*
X402844Y482600D02*
X384556Y482600D01*
X384556Y355600D02*
X402844Y355600D01*
X402844Y330200D02*
X384556Y330200D01*
X384556Y457200D02*
X402844Y457200D01*
X402844Y431800D02*
X384556Y431800D01*
X384556Y381000D02*
X402844Y381000D01*
X402844Y406400D02*
X384556Y406400D01*
X384556Y304800D02*
X402844Y304800D01*
X402844Y279400D02*
X384556Y279400D01*
X384556Y254000D02*
X402844Y254000D01*
X402844Y228600D02*
X384556Y228600D01*
X536956Y228600D02*
X555244Y228600D01*
X555244Y254000D02*
X536956Y254000D01*
X536956Y279400D02*
X555244Y279400D01*
X555244Y304800D02*
X536956Y304800D01*
X536956Y330200D02*
X555244Y330200D01*
X555244Y355600D02*
X536956Y355600D01*
X536956Y381000D02*
X555244Y381000D01*
X555244Y406400D02*
X536956Y406400D01*
X536956Y431800D02*
X555244Y431800D01*
X555244Y457200D02*
X536956Y457200D01*
X536956Y482600D02*
X555244Y482600D01*
X555244Y508000D02*
X536956Y508000D01*
X723900Y148844D02*
X723900Y130556D01*
X749300Y130556D02*
X749300Y148844D01*
X876300Y148844D02*
X876300Y130556D01*
X876300Y206756D02*
X876300Y225044D01*
X774700Y148844D02*
X774700Y130556D01*
X800100Y130556D02*
X800100Y148844D01*
X850900Y148844D02*
X850900Y130556D01*
X825500Y130556D02*
X825500Y148844D01*
X850900Y206756D02*
X850900Y225044D01*
X825500Y225044D02*
X825500Y206756D01*
X800100Y206756D02*
X800100Y225044D01*
X774700Y225044D02*
X774700Y206756D01*
X749300Y206756D02*
X749300Y225044D01*
X723900Y225044D02*
X723900Y206756D01*
D13*
X25400Y754380D02*
X25400Y774700D01*
X50800Y774700D02*
X50800Y754380D01*
X76200Y754380D02*
X76200Y774700D01*
X101600Y774700D02*
X101600Y754380D01*
X127000Y754380D02*
X127000Y774700D01*
X152400Y774700D02*
X152400Y754380D01*
X177800Y754380D02*
X177800Y774700D01*
X203200Y774700D02*
X203200Y754380D01*
X228600Y754380D02*
X228600Y774700D01*
X254000Y774700D02*
X254000Y754380D01*
X279400Y754380D02*
X279400Y774700D01*
X304800Y774700D02*
X304800Y754380D01*
X330200Y754380D02*
X330200Y774700D01*
X355600Y774700D02*
X355600Y754380D01*
X381000Y754380D02*
X381000Y774700D01*
X406400Y774700D02*
X406400Y754380D01*
X431800Y754380D02*
X431800Y774700D01*
X457200Y774700D02*
X457200Y754380D01*
X482600Y754380D02*
X482600Y774700D01*
X508000Y774700D02*
X508000Y754380D01*
X533400Y754380D02*
X533400Y774700D01*
X558800Y774700D02*
X558800Y754380D01*
X584200Y754380D02*
X584200Y774700D01*
X609600Y774700D02*
X609600Y754380D01*
X635000Y754380D02*
X635000Y774700D01*
X660400Y774700D02*
X660400Y754380D01*
X685800Y754380D02*
X685800Y774700D01*
X711200Y774700D02*
X711200Y754380D01*
X736600Y754380D02*
X736600Y774700D01*
X762000Y774700D02*
X762000Y754380D01*
X787400Y754380D02*
X787400Y774700D01*
X812800Y774700D02*
X812800Y754380D01*
X838200Y754380D02*
X838200Y774700D01*
X863600Y774700D02*
X863600Y754380D01*
X889000Y754380D02*
X889000Y774700D01*
X914400Y774700D02*
X914400Y754380D01*
X939800Y754380D02*
X939800Y774700D01*
X965200Y774700D02*
X965200Y754380D01*
X990600Y754380D02*
X990600Y774700D01*
X1016000Y774700D02*
X1016000Y754380D01*
X165100Y111760D02*
X165100Y91440D01*
X139700Y91440D02*
X139700Y111760D01*
D14*
X190500Y152400D03*
X266700Y152400D03*
X190500Y50800D03*
X266700Y50800D03*
X190500Y25400D03*
X266700Y25400D03*
D13*
X35560Y177800D02*
X15240Y177800D01*
X15240Y152400D02*
X35560Y152400D01*
X35560Y127000D02*
X15240Y127000D01*
X15240Y101600D02*
X35560Y101600D01*
X35560Y76200D02*
X15240Y76200D01*
X15240Y50800D02*
X35560Y50800D01*
X78740Y355600D02*
X99060Y355600D01*
X99060Y381000D02*
X78740Y381000D01*
D10*
X88900Y304800D03*
X88900Y228600D03*
D15*
X177800Y698500D03*
X546100Y546100D03*
X279400Y698500D03*
X431800Y698500D03*
X609600Y165100D03*
X609600Y546100D03*
X584200Y546100D03*
X279400Y330200D03*
X342900Y215900D03*
X279400Y228600D03*
X508000Y203200D03*
X203200Y228600D03*
X139700Y228600D03*
X393700Y546100D03*
X279400Y723900D03*
X203200Y723900D03*
X355600Y355600D03*
X355600Y596900D03*
X355600Y381000D03*
X139700Y381000D03*
X660400Y139700D03*
X660400Y482600D03*
X419100Y25400D03*
X419100Y76200D03*
X482600Y25400D03*
X482600Y114300D03*
X368300Y152400D03*
X457200Y152400D03*
M02*
