M48
;GenerationSoftware,Autodesk,EAGLE,9.6.2*%
;CreationDate,2022-03-02T18:20:21Z*%
FMAT,2
ICI,OFF
METRIC,TZ,000.000
T4C0.813
T3C0.900
T2C1.016
%
G90
M71
T2
X102870Y-91440
X72390Y-91440
X74930Y-91440
X77470Y-91440
X80010Y-91440
X82550Y-91440
X85090Y-91440
X87630Y-91440
X90170Y-91440
X92710Y-91440
X95250Y-91440
X97790Y-91440
X100330Y-91440
X11430Y-91440
X105410Y-91440
X16510Y-20320
X13970Y-20320
X2540Y-16510
X2540Y-19050
X2540Y-21590
X2540Y-24130
X2540Y-26670
X2540Y-29210
X8890Y-91440
X6350Y-91440
X67310Y-91440
X13970Y-91440
X16510Y-91440
X19050Y-91440
X21590Y-91440
X24130Y-91440
X26670Y-91440
X29210Y-91440
X31750Y-91440
X34290Y-91440
X36830Y-91440
X39370Y-91440
X44450Y-91440
X69850Y-91440
X64770Y-91440
X62230Y-91440
X59690Y-91440
X57150Y-91440
X54610Y-91440
X52070Y-91440
X49530Y-91440
X46990Y-91440
X41910Y-91440
T3
X49530Y-7620
X31750Y-7620
X43180Y-24130
X76200Y-24130
X43180Y-21590
X71120Y-21590
X80010Y-45720
X63500Y-54610
X15240Y-41910
X72390Y-41910
X17780Y-43180
X74930Y-43180
X20320Y-44450
X77470Y-44450
X22860Y-45720
X43180Y-54610
X25400Y-46990
X82550Y-46990
X27940Y-48260
X85090Y-48260
X30480Y-49530
X87630Y-49530
X33020Y-50800
X36830Y-86360
X31750Y-3810
X60960Y-3810
X10160Y-41910
X10160Y-19050
X49530Y-78740
X100330Y-78740
X48260Y-40640
X41910Y-40640
X96520Y-11430
X57150Y-86360
X35560Y-83820
X35560Y-76200
X33020Y-74930
X54610Y-74930
X43180Y-58420
X59690Y-58420
X22860Y-26670
X62230Y-72390
X45720Y-2540
X45720Y-10160
X105410Y-29210
X90170Y-50800
X43180Y-72390
X81280Y-20320
X55880Y-20320
X113030Y-73660
X27940Y-73660
X113030Y-57150
X113030Y-44450
X33020Y-85090
X95250Y-85090
X88900Y-36830
X25400Y-36830
X22860Y-36830
T4
X40640Y-54610
X110490Y-10287
X31750Y-34290
X31750Y-31750
X31750Y-19050
X39370Y-19050
X31750Y-29210
X31750Y-26670
X31750Y-21590
X31750Y-24130
X39370Y-21590
X39370Y-24130
X39370Y-26670
X39370Y-29210
X39370Y-31750
X39370Y-34290
X107950Y-21590
X110490Y-15113
X102870Y-41910
X102870Y-49530
X110490Y-41910
X110490Y-49530
X100330Y-29210
X100330Y-21590
X107950Y-29210
X11430Y-24130
X100330Y-10160
X105410Y-10160
X100330Y-15240
X105410Y-15240
X19050Y-26670
X11430Y-26670
X19050Y-24130
X105410Y-31750
X66040Y-16510
X63500Y-16510
X60960Y-16510
X58420Y-16510
X55880Y-16510
X53340Y-16510
X100330Y-31750
X102870Y-31750
X115570Y-31750
X115570Y-39370
X63500Y-8890
X107950Y-31750
X113030Y-31750
X110490Y-31750
X113030Y-39370
X110490Y-39370
X107950Y-39370
X105410Y-39370
X102870Y-39370
X100330Y-39370
X34290Y-38100
X115570Y-15240
X118110Y-15240
X96520Y-39370
X91440Y-39370
X93980Y-25400
X88900Y-25400
X115570Y-10160
X118110Y-10160
X39370Y-38100
X86360Y-21590
X49530Y-16510
X49530Y-11430
X53340Y-8890
X55880Y-8890
X68580Y-8890
X68580Y-16510
X58420Y-8890
X60960Y-8890
X66040Y-8890
X12700Y-54610
X22860Y-69850
X20320Y-69850
X17780Y-69850
X15240Y-69850
X12700Y-69850
X10160Y-69850
X7620Y-69850
X7620Y-54610
X10160Y-54610
X25400Y-69850
X15240Y-54610
X17780Y-54610
X20320Y-54610
X22860Y-54610
X25400Y-54610
X27940Y-54610
X30480Y-54610
X33020Y-54610
X35560Y-54610
X93980Y-13970
X86360Y-19050
X86360Y-6350
X93980Y-6350
X86360Y-16510
X86360Y-13970
X86360Y-8890
X86360Y-11430
X93980Y-8890
X93980Y-11430
X38100Y-54610
X93980Y-16510
X93980Y-19050
X93980Y-21590
X40640Y-69850
X38100Y-69850
X35560Y-69850
X33020Y-69850
X30480Y-69850
X27940Y-69850
M30