M48
;GenerationSoftware,Autodesk,EAGLE,9.6.2*%
;CreationDate,2022-03-18T14:47:14Z*%
FMAT,2
ICI,OFF
METRIC,TZ,000.000
T4C0.813
T3C0.900
T2C1.016
%
G90
M71
T2
X121920Y-35560
X81280Y-86360
X83820Y-86360
X86360Y-86360
X88900Y-86360
X91440Y-86360
X93980Y-86360
X96520Y-86360
X99060Y-86360
X101600Y-86360
X2540Y-7620
X2540Y-10160
X2540Y-12700
X2540Y-15240
X124460Y-35560
X124460Y-33020
X2540Y-86360
X121920Y-33020
X119380Y-35560
X119380Y-33020
X116840Y-35560
X116840Y-33020
X114300Y-35560
X114300Y-33020
X111760Y-35560
X111760Y-33020
X109220Y-35560
X109220Y-33020
X106680Y-35560
X106680Y-33020
X49530Y-21590
X49530Y-19050
X76200Y-86360
X5080Y-86360
X7620Y-86360
X10160Y-86360
X12700Y-86360
X15240Y-86360
X17780Y-86360
X20320Y-86360
X22860Y-86360
X25400Y-86360
X27940Y-86360
X30480Y-86360
X33020Y-86360
X35560Y-86360
X38100Y-86360
X43180Y-86360
X78740Y-86360
X73660Y-86360
X71120Y-86360
X68580Y-86360
X66040Y-86360
X63500Y-86360
X60960Y-86360
X55880Y-86360
X53340Y-86360
X50800Y-86360
X48260Y-86360
X45720Y-86360
X40640Y-86360
X58420Y-86360
T3
X119380Y-29210
X109220Y-22860
X114300Y-22860
X119380Y-22860
X29210Y-62230
X133350Y-62230
X55880Y-7620
X78740Y-7620
X11430Y-67310
X116840Y-67310
X3810Y-77470
X43180Y-77470
X91440Y-31750
X71120Y-22860
X71120Y-41910
X73660Y-22860
X73660Y-39370
X76200Y-22860
X38100Y-72390
X121920Y-69850
X35560Y-69850
X91440Y-11430
X68580Y-44450
X91440Y-68580
X76200Y-36830
X78740Y-22860
X78740Y-34290
X81280Y-22860
X81280Y-31750
X83820Y-22860
X83820Y-29210
X50800Y-81280
X124460Y-72390
X40640Y-74930
X127000Y-74930
X53340Y-64770
X31750Y-64770
X53340Y-46990
X53340Y-11430
X49530Y-24130
X49530Y-46990
X24130Y-63500
X55880Y-81280
X60960Y-76200
X104140Y-76200
X63500Y-46990
X99060Y-46990
X66040Y-81280
X119380Y-81280
X68580Y-22860
X106680Y-8890
X45720Y-66040
X43180Y-7620
X43180Y-48260
X95250Y-71120
X43180Y-71120
X114300Y-29210
X34290Y-19050
X41910Y-19050
X21590Y-66040
X106680Y-25400
X36830Y-58420
X50800Y-58420
X58420Y-50800
X58420Y-21590
X101600Y-50800
X58420Y-46990
X109220Y-29210
X15240Y-15240
X86360Y-63500
X93980Y-29210
X93980Y-11430
X48260Y-78740
X114300Y-78740
X20320Y-5080
X34290Y-5080
X26670Y-60960
X45720Y-68580
X57150Y-60960
X57150Y-24130
X11430Y-55880
X11430Y-15240
X15240Y-2540
X130810Y-80010
X91440Y-80010
T4
X128270Y-19050
X6350Y-64770
X11430Y-81280
X13970Y-64770
X19050Y-71120
X11430Y-71120
X19050Y-73660
X11430Y-73660
X19050Y-76200
X11430Y-76200
X19050Y-78740
X11430Y-78740
X19050Y-81280
X12700Y-2540
X135890Y-21590
X130810Y-21590
X19050Y-10160
X19050Y-15240
X5080Y-38100
X5080Y-45720
X8890Y-12700
X8890Y-5080
X12700Y-10160
X73660Y-19050
X29210Y-15240
X26670Y-15240
X24130Y-15240
X83820Y-19050
X81280Y-19050
X68580Y-19050
X66040Y-19050
X78740Y-19050
X76200Y-19050
X71120Y-19050
X31750Y-15240
X66040Y-11430
X68580Y-11430
X71120Y-11430
X73660Y-11430
X76200Y-11430
X78740Y-11430
X81280Y-11430
X83820Y-11430
X21590Y-48260
X24130Y-48260
X24130Y-7620
X5080Y-57150
X5080Y-52070
X17780Y-55880
X17780Y-60960
X130810Y-43180
X135890Y-43180
X87630Y-11430
X87630Y-16510
X8890Y-45720
X8890Y-38100
X36830Y-48260
X26670Y-7620
X39370Y-7620
X39370Y-15240
X29210Y-7620
X31750Y-7620
X36830Y-7620
X34290Y-7620
X36830Y-15240
X34290Y-15240
X120650Y-3810
X109220Y-43180
X111760Y-43180
X114300Y-43180
X116840Y-43180
X119380Y-43180
X121920Y-43180
X124460Y-43180
X127000Y-43180
X120650Y-19050
X120650Y-16510
X116840Y-50800
X128270Y-3810
X120650Y-13970
X120650Y-11430
X120650Y-6350
X120650Y-8890
X128270Y-6350
X128270Y-8890
X128270Y-11430
X128270Y-13970
X26670Y-55880
X39370Y-48260
X26670Y-48260
X29210Y-48260
X34290Y-48260
X31750Y-48260
X39370Y-55880
X36830Y-55880
X34290Y-55880
X31750Y-55880
X29210Y-55880
X128270Y-16510
X24130Y-55880
X21590Y-55880
X127000Y-50800
X124460Y-50800
X111760Y-50800
X109220Y-50800
X121920Y-50800
X119380Y-50800
X114300Y-50800
M30