G04 EAGLE Gerber RS-274X export*
G75*
%MOMM*%
%FSLAX34Y34*%
%LPD*%
%INBottom Copper*%
%IPPOS*%
%AMOC8*
5,1,8,0,0,1.08239X$1,22.5*%
G01*
%ADD10C,1.828800*%
%ADD11C,2.032000*%
%ADD12C,2.032000*%
%ADD13P,1.979475X8X112.500000*%
%ADD14P,1.979475X8X22.500000*%
%ADD15P,2.199416X8X112.500000*%
%ADD16C,1.270000*%
%ADD17C,2.000000*%


D10*
X177800Y-638556D02*
X177800Y-656844D01*
X203200Y-656844D02*
X203200Y-638556D01*
X330200Y-638556D02*
X330200Y-656844D01*
X355600Y-656844D02*
X355600Y-638556D01*
X228600Y-638556D02*
X228600Y-656844D01*
X254000Y-656844D02*
X254000Y-638556D01*
X304800Y-638556D02*
X304800Y-656844D01*
X279400Y-656844D02*
X279400Y-638556D01*
X381000Y-638556D02*
X381000Y-656844D01*
X406400Y-656844D02*
X406400Y-638556D01*
X431800Y-638556D02*
X431800Y-656844D01*
X457200Y-656844D02*
X457200Y-638556D01*
X482600Y-638556D02*
X482600Y-656844D01*
X508000Y-656844D02*
X508000Y-638556D01*
X533400Y-638556D02*
X533400Y-656844D01*
X558800Y-656844D02*
X558800Y-638556D01*
X584200Y-638556D02*
X584200Y-656844D01*
X609600Y-656844D02*
X609600Y-638556D01*
X635000Y-638556D02*
X635000Y-656844D01*
X660400Y-656844D02*
X660400Y-638556D01*
X660400Y-790956D02*
X660400Y-809244D01*
X635000Y-809244D02*
X635000Y-790956D01*
X609600Y-790956D02*
X609600Y-809244D01*
X584200Y-809244D02*
X584200Y-790956D01*
X558800Y-790956D02*
X558800Y-809244D01*
X533400Y-809244D02*
X533400Y-790956D01*
X508000Y-790956D02*
X508000Y-809244D01*
X482600Y-809244D02*
X482600Y-790956D01*
X457200Y-790956D02*
X457200Y-809244D01*
X431800Y-809244D02*
X431800Y-790956D01*
X406400Y-790956D02*
X406400Y-809244D01*
X381000Y-809244D02*
X381000Y-790956D01*
X355600Y-790956D02*
X355600Y-809244D01*
X330200Y-809244D02*
X330200Y-790956D01*
X304800Y-790956D02*
X304800Y-809244D01*
X279400Y-809244D02*
X279400Y-790956D01*
X254000Y-790956D02*
X254000Y-809244D01*
X228600Y-809244D02*
X228600Y-790956D01*
X203200Y-790956D02*
X203200Y-809244D01*
X177800Y-809244D02*
X177800Y-790956D01*
D11*
X50800Y-977900D03*
X76200Y-977900D03*
X101600Y-977900D03*
X127000Y-977900D03*
X152400Y-977900D03*
X177800Y-977900D03*
X203200Y-977900D03*
X228600Y-977900D03*
X254000Y-977900D03*
X279400Y-977900D03*
X304800Y-977900D03*
X330200Y-977900D03*
X355600Y-977900D03*
X381000Y-977900D03*
X406400Y-977900D03*
X431800Y-977900D03*
X457200Y-977900D03*
X482600Y-977900D03*
X508000Y-977900D03*
X533400Y-977900D03*
X558800Y-977900D03*
X584200Y-977900D03*
X609600Y-977900D03*
X635000Y-977900D03*
X660400Y-977900D03*
X685800Y-977900D03*
X711200Y-977900D03*
X736600Y-977900D03*
X762000Y-977900D03*
X787400Y-977900D03*
X812800Y-977900D03*
X838200Y-977900D03*
X863600Y-977900D03*
X889000Y-977900D03*
X914400Y-977900D03*
X939800Y-977900D03*
X965200Y-977900D03*
X990600Y-977900D03*
X1016000Y-977900D03*
X1041400Y-977900D03*
D12*
X863600Y-683260D02*
X863600Y-662940D01*
X889000Y-662940D02*
X889000Y-683260D01*
X914400Y-683260D02*
X914400Y-662940D01*
X939800Y-662940D02*
X939800Y-683260D01*
X965200Y-683260D02*
X965200Y-662940D01*
X990600Y-662940D02*
X990600Y-683260D01*
X1016000Y-683260D02*
X1016000Y-662940D01*
X1041400Y-662940D02*
X1041400Y-683260D01*
X1066800Y-683260D02*
X1066800Y-662940D01*
X1092200Y-662940D02*
X1092200Y-683260D01*
D13*
X431800Y-584200D03*
X431800Y-558800D03*
D14*
X863600Y-584200D03*
X939800Y-584200D03*
X863600Y-558800D03*
X939800Y-558800D03*
X863600Y-533400D03*
X939800Y-533400D03*
X863600Y-508000D03*
X939800Y-508000D03*
D15*
X965200Y-584200D03*
X990600Y-584200D03*
X965200Y-558800D03*
X990600Y-558800D03*
X965200Y-533400D03*
X990600Y-533400D03*
X965200Y-508000D03*
X990600Y-508000D03*
D16*
X203200Y-611124D02*
X203200Y-647700D01*
X203200Y-611124D02*
X128524Y-611124D01*
X128524Y-976376D02*
X127000Y-977900D01*
X128524Y-976376D02*
X128524Y-611124D01*
X50800Y-533400D02*
X279400Y-533400D01*
X279400Y-647700D01*
X50800Y-533400D02*
X50800Y-977900D01*
X254000Y-647700D02*
X254000Y-558800D01*
X76200Y-558800D01*
X76200Y-977900D01*
X228600Y-647700D02*
X228600Y-584200D01*
X101600Y-584200D01*
X101600Y-977900D01*
X177800Y-977900D02*
X177800Y-800100D01*
X203200Y-800100D02*
X203200Y-977900D01*
X228600Y-977900D02*
X228600Y-800100D01*
X254000Y-800100D02*
X254000Y-977900D01*
X279400Y-977900D02*
X279400Y-800100D01*
X304800Y-800100D02*
X304800Y-977900D01*
X330200Y-977900D02*
X330200Y-800100D01*
X355600Y-800100D02*
X355600Y-977900D01*
X381000Y-977900D02*
X381000Y-800100D01*
X406400Y-800100D02*
X406400Y-977900D01*
X431800Y-977900D02*
X431800Y-800100D01*
X177800Y-647700D02*
X152400Y-647700D01*
X152400Y-977900D01*
X533400Y-977900D02*
X533400Y-800100D01*
X304800Y-647700D02*
X304800Y-609600D01*
D17*
X558800Y-914400D03*
D16*
X558800Y-977900D01*
D17*
X304800Y-609600D03*
X584200Y-914400D03*
D16*
X584200Y-977900D01*
D17*
X558800Y-482600D03*
D16*
X558800Y-647700D01*
D17*
X609600Y-482600D03*
D16*
X889000Y-482600D01*
X889000Y-609600D01*
X990600Y-609600D01*
X990600Y-584200D01*
D17*
X1016000Y-609600D03*
D16*
X990600Y-609600D01*
D17*
X609600Y-914400D03*
D16*
X609600Y-977900D01*
D17*
X635000Y-609600D03*
D16*
X635000Y-647700D01*
X635000Y-800100D02*
X635000Y-977900D01*
X660400Y-977900D02*
X660400Y-800100D01*
X685800Y-635000D02*
X685800Y-977900D01*
X685800Y-635000D02*
X660400Y-635000D01*
X660400Y-647700D01*
D17*
X762000Y-800100D03*
X711200Y-787400D03*
D16*
X711200Y-977900D01*
X508000Y-406400D02*
X1168400Y-406400D01*
X508000Y-406400D02*
X508000Y-647700D01*
X762000Y-800100D02*
X1168400Y-800100D01*
X1168400Y-406400D01*
X533400Y-431800D02*
X533400Y-647700D01*
X533400Y-431800D02*
X1143000Y-431800D01*
X1143000Y-774700D01*
X736600Y-774700D02*
X736600Y-977900D01*
X736600Y-774700D02*
X1143000Y-774700D01*
D17*
X508000Y-381000D03*
X457200Y-381000D03*
D16*
X457200Y-647700D01*
X762000Y-825500D02*
X762000Y-977900D01*
X508000Y-381000D02*
X1193800Y-381000D01*
X1193800Y-825500D02*
X762000Y-825500D01*
X1193800Y-825500D02*
X1193800Y-381000D01*
D17*
X508000Y-355600D03*
X355600Y-355600D03*
D16*
X355600Y-647700D01*
X787400Y-850900D02*
X787400Y-977900D01*
X787400Y-850900D02*
X1219200Y-850900D01*
X1219200Y-355600D01*
X508000Y-355600D01*
D17*
X508000Y-330200D03*
X330200Y-330200D03*
D16*
X330200Y-647700D01*
X812800Y-876300D02*
X812800Y-977900D01*
X1243076Y-876300D02*
X1243076Y-330200D01*
X508000Y-330200D01*
X812800Y-876300D02*
X1243076Y-876300D01*
D17*
X508000Y-304800D03*
X381000Y-304800D03*
D16*
X381000Y-647700D01*
X838200Y-901700D02*
X838200Y-977900D01*
X838200Y-901700D02*
X1270000Y-901700D01*
X1270000Y-304800D01*
X508000Y-304800D01*
D17*
X508000Y-279400D03*
X406400Y-279400D03*
D16*
X406400Y-647700D01*
X863600Y-927100D02*
X863600Y-977900D01*
X1295400Y-927100D02*
X1295400Y-279400D01*
X508000Y-279400D01*
X863600Y-927100D02*
X1295400Y-927100D01*
X1320800Y-952500D02*
X889000Y-952500D01*
X1320800Y-952500D02*
X1320800Y-254000D01*
X482600Y-254000D01*
X482600Y-647700D01*
X889000Y-952500D02*
X889000Y-977900D01*
X508000Y-977900D02*
X508000Y-800100D01*
X584200Y-647700D02*
X584200Y-457200D01*
D17*
X1054100Y-533400D03*
D16*
X990600Y-533400D01*
X1054100Y-533400D02*
X1092200Y-533400D01*
X1092200Y-673100D01*
D17*
X1054100Y-457200D03*
D16*
X584200Y-457200D01*
D17*
X584200Y-850900D03*
D16*
X584200Y-800100D01*
D17*
X1079500Y-508000D03*
D16*
X990600Y-508000D01*
X1079500Y-508000D02*
X1117600Y-508000D01*
X1117600Y-711200D01*
X1066800Y-711200D01*
X1066800Y-673100D01*
D17*
X558800Y-850900D03*
D16*
X558800Y-800100D01*
D17*
X1028700Y-558800D03*
D16*
X990600Y-558800D01*
X1041400Y-558800D02*
X1041400Y-673100D01*
X1041400Y-558800D02*
X1028700Y-558800D01*
X609600Y-584200D02*
X609600Y-647700D01*
X711200Y-584200D02*
X711200Y-749300D01*
X1016000Y-749300D01*
X1016000Y-673100D01*
X711200Y-584200D02*
X609600Y-584200D01*
D17*
X609600Y-850900D03*
D16*
X609600Y-800100D01*
D17*
X990600Y-723900D03*
D16*
X990600Y-673100D01*
D17*
X482600Y-850900D03*
D16*
X482600Y-800100D01*
D17*
X914400Y-723900D03*
D16*
X914400Y-673100D01*
D17*
X457200Y-889000D03*
D16*
X457200Y-800100D01*
D17*
X787400Y-673100D03*
D16*
X863600Y-673100D01*
X457200Y-889000D02*
X457200Y-977900D01*
D17*
X609600Y-533400D03*
D16*
X787400Y-533400D02*
X787400Y-673100D01*
X787400Y-533400D02*
X609600Y-533400D01*
D17*
X431800Y-533400D03*
D16*
X431800Y-558800D01*
D17*
X482600Y-914400D03*
X431800Y-609600D03*
D16*
X431800Y-647700D01*
D17*
X609600Y-558800D03*
D16*
X889000Y-635000D02*
X889000Y-673100D01*
X889000Y-635000D02*
X863600Y-635000D01*
X863600Y-584200D01*
X863600Y-558800D01*
X863600Y-533400D01*
X863600Y-508000D01*
X482600Y-914400D02*
X482600Y-977900D01*
X431800Y-609600D02*
X431800Y-584200D01*
D17*
X889000Y-723900D03*
D16*
X762000Y-558800D02*
X609600Y-558800D01*
X762000Y-558800D02*
X762000Y-723900D01*
X889000Y-723900D01*
X889000Y-673100D01*
X939800Y-584200D02*
X965200Y-584200D01*
X965200Y-558800D02*
X939800Y-558800D01*
X939800Y-533400D02*
X965200Y-533400D01*
X965200Y-508000D02*
X939800Y-508000D01*
M02*
