G04 EAGLE Gerber RS-274X export*
G75*
%MOMM*%
%FSLAX34Y34*%
%LPD*%
%INSilkscreen Top*%
%IPPOS*%
%AMOC8*
5,1,8,0,0,1.08239X$1,22.5*%
G01*
%ADD10C,0.152400*%
%ADD11C,0.127000*%
%ADD12C,0.304800*%
%ADD13R,0.381000X0.508000*%
%ADD14C,0.101600*%


D10*
X673100Y791210D02*
X165100Y791210D01*
X165100Y656590D02*
X673100Y656590D01*
X673100Y791210D01*
X165100Y791210D02*
X165100Y732790D01*
X165100Y712470D02*
X165100Y656590D01*
X165100Y712470D02*
X165347Y712473D01*
X165595Y712482D01*
X165842Y712497D01*
X166088Y712518D01*
X166334Y712545D01*
X166579Y712578D01*
X166824Y712617D01*
X167067Y712662D01*
X167309Y712713D01*
X167550Y712770D01*
X167789Y712832D01*
X168027Y712901D01*
X168263Y712975D01*
X168497Y713055D01*
X168729Y713140D01*
X168959Y713232D01*
X169187Y713328D01*
X169412Y713431D01*
X169635Y713538D01*
X169855Y713652D01*
X170072Y713770D01*
X170287Y713894D01*
X170498Y714023D01*
X170706Y714157D01*
X170911Y714296D01*
X171112Y714440D01*
X171310Y714588D01*
X171504Y714742D01*
X171694Y714900D01*
X171880Y715063D01*
X172062Y715230D01*
X172240Y715402D01*
X172414Y715578D01*
X172584Y715758D01*
X172749Y715943D01*
X172909Y716131D01*
X173065Y716323D01*
X173217Y716519D01*
X173363Y716718D01*
X173505Y716921D01*
X173641Y717128D01*
X173773Y717337D01*
X173899Y717550D01*
X174020Y717766D01*
X174136Y717984D01*
X174246Y718206D01*
X174351Y718430D01*
X174451Y718656D01*
X174545Y718885D01*
X174633Y719116D01*
X174716Y719350D01*
X174793Y719585D01*
X174864Y719822D01*
X174930Y720060D01*
X174989Y720300D01*
X175043Y720542D01*
X175091Y720785D01*
X175133Y721028D01*
X175169Y721273D01*
X175199Y721519D01*
X175223Y721765D01*
X175241Y722012D01*
X175253Y722259D01*
X175259Y722506D01*
X175259Y722754D01*
X175253Y723001D01*
X175241Y723248D01*
X175223Y723495D01*
X175199Y723741D01*
X175169Y723987D01*
X175133Y724232D01*
X175091Y724475D01*
X175043Y724718D01*
X174989Y724960D01*
X174930Y725200D01*
X174864Y725438D01*
X174793Y725675D01*
X174716Y725910D01*
X174633Y726144D01*
X174545Y726375D01*
X174451Y726604D01*
X174351Y726830D01*
X174246Y727054D01*
X174136Y727276D01*
X174020Y727494D01*
X173899Y727710D01*
X173773Y727923D01*
X173641Y728132D01*
X173505Y728339D01*
X173363Y728542D01*
X173217Y728741D01*
X173065Y728937D01*
X172909Y729129D01*
X172749Y729317D01*
X172584Y729502D01*
X172414Y729682D01*
X172240Y729858D01*
X172062Y730030D01*
X171880Y730197D01*
X171694Y730360D01*
X171504Y730518D01*
X171310Y730672D01*
X171112Y730820D01*
X170911Y730964D01*
X170706Y731103D01*
X170498Y731237D01*
X170287Y731366D01*
X170072Y731490D01*
X169855Y731608D01*
X169635Y731722D01*
X169412Y731829D01*
X169187Y731932D01*
X168959Y732028D01*
X168729Y732120D01*
X168497Y732205D01*
X168263Y732285D01*
X168027Y732359D01*
X167789Y732428D01*
X167550Y732490D01*
X167309Y732547D01*
X167067Y732598D01*
X166824Y732643D01*
X166579Y732682D01*
X166334Y732715D01*
X166088Y732742D01*
X165842Y732763D01*
X165595Y732778D01*
X165347Y732787D01*
X165100Y732790D01*
X159258Y660428D02*
X143002Y660428D01*
X159258Y658622D02*
X159258Y662234D01*
X143002Y662234D02*
X143002Y658622D01*
X159258Y671991D02*
X159258Y675603D01*
X159258Y671991D02*
X159256Y671873D01*
X159250Y671755D01*
X159241Y671637D01*
X159227Y671520D01*
X159210Y671403D01*
X159189Y671286D01*
X159164Y671171D01*
X159135Y671056D01*
X159102Y670942D01*
X159066Y670830D01*
X159026Y670719D01*
X158983Y670609D01*
X158936Y670500D01*
X158886Y670393D01*
X158831Y670288D01*
X158774Y670185D01*
X158713Y670084D01*
X158649Y669984D01*
X158582Y669887D01*
X158512Y669792D01*
X158438Y669700D01*
X158362Y669609D01*
X158282Y669522D01*
X158200Y669437D01*
X158115Y669355D01*
X158028Y669275D01*
X157937Y669199D01*
X157845Y669125D01*
X157750Y669055D01*
X157653Y668988D01*
X157553Y668924D01*
X157452Y668863D01*
X157349Y668806D01*
X157244Y668751D01*
X157137Y668701D01*
X157028Y668654D01*
X156918Y668611D01*
X156807Y668571D01*
X156695Y668535D01*
X156581Y668502D01*
X156466Y668473D01*
X156351Y668448D01*
X156234Y668427D01*
X156117Y668410D01*
X156000Y668396D01*
X155882Y668387D01*
X155764Y668381D01*
X155646Y668379D01*
X155646Y668378D02*
X146614Y668378D01*
X146496Y668380D01*
X146378Y668386D01*
X146260Y668395D01*
X146142Y668409D01*
X146025Y668426D01*
X145909Y668447D01*
X145794Y668472D01*
X145679Y668501D01*
X145565Y668534D01*
X145453Y668570D01*
X145341Y668610D01*
X145231Y668653D01*
X145123Y668700D01*
X145016Y668751D01*
X144911Y668805D01*
X144808Y668862D01*
X144706Y668923D01*
X144607Y668987D01*
X144510Y669054D01*
X144415Y669125D01*
X144322Y669198D01*
X144232Y669275D01*
X144144Y669354D01*
X144059Y669436D01*
X143977Y669521D01*
X143898Y669609D01*
X143821Y669699D01*
X143748Y669792D01*
X143677Y669886D01*
X143610Y669984D01*
X143546Y670083D01*
X143485Y670184D01*
X143428Y670288D01*
X143374Y670393D01*
X143323Y670500D01*
X143276Y670608D01*
X143233Y670718D01*
X143193Y670830D01*
X143157Y670942D01*
X143124Y671056D01*
X143095Y671171D01*
X143070Y671286D01*
X143049Y671402D01*
X143032Y671519D01*
X143018Y671637D01*
X143009Y671755D01*
X143003Y671873D01*
X143001Y671991D01*
X143002Y671991D02*
X143002Y675603D01*
X146614Y681444D02*
X143002Y685959D01*
X159258Y685959D01*
X159258Y681444D02*
X159258Y690475D01*
X501650Y990600D02*
X514350Y990600D01*
X520700Y984250D01*
X520700Y971550D02*
X514350Y965200D01*
X476250Y990600D02*
X469900Y984250D01*
X476250Y990600D02*
X488950Y990600D01*
X495300Y984250D01*
X495300Y971550D02*
X488950Y965200D01*
X476250Y965200D01*
X469900Y971550D01*
X495300Y984250D02*
X501650Y990600D01*
X495300Y971550D02*
X501650Y965200D01*
X514350Y965200D01*
X438150Y990600D02*
X425450Y990600D01*
X438150Y990600D02*
X444500Y984250D01*
X444500Y971550D02*
X438150Y965200D01*
X444500Y984250D02*
X450850Y990600D01*
X463550Y990600D01*
X469900Y984250D01*
X469900Y971550D02*
X463550Y965200D01*
X450850Y965200D01*
X444500Y971550D01*
X400050Y990600D02*
X393700Y984250D01*
X400050Y990600D02*
X412750Y990600D01*
X419100Y984250D01*
X419100Y971550D02*
X412750Y965200D01*
X400050Y965200D01*
X393700Y971550D01*
X419100Y984250D02*
X425450Y990600D01*
X419100Y971550D02*
X425450Y965200D01*
X438150Y965200D01*
X361950Y990600D02*
X349250Y990600D01*
X361950Y990600D02*
X368300Y984250D01*
X368300Y971550D02*
X361950Y965200D01*
X368300Y984250D02*
X374650Y990600D01*
X387350Y990600D01*
X393700Y984250D01*
X393700Y971550D02*
X387350Y965200D01*
X374650Y965200D01*
X368300Y971550D01*
X323850Y990600D02*
X317500Y984250D01*
X323850Y990600D02*
X336550Y990600D01*
X342900Y984250D01*
X342900Y971550D02*
X336550Y965200D01*
X323850Y965200D01*
X317500Y971550D01*
X342900Y984250D02*
X349250Y990600D01*
X342900Y971550D02*
X349250Y965200D01*
X361950Y965200D01*
X285750Y990600D02*
X273050Y990600D01*
X285750Y990600D02*
X292100Y984250D01*
X292100Y971550D02*
X285750Y965200D01*
X292100Y984250D02*
X298450Y990600D01*
X311150Y990600D01*
X317500Y984250D01*
X317500Y971550D02*
X311150Y965200D01*
X298450Y965200D01*
X292100Y971550D01*
X247650Y990600D02*
X241300Y984250D01*
X247650Y990600D02*
X260350Y990600D01*
X266700Y984250D01*
X266700Y971550D02*
X260350Y965200D01*
X247650Y965200D01*
X241300Y971550D01*
X266700Y984250D02*
X273050Y990600D01*
X266700Y971550D02*
X273050Y965200D01*
X285750Y965200D01*
X209550Y990600D02*
X196850Y990600D01*
X209550Y990600D02*
X215900Y984250D01*
X215900Y971550D02*
X209550Y965200D01*
X215900Y984250D02*
X222250Y990600D01*
X234950Y990600D01*
X241300Y984250D01*
X241300Y971550D02*
X234950Y965200D01*
X222250Y965200D01*
X215900Y971550D01*
X171450Y990600D02*
X165100Y984250D01*
X171450Y990600D02*
X184150Y990600D01*
X190500Y984250D01*
X190500Y971550D02*
X184150Y965200D01*
X171450Y965200D01*
X165100Y971550D01*
X190500Y984250D02*
X196850Y990600D01*
X190500Y971550D02*
X196850Y965200D01*
X209550Y965200D01*
X133350Y990600D02*
X120650Y990600D01*
X133350Y990600D02*
X139700Y984250D01*
X139700Y971550D02*
X133350Y965200D01*
X139700Y984250D02*
X146050Y990600D01*
X158750Y990600D01*
X165100Y984250D01*
X165100Y971550D02*
X158750Y965200D01*
X146050Y965200D01*
X139700Y971550D01*
X95250Y990600D02*
X88900Y984250D01*
X95250Y990600D02*
X107950Y990600D01*
X114300Y984250D01*
X114300Y971550D02*
X107950Y965200D01*
X95250Y965200D01*
X88900Y971550D01*
X114300Y984250D02*
X120650Y990600D01*
X114300Y971550D02*
X120650Y965200D01*
X133350Y965200D01*
X57150Y990600D02*
X44450Y990600D01*
X57150Y990600D02*
X63500Y984250D01*
X63500Y971550D02*
X57150Y965200D01*
X63500Y984250D02*
X69850Y990600D01*
X82550Y990600D01*
X88900Y984250D01*
X88900Y971550D02*
X82550Y965200D01*
X69850Y965200D01*
X63500Y971550D01*
X38100Y971550D02*
X38100Y984250D01*
X44450Y990600D01*
X38100Y971550D02*
X44450Y965200D01*
X57150Y965200D01*
X527050Y990600D02*
X539750Y990600D01*
X546100Y984250D01*
X546100Y971550D02*
X539750Y965200D01*
X520700Y984250D02*
X527050Y990600D01*
X520700Y971550D02*
X527050Y965200D01*
X539750Y965200D01*
X552450Y990600D02*
X565150Y990600D01*
X571500Y984250D01*
X571500Y971550D02*
X565150Y965200D01*
X546100Y984250D02*
X552450Y990600D01*
X546100Y971550D02*
X552450Y965200D01*
X565150Y965200D01*
X577850Y990600D02*
X590550Y990600D01*
X596900Y984250D01*
X596900Y971550D02*
X590550Y965200D01*
X571500Y984250D02*
X577850Y990600D01*
X571500Y971550D02*
X577850Y965200D01*
X590550Y965200D01*
X603250Y990600D02*
X615950Y990600D01*
X622300Y984250D01*
X622300Y971550D02*
X615950Y965200D01*
X596900Y984250D02*
X603250Y990600D01*
X596900Y971550D02*
X603250Y965200D01*
X615950Y965200D01*
X628650Y990600D02*
X641350Y990600D01*
X647700Y984250D01*
X647700Y971550D02*
X641350Y965200D01*
X622300Y984250D02*
X628650Y990600D01*
X622300Y971550D02*
X628650Y965200D01*
X641350Y965200D01*
X654050Y990600D02*
X666750Y990600D01*
X673100Y984250D01*
X673100Y971550D02*
X666750Y965200D01*
X647700Y984250D02*
X654050Y990600D01*
X647700Y971550D02*
X654050Y965200D01*
X666750Y965200D01*
X679450Y990600D02*
X692150Y990600D01*
X698500Y984250D01*
X698500Y971550D02*
X692150Y965200D01*
X673100Y984250D02*
X679450Y990600D01*
X673100Y971550D02*
X679450Y965200D01*
X692150Y965200D01*
X704850Y990600D02*
X717550Y990600D01*
X723900Y984250D01*
X723900Y971550D02*
X717550Y965200D01*
X698500Y984250D02*
X704850Y990600D01*
X698500Y971550D02*
X704850Y965200D01*
X717550Y965200D01*
X730250Y990600D02*
X742950Y990600D01*
X749300Y984250D01*
X749300Y971550D02*
X742950Y965200D01*
X723900Y984250D02*
X730250Y990600D01*
X723900Y971550D02*
X730250Y965200D01*
X742950Y965200D01*
X755650Y990600D02*
X768350Y990600D01*
X774700Y984250D01*
X774700Y971550D02*
X768350Y965200D01*
X749300Y984250D02*
X755650Y990600D01*
X749300Y971550D02*
X755650Y965200D01*
X768350Y965200D01*
X781050Y990600D02*
X793750Y990600D01*
X800100Y984250D01*
X800100Y971550D02*
X793750Y965200D01*
X774700Y984250D02*
X781050Y990600D01*
X774700Y971550D02*
X781050Y965200D01*
X793750Y965200D01*
X1035050Y990600D02*
X1047750Y990600D01*
X1009650Y990600D02*
X1003300Y984250D01*
X1009650Y990600D02*
X1022350Y990600D01*
X1028700Y984250D01*
X1028700Y971550D02*
X1022350Y965200D01*
X1009650Y965200D01*
X1003300Y971550D01*
X1028700Y984250D02*
X1035050Y990600D01*
X1028700Y971550D02*
X1035050Y965200D01*
X1047750Y965200D01*
X971550Y990600D02*
X958850Y990600D01*
X971550Y990600D02*
X977900Y984250D01*
X977900Y971550D02*
X971550Y965200D01*
X977900Y984250D02*
X984250Y990600D01*
X996950Y990600D01*
X1003300Y984250D01*
X1003300Y971550D02*
X996950Y965200D01*
X984250Y965200D01*
X977900Y971550D01*
X933450Y990600D02*
X927100Y984250D01*
X933450Y990600D02*
X946150Y990600D01*
X952500Y984250D01*
X952500Y971550D02*
X946150Y965200D01*
X933450Y965200D01*
X927100Y971550D01*
X952500Y984250D02*
X958850Y990600D01*
X952500Y971550D02*
X958850Y965200D01*
X971550Y965200D01*
X895350Y990600D02*
X882650Y990600D01*
X895350Y990600D02*
X901700Y984250D01*
X901700Y971550D02*
X895350Y965200D01*
X901700Y984250D02*
X908050Y990600D01*
X920750Y990600D01*
X927100Y984250D01*
X927100Y971550D02*
X920750Y965200D01*
X908050Y965200D01*
X901700Y971550D01*
X857250Y990600D02*
X850900Y984250D01*
X857250Y990600D02*
X869950Y990600D01*
X876300Y984250D01*
X876300Y971550D02*
X869950Y965200D01*
X857250Y965200D01*
X850900Y971550D01*
X876300Y984250D02*
X882650Y990600D01*
X876300Y971550D02*
X882650Y965200D01*
X895350Y965200D01*
X819150Y990600D02*
X806450Y990600D01*
X819150Y990600D02*
X825500Y984250D01*
X825500Y971550D02*
X819150Y965200D01*
X825500Y984250D02*
X831850Y990600D01*
X844550Y990600D01*
X850900Y984250D01*
X850900Y971550D02*
X844550Y965200D01*
X831850Y965200D01*
X825500Y971550D01*
X806450Y990600D02*
X800100Y984250D01*
X800100Y971550D02*
X806450Y965200D01*
X819150Y965200D01*
X1054100Y971550D02*
X1054100Y984250D01*
X1047750Y990600D01*
X1054100Y971550D02*
X1047750Y965200D01*
D11*
X41783Y999363D02*
X41783Y1008253D01*
X41783Y999363D02*
X41781Y999263D01*
X41775Y999164D01*
X41765Y999064D01*
X41752Y998966D01*
X41734Y998867D01*
X41713Y998770D01*
X41688Y998674D01*
X41659Y998578D01*
X41626Y998484D01*
X41590Y998391D01*
X41550Y998300D01*
X41506Y998210D01*
X41459Y998122D01*
X41409Y998036D01*
X41355Y997952D01*
X41298Y997870D01*
X41238Y997791D01*
X41174Y997713D01*
X41108Y997639D01*
X41039Y997567D01*
X40967Y997498D01*
X40893Y997432D01*
X40815Y997368D01*
X40736Y997308D01*
X40654Y997251D01*
X40570Y997197D01*
X40484Y997147D01*
X40396Y997100D01*
X40306Y997056D01*
X40215Y997016D01*
X40122Y996980D01*
X40028Y996947D01*
X39932Y996918D01*
X39836Y996893D01*
X39739Y996872D01*
X39640Y996854D01*
X39542Y996841D01*
X39442Y996831D01*
X39343Y996825D01*
X39243Y996823D01*
X37973Y996823D01*
X47763Y996823D02*
X47763Y1008253D01*
X50938Y1008253D01*
X51049Y1008251D01*
X51159Y1008245D01*
X51270Y1008236D01*
X51380Y1008222D01*
X51489Y1008205D01*
X51598Y1008184D01*
X51706Y1008159D01*
X51813Y1008130D01*
X51919Y1008098D01*
X52024Y1008062D01*
X52127Y1008022D01*
X52229Y1007979D01*
X52330Y1007932D01*
X52429Y1007881D01*
X52526Y1007828D01*
X52620Y1007771D01*
X52713Y1007710D01*
X52804Y1007647D01*
X52893Y1007580D01*
X52979Y1007510D01*
X53062Y1007437D01*
X53144Y1007362D01*
X53222Y1007284D01*
X53297Y1007202D01*
X53370Y1007119D01*
X53440Y1007033D01*
X53507Y1006944D01*
X53570Y1006853D01*
X53631Y1006760D01*
X53688Y1006665D01*
X53741Y1006569D01*
X53792Y1006470D01*
X53839Y1006369D01*
X53882Y1006267D01*
X53922Y1006164D01*
X53958Y1006059D01*
X53990Y1005953D01*
X54019Y1005846D01*
X54044Y1005738D01*
X54065Y1005629D01*
X54082Y1005520D01*
X54096Y1005410D01*
X54105Y1005299D01*
X54111Y1005189D01*
X54113Y1005078D01*
X54111Y1004967D01*
X54105Y1004857D01*
X54096Y1004746D01*
X54082Y1004636D01*
X54065Y1004527D01*
X54044Y1004418D01*
X54019Y1004310D01*
X53990Y1004203D01*
X53958Y1004097D01*
X53922Y1003992D01*
X53882Y1003889D01*
X53839Y1003787D01*
X53792Y1003686D01*
X53741Y1003587D01*
X53688Y1003491D01*
X53631Y1003396D01*
X53570Y1003303D01*
X53507Y1003212D01*
X53440Y1003123D01*
X53370Y1003037D01*
X53297Y1002954D01*
X53222Y1002872D01*
X53144Y1002794D01*
X53062Y1002719D01*
X52979Y1002646D01*
X52893Y1002576D01*
X52804Y1002509D01*
X52713Y1002446D01*
X52620Y1002385D01*
X52525Y1002328D01*
X52429Y1002275D01*
X52330Y1002224D01*
X52229Y1002177D01*
X52127Y1002134D01*
X52024Y1002094D01*
X51919Y1002058D01*
X51813Y1002026D01*
X51706Y1001997D01*
X51598Y1001972D01*
X51489Y1001951D01*
X51380Y1001934D01*
X51270Y1001920D01*
X51159Y1001911D01*
X51049Y1001905D01*
X50938Y1001903D01*
X47763Y1001903D01*
X58622Y1005713D02*
X61797Y1008253D01*
X61797Y996823D01*
X58622Y996823D02*
X64972Y996823D01*
D10*
X1054100Y679450D02*
X1060450Y685800D01*
X1073150Y685800D01*
X1079500Y679450D01*
X1079500Y666750D01*
X1073150Y660400D01*
X1060450Y660400D01*
X1054100Y666750D01*
X1022350Y685800D02*
X1009650Y685800D01*
X1022350Y685800D02*
X1028700Y679450D01*
X1028700Y666750D01*
X1022350Y660400D01*
X1028700Y679450D02*
X1035050Y685800D01*
X1047750Y685800D01*
X1054100Y679450D01*
X1054100Y666750D01*
X1047750Y660400D01*
X1035050Y660400D01*
X1028700Y666750D01*
X984250Y685800D02*
X977900Y679450D01*
X984250Y685800D02*
X996950Y685800D01*
X1003300Y679450D01*
X1003300Y666750D01*
X996950Y660400D01*
X984250Y660400D01*
X977900Y666750D01*
X1003300Y679450D02*
X1009650Y685800D01*
X1003300Y666750D02*
X1009650Y660400D01*
X1022350Y660400D01*
X946150Y685800D02*
X933450Y685800D01*
X946150Y685800D02*
X952500Y679450D01*
X952500Y666750D01*
X946150Y660400D01*
X952500Y679450D02*
X958850Y685800D01*
X971550Y685800D01*
X977900Y679450D01*
X977900Y666750D01*
X971550Y660400D01*
X958850Y660400D01*
X952500Y666750D01*
X908050Y685800D02*
X901700Y679450D01*
X908050Y685800D02*
X920750Y685800D01*
X927100Y679450D01*
X927100Y666750D01*
X920750Y660400D01*
X908050Y660400D01*
X901700Y666750D01*
X927100Y679450D02*
X933450Y685800D01*
X927100Y666750D02*
X933450Y660400D01*
X946150Y660400D01*
X869950Y685800D02*
X857250Y685800D01*
X869950Y685800D02*
X876300Y679450D01*
X876300Y666750D01*
X869950Y660400D01*
X876300Y679450D02*
X882650Y685800D01*
X895350Y685800D01*
X901700Y679450D01*
X901700Y666750D01*
X895350Y660400D01*
X882650Y660400D01*
X876300Y666750D01*
X850900Y666750D02*
X850900Y679450D01*
X857250Y685800D01*
X850900Y666750D02*
X857250Y660400D01*
X869950Y660400D01*
X1085850Y685800D02*
X1098550Y685800D01*
X1104900Y679450D01*
X1104900Y666750D01*
X1098550Y660400D01*
X1079500Y679450D02*
X1085850Y685800D01*
X1079500Y666750D02*
X1085850Y660400D01*
X1098550Y660400D01*
D11*
X854583Y694563D02*
X854583Y703453D01*
X854583Y694563D02*
X854581Y694463D01*
X854575Y694364D01*
X854565Y694264D01*
X854552Y694166D01*
X854534Y694067D01*
X854513Y693970D01*
X854488Y693874D01*
X854459Y693778D01*
X854426Y693684D01*
X854390Y693591D01*
X854350Y693500D01*
X854306Y693410D01*
X854259Y693322D01*
X854209Y693236D01*
X854155Y693152D01*
X854098Y693070D01*
X854038Y692991D01*
X853974Y692913D01*
X853908Y692839D01*
X853839Y692767D01*
X853767Y692698D01*
X853693Y692632D01*
X853615Y692568D01*
X853536Y692508D01*
X853454Y692451D01*
X853370Y692397D01*
X853284Y692347D01*
X853196Y692300D01*
X853106Y692256D01*
X853015Y692216D01*
X852922Y692180D01*
X852828Y692147D01*
X852732Y692118D01*
X852636Y692093D01*
X852539Y692072D01*
X852440Y692054D01*
X852342Y692041D01*
X852242Y692031D01*
X852143Y692025D01*
X852043Y692023D01*
X850773Y692023D01*
X860563Y692023D02*
X860563Y703453D01*
X863738Y703453D01*
X863849Y703451D01*
X863959Y703445D01*
X864070Y703436D01*
X864180Y703422D01*
X864289Y703405D01*
X864398Y703384D01*
X864506Y703359D01*
X864613Y703330D01*
X864719Y703298D01*
X864824Y703262D01*
X864927Y703222D01*
X865029Y703179D01*
X865130Y703132D01*
X865229Y703081D01*
X865326Y703028D01*
X865420Y702971D01*
X865513Y702910D01*
X865604Y702847D01*
X865693Y702780D01*
X865779Y702710D01*
X865862Y702637D01*
X865944Y702562D01*
X866022Y702484D01*
X866097Y702402D01*
X866170Y702319D01*
X866240Y702233D01*
X866307Y702144D01*
X866370Y702053D01*
X866431Y701960D01*
X866488Y701865D01*
X866541Y701769D01*
X866592Y701670D01*
X866639Y701569D01*
X866682Y701467D01*
X866722Y701364D01*
X866758Y701259D01*
X866790Y701153D01*
X866819Y701046D01*
X866844Y700938D01*
X866865Y700829D01*
X866882Y700720D01*
X866896Y700610D01*
X866905Y700499D01*
X866911Y700389D01*
X866913Y700278D01*
X866911Y700167D01*
X866905Y700057D01*
X866896Y699946D01*
X866882Y699836D01*
X866865Y699727D01*
X866844Y699618D01*
X866819Y699510D01*
X866790Y699403D01*
X866758Y699297D01*
X866722Y699192D01*
X866682Y699089D01*
X866639Y698987D01*
X866592Y698886D01*
X866541Y698787D01*
X866488Y698691D01*
X866431Y698596D01*
X866370Y698503D01*
X866307Y698412D01*
X866240Y698323D01*
X866170Y698237D01*
X866097Y698154D01*
X866022Y698072D01*
X865944Y697994D01*
X865862Y697919D01*
X865779Y697846D01*
X865693Y697776D01*
X865604Y697709D01*
X865513Y697646D01*
X865420Y697585D01*
X865326Y697528D01*
X865229Y697475D01*
X865130Y697424D01*
X865029Y697377D01*
X864927Y697334D01*
X864824Y697294D01*
X864719Y697258D01*
X864613Y697226D01*
X864506Y697197D01*
X864398Y697172D01*
X864289Y697151D01*
X864180Y697134D01*
X864070Y697120D01*
X863959Y697111D01*
X863849Y697105D01*
X863738Y697103D01*
X860563Y697103D01*
X874914Y703454D02*
X875018Y703452D01*
X875123Y703446D01*
X875227Y703437D01*
X875330Y703424D01*
X875433Y703406D01*
X875535Y703386D01*
X875637Y703361D01*
X875737Y703333D01*
X875837Y703301D01*
X875935Y703265D01*
X876032Y703226D01*
X876127Y703184D01*
X876221Y703138D01*
X876313Y703088D01*
X876403Y703036D01*
X876491Y702980D01*
X876577Y702920D01*
X876661Y702858D01*
X876742Y702793D01*
X876821Y702725D01*
X876898Y702653D01*
X876971Y702580D01*
X877043Y702503D01*
X877111Y702424D01*
X877176Y702343D01*
X877238Y702259D01*
X877298Y702173D01*
X877354Y702085D01*
X877406Y701995D01*
X877456Y701903D01*
X877502Y701809D01*
X877544Y701714D01*
X877583Y701617D01*
X877619Y701519D01*
X877651Y701419D01*
X877679Y701319D01*
X877704Y701217D01*
X877724Y701115D01*
X877742Y701012D01*
X877755Y700909D01*
X877764Y700805D01*
X877770Y700700D01*
X877772Y700596D01*
X874914Y703453D02*
X874796Y703451D01*
X874677Y703445D01*
X874559Y703436D01*
X874442Y703423D01*
X874325Y703405D01*
X874208Y703385D01*
X874092Y703360D01*
X873977Y703332D01*
X873864Y703299D01*
X873751Y703264D01*
X873639Y703224D01*
X873529Y703182D01*
X873420Y703135D01*
X873312Y703085D01*
X873207Y703032D01*
X873103Y702975D01*
X873001Y702915D01*
X872901Y702852D01*
X872803Y702785D01*
X872707Y702716D01*
X872614Y702643D01*
X872523Y702567D01*
X872434Y702489D01*
X872348Y702407D01*
X872265Y702323D01*
X872184Y702237D01*
X872107Y702147D01*
X872032Y702056D01*
X871960Y701962D01*
X871891Y701865D01*
X871826Y701767D01*
X871763Y701666D01*
X871704Y701563D01*
X871648Y701459D01*
X871596Y701353D01*
X871547Y701245D01*
X871502Y701136D01*
X871460Y701025D01*
X871422Y700913D01*
X876820Y698374D02*
X876896Y698449D01*
X876971Y698528D01*
X877042Y698609D01*
X877111Y698693D01*
X877176Y698779D01*
X877238Y698867D01*
X877298Y698957D01*
X877354Y699049D01*
X877407Y699144D01*
X877456Y699240D01*
X877502Y699338D01*
X877545Y699437D01*
X877584Y699538D01*
X877619Y699640D01*
X877651Y699743D01*
X877679Y699847D01*
X877704Y699952D01*
X877725Y700059D01*
X877742Y700165D01*
X877755Y700272D01*
X877764Y700380D01*
X877770Y700488D01*
X877772Y700596D01*
X876819Y698373D02*
X871422Y692023D01*
X877772Y692023D01*
D10*
X438150Y593090D02*
X425450Y593090D01*
X438150Y593090D02*
X438290Y593088D01*
X438430Y593082D01*
X438570Y593073D01*
X438709Y593059D01*
X438848Y593042D01*
X438986Y593021D01*
X439124Y592996D01*
X439261Y592967D01*
X439397Y592935D01*
X439532Y592898D01*
X439666Y592858D01*
X439799Y592815D01*
X439931Y592767D01*
X440062Y592717D01*
X440191Y592662D01*
X440318Y592604D01*
X440444Y592543D01*
X440568Y592478D01*
X440690Y592409D01*
X440810Y592338D01*
X440928Y592263D01*
X441045Y592185D01*
X441159Y592103D01*
X441270Y592019D01*
X441379Y591931D01*
X441486Y591841D01*
X441591Y591747D01*
X441692Y591651D01*
X441791Y591552D01*
X441887Y591451D01*
X441981Y591346D01*
X442071Y591239D01*
X442159Y591130D01*
X442243Y591019D01*
X442325Y590905D01*
X442403Y590788D01*
X442478Y590670D01*
X442549Y590550D01*
X442618Y590428D01*
X442683Y590304D01*
X442744Y590178D01*
X442802Y590051D01*
X442857Y589922D01*
X442907Y589791D01*
X442955Y589659D01*
X442998Y589526D01*
X443038Y589392D01*
X443075Y589257D01*
X443107Y589121D01*
X443136Y588984D01*
X443161Y588846D01*
X443182Y588708D01*
X443199Y588569D01*
X443213Y588430D01*
X443222Y588290D01*
X443228Y588150D01*
X443230Y588010D01*
X425450Y593090D02*
X425310Y593088D01*
X425170Y593082D01*
X425030Y593073D01*
X424891Y593059D01*
X424752Y593042D01*
X424614Y593021D01*
X424476Y592996D01*
X424339Y592967D01*
X424203Y592935D01*
X424068Y592898D01*
X423934Y592858D01*
X423801Y592815D01*
X423669Y592767D01*
X423538Y592717D01*
X423409Y592662D01*
X423282Y592604D01*
X423156Y592543D01*
X423032Y592478D01*
X422910Y592409D01*
X422790Y592338D01*
X422672Y592263D01*
X422555Y592185D01*
X422441Y592103D01*
X422330Y592019D01*
X422221Y591931D01*
X422114Y591841D01*
X422009Y591747D01*
X421908Y591651D01*
X421809Y591552D01*
X421713Y591451D01*
X421619Y591346D01*
X421529Y591239D01*
X421441Y591130D01*
X421357Y591019D01*
X421275Y590905D01*
X421197Y590788D01*
X421122Y590670D01*
X421051Y590550D01*
X420982Y590428D01*
X420917Y590304D01*
X420856Y590178D01*
X420798Y590051D01*
X420743Y589922D01*
X420693Y589791D01*
X420645Y589659D01*
X420602Y589526D01*
X420562Y589392D01*
X420525Y589257D01*
X420493Y589121D01*
X420464Y588984D01*
X420439Y588846D01*
X420418Y588708D01*
X420401Y588569D01*
X420387Y588430D01*
X420378Y588290D01*
X420372Y588150D01*
X420370Y588010D01*
X443230Y588010D02*
X443230Y554990D01*
X438150Y549910D02*
X425450Y549910D01*
X420370Y554990D02*
X420370Y588010D01*
X443230Y554990D02*
X443228Y554850D01*
X443222Y554710D01*
X443213Y554570D01*
X443199Y554431D01*
X443182Y554292D01*
X443161Y554154D01*
X443136Y554016D01*
X443107Y553879D01*
X443075Y553743D01*
X443038Y553608D01*
X442998Y553474D01*
X442955Y553341D01*
X442907Y553209D01*
X442857Y553078D01*
X442802Y552949D01*
X442744Y552822D01*
X442683Y552696D01*
X442618Y552572D01*
X442549Y552450D01*
X442478Y552330D01*
X442403Y552212D01*
X442325Y552095D01*
X442243Y551981D01*
X442159Y551870D01*
X442071Y551761D01*
X441981Y551654D01*
X441887Y551549D01*
X441791Y551448D01*
X441692Y551349D01*
X441591Y551253D01*
X441486Y551159D01*
X441379Y551069D01*
X441270Y550981D01*
X441159Y550897D01*
X441045Y550815D01*
X440928Y550737D01*
X440810Y550662D01*
X440690Y550591D01*
X440568Y550522D01*
X440444Y550457D01*
X440318Y550396D01*
X440191Y550338D01*
X440062Y550283D01*
X439931Y550233D01*
X439799Y550185D01*
X439666Y550142D01*
X439532Y550102D01*
X439397Y550065D01*
X439261Y550033D01*
X439124Y550004D01*
X438986Y549979D01*
X438848Y549958D01*
X438709Y549941D01*
X438570Y549927D01*
X438430Y549918D01*
X438290Y549912D01*
X438150Y549910D01*
X425450Y549910D02*
X425310Y549912D01*
X425170Y549918D01*
X425030Y549927D01*
X424891Y549941D01*
X424752Y549958D01*
X424614Y549979D01*
X424476Y550004D01*
X424339Y550033D01*
X424203Y550065D01*
X424068Y550102D01*
X423934Y550142D01*
X423801Y550185D01*
X423669Y550233D01*
X423538Y550283D01*
X423409Y550338D01*
X423282Y550396D01*
X423156Y550457D01*
X423032Y550522D01*
X422910Y550591D01*
X422790Y550662D01*
X422672Y550737D01*
X422555Y550815D01*
X422441Y550897D01*
X422330Y550981D01*
X422221Y551069D01*
X422114Y551159D01*
X422009Y551253D01*
X421908Y551349D01*
X421809Y551448D01*
X421713Y551549D01*
X421619Y551654D01*
X421529Y551761D01*
X421441Y551870D01*
X421357Y551981D01*
X421275Y552095D01*
X421197Y552212D01*
X421122Y552330D01*
X421051Y552450D01*
X420982Y552572D01*
X420917Y552696D01*
X420856Y552822D01*
X420798Y552949D01*
X420743Y553078D01*
X420693Y553209D01*
X420645Y553341D01*
X420602Y553474D01*
X420562Y553608D01*
X420525Y553743D01*
X420493Y553879D01*
X420464Y554016D01*
X420439Y554154D01*
X420418Y554292D01*
X420401Y554431D01*
X420387Y554570D01*
X420378Y554710D01*
X420372Y554850D01*
X420370Y554990D01*
D12*
X424180Y574548D02*
X439420Y574548D01*
X439420Y568198D02*
X424180Y568198D01*
D11*
X457835Y575273D02*
X457835Y577813D01*
X457835Y575273D02*
X457833Y575173D01*
X457827Y575074D01*
X457817Y574974D01*
X457804Y574876D01*
X457786Y574777D01*
X457765Y574680D01*
X457740Y574584D01*
X457711Y574488D01*
X457678Y574394D01*
X457642Y574301D01*
X457602Y574210D01*
X457558Y574120D01*
X457511Y574032D01*
X457461Y573946D01*
X457407Y573862D01*
X457350Y573780D01*
X457290Y573701D01*
X457226Y573623D01*
X457160Y573549D01*
X457091Y573477D01*
X457019Y573408D01*
X456945Y573342D01*
X456867Y573278D01*
X456788Y573218D01*
X456706Y573161D01*
X456622Y573107D01*
X456536Y573057D01*
X456448Y573010D01*
X456358Y572966D01*
X456267Y572926D01*
X456174Y572890D01*
X456080Y572857D01*
X455984Y572828D01*
X455888Y572803D01*
X455791Y572782D01*
X455692Y572764D01*
X455594Y572751D01*
X455494Y572741D01*
X455395Y572735D01*
X455295Y572733D01*
X448945Y572733D01*
X448845Y572735D01*
X448746Y572741D01*
X448646Y572751D01*
X448548Y572764D01*
X448449Y572782D01*
X448352Y572803D01*
X448256Y572828D01*
X448160Y572857D01*
X448066Y572890D01*
X447973Y572926D01*
X447882Y572966D01*
X447792Y573010D01*
X447704Y573057D01*
X447618Y573107D01*
X447534Y573161D01*
X447452Y573218D01*
X447373Y573278D01*
X447295Y573342D01*
X447221Y573408D01*
X447149Y573477D01*
X447080Y573549D01*
X447014Y573623D01*
X446950Y573701D01*
X446890Y573780D01*
X446833Y573862D01*
X446779Y573946D01*
X446729Y574032D01*
X446682Y574120D01*
X446638Y574210D01*
X446598Y574301D01*
X446562Y574394D01*
X446529Y574488D01*
X446500Y574584D01*
X446475Y574680D01*
X446454Y574777D01*
X446436Y574876D01*
X446423Y574974D01*
X446413Y575074D01*
X446407Y575173D01*
X446405Y575273D01*
X446405Y577813D01*
X448945Y582295D02*
X446405Y585470D01*
X457835Y585470D01*
X457835Y582295D02*
X457835Y588645D01*
D10*
X876300Y591820D02*
X876302Y591920D01*
X876308Y592019D01*
X876318Y592119D01*
X876331Y592217D01*
X876349Y592316D01*
X876370Y592413D01*
X876395Y592509D01*
X876424Y592605D01*
X876457Y592699D01*
X876493Y592792D01*
X876533Y592883D01*
X876577Y592973D01*
X876624Y593061D01*
X876674Y593147D01*
X876728Y593231D01*
X876785Y593313D01*
X876845Y593392D01*
X876909Y593470D01*
X876975Y593544D01*
X877044Y593616D01*
X877116Y593685D01*
X877190Y593751D01*
X877268Y593815D01*
X877347Y593875D01*
X877429Y593932D01*
X877513Y593986D01*
X877599Y594036D01*
X877687Y594083D01*
X877777Y594127D01*
X877868Y594167D01*
X877961Y594203D01*
X878055Y594236D01*
X878151Y594265D01*
X878247Y594290D01*
X878344Y594311D01*
X878443Y594329D01*
X878541Y594342D01*
X878641Y594352D01*
X878740Y594358D01*
X878840Y594360D01*
X876300Y576580D02*
X876302Y576480D01*
X876308Y576381D01*
X876318Y576281D01*
X876331Y576183D01*
X876349Y576084D01*
X876370Y575987D01*
X876395Y575891D01*
X876424Y575795D01*
X876457Y575701D01*
X876493Y575608D01*
X876533Y575517D01*
X876577Y575427D01*
X876624Y575339D01*
X876674Y575253D01*
X876728Y575169D01*
X876785Y575087D01*
X876845Y575008D01*
X876909Y574930D01*
X876975Y574856D01*
X877044Y574784D01*
X877116Y574715D01*
X877190Y574649D01*
X877268Y574585D01*
X877347Y574525D01*
X877429Y574468D01*
X877513Y574414D01*
X877599Y574364D01*
X877687Y574317D01*
X877777Y574273D01*
X877868Y574233D01*
X877961Y574197D01*
X878055Y574164D01*
X878151Y574135D01*
X878247Y574110D01*
X878344Y574089D01*
X878443Y574071D01*
X878541Y574058D01*
X878641Y574048D01*
X878740Y574042D01*
X878840Y574040D01*
X924560Y574040D02*
X924660Y574042D01*
X924759Y574048D01*
X924859Y574058D01*
X924957Y574071D01*
X925056Y574089D01*
X925153Y574110D01*
X925249Y574135D01*
X925345Y574164D01*
X925439Y574197D01*
X925532Y574233D01*
X925623Y574273D01*
X925713Y574317D01*
X925801Y574364D01*
X925887Y574414D01*
X925971Y574468D01*
X926053Y574525D01*
X926132Y574585D01*
X926210Y574649D01*
X926284Y574715D01*
X926356Y574784D01*
X926425Y574856D01*
X926491Y574930D01*
X926555Y575008D01*
X926615Y575087D01*
X926672Y575169D01*
X926726Y575253D01*
X926776Y575339D01*
X926823Y575427D01*
X926867Y575517D01*
X926907Y575608D01*
X926943Y575701D01*
X926976Y575795D01*
X927005Y575891D01*
X927030Y575987D01*
X927051Y576084D01*
X927069Y576183D01*
X927082Y576281D01*
X927092Y576381D01*
X927098Y576480D01*
X927100Y576580D01*
X927100Y591820D02*
X927098Y591920D01*
X927092Y592019D01*
X927082Y592119D01*
X927069Y592217D01*
X927051Y592316D01*
X927030Y592413D01*
X927005Y592509D01*
X926976Y592605D01*
X926943Y592699D01*
X926907Y592792D01*
X926867Y592883D01*
X926823Y592973D01*
X926776Y593061D01*
X926726Y593147D01*
X926672Y593231D01*
X926615Y593313D01*
X926555Y593392D01*
X926491Y593470D01*
X926425Y593544D01*
X926356Y593616D01*
X926284Y593685D01*
X926210Y593751D01*
X926132Y593815D01*
X926053Y593875D01*
X925971Y593932D01*
X925887Y593986D01*
X925801Y594036D01*
X925713Y594083D01*
X925623Y594127D01*
X925532Y594167D01*
X925439Y594203D01*
X925345Y594236D01*
X925249Y594265D01*
X925153Y594290D01*
X925056Y594311D01*
X924957Y594329D01*
X924859Y594342D01*
X924759Y594352D01*
X924660Y594358D01*
X924560Y594360D01*
X876300Y591820D02*
X876300Y576580D01*
X878840Y594360D02*
X882650Y594360D01*
X883920Y593090D01*
X882650Y574040D02*
X878840Y574040D01*
X882650Y574040D02*
X883920Y575310D01*
X919480Y593090D02*
X920750Y594360D01*
X919480Y593090D02*
X883920Y593090D01*
X919480Y575310D02*
X920750Y574040D01*
X919480Y575310D02*
X883920Y575310D01*
X920750Y594360D02*
X924560Y594360D01*
X924560Y574040D02*
X920750Y574040D01*
X927100Y576580D02*
X927100Y591820D01*
D13*
X929005Y584200D03*
X874395Y584200D03*
D14*
X876808Y597662D02*
X876808Y606552D01*
X879277Y606552D01*
X879375Y606550D01*
X879473Y606544D01*
X879571Y606534D01*
X879668Y606521D01*
X879765Y606503D01*
X879861Y606482D01*
X879955Y606457D01*
X880049Y606428D01*
X880142Y606396D01*
X880233Y606359D01*
X880323Y606320D01*
X880411Y606276D01*
X880497Y606229D01*
X880582Y606179D01*
X880664Y606126D01*
X880744Y606069D01*
X880822Y606009D01*
X880897Y605946D01*
X880970Y605880D01*
X881040Y605811D01*
X881107Y605740D01*
X881172Y605666D01*
X881233Y605589D01*
X881292Y605510D01*
X881347Y605429D01*
X881399Y605346D01*
X881447Y605260D01*
X881492Y605173D01*
X881534Y605084D01*
X881572Y604994D01*
X881606Y604902D01*
X881637Y604809D01*
X881664Y604714D01*
X881687Y604619D01*
X881707Y604522D01*
X881722Y604426D01*
X881734Y604328D01*
X881742Y604230D01*
X881746Y604132D01*
X881746Y604034D01*
X881742Y603936D01*
X881734Y603838D01*
X881722Y603740D01*
X881707Y603644D01*
X881687Y603547D01*
X881664Y603452D01*
X881637Y603357D01*
X881606Y603264D01*
X881572Y603172D01*
X881534Y603082D01*
X881492Y602993D01*
X881447Y602906D01*
X881399Y602820D01*
X881347Y602737D01*
X881292Y602656D01*
X881233Y602577D01*
X881172Y602500D01*
X881107Y602426D01*
X881040Y602355D01*
X880970Y602286D01*
X880897Y602220D01*
X880822Y602157D01*
X880744Y602097D01*
X880664Y602040D01*
X880582Y601987D01*
X880497Y601937D01*
X880411Y601890D01*
X880323Y601846D01*
X880233Y601807D01*
X880142Y601770D01*
X880049Y601738D01*
X879955Y601709D01*
X879861Y601684D01*
X879765Y601663D01*
X879668Y601645D01*
X879571Y601632D01*
X879473Y601622D01*
X879375Y601616D01*
X879277Y601614D01*
X879277Y601613D02*
X876808Y601613D01*
X879771Y601613D02*
X881747Y597662D01*
X885658Y604576D02*
X888127Y606552D01*
X888127Y597662D01*
X885658Y597662D02*
X890597Y597662D01*
D10*
X878840Y568960D02*
X878740Y568958D01*
X878641Y568952D01*
X878541Y568942D01*
X878443Y568929D01*
X878344Y568911D01*
X878247Y568890D01*
X878151Y568865D01*
X878055Y568836D01*
X877961Y568803D01*
X877868Y568767D01*
X877777Y568727D01*
X877687Y568683D01*
X877599Y568636D01*
X877513Y568586D01*
X877429Y568532D01*
X877347Y568475D01*
X877268Y568415D01*
X877190Y568351D01*
X877116Y568285D01*
X877044Y568216D01*
X876975Y568144D01*
X876909Y568070D01*
X876845Y567992D01*
X876785Y567913D01*
X876728Y567831D01*
X876674Y567747D01*
X876624Y567661D01*
X876577Y567573D01*
X876533Y567483D01*
X876493Y567392D01*
X876457Y567299D01*
X876424Y567205D01*
X876395Y567109D01*
X876370Y567013D01*
X876349Y566916D01*
X876331Y566817D01*
X876318Y566719D01*
X876308Y566619D01*
X876302Y566520D01*
X876300Y566420D01*
X876300Y551180D02*
X876302Y551080D01*
X876308Y550981D01*
X876318Y550881D01*
X876331Y550783D01*
X876349Y550684D01*
X876370Y550587D01*
X876395Y550491D01*
X876424Y550395D01*
X876457Y550301D01*
X876493Y550208D01*
X876533Y550117D01*
X876577Y550027D01*
X876624Y549939D01*
X876674Y549853D01*
X876728Y549769D01*
X876785Y549687D01*
X876845Y549608D01*
X876909Y549530D01*
X876975Y549456D01*
X877044Y549384D01*
X877116Y549315D01*
X877190Y549249D01*
X877268Y549185D01*
X877347Y549125D01*
X877429Y549068D01*
X877513Y549014D01*
X877599Y548964D01*
X877687Y548917D01*
X877777Y548873D01*
X877868Y548833D01*
X877961Y548797D01*
X878055Y548764D01*
X878151Y548735D01*
X878247Y548710D01*
X878344Y548689D01*
X878443Y548671D01*
X878541Y548658D01*
X878641Y548648D01*
X878740Y548642D01*
X878840Y548640D01*
X924560Y548640D02*
X924660Y548642D01*
X924759Y548648D01*
X924859Y548658D01*
X924957Y548671D01*
X925056Y548689D01*
X925153Y548710D01*
X925249Y548735D01*
X925345Y548764D01*
X925439Y548797D01*
X925532Y548833D01*
X925623Y548873D01*
X925713Y548917D01*
X925801Y548964D01*
X925887Y549014D01*
X925971Y549068D01*
X926053Y549125D01*
X926132Y549185D01*
X926210Y549249D01*
X926284Y549315D01*
X926356Y549384D01*
X926425Y549456D01*
X926491Y549530D01*
X926555Y549608D01*
X926615Y549687D01*
X926672Y549769D01*
X926726Y549853D01*
X926776Y549939D01*
X926823Y550027D01*
X926867Y550117D01*
X926907Y550208D01*
X926943Y550301D01*
X926976Y550395D01*
X927005Y550491D01*
X927030Y550587D01*
X927051Y550684D01*
X927069Y550783D01*
X927082Y550881D01*
X927092Y550981D01*
X927098Y551080D01*
X927100Y551180D01*
X927100Y566420D02*
X927098Y566520D01*
X927092Y566619D01*
X927082Y566719D01*
X927069Y566817D01*
X927051Y566916D01*
X927030Y567013D01*
X927005Y567109D01*
X926976Y567205D01*
X926943Y567299D01*
X926907Y567392D01*
X926867Y567483D01*
X926823Y567573D01*
X926776Y567661D01*
X926726Y567747D01*
X926672Y567831D01*
X926615Y567913D01*
X926555Y567992D01*
X926491Y568070D01*
X926425Y568144D01*
X926356Y568216D01*
X926284Y568285D01*
X926210Y568351D01*
X926132Y568415D01*
X926053Y568475D01*
X925971Y568532D01*
X925887Y568586D01*
X925801Y568636D01*
X925713Y568683D01*
X925623Y568727D01*
X925532Y568767D01*
X925439Y568803D01*
X925345Y568836D01*
X925249Y568865D01*
X925153Y568890D01*
X925056Y568911D01*
X924957Y568929D01*
X924859Y568942D01*
X924759Y568952D01*
X924660Y568958D01*
X924560Y568960D01*
X876300Y566420D02*
X876300Y551180D01*
X878840Y568960D02*
X882650Y568960D01*
X883920Y567690D01*
X882650Y548640D02*
X878840Y548640D01*
X882650Y548640D02*
X883920Y549910D01*
X919480Y567690D02*
X920750Y568960D01*
X919480Y567690D02*
X883920Y567690D01*
X919480Y549910D02*
X920750Y548640D01*
X919480Y549910D02*
X883920Y549910D01*
X920750Y568960D02*
X924560Y568960D01*
X924560Y548640D02*
X920750Y548640D01*
X927100Y551180D02*
X927100Y566420D01*
D13*
X929005Y558800D03*
X874395Y558800D03*
D14*
X876808Y572262D02*
X876808Y581152D01*
X879277Y581152D01*
X879375Y581150D01*
X879473Y581144D01*
X879571Y581134D01*
X879668Y581121D01*
X879765Y581103D01*
X879861Y581082D01*
X879955Y581057D01*
X880049Y581028D01*
X880142Y580996D01*
X880233Y580959D01*
X880323Y580920D01*
X880411Y580876D01*
X880497Y580829D01*
X880582Y580779D01*
X880664Y580726D01*
X880744Y580669D01*
X880822Y580609D01*
X880897Y580546D01*
X880970Y580480D01*
X881040Y580411D01*
X881107Y580340D01*
X881172Y580266D01*
X881233Y580189D01*
X881292Y580110D01*
X881347Y580029D01*
X881399Y579946D01*
X881447Y579860D01*
X881492Y579773D01*
X881534Y579684D01*
X881572Y579594D01*
X881606Y579502D01*
X881637Y579409D01*
X881664Y579314D01*
X881687Y579219D01*
X881707Y579122D01*
X881722Y579026D01*
X881734Y578928D01*
X881742Y578830D01*
X881746Y578732D01*
X881746Y578634D01*
X881742Y578536D01*
X881734Y578438D01*
X881722Y578340D01*
X881707Y578244D01*
X881687Y578147D01*
X881664Y578052D01*
X881637Y577957D01*
X881606Y577864D01*
X881572Y577772D01*
X881534Y577682D01*
X881492Y577593D01*
X881447Y577506D01*
X881399Y577420D01*
X881347Y577337D01*
X881292Y577256D01*
X881233Y577177D01*
X881172Y577100D01*
X881107Y577026D01*
X881040Y576955D01*
X880970Y576886D01*
X880897Y576820D01*
X880822Y576757D01*
X880744Y576697D01*
X880664Y576640D01*
X880582Y576587D01*
X880497Y576537D01*
X880411Y576490D01*
X880323Y576446D01*
X880233Y576407D01*
X880142Y576370D01*
X880049Y576338D01*
X879955Y576309D01*
X879861Y576284D01*
X879765Y576263D01*
X879668Y576245D01*
X879571Y576232D01*
X879473Y576222D01*
X879375Y576216D01*
X879277Y576214D01*
X879277Y576213D02*
X876808Y576213D01*
X879771Y576213D02*
X881747Y572262D01*
X890597Y578930D02*
X890595Y579022D01*
X890589Y579114D01*
X890580Y579205D01*
X890567Y579296D01*
X890550Y579386D01*
X890529Y579476D01*
X890505Y579564D01*
X890477Y579652D01*
X890445Y579738D01*
X890410Y579823D01*
X890371Y579906D01*
X890329Y579988D01*
X890284Y580068D01*
X890235Y580146D01*
X890183Y580222D01*
X890128Y580295D01*
X890070Y580367D01*
X890010Y580436D01*
X889946Y580502D01*
X889880Y580566D01*
X889811Y580626D01*
X889739Y580684D01*
X889666Y580739D01*
X889590Y580791D01*
X889512Y580840D01*
X889432Y580885D01*
X889350Y580927D01*
X889267Y580966D01*
X889182Y581001D01*
X889096Y581033D01*
X889008Y581061D01*
X888920Y581085D01*
X888830Y581106D01*
X888740Y581123D01*
X888649Y581136D01*
X888558Y581145D01*
X888466Y581151D01*
X888374Y581153D01*
X888374Y581152D02*
X888268Y581150D01*
X888163Y581144D01*
X888058Y581134D01*
X887953Y581121D01*
X887849Y581103D01*
X887746Y581082D01*
X887643Y581057D01*
X887541Y581028D01*
X887441Y580995D01*
X887342Y580959D01*
X887244Y580919D01*
X887148Y580875D01*
X887053Y580828D01*
X886961Y580778D01*
X886870Y580724D01*
X886781Y580666D01*
X886695Y580606D01*
X886611Y580542D01*
X886529Y580476D01*
X886449Y580406D01*
X886373Y580333D01*
X886299Y580258D01*
X886228Y580180D01*
X886160Y580099D01*
X886094Y580016D01*
X886032Y579930D01*
X885974Y579843D01*
X885918Y579753D01*
X885866Y579661D01*
X885817Y579567D01*
X885772Y579472D01*
X885730Y579375D01*
X885692Y579276D01*
X885658Y579177D01*
X889856Y577201D02*
X889925Y577270D01*
X889991Y577340D01*
X890054Y577414D01*
X890113Y577490D01*
X890170Y577568D01*
X890224Y577648D01*
X890274Y577731D01*
X890321Y577815D01*
X890364Y577902D01*
X890404Y577990D01*
X890440Y578079D01*
X890473Y578170D01*
X890502Y578262D01*
X890527Y578356D01*
X890548Y578450D01*
X890566Y578545D01*
X890579Y578641D01*
X890589Y578737D01*
X890595Y578833D01*
X890597Y578930D01*
X889856Y577201D02*
X885658Y572262D01*
X890597Y572262D01*
D10*
X878840Y543560D02*
X878740Y543558D01*
X878641Y543552D01*
X878541Y543542D01*
X878443Y543529D01*
X878344Y543511D01*
X878247Y543490D01*
X878151Y543465D01*
X878055Y543436D01*
X877961Y543403D01*
X877868Y543367D01*
X877777Y543327D01*
X877687Y543283D01*
X877599Y543236D01*
X877513Y543186D01*
X877429Y543132D01*
X877347Y543075D01*
X877268Y543015D01*
X877190Y542951D01*
X877116Y542885D01*
X877044Y542816D01*
X876975Y542744D01*
X876909Y542670D01*
X876845Y542592D01*
X876785Y542513D01*
X876728Y542431D01*
X876674Y542347D01*
X876624Y542261D01*
X876577Y542173D01*
X876533Y542083D01*
X876493Y541992D01*
X876457Y541899D01*
X876424Y541805D01*
X876395Y541709D01*
X876370Y541613D01*
X876349Y541516D01*
X876331Y541417D01*
X876318Y541319D01*
X876308Y541219D01*
X876302Y541120D01*
X876300Y541020D01*
X876300Y525780D02*
X876302Y525680D01*
X876308Y525581D01*
X876318Y525481D01*
X876331Y525383D01*
X876349Y525284D01*
X876370Y525187D01*
X876395Y525091D01*
X876424Y524995D01*
X876457Y524901D01*
X876493Y524808D01*
X876533Y524717D01*
X876577Y524627D01*
X876624Y524539D01*
X876674Y524453D01*
X876728Y524369D01*
X876785Y524287D01*
X876845Y524208D01*
X876909Y524130D01*
X876975Y524056D01*
X877044Y523984D01*
X877116Y523915D01*
X877190Y523849D01*
X877268Y523785D01*
X877347Y523725D01*
X877429Y523668D01*
X877513Y523614D01*
X877599Y523564D01*
X877687Y523517D01*
X877777Y523473D01*
X877868Y523433D01*
X877961Y523397D01*
X878055Y523364D01*
X878151Y523335D01*
X878247Y523310D01*
X878344Y523289D01*
X878443Y523271D01*
X878541Y523258D01*
X878641Y523248D01*
X878740Y523242D01*
X878840Y523240D01*
X924560Y523240D02*
X924660Y523242D01*
X924759Y523248D01*
X924859Y523258D01*
X924957Y523271D01*
X925056Y523289D01*
X925153Y523310D01*
X925249Y523335D01*
X925345Y523364D01*
X925439Y523397D01*
X925532Y523433D01*
X925623Y523473D01*
X925713Y523517D01*
X925801Y523564D01*
X925887Y523614D01*
X925971Y523668D01*
X926053Y523725D01*
X926132Y523785D01*
X926210Y523849D01*
X926284Y523915D01*
X926356Y523984D01*
X926425Y524056D01*
X926491Y524130D01*
X926555Y524208D01*
X926615Y524287D01*
X926672Y524369D01*
X926726Y524453D01*
X926776Y524539D01*
X926823Y524627D01*
X926867Y524717D01*
X926907Y524808D01*
X926943Y524901D01*
X926976Y524995D01*
X927005Y525091D01*
X927030Y525187D01*
X927051Y525284D01*
X927069Y525383D01*
X927082Y525481D01*
X927092Y525581D01*
X927098Y525680D01*
X927100Y525780D01*
X927100Y541020D02*
X927098Y541120D01*
X927092Y541219D01*
X927082Y541319D01*
X927069Y541417D01*
X927051Y541516D01*
X927030Y541613D01*
X927005Y541709D01*
X926976Y541805D01*
X926943Y541899D01*
X926907Y541992D01*
X926867Y542083D01*
X926823Y542173D01*
X926776Y542261D01*
X926726Y542347D01*
X926672Y542431D01*
X926615Y542513D01*
X926555Y542592D01*
X926491Y542670D01*
X926425Y542744D01*
X926356Y542816D01*
X926284Y542885D01*
X926210Y542951D01*
X926132Y543015D01*
X926053Y543075D01*
X925971Y543132D01*
X925887Y543186D01*
X925801Y543236D01*
X925713Y543283D01*
X925623Y543327D01*
X925532Y543367D01*
X925439Y543403D01*
X925345Y543436D01*
X925249Y543465D01*
X925153Y543490D01*
X925056Y543511D01*
X924957Y543529D01*
X924859Y543542D01*
X924759Y543552D01*
X924660Y543558D01*
X924560Y543560D01*
X876300Y541020D02*
X876300Y525780D01*
X878840Y543560D02*
X882650Y543560D01*
X883920Y542290D01*
X882650Y523240D02*
X878840Y523240D01*
X882650Y523240D02*
X883920Y524510D01*
X919480Y542290D02*
X920750Y543560D01*
X919480Y542290D02*
X883920Y542290D01*
X919480Y524510D02*
X920750Y523240D01*
X919480Y524510D02*
X883920Y524510D01*
X920750Y543560D02*
X924560Y543560D01*
X924560Y523240D02*
X920750Y523240D01*
X927100Y525780D02*
X927100Y541020D01*
D13*
X929005Y533400D03*
X874395Y533400D03*
D14*
X876808Y546862D02*
X876808Y555752D01*
X879277Y555752D01*
X879375Y555750D01*
X879473Y555744D01*
X879571Y555734D01*
X879668Y555721D01*
X879765Y555703D01*
X879861Y555682D01*
X879955Y555657D01*
X880049Y555628D01*
X880142Y555596D01*
X880233Y555559D01*
X880323Y555520D01*
X880411Y555476D01*
X880497Y555429D01*
X880582Y555379D01*
X880664Y555326D01*
X880744Y555269D01*
X880822Y555209D01*
X880897Y555146D01*
X880970Y555080D01*
X881040Y555011D01*
X881107Y554940D01*
X881172Y554866D01*
X881233Y554789D01*
X881292Y554710D01*
X881347Y554629D01*
X881399Y554546D01*
X881447Y554460D01*
X881492Y554373D01*
X881534Y554284D01*
X881572Y554194D01*
X881606Y554102D01*
X881637Y554009D01*
X881664Y553914D01*
X881687Y553819D01*
X881707Y553722D01*
X881722Y553626D01*
X881734Y553528D01*
X881742Y553430D01*
X881746Y553332D01*
X881746Y553234D01*
X881742Y553136D01*
X881734Y553038D01*
X881722Y552940D01*
X881707Y552844D01*
X881687Y552747D01*
X881664Y552652D01*
X881637Y552557D01*
X881606Y552464D01*
X881572Y552372D01*
X881534Y552282D01*
X881492Y552193D01*
X881447Y552106D01*
X881399Y552020D01*
X881347Y551937D01*
X881292Y551856D01*
X881233Y551777D01*
X881172Y551700D01*
X881107Y551626D01*
X881040Y551555D01*
X880970Y551486D01*
X880897Y551420D01*
X880822Y551357D01*
X880744Y551297D01*
X880664Y551240D01*
X880582Y551187D01*
X880497Y551137D01*
X880411Y551090D01*
X880323Y551046D01*
X880233Y551007D01*
X880142Y550970D01*
X880049Y550938D01*
X879955Y550909D01*
X879861Y550884D01*
X879765Y550863D01*
X879668Y550845D01*
X879571Y550832D01*
X879473Y550822D01*
X879375Y550816D01*
X879277Y550814D01*
X879277Y550813D02*
X876808Y550813D01*
X879771Y550813D02*
X881747Y546862D01*
X885658Y546862D02*
X888127Y546862D01*
X888225Y546864D01*
X888323Y546870D01*
X888421Y546880D01*
X888518Y546893D01*
X888615Y546911D01*
X888711Y546932D01*
X888805Y546957D01*
X888899Y546986D01*
X888992Y547018D01*
X889083Y547055D01*
X889173Y547094D01*
X889261Y547138D01*
X889347Y547185D01*
X889432Y547235D01*
X889514Y547288D01*
X889594Y547345D01*
X889672Y547405D01*
X889747Y547468D01*
X889820Y547534D01*
X889890Y547603D01*
X889957Y547674D01*
X890022Y547748D01*
X890083Y547825D01*
X890142Y547904D01*
X890197Y547985D01*
X890249Y548068D01*
X890297Y548154D01*
X890342Y548241D01*
X890384Y548330D01*
X890422Y548420D01*
X890456Y548512D01*
X890487Y548605D01*
X890514Y548700D01*
X890537Y548795D01*
X890557Y548892D01*
X890572Y548988D01*
X890584Y549086D01*
X890592Y549184D01*
X890596Y549282D01*
X890596Y549380D01*
X890592Y549478D01*
X890584Y549576D01*
X890572Y549674D01*
X890557Y549770D01*
X890537Y549867D01*
X890514Y549962D01*
X890487Y550057D01*
X890456Y550150D01*
X890422Y550242D01*
X890384Y550332D01*
X890342Y550421D01*
X890297Y550508D01*
X890249Y550594D01*
X890197Y550677D01*
X890142Y550758D01*
X890083Y550837D01*
X890022Y550914D01*
X889957Y550988D01*
X889890Y551059D01*
X889820Y551128D01*
X889747Y551194D01*
X889672Y551257D01*
X889594Y551317D01*
X889514Y551374D01*
X889432Y551427D01*
X889347Y551477D01*
X889261Y551524D01*
X889173Y551568D01*
X889083Y551607D01*
X888992Y551644D01*
X888899Y551676D01*
X888805Y551705D01*
X888711Y551730D01*
X888615Y551751D01*
X888518Y551769D01*
X888421Y551782D01*
X888323Y551792D01*
X888225Y551798D01*
X888127Y551800D01*
X888621Y555752D02*
X885658Y555752D01*
X888621Y555752D02*
X888708Y555750D01*
X888796Y555744D01*
X888883Y555735D01*
X888969Y555721D01*
X889055Y555704D01*
X889139Y555683D01*
X889223Y555658D01*
X889306Y555629D01*
X889387Y555597D01*
X889467Y555562D01*
X889545Y555523D01*
X889622Y555480D01*
X889696Y555434D01*
X889768Y555385D01*
X889838Y555333D01*
X889906Y555277D01*
X889971Y555219D01*
X890034Y555158D01*
X890093Y555094D01*
X890150Y555027D01*
X890204Y554959D01*
X890255Y554887D01*
X890302Y554814D01*
X890347Y554739D01*
X890388Y554661D01*
X890425Y554582D01*
X890459Y554502D01*
X890489Y554420D01*
X890516Y554337D01*
X890539Y554252D01*
X890558Y554167D01*
X890573Y554081D01*
X890585Y553994D01*
X890593Y553907D01*
X890597Y553820D01*
X890597Y553732D01*
X890593Y553645D01*
X890585Y553558D01*
X890573Y553471D01*
X890558Y553385D01*
X890539Y553300D01*
X890516Y553215D01*
X890489Y553132D01*
X890459Y553050D01*
X890425Y552970D01*
X890388Y552891D01*
X890347Y552813D01*
X890302Y552738D01*
X890255Y552665D01*
X890204Y552593D01*
X890150Y552525D01*
X890093Y552458D01*
X890034Y552394D01*
X889971Y552333D01*
X889906Y552275D01*
X889838Y552219D01*
X889768Y552167D01*
X889696Y552118D01*
X889622Y552072D01*
X889545Y552029D01*
X889467Y551990D01*
X889387Y551955D01*
X889306Y551923D01*
X889223Y551894D01*
X889139Y551869D01*
X889055Y551848D01*
X888969Y551831D01*
X888883Y551817D01*
X888796Y551808D01*
X888708Y551802D01*
X888621Y551800D01*
X888621Y551801D02*
X886646Y551801D01*
D10*
X878840Y518160D02*
X878740Y518158D01*
X878641Y518152D01*
X878541Y518142D01*
X878443Y518129D01*
X878344Y518111D01*
X878247Y518090D01*
X878151Y518065D01*
X878055Y518036D01*
X877961Y518003D01*
X877868Y517967D01*
X877777Y517927D01*
X877687Y517883D01*
X877599Y517836D01*
X877513Y517786D01*
X877429Y517732D01*
X877347Y517675D01*
X877268Y517615D01*
X877190Y517551D01*
X877116Y517485D01*
X877044Y517416D01*
X876975Y517344D01*
X876909Y517270D01*
X876845Y517192D01*
X876785Y517113D01*
X876728Y517031D01*
X876674Y516947D01*
X876624Y516861D01*
X876577Y516773D01*
X876533Y516683D01*
X876493Y516592D01*
X876457Y516499D01*
X876424Y516405D01*
X876395Y516309D01*
X876370Y516213D01*
X876349Y516116D01*
X876331Y516017D01*
X876318Y515919D01*
X876308Y515819D01*
X876302Y515720D01*
X876300Y515620D01*
X876300Y500380D02*
X876302Y500280D01*
X876308Y500181D01*
X876318Y500081D01*
X876331Y499983D01*
X876349Y499884D01*
X876370Y499787D01*
X876395Y499691D01*
X876424Y499595D01*
X876457Y499501D01*
X876493Y499408D01*
X876533Y499317D01*
X876577Y499227D01*
X876624Y499139D01*
X876674Y499053D01*
X876728Y498969D01*
X876785Y498887D01*
X876845Y498808D01*
X876909Y498730D01*
X876975Y498656D01*
X877044Y498584D01*
X877116Y498515D01*
X877190Y498449D01*
X877268Y498385D01*
X877347Y498325D01*
X877429Y498268D01*
X877513Y498214D01*
X877599Y498164D01*
X877687Y498117D01*
X877777Y498073D01*
X877868Y498033D01*
X877961Y497997D01*
X878055Y497964D01*
X878151Y497935D01*
X878247Y497910D01*
X878344Y497889D01*
X878443Y497871D01*
X878541Y497858D01*
X878641Y497848D01*
X878740Y497842D01*
X878840Y497840D01*
X924560Y497840D02*
X924660Y497842D01*
X924759Y497848D01*
X924859Y497858D01*
X924957Y497871D01*
X925056Y497889D01*
X925153Y497910D01*
X925249Y497935D01*
X925345Y497964D01*
X925439Y497997D01*
X925532Y498033D01*
X925623Y498073D01*
X925713Y498117D01*
X925801Y498164D01*
X925887Y498214D01*
X925971Y498268D01*
X926053Y498325D01*
X926132Y498385D01*
X926210Y498449D01*
X926284Y498515D01*
X926356Y498584D01*
X926425Y498656D01*
X926491Y498730D01*
X926555Y498808D01*
X926615Y498887D01*
X926672Y498969D01*
X926726Y499053D01*
X926776Y499139D01*
X926823Y499227D01*
X926867Y499317D01*
X926907Y499408D01*
X926943Y499501D01*
X926976Y499595D01*
X927005Y499691D01*
X927030Y499787D01*
X927051Y499884D01*
X927069Y499983D01*
X927082Y500081D01*
X927092Y500181D01*
X927098Y500280D01*
X927100Y500380D01*
X927100Y515620D02*
X927098Y515720D01*
X927092Y515819D01*
X927082Y515919D01*
X927069Y516017D01*
X927051Y516116D01*
X927030Y516213D01*
X927005Y516309D01*
X926976Y516405D01*
X926943Y516499D01*
X926907Y516592D01*
X926867Y516683D01*
X926823Y516773D01*
X926776Y516861D01*
X926726Y516947D01*
X926672Y517031D01*
X926615Y517113D01*
X926555Y517192D01*
X926491Y517270D01*
X926425Y517344D01*
X926356Y517416D01*
X926284Y517485D01*
X926210Y517551D01*
X926132Y517615D01*
X926053Y517675D01*
X925971Y517732D01*
X925887Y517786D01*
X925801Y517836D01*
X925713Y517883D01*
X925623Y517927D01*
X925532Y517967D01*
X925439Y518003D01*
X925345Y518036D01*
X925249Y518065D01*
X925153Y518090D01*
X925056Y518111D01*
X924957Y518129D01*
X924859Y518142D01*
X924759Y518152D01*
X924660Y518158D01*
X924560Y518160D01*
X876300Y515620D02*
X876300Y500380D01*
X878840Y518160D02*
X882650Y518160D01*
X883920Y516890D01*
X882650Y497840D02*
X878840Y497840D01*
X882650Y497840D02*
X883920Y499110D01*
X919480Y516890D02*
X920750Y518160D01*
X919480Y516890D02*
X883920Y516890D01*
X919480Y499110D02*
X920750Y497840D01*
X919480Y499110D02*
X883920Y499110D01*
X920750Y518160D02*
X924560Y518160D01*
X924560Y497840D02*
X920750Y497840D01*
X927100Y500380D02*
X927100Y515620D01*
D13*
X929005Y508000D03*
X874395Y508000D03*
D14*
X876808Y521462D02*
X876808Y530352D01*
X879277Y530352D01*
X879375Y530350D01*
X879473Y530344D01*
X879571Y530334D01*
X879668Y530321D01*
X879765Y530303D01*
X879861Y530282D01*
X879955Y530257D01*
X880049Y530228D01*
X880142Y530196D01*
X880233Y530159D01*
X880323Y530120D01*
X880411Y530076D01*
X880497Y530029D01*
X880582Y529979D01*
X880664Y529926D01*
X880744Y529869D01*
X880822Y529809D01*
X880897Y529746D01*
X880970Y529680D01*
X881040Y529611D01*
X881107Y529540D01*
X881172Y529466D01*
X881233Y529389D01*
X881292Y529310D01*
X881347Y529229D01*
X881399Y529146D01*
X881447Y529060D01*
X881492Y528973D01*
X881534Y528884D01*
X881572Y528794D01*
X881606Y528702D01*
X881637Y528609D01*
X881664Y528514D01*
X881687Y528419D01*
X881707Y528322D01*
X881722Y528226D01*
X881734Y528128D01*
X881742Y528030D01*
X881746Y527932D01*
X881746Y527834D01*
X881742Y527736D01*
X881734Y527638D01*
X881722Y527540D01*
X881707Y527444D01*
X881687Y527347D01*
X881664Y527252D01*
X881637Y527157D01*
X881606Y527064D01*
X881572Y526972D01*
X881534Y526882D01*
X881492Y526793D01*
X881447Y526706D01*
X881399Y526620D01*
X881347Y526537D01*
X881292Y526456D01*
X881233Y526377D01*
X881172Y526300D01*
X881107Y526226D01*
X881040Y526155D01*
X880970Y526086D01*
X880897Y526020D01*
X880822Y525957D01*
X880744Y525897D01*
X880664Y525840D01*
X880582Y525787D01*
X880497Y525737D01*
X880411Y525690D01*
X880323Y525646D01*
X880233Y525607D01*
X880142Y525570D01*
X880049Y525538D01*
X879955Y525509D01*
X879861Y525484D01*
X879765Y525463D01*
X879668Y525445D01*
X879571Y525432D01*
X879473Y525422D01*
X879375Y525416D01*
X879277Y525414D01*
X879277Y525413D02*
X876808Y525413D01*
X879771Y525413D02*
X881747Y521462D01*
X885658Y523438D02*
X887633Y530352D01*
X885658Y523438D02*
X890597Y523438D01*
X889115Y525413D02*
X889115Y521462D01*
D10*
X952500Y590550D02*
X958850Y596900D01*
X952500Y577850D02*
X958850Y571500D01*
X952500Y565150D01*
X952500Y552450D02*
X958850Y546100D01*
X952500Y539750D01*
X952500Y527050D02*
X958850Y520700D01*
X958850Y596900D02*
X996950Y596900D01*
X1003300Y590550D01*
X1003300Y577850D01*
X996950Y571500D01*
X1003300Y565150D01*
X1003300Y552450D01*
X996950Y546100D01*
X1003300Y539750D01*
X1003300Y527050D01*
X996950Y520700D01*
X996950Y571500D02*
X958850Y571500D01*
X958850Y546100D02*
X996950Y546100D01*
X996950Y520700D02*
X958850Y520700D01*
X952500Y527050D02*
X952500Y539750D01*
X952500Y552450D02*
X952500Y565150D01*
X952500Y577850D02*
X952500Y590550D01*
X958850Y520700D02*
X952500Y514350D01*
X952500Y501650D02*
X958850Y495300D01*
X996950Y520700D02*
X1003300Y514350D01*
X1003300Y501650D01*
X996950Y495300D01*
X958850Y495300D01*
X952500Y501650D02*
X952500Y514350D01*
D11*
X1010285Y573076D02*
X1019175Y573076D01*
X1019275Y573074D01*
X1019374Y573068D01*
X1019474Y573058D01*
X1019572Y573045D01*
X1019671Y573027D01*
X1019768Y573006D01*
X1019864Y572981D01*
X1019960Y572952D01*
X1020054Y572919D01*
X1020147Y572883D01*
X1020238Y572843D01*
X1020328Y572799D01*
X1020416Y572752D01*
X1020502Y572702D01*
X1020586Y572648D01*
X1020668Y572591D01*
X1020747Y572531D01*
X1020825Y572467D01*
X1020899Y572401D01*
X1020971Y572332D01*
X1021040Y572260D01*
X1021106Y572186D01*
X1021170Y572108D01*
X1021230Y572029D01*
X1021287Y571947D01*
X1021341Y571863D01*
X1021391Y571777D01*
X1021438Y571689D01*
X1021482Y571599D01*
X1021522Y571508D01*
X1021558Y571415D01*
X1021591Y571321D01*
X1021620Y571225D01*
X1021645Y571129D01*
X1021666Y571032D01*
X1021684Y570933D01*
X1021697Y570835D01*
X1021707Y570735D01*
X1021713Y570636D01*
X1021715Y570536D01*
X1021715Y569266D01*
X1021715Y579057D02*
X1010285Y579057D01*
X1010285Y582232D01*
X1010287Y582343D01*
X1010293Y582453D01*
X1010302Y582564D01*
X1010316Y582674D01*
X1010333Y582783D01*
X1010354Y582892D01*
X1010379Y583000D01*
X1010408Y583107D01*
X1010440Y583213D01*
X1010476Y583318D01*
X1010516Y583421D01*
X1010559Y583523D01*
X1010606Y583624D01*
X1010657Y583723D01*
X1010710Y583820D01*
X1010767Y583914D01*
X1010828Y584007D01*
X1010891Y584098D01*
X1010958Y584187D01*
X1011028Y584273D01*
X1011101Y584356D01*
X1011176Y584438D01*
X1011254Y584516D01*
X1011336Y584591D01*
X1011419Y584664D01*
X1011505Y584734D01*
X1011594Y584801D01*
X1011685Y584864D01*
X1011778Y584925D01*
X1011873Y584982D01*
X1011969Y585035D01*
X1012068Y585086D01*
X1012169Y585133D01*
X1012271Y585176D01*
X1012374Y585216D01*
X1012479Y585252D01*
X1012585Y585284D01*
X1012692Y585313D01*
X1012800Y585338D01*
X1012909Y585359D01*
X1013018Y585376D01*
X1013128Y585390D01*
X1013239Y585399D01*
X1013349Y585405D01*
X1013460Y585407D01*
X1013571Y585405D01*
X1013681Y585399D01*
X1013792Y585390D01*
X1013902Y585376D01*
X1014011Y585359D01*
X1014120Y585338D01*
X1014228Y585313D01*
X1014335Y585284D01*
X1014441Y585252D01*
X1014546Y585216D01*
X1014649Y585176D01*
X1014751Y585133D01*
X1014852Y585086D01*
X1014951Y585035D01*
X1015048Y584982D01*
X1015142Y584925D01*
X1015235Y584864D01*
X1015326Y584801D01*
X1015415Y584734D01*
X1015501Y584664D01*
X1015584Y584591D01*
X1015666Y584516D01*
X1015744Y584438D01*
X1015819Y584356D01*
X1015892Y584273D01*
X1015962Y584187D01*
X1016029Y584098D01*
X1016092Y584007D01*
X1016153Y583914D01*
X1016210Y583820D01*
X1016263Y583723D01*
X1016314Y583624D01*
X1016361Y583523D01*
X1016404Y583421D01*
X1016444Y583318D01*
X1016480Y583213D01*
X1016512Y583107D01*
X1016541Y583000D01*
X1016566Y582892D01*
X1016587Y582783D01*
X1016604Y582674D01*
X1016618Y582564D01*
X1016627Y582453D01*
X1016633Y582343D01*
X1016635Y582232D01*
X1016635Y579057D01*
X1021715Y589915D02*
X1021715Y593090D01*
X1021713Y593201D01*
X1021707Y593311D01*
X1021698Y593422D01*
X1021684Y593532D01*
X1021667Y593641D01*
X1021646Y593750D01*
X1021621Y593858D01*
X1021592Y593965D01*
X1021560Y594071D01*
X1021524Y594176D01*
X1021484Y594279D01*
X1021441Y594381D01*
X1021394Y594482D01*
X1021343Y594581D01*
X1021290Y594678D01*
X1021233Y594772D01*
X1021172Y594865D01*
X1021109Y594956D01*
X1021042Y595045D01*
X1020972Y595131D01*
X1020899Y595214D01*
X1020824Y595296D01*
X1020746Y595374D01*
X1020664Y595449D01*
X1020581Y595522D01*
X1020495Y595592D01*
X1020406Y595659D01*
X1020315Y595722D01*
X1020222Y595783D01*
X1020128Y595840D01*
X1020031Y595893D01*
X1019932Y595944D01*
X1019831Y595991D01*
X1019729Y596034D01*
X1019626Y596074D01*
X1019521Y596110D01*
X1019415Y596142D01*
X1019308Y596171D01*
X1019200Y596196D01*
X1019091Y596217D01*
X1018982Y596234D01*
X1018872Y596248D01*
X1018761Y596257D01*
X1018651Y596263D01*
X1018540Y596265D01*
X1018429Y596263D01*
X1018319Y596257D01*
X1018208Y596248D01*
X1018098Y596234D01*
X1017989Y596217D01*
X1017880Y596196D01*
X1017772Y596171D01*
X1017665Y596142D01*
X1017559Y596110D01*
X1017454Y596074D01*
X1017351Y596034D01*
X1017249Y595991D01*
X1017148Y595944D01*
X1017049Y595893D01*
X1016953Y595840D01*
X1016858Y595783D01*
X1016765Y595722D01*
X1016674Y595659D01*
X1016585Y595592D01*
X1016499Y595522D01*
X1016416Y595449D01*
X1016334Y595374D01*
X1016256Y595296D01*
X1016181Y595214D01*
X1016108Y595131D01*
X1016038Y595045D01*
X1015971Y594956D01*
X1015908Y594865D01*
X1015847Y594772D01*
X1015790Y594678D01*
X1015737Y594581D01*
X1015686Y594482D01*
X1015639Y594381D01*
X1015596Y594279D01*
X1015556Y594176D01*
X1015520Y594071D01*
X1015488Y593965D01*
X1015459Y593858D01*
X1015434Y593750D01*
X1015413Y593641D01*
X1015396Y593532D01*
X1015382Y593422D01*
X1015373Y593311D01*
X1015367Y593201D01*
X1015365Y593090D01*
X1010285Y593725D02*
X1010285Y589915D01*
X1010285Y593725D02*
X1010287Y593825D01*
X1010293Y593924D01*
X1010303Y594024D01*
X1010316Y594122D01*
X1010334Y594221D01*
X1010355Y594318D01*
X1010380Y594414D01*
X1010409Y594510D01*
X1010442Y594604D01*
X1010478Y594697D01*
X1010518Y594788D01*
X1010562Y594878D01*
X1010609Y594966D01*
X1010659Y595052D01*
X1010713Y595136D01*
X1010770Y595218D01*
X1010830Y595297D01*
X1010894Y595375D01*
X1010960Y595449D01*
X1011029Y595521D01*
X1011101Y595590D01*
X1011175Y595656D01*
X1011253Y595720D01*
X1011332Y595780D01*
X1011414Y595837D01*
X1011498Y595891D01*
X1011584Y595941D01*
X1011672Y595988D01*
X1011762Y596032D01*
X1011853Y596072D01*
X1011946Y596108D01*
X1012040Y596141D01*
X1012136Y596170D01*
X1012232Y596195D01*
X1012329Y596216D01*
X1012428Y596234D01*
X1012526Y596247D01*
X1012626Y596257D01*
X1012725Y596263D01*
X1012825Y596265D01*
X1012925Y596263D01*
X1013024Y596257D01*
X1013124Y596247D01*
X1013222Y596234D01*
X1013321Y596216D01*
X1013418Y596195D01*
X1013514Y596170D01*
X1013610Y596141D01*
X1013704Y596108D01*
X1013797Y596072D01*
X1013888Y596032D01*
X1013978Y595988D01*
X1014066Y595941D01*
X1014152Y595891D01*
X1014236Y595837D01*
X1014318Y595780D01*
X1014397Y595720D01*
X1014475Y595656D01*
X1014549Y595590D01*
X1014621Y595521D01*
X1014690Y595449D01*
X1014756Y595375D01*
X1014820Y595297D01*
X1014880Y595218D01*
X1014937Y595136D01*
X1014991Y595052D01*
X1015041Y594966D01*
X1015088Y594878D01*
X1015132Y594788D01*
X1015172Y594697D01*
X1015208Y594604D01*
X1015241Y594510D01*
X1015270Y594414D01*
X1015295Y594318D01*
X1015316Y594221D01*
X1015334Y594122D01*
X1015347Y594024D01*
X1015357Y593924D01*
X1015363Y593825D01*
X1015365Y593725D01*
X1015365Y591185D01*
M02*
