G04 EAGLE Gerber RS-274X export*
G75*
%MOMM*%
%FSLAX34Y34*%
%LPD*%
%INSoldermask Top*%
%IPPOS*%
%AMOC8*
5,1,8,0,0,1.08239X$1,22.5*%
G01*
%ADD10C,2.032000*%
%ADD11C,2.235200*%
%ADD12C,2.235200*%
%ADD13P,2.199416X8X292.500000*%
%ADD14P,2.199416X8X22.500000*%
%ADD15P,2.419358X8X292.500000*%
%ADD16C,2.203200*%


D10*
X177800Y638556D02*
X177800Y656844D01*
X203200Y656844D02*
X203200Y638556D01*
X330200Y638556D02*
X330200Y656844D01*
X355600Y656844D02*
X355600Y638556D01*
X228600Y638556D02*
X228600Y656844D01*
X254000Y656844D02*
X254000Y638556D01*
X304800Y638556D02*
X304800Y656844D01*
X279400Y656844D02*
X279400Y638556D01*
X381000Y638556D02*
X381000Y656844D01*
X406400Y656844D02*
X406400Y638556D01*
X431800Y638556D02*
X431800Y656844D01*
X457200Y656844D02*
X457200Y638556D01*
X482600Y638556D02*
X482600Y656844D01*
X508000Y656844D02*
X508000Y638556D01*
X533400Y638556D02*
X533400Y656844D01*
X558800Y656844D02*
X558800Y638556D01*
X584200Y638556D02*
X584200Y656844D01*
X609600Y656844D02*
X609600Y638556D01*
X635000Y638556D02*
X635000Y656844D01*
X660400Y656844D02*
X660400Y638556D01*
X660400Y790956D02*
X660400Y809244D01*
X635000Y809244D02*
X635000Y790956D01*
X609600Y790956D02*
X609600Y809244D01*
X584200Y809244D02*
X584200Y790956D01*
X558800Y790956D02*
X558800Y809244D01*
X533400Y809244D02*
X533400Y790956D01*
X508000Y790956D02*
X508000Y809244D01*
X482600Y809244D02*
X482600Y790956D01*
X457200Y790956D02*
X457200Y809244D01*
X431800Y809244D02*
X431800Y790956D01*
X406400Y790956D02*
X406400Y809244D01*
X381000Y809244D02*
X381000Y790956D01*
X355600Y790956D02*
X355600Y809244D01*
X330200Y809244D02*
X330200Y790956D01*
X304800Y790956D02*
X304800Y809244D01*
X279400Y809244D02*
X279400Y790956D01*
X254000Y790956D02*
X254000Y809244D01*
X228600Y809244D02*
X228600Y790956D01*
X203200Y790956D02*
X203200Y809244D01*
X177800Y809244D02*
X177800Y790956D01*
D11*
X50800Y977900D03*
X76200Y977900D03*
X101600Y977900D03*
X127000Y977900D03*
X152400Y977900D03*
X177800Y977900D03*
X203200Y977900D03*
X228600Y977900D03*
X254000Y977900D03*
X279400Y977900D03*
X304800Y977900D03*
X330200Y977900D03*
X355600Y977900D03*
X381000Y977900D03*
X406400Y977900D03*
X431800Y977900D03*
X457200Y977900D03*
X482600Y977900D03*
X508000Y977900D03*
X533400Y977900D03*
X558800Y977900D03*
X584200Y977900D03*
X609600Y977900D03*
X635000Y977900D03*
X660400Y977900D03*
X685800Y977900D03*
X711200Y977900D03*
X736600Y977900D03*
X762000Y977900D03*
X787400Y977900D03*
X812800Y977900D03*
X838200Y977900D03*
X863600Y977900D03*
X889000Y977900D03*
X914400Y977900D03*
X939800Y977900D03*
X965200Y977900D03*
X990600Y977900D03*
X1016000Y977900D03*
X1041400Y977900D03*
D12*
X863600Y683260D02*
X863600Y662940D01*
X889000Y662940D02*
X889000Y683260D01*
X914400Y683260D02*
X914400Y662940D01*
X939800Y662940D02*
X939800Y683260D01*
X965200Y683260D02*
X965200Y662940D01*
X990600Y662940D02*
X990600Y683260D01*
X1016000Y683260D02*
X1016000Y662940D01*
X1041400Y662940D02*
X1041400Y683260D01*
X1066800Y683260D02*
X1066800Y662940D01*
X1092200Y662940D02*
X1092200Y683260D01*
D13*
X431800Y584200D03*
X431800Y558800D03*
D14*
X863600Y584200D03*
X939800Y584200D03*
X863600Y558800D03*
X939800Y558800D03*
X863600Y533400D03*
X939800Y533400D03*
X863600Y508000D03*
X939800Y508000D03*
D15*
X965200Y584200D03*
X990600Y584200D03*
X965200Y558800D03*
X990600Y558800D03*
X965200Y533400D03*
X990600Y533400D03*
X965200Y508000D03*
X990600Y508000D03*
D16*
X558800Y914400D03*
X304800Y609600D03*
X584200Y914400D03*
X558800Y482600D03*
X609600Y482600D03*
X1016000Y609600D03*
X609600Y914400D03*
X635000Y609600D03*
X762000Y800100D03*
X711200Y787400D03*
X508000Y381000D03*
X457200Y381000D03*
X508000Y355600D03*
X355600Y355600D03*
X508000Y330200D03*
X330200Y330200D03*
X508000Y304800D03*
X381000Y304800D03*
X508000Y279400D03*
X406400Y279400D03*
X1054100Y533400D03*
X1054100Y457200D03*
X584200Y850900D03*
X1079500Y508000D03*
X558800Y850900D03*
X1028700Y558800D03*
X609600Y850900D03*
X990600Y723900D03*
X482600Y850900D03*
X914400Y723900D03*
X457200Y889000D03*
X787400Y673100D03*
X609600Y533400D03*
X431800Y533400D03*
X482600Y914400D03*
X431800Y609600D03*
X609600Y558800D03*
X889000Y723900D03*
M02*
