G04 EAGLE Gerber RS-274X export*
G75*
%MOMM*%
%FSLAX34Y34*%
%LPD*%
%INSoldermask Top*%
%IPPOS*%
%AMOC8*
5,1,8,0,0,1.08239X$1,22.5*%
G01*
%ADD10C,2.235200*%
%ADD11C,2.235200*%
%ADD12P,2.199416X8X292.500000*%
%ADD13P,2.199416X8X112.500000*%


D10*
X1574800Y977900D03*
X1549400Y977900D03*
X1524000Y977900D03*
X1498600Y977900D03*
X1473200Y977900D03*
X1447800Y977900D03*
X1422400Y977900D03*
X1397000Y977900D03*
X1371600Y977900D03*
X1346200Y977900D03*
X1320800Y977900D03*
X1295400Y977900D03*
X1270000Y977900D03*
X1244600Y977900D03*
X1219200Y977900D03*
X1193800Y977900D03*
X1168400Y977900D03*
X1143000Y977900D03*
X1117600Y977900D03*
X1092200Y977900D03*
X1066800Y977900D03*
X1041400Y977900D03*
X1016000Y977900D03*
X990600Y977900D03*
X965200Y977900D03*
X939800Y977900D03*
X914400Y977900D03*
X889000Y977900D03*
X863600Y977900D03*
X838200Y977900D03*
X812800Y977900D03*
X787400Y977900D03*
X762000Y977900D03*
X736600Y977900D03*
X711200Y977900D03*
X685800Y977900D03*
X660400Y977900D03*
X635000Y977900D03*
X609600Y977900D03*
X584200Y977900D03*
D11*
X1143000Y772160D02*
X1143000Y751840D01*
X1117600Y751840D02*
X1117600Y772160D01*
X1092200Y772160D02*
X1092200Y751840D01*
X1066800Y751840D02*
X1066800Y772160D01*
D12*
X1574800Y787400D03*
X1574800Y762000D03*
X1346200Y736600D03*
X1346200Y711200D03*
X1320800Y787400D03*
X1320800Y762000D03*
X1295400Y736600D03*
X1295400Y711200D03*
X1270000Y787400D03*
X1270000Y762000D03*
X1244600Y736600D03*
X1244600Y711200D03*
X1219200Y787400D03*
X1219200Y762000D03*
X1193800Y736600D03*
X1193800Y711200D03*
X1549400Y736600D03*
X1549400Y711200D03*
X1524000Y787400D03*
X1524000Y762000D03*
X1498600Y736600D03*
X1498600Y711200D03*
X1473200Y787400D03*
X1473200Y762000D03*
X1447800Y736600D03*
X1447800Y711200D03*
X1422400Y787400D03*
X1422400Y762000D03*
X1397000Y736600D03*
X1397000Y711200D03*
X1371600Y787400D03*
X1371600Y762000D03*
X1574800Y901700D03*
X1574800Y825500D03*
X1346200Y901700D03*
X1346200Y825500D03*
X1320800Y901700D03*
X1320800Y825500D03*
X1295400Y901700D03*
X1295400Y825500D03*
X1270000Y901700D03*
X1270000Y825500D03*
X1244600Y901700D03*
X1244600Y825500D03*
X1219200Y901700D03*
X1219200Y825500D03*
X1193800Y901700D03*
X1193800Y825500D03*
D13*
X736600Y863600D03*
X736600Y939800D03*
X762000Y863600D03*
X762000Y939800D03*
X787400Y863600D03*
X787400Y939800D03*
D12*
X1549400Y901700D03*
X1549400Y825500D03*
D13*
X812800Y863600D03*
X812800Y939800D03*
X838200Y863600D03*
X838200Y939800D03*
X863600Y863600D03*
X863600Y939800D03*
X889000Y863600D03*
X889000Y939800D03*
X914400Y863600D03*
X914400Y939800D03*
D12*
X1117600Y889000D03*
X1117600Y812800D03*
X1016000Y850900D03*
X1016000Y774700D03*
X990600Y850900D03*
X990600Y774700D03*
X965200Y850900D03*
X965200Y774700D03*
X1524000Y901700D03*
X1524000Y825500D03*
X1498600Y901700D03*
X1498600Y825500D03*
X1473200Y901700D03*
X1473200Y825500D03*
X1447800Y901700D03*
X1447800Y825500D03*
X1422400Y901700D03*
X1422400Y825500D03*
X1397000Y901700D03*
X1397000Y825500D03*
X1371600Y901700D03*
X1371600Y825500D03*
D13*
X1117600Y914400D03*
X1117600Y939800D03*
X1016000Y914400D03*
X1016000Y939800D03*
X990600Y863600D03*
X990600Y889000D03*
X965200Y914400D03*
X965200Y939800D03*
M02*
