G04 EAGLE Gerber RS-274X export*
G75*
%MOMM*%
%FSLAX34Y34*%
%LPD*%
%INBottom Copper*%
%IPPOS*%
%AMOC8*
5,1,8,0,0,1.08239X$1,22.5*%
G01*
%ADD10P,1.979475X8X112.500000*%
%ADD11P,1.979475X8X22.500000*%
%ADD12C,1.828800*%
%ADD13C,2.032000*%
%ADD14C,1.270000*%
%ADD15C,2.000000*%
%ADD16C,1.816000*%


D10*
X635000Y-330200D03*
X635000Y-304800D03*
D11*
X228600Y-228600D03*
X254000Y-228600D03*
D12*
X460756Y-254000D02*
X479044Y-254000D01*
X479044Y-279400D02*
X460756Y-279400D01*
X460756Y-304800D02*
X479044Y-304800D01*
X479044Y-330200D02*
X460756Y-330200D01*
X460756Y-355600D02*
X479044Y-355600D01*
X479044Y-381000D02*
X460756Y-381000D01*
X460756Y-406400D02*
X479044Y-406400D01*
X479044Y-431800D02*
X460756Y-431800D01*
X460756Y-457200D02*
X479044Y-457200D01*
X479044Y-482600D02*
X460756Y-482600D01*
X460756Y-508000D02*
X479044Y-508000D01*
X479044Y-533400D02*
X460756Y-533400D01*
X460756Y-558800D02*
X479044Y-558800D01*
X479044Y-584200D02*
X460756Y-584200D01*
X326644Y-584200D02*
X308356Y-584200D01*
X308356Y-558800D02*
X326644Y-558800D01*
X326644Y-533400D02*
X308356Y-533400D01*
X308356Y-508000D02*
X326644Y-508000D01*
X326644Y-482600D02*
X308356Y-482600D01*
X308356Y-457200D02*
X326644Y-457200D01*
X326644Y-431800D02*
X308356Y-431800D01*
X308356Y-406400D02*
X326644Y-406400D01*
X326644Y-381000D02*
X308356Y-381000D01*
X308356Y-355600D02*
X326644Y-355600D01*
X326644Y-330200D02*
X308356Y-330200D01*
X308356Y-304800D02*
X326644Y-304800D01*
X326644Y-279400D02*
X308356Y-279400D01*
X308356Y-254000D02*
X326644Y-254000D01*
X673100Y-244856D02*
X673100Y-263144D01*
X698500Y-263144D02*
X698500Y-244856D01*
X825500Y-244856D02*
X825500Y-263144D01*
X825500Y-321056D02*
X825500Y-339344D01*
X723900Y-263144D02*
X723900Y-244856D01*
X749300Y-244856D02*
X749300Y-263144D01*
X800100Y-263144D02*
X800100Y-244856D01*
X774700Y-244856D02*
X774700Y-263144D01*
X800100Y-321056D02*
X800100Y-339344D01*
X774700Y-339344D02*
X774700Y-321056D01*
X749300Y-321056D02*
X749300Y-339344D01*
X723900Y-339344D02*
X723900Y-321056D01*
X698500Y-321056D02*
X698500Y-339344D01*
X673100Y-339344D02*
X673100Y-321056D01*
D13*
X25400Y-876300D03*
X50800Y-876300D03*
X76200Y-876300D03*
X101600Y-876300D03*
X127000Y-876300D03*
X152400Y-876300D03*
X177800Y-876300D03*
X203200Y-876300D03*
X228600Y-876300D03*
X254000Y-876300D03*
X279400Y-876300D03*
X304800Y-876300D03*
X330200Y-876300D03*
X355600Y-876300D03*
X381000Y-876300D03*
X406400Y-876300D03*
X431800Y-876300D03*
X457200Y-876300D03*
X482600Y-876300D03*
X508000Y-876300D03*
X533400Y-876300D03*
X558800Y-876300D03*
X584200Y-876300D03*
X609600Y-876300D03*
X635000Y-876300D03*
X660400Y-876300D03*
X685800Y-876300D03*
X711200Y-876300D03*
X736600Y-876300D03*
X762000Y-876300D03*
X787400Y-876300D03*
X812800Y-876300D03*
X838200Y-876300D03*
X863600Y-876300D03*
X889000Y-876300D03*
X914400Y-876300D03*
X939800Y-876300D03*
X965200Y-876300D03*
X990600Y-876300D03*
X1016000Y-876300D03*
D11*
X203200Y-279400D03*
X279400Y-279400D03*
D14*
X673100Y-254000D02*
X698500Y-254000D01*
X228600Y-228600D02*
X228600Y-203200D01*
X495300Y-203200D01*
X635000Y-203200D01*
X469900Y-584200D02*
X469900Y-723900D01*
X431800Y-723900D01*
X431800Y-876300D01*
D15*
X698500Y-190500D03*
X825500Y-190500D03*
D14*
X698500Y-190500D02*
X698500Y-254000D01*
X825500Y-254000D02*
X825500Y-190500D01*
D15*
X495300Y-190500D03*
X495300Y-584200D03*
D14*
X469900Y-584200D01*
X495300Y-203200D02*
X495300Y-190500D01*
X635000Y-254000D02*
X673100Y-254000D01*
X635000Y-254000D02*
X635000Y-304800D01*
X635000Y-254000D02*
X635000Y-203200D01*
X203200Y-254000D02*
X203200Y-279400D01*
X635000Y-330200D02*
X673100Y-330200D01*
X317500Y-254000D02*
X254000Y-254000D01*
X203200Y-254000D01*
X254000Y-254000D02*
X254000Y-228600D01*
D15*
X546100Y-825500D03*
X546100Y-381000D03*
D14*
X609600Y-228600D02*
X254000Y-228600D01*
X457200Y-825500D02*
X457200Y-876300D01*
X457200Y-825500D02*
X546100Y-825500D01*
X609600Y-330200D02*
X609600Y-228600D01*
X609600Y-330200D02*
X635000Y-330200D01*
X635000Y-381000D02*
X546100Y-381000D01*
X635000Y-381000D02*
X635000Y-330200D01*
X101600Y-165100D02*
X101600Y-876300D01*
D15*
X546100Y-165100D03*
X546100Y-279400D03*
D14*
X546100Y-165100D02*
X101600Y-165100D01*
X469900Y-279400D02*
X546100Y-279400D01*
X850900Y-88900D02*
X25400Y-88900D01*
X850900Y-88900D02*
X850900Y-393700D01*
X774700Y-393700D01*
X774700Y-330200D01*
X25400Y-88900D02*
X25400Y-876300D01*
X50800Y-876300D02*
X50800Y-114300D01*
X774700Y-114300D01*
X774700Y-254000D01*
X76200Y-139700D02*
X76200Y-876300D01*
X76200Y-139700D02*
X749300Y-139700D01*
X749300Y-254000D01*
X152400Y-431800D02*
X152400Y-876300D01*
X152400Y-431800D02*
X317500Y-431800D01*
D15*
X177800Y-457200D03*
X177800Y-355600D03*
D14*
X177800Y-457200D02*
X177800Y-876300D01*
X177800Y-355600D02*
X317500Y-355600D01*
D15*
X203200Y-330200D03*
X203200Y-457200D03*
D14*
X203200Y-876300D01*
X203200Y-330200D02*
X317500Y-330200D01*
X355600Y-304800D02*
X469900Y-304800D01*
X355600Y-304800D02*
X355600Y-622300D01*
X228600Y-622300D01*
X228600Y-863600D01*
X254000Y-876300D02*
X254000Y-647700D01*
X381000Y-647700D01*
X381000Y-330200D01*
X469900Y-330200D01*
X279400Y-673100D02*
X279400Y-876300D01*
X279400Y-673100D02*
X406400Y-673100D01*
X406400Y-355600D01*
X469900Y-355600D01*
X304800Y-698500D02*
X304800Y-876300D01*
X304800Y-698500D02*
X431800Y-698500D01*
X431800Y-381000D01*
X469900Y-381000D01*
D15*
X330200Y-800100D03*
X457200Y-800100D03*
D14*
X330200Y-800100D02*
X330200Y-876300D01*
X457200Y-800100D02*
X609600Y-800100D01*
X609600Y-406400D01*
X469900Y-406400D01*
D15*
X482600Y-774700D03*
X355600Y-774700D03*
D14*
X355600Y-876300D01*
X469900Y-431800D02*
X584200Y-431800D01*
X584200Y-774700D01*
X482600Y-774700D01*
D15*
X508000Y-749300D03*
X381000Y-749300D03*
D14*
X381000Y-876300D01*
X469900Y-457200D02*
X558800Y-457200D01*
X558800Y-749300D01*
X508000Y-749300D01*
D15*
X533400Y-723900D03*
X406400Y-723900D03*
D14*
X406400Y-876300D01*
X469900Y-482600D02*
X533400Y-482600D01*
X533400Y-723900D01*
X127000Y-876300D02*
X127000Y-381000D01*
X317500Y-381000D01*
X584200Y-825500D02*
X584200Y-876300D01*
X584200Y-825500D02*
X635000Y-825500D01*
X635000Y-431800D01*
X723900Y-431800D01*
X723900Y-330200D01*
X635000Y-850900D02*
X635000Y-876300D01*
X635000Y-850900D02*
X660400Y-850900D01*
X660400Y-457200D01*
D15*
X698500Y-457200D03*
X698500Y-406400D03*
D14*
X698500Y-457200D02*
X660400Y-457200D01*
X698500Y-406400D02*
X698500Y-330200D01*
D15*
X508000Y-508000D03*
X685800Y-508000D03*
D14*
X685800Y-876300D01*
X508000Y-508000D02*
X469900Y-508000D01*
D15*
X508000Y-533400D03*
X711200Y-533400D03*
D14*
X711200Y-876300D01*
X508000Y-533400D02*
X469900Y-533400D01*
D15*
X508000Y-558800D03*
X736600Y-558800D03*
D14*
X736600Y-876300D01*
X508000Y-558800D02*
X469900Y-558800D01*
D15*
X762000Y-660400D03*
X279400Y-584200D03*
D14*
X317500Y-584200D01*
X762000Y-660400D02*
X762000Y-876300D01*
D15*
X787400Y-685800D03*
X266700Y-558800D03*
D14*
X317500Y-558800D01*
X787400Y-685800D02*
X787400Y-876300D01*
D15*
X812800Y-711200D03*
X254000Y-533400D03*
D14*
X317500Y-533400D01*
X812800Y-711200D02*
X812800Y-876300D01*
D15*
X838200Y-736600D03*
X241300Y-508000D03*
D14*
X317500Y-508000D01*
X838200Y-736600D02*
X838200Y-876300D01*
D15*
X863600Y-762000D03*
X228600Y-482600D03*
D14*
X317500Y-482600D01*
X863600Y-762000D02*
X863600Y-876300D01*
X317500Y-279400D02*
X279400Y-279400D01*
D15*
X254000Y-457200D03*
X825500Y-368300D03*
D14*
X825500Y-330200D01*
X317500Y-457200D02*
X254000Y-457200D01*
D16*
X876300Y-368300D03*
X177800Y-63500D03*
X177800Y-190500D03*
X254000Y-304800D03*
D14*
X876300Y-368300D02*
X876300Y-63500D01*
X177800Y-63500D01*
X177800Y-190500D02*
X177800Y-304800D01*
X254000Y-304800D01*
D15*
X152400Y-38100D03*
X152400Y-406400D03*
D14*
X317500Y-406400D01*
X749300Y-419100D02*
X749300Y-330200D01*
X901700Y-419100D02*
X901700Y-38100D01*
X152400Y-38100D01*
X749300Y-419100D02*
X901700Y-419100D01*
D16*
X152400Y-190500D03*
X152400Y-355600D03*
D14*
X152400Y-190500D01*
X800100Y-254000D02*
X800100Y-330200D01*
M02*
