G04 EAGLE Gerber RS-274X export*
G75*
%MOMM*%
%FSLAX34Y34*%
%LPD*%
%INSilkscreen Top*%
%IPPOS*%
%AMOC8*
5,1,8,0,0,1.08239X$1,22.5*%
G01*
%ADD10C,0.152400*%
%ADD11C,0.254000*%
%ADD12C,0.127000*%
%ADD13C,0.177800*%
%ADD14R,0.381000X0.508000*%
%ADD15C,0.101600*%


D10*
X647700Y339090D02*
X647700Y295910D01*
X622300Y295910D02*
X622300Y339090D01*
X624840Y293370D02*
X645160Y293370D01*
X645160Y341630D02*
X624840Y341630D01*
X647700Y295910D02*
X647698Y295810D01*
X647692Y295711D01*
X647682Y295611D01*
X647669Y295513D01*
X647651Y295414D01*
X647630Y295317D01*
X647605Y295221D01*
X647576Y295125D01*
X647543Y295031D01*
X647507Y294938D01*
X647467Y294847D01*
X647423Y294757D01*
X647376Y294669D01*
X647326Y294583D01*
X647272Y294499D01*
X647215Y294417D01*
X647155Y294338D01*
X647091Y294260D01*
X647025Y294186D01*
X646956Y294114D01*
X646884Y294045D01*
X646810Y293979D01*
X646732Y293915D01*
X646653Y293855D01*
X646571Y293798D01*
X646487Y293744D01*
X646401Y293694D01*
X646313Y293647D01*
X646223Y293603D01*
X646132Y293563D01*
X646039Y293527D01*
X645945Y293494D01*
X645849Y293465D01*
X645753Y293440D01*
X645656Y293419D01*
X645557Y293401D01*
X645459Y293388D01*
X645359Y293378D01*
X645260Y293372D01*
X645160Y293370D01*
X647700Y339090D02*
X647698Y339190D01*
X647692Y339289D01*
X647682Y339389D01*
X647669Y339487D01*
X647651Y339586D01*
X647630Y339683D01*
X647605Y339779D01*
X647576Y339875D01*
X647543Y339969D01*
X647507Y340062D01*
X647467Y340153D01*
X647423Y340243D01*
X647376Y340331D01*
X647326Y340417D01*
X647272Y340501D01*
X647215Y340583D01*
X647155Y340662D01*
X647091Y340740D01*
X647025Y340814D01*
X646956Y340886D01*
X646884Y340955D01*
X646810Y341021D01*
X646732Y341085D01*
X646653Y341145D01*
X646571Y341202D01*
X646487Y341256D01*
X646401Y341306D01*
X646313Y341353D01*
X646223Y341397D01*
X646132Y341437D01*
X646039Y341473D01*
X645945Y341506D01*
X645849Y341535D01*
X645753Y341560D01*
X645656Y341581D01*
X645557Y341599D01*
X645459Y341612D01*
X645359Y341622D01*
X645260Y341628D01*
X645160Y341630D01*
X622300Y295910D02*
X622302Y295810D01*
X622308Y295711D01*
X622318Y295611D01*
X622331Y295513D01*
X622349Y295414D01*
X622370Y295317D01*
X622395Y295221D01*
X622424Y295125D01*
X622457Y295031D01*
X622493Y294938D01*
X622533Y294847D01*
X622577Y294757D01*
X622624Y294669D01*
X622674Y294583D01*
X622728Y294499D01*
X622785Y294417D01*
X622845Y294338D01*
X622909Y294260D01*
X622975Y294186D01*
X623044Y294114D01*
X623116Y294045D01*
X623190Y293979D01*
X623268Y293915D01*
X623347Y293855D01*
X623429Y293798D01*
X623513Y293744D01*
X623599Y293694D01*
X623687Y293647D01*
X623777Y293603D01*
X623868Y293563D01*
X623961Y293527D01*
X624055Y293494D01*
X624151Y293465D01*
X624247Y293440D01*
X624344Y293419D01*
X624443Y293401D01*
X624541Y293388D01*
X624641Y293378D01*
X624740Y293372D01*
X624840Y293370D01*
X622300Y339090D02*
X622302Y339190D01*
X622308Y339289D01*
X622318Y339389D01*
X622331Y339487D01*
X622349Y339586D01*
X622370Y339683D01*
X622395Y339779D01*
X622424Y339875D01*
X622457Y339969D01*
X622493Y340062D01*
X622533Y340153D01*
X622577Y340243D01*
X622624Y340331D01*
X622674Y340417D01*
X622728Y340501D01*
X622785Y340583D01*
X622845Y340662D01*
X622909Y340740D01*
X622975Y340814D01*
X623044Y340886D01*
X623116Y340955D01*
X623190Y341021D01*
X623268Y341085D01*
X623347Y341145D01*
X623429Y341202D01*
X623513Y341256D01*
X623599Y341306D01*
X623687Y341353D01*
X623777Y341397D01*
X623868Y341437D01*
X623961Y341473D01*
X624055Y341506D01*
X624151Y341535D01*
X624247Y341560D01*
X624344Y341581D01*
X624443Y341599D01*
X624541Y341612D01*
X624641Y341622D01*
X624740Y341628D01*
X624840Y341630D01*
X635000Y314960D02*
X635000Y313690D01*
D11*
X635000Y314960D02*
X642620Y314960D01*
X635000Y314960D02*
X627380Y314960D01*
X635000Y320040D02*
X642620Y320040D01*
X635000Y320040D02*
X627380Y320040D01*
D10*
X635000Y320040D02*
X635000Y321310D01*
D12*
X662305Y326353D02*
X662305Y328893D01*
X662305Y326353D02*
X662303Y326253D01*
X662297Y326154D01*
X662287Y326054D01*
X662274Y325956D01*
X662256Y325857D01*
X662235Y325760D01*
X662210Y325664D01*
X662181Y325568D01*
X662148Y325474D01*
X662112Y325381D01*
X662072Y325290D01*
X662028Y325200D01*
X661981Y325112D01*
X661931Y325026D01*
X661877Y324942D01*
X661820Y324860D01*
X661760Y324781D01*
X661696Y324703D01*
X661630Y324629D01*
X661561Y324557D01*
X661489Y324488D01*
X661415Y324422D01*
X661337Y324358D01*
X661258Y324298D01*
X661176Y324241D01*
X661092Y324187D01*
X661006Y324137D01*
X660918Y324090D01*
X660828Y324046D01*
X660737Y324006D01*
X660644Y323970D01*
X660550Y323937D01*
X660454Y323908D01*
X660358Y323883D01*
X660261Y323862D01*
X660162Y323844D01*
X660064Y323831D01*
X659964Y323821D01*
X659865Y323815D01*
X659765Y323813D01*
X653415Y323813D01*
X653315Y323815D01*
X653216Y323821D01*
X653116Y323831D01*
X653018Y323844D01*
X652919Y323862D01*
X652822Y323883D01*
X652726Y323908D01*
X652630Y323937D01*
X652536Y323970D01*
X652443Y324006D01*
X652352Y324046D01*
X652262Y324090D01*
X652174Y324137D01*
X652088Y324187D01*
X652004Y324241D01*
X651922Y324298D01*
X651843Y324358D01*
X651765Y324422D01*
X651691Y324488D01*
X651619Y324557D01*
X651550Y324629D01*
X651484Y324703D01*
X651420Y324781D01*
X651360Y324860D01*
X651303Y324942D01*
X651249Y325026D01*
X651199Y325112D01*
X651152Y325200D01*
X651108Y325290D01*
X651068Y325381D01*
X651032Y325474D01*
X650999Y325568D01*
X650970Y325664D01*
X650945Y325760D01*
X650924Y325857D01*
X650906Y325956D01*
X650893Y326054D01*
X650883Y326154D01*
X650877Y326253D01*
X650875Y326353D01*
X650875Y328893D01*
X653415Y333375D02*
X650875Y336550D01*
X662305Y336550D01*
X662305Y333375D02*
X662305Y339725D01*
D10*
X262890Y241300D02*
X219710Y241300D01*
X219710Y215900D02*
X262890Y215900D01*
X265430Y218440D02*
X265430Y238760D01*
X217170Y238760D02*
X217170Y218440D01*
X262890Y241300D02*
X262990Y241298D01*
X263089Y241292D01*
X263189Y241282D01*
X263287Y241269D01*
X263386Y241251D01*
X263483Y241230D01*
X263579Y241205D01*
X263675Y241176D01*
X263769Y241143D01*
X263862Y241107D01*
X263953Y241067D01*
X264043Y241023D01*
X264131Y240976D01*
X264217Y240926D01*
X264301Y240872D01*
X264383Y240815D01*
X264462Y240755D01*
X264540Y240691D01*
X264614Y240625D01*
X264686Y240556D01*
X264755Y240484D01*
X264821Y240410D01*
X264885Y240332D01*
X264945Y240253D01*
X265002Y240171D01*
X265056Y240087D01*
X265106Y240001D01*
X265153Y239913D01*
X265197Y239823D01*
X265237Y239732D01*
X265273Y239639D01*
X265306Y239545D01*
X265335Y239449D01*
X265360Y239353D01*
X265381Y239256D01*
X265399Y239157D01*
X265412Y239059D01*
X265422Y238959D01*
X265428Y238860D01*
X265430Y238760D01*
X219710Y241300D02*
X219610Y241298D01*
X219511Y241292D01*
X219411Y241282D01*
X219313Y241269D01*
X219214Y241251D01*
X219117Y241230D01*
X219021Y241205D01*
X218925Y241176D01*
X218831Y241143D01*
X218738Y241107D01*
X218647Y241067D01*
X218557Y241023D01*
X218469Y240976D01*
X218383Y240926D01*
X218299Y240872D01*
X218217Y240815D01*
X218138Y240755D01*
X218060Y240691D01*
X217986Y240625D01*
X217914Y240556D01*
X217845Y240484D01*
X217779Y240410D01*
X217715Y240332D01*
X217655Y240253D01*
X217598Y240171D01*
X217544Y240087D01*
X217494Y240001D01*
X217447Y239913D01*
X217403Y239823D01*
X217363Y239732D01*
X217327Y239639D01*
X217294Y239545D01*
X217265Y239449D01*
X217240Y239353D01*
X217219Y239256D01*
X217201Y239157D01*
X217188Y239059D01*
X217178Y238959D01*
X217172Y238860D01*
X217170Y238760D01*
X262890Y215900D02*
X262990Y215902D01*
X263089Y215908D01*
X263189Y215918D01*
X263287Y215931D01*
X263386Y215949D01*
X263483Y215970D01*
X263579Y215995D01*
X263675Y216024D01*
X263769Y216057D01*
X263862Y216093D01*
X263953Y216133D01*
X264043Y216177D01*
X264131Y216224D01*
X264217Y216274D01*
X264301Y216328D01*
X264383Y216385D01*
X264462Y216445D01*
X264540Y216509D01*
X264614Y216575D01*
X264686Y216644D01*
X264755Y216716D01*
X264821Y216790D01*
X264885Y216868D01*
X264945Y216947D01*
X265002Y217029D01*
X265056Y217113D01*
X265106Y217199D01*
X265153Y217287D01*
X265197Y217377D01*
X265237Y217468D01*
X265273Y217561D01*
X265306Y217655D01*
X265335Y217751D01*
X265360Y217847D01*
X265381Y217944D01*
X265399Y218043D01*
X265412Y218141D01*
X265422Y218241D01*
X265428Y218340D01*
X265430Y218440D01*
X219710Y215900D02*
X219610Y215902D01*
X219511Y215908D01*
X219411Y215918D01*
X219313Y215931D01*
X219214Y215949D01*
X219117Y215970D01*
X219021Y215995D01*
X218925Y216024D01*
X218831Y216057D01*
X218738Y216093D01*
X218647Y216133D01*
X218557Y216177D01*
X218469Y216224D01*
X218383Y216274D01*
X218299Y216328D01*
X218217Y216385D01*
X218138Y216445D01*
X218060Y216509D01*
X217986Y216575D01*
X217914Y216644D01*
X217845Y216716D01*
X217779Y216790D01*
X217715Y216868D01*
X217655Y216947D01*
X217598Y217029D01*
X217544Y217113D01*
X217494Y217199D01*
X217447Y217287D01*
X217403Y217377D01*
X217363Y217468D01*
X217327Y217561D01*
X217294Y217655D01*
X217265Y217751D01*
X217240Y217847D01*
X217219Y217944D01*
X217201Y218043D01*
X217188Y218141D01*
X217178Y218241D01*
X217172Y218340D01*
X217170Y218440D01*
X243840Y228600D02*
X245110Y228600D01*
D11*
X243840Y228600D02*
X243840Y236220D01*
X243840Y228600D02*
X243840Y220980D01*
X238760Y228600D02*
X238760Y236220D01*
X238760Y228600D02*
X238760Y220980D01*
D10*
X238760Y228600D02*
X237490Y228600D01*
D12*
X224155Y244475D02*
X221615Y244475D01*
X221515Y244477D01*
X221416Y244483D01*
X221316Y244493D01*
X221218Y244506D01*
X221119Y244524D01*
X221022Y244545D01*
X220926Y244570D01*
X220830Y244599D01*
X220736Y244632D01*
X220643Y244668D01*
X220552Y244708D01*
X220462Y244752D01*
X220374Y244799D01*
X220288Y244849D01*
X220204Y244903D01*
X220122Y244960D01*
X220043Y245020D01*
X219965Y245084D01*
X219891Y245150D01*
X219819Y245219D01*
X219750Y245291D01*
X219684Y245365D01*
X219620Y245443D01*
X219560Y245522D01*
X219503Y245604D01*
X219449Y245688D01*
X219399Y245774D01*
X219352Y245862D01*
X219308Y245952D01*
X219268Y246043D01*
X219232Y246136D01*
X219199Y246230D01*
X219170Y246326D01*
X219145Y246422D01*
X219124Y246519D01*
X219106Y246618D01*
X219093Y246716D01*
X219083Y246816D01*
X219077Y246915D01*
X219075Y247015D01*
X219075Y253365D01*
X219077Y253465D01*
X219083Y253564D01*
X219093Y253664D01*
X219106Y253762D01*
X219124Y253861D01*
X219145Y253958D01*
X219170Y254054D01*
X219199Y254150D01*
X219232Y254244D01*
X219268Y254337D01*
X219308Y254428D01*
X219352Y254518D01*
X219399Y254606D01*
X219449Y254692D01*
X219503Y254776D01*
X219560Y254858D01*
X219620Y254937D01*
X219684Y255015D01*
X219750Y255089D01*
X219819Y255161D01*
X219891Y255230D01*
X219965Y255296D01*
X220043Y255360D01*
X220122Y255420D01*
X220204Y255477D01*
X220288Y255531D01*
X220374Y255581D01*
X220462Y255628D01*
X220552Y255672D01*
X220643Y255712D01*
X220736Y255748D01*
X220830Y255781D01*
X220926Y255810D01*
X221022Y255835D01*
X221119Y255856D01*
X221218Y255874D01*
X221316Y255887D01*
X221416Y255897D01*
X221515Y255903D01*
X221615Y255905D01*
X224155Y255905D01*
X232130Y255906D02*
X232234Y255904D01*
X232339Y255898D01*
X232443Y255889D01*
X232546Y255876D01*
X232649Y255858D01*
X232751Y255838D01*
X232853Y255813D01*
X232953Y255785D01*
X233053Y255753D01*
X233151Y255717D01*
X233248Y255678D01*
X233343Y255636D01*
X233437Y255590D01*
X233529Y255540D01*
X233619Y255488D01*
X233707Y255432D01*
X233793Y255372D01*
X233877Y255310D01*
X233958Y255245D01*
X234037Y255177D01*
X234114Y255105D01*
X234187Y255032D01*
X234259Y254955D01*
X234327Y254876D01*
X234392Y254795D01*
X234454Y254711D01*
X234514Y254625D01*
X234570Y254537D01*
X234622Y254447D01*
X234672Y254355D01*
X234718Y254261D01*
X234760Y254166D01*
X234799Y254069D01*
X234835Y253971D01*
X234867Y253871D01*
X234895Y253771D01*
X234920Y253669D01*
X234940Y253567D01*
X234958Y253464D01*
X234971Y253361D01*
X234980Y253257D01*
X234986Y253152D01*
X234988Y253048D01*
X232130Y255905D02*
X232012Y255903D01*
X231893Y255897D01*
X231775Y255888D01*
X231658Y255875D01*
X231541Y255857D01*
X231424Y255837D01*
X231308Y255812D01*
X231193Y255784D01*
X231080Y255751D01*
X230967Y255716D01*
X230855Y255676D01*
X230745Y255634D01*
X230636Y255587D01*
X230528Y255537D01*
X230423Y255484D01*
X230319Y255427D01*
X230217Y255367D01*
X230117Y255304D01*
X230019Y255237D01*
X229923Y255168D01*
X229830Y255095D01*
X229739Y255019D01*
X229650Y254941D01*
X229564Y254859D01*
X229481Y254775D01*
X229400Y254689D01*
X229323Y254599D01*
X229248Y254508D01*
X229176Y254414D01*
X229107Y254317D01*
X229042Y254219D01*
X228979Y254118D01*
X228920Y254015D01*
X228864Y253911D01*
X228812Y253805D01*
X228763Y253697D01*
X228718Y253588D01*
X228676Y253477D01*
X228638Y253365D01*
X234035Y250826D02*
X234111Y250901D01*
X234186Y250980D01*
X234257Y251061D01*
X234326Y251145D01*
X234391Y251231D01*
X234453Y251319D01*
X234513Y251409D01*
X234569Y251501D01*
X234622Y251596D01*
X234671Y251692D01*
X234717Y251790D01*
X234760Y251889D01*
X234799Y251990D01*
X234834Y252092D01*
X234866Y252195D01*
X234894Y252299D01*
X234919Y252404D01*
X234940Y252511D01*
X234957Y252617D01*
X234970Y252724D01*
X234979Y252832D01*
X234985Y252940D01*
X234987Y253048D01*
X234035Y250825D02*
X228637Y244475D01*
X234987Y244475D01*
D10*
X406400Y242570D02*
X459740Y242570D01*
X406400Y242570D02*
X406396Y242879D01*
X406385Y243188D01*
X406366Y243497D01*
X406340Y243805D01*
X406306Y244113D01*
X406265Y244419D01*
X406216Y244725D01*
X406160Y245029D01*
X406096Y245331D01*
X406025Y245632D01*
X405947Y245932D01*
X405862Y246229D01*
X405769Y246524D01*
X405669Y246817D01*
X405562Y247107D01*
X405448Y247394D01*
X405327Y247679D01*
X405199Y247961D01*
X405065Y248239D01*
X404923Y248514D01*
X404775Y248786D01*
X404620Y249053D01*
X404459Y249317D01*
X404292Y249577D01*
X404118Y249833D01*
X403938Y250085D01*
X403752Y250332D01*
X403560Y250574D01*
X403362Y250812D01*
X403159Y251045D01*
X402949Y251273D01*
X402735Y251495D01*
X402515Y251713D01*
X402289Y251925D01*
X402059Y252131D01*
X401824Y252332D01*
X401584Y252527D01*
X401339Y252716D01*
X401090Y252899D01*
X400836Y253076D01*
X400578Y253246D01*
X400316Y253411D01*
X400050Y253569D01*
X399780Y253720D01*
X399507Y253865D01*
X399230Y254003D01*
X398950Y254134D01*
X398667Y254258D01*
X398381Y254376D01*
X398092Y254486D01*
X397801Y254590D01*
X397507Y254686D01*
X397211Y254775D01*
X396912Y254857D01*
X396612Y254932D01*
X396310Y254999D01*
X396007Y255059D01*
X395702Y255111D01*
X395396Y255156D01*
X395089Y255194D01*
X394781Y255224D01*
X394473Y255246D01*
X394164Y255262D01*
X393855Y255269D01*
X393545Y255269D01*
X393236Y255262D01*
X392927Y255246D01*
X392619Y255224D01*
X392311Y255194D01*
X392004Y255156D01*
X391698Y255111D01*
X391393Y255059D01*
X391090Y254999D01*
X390788Y254932D01*
X390488Y254857D01*
X390189Y254775D01*
X389893Y254686D01*
X389599Y254590D01*
X389308Y254486D01*
X389019Y254376D01*
X388733Y254258D01*
X388450Y254134D01*
X388170Y254003D01*
X387893Y253865D01*
X387620Y253720D01*
X387350Y253569D01*
X387084Y253411D01*
X386822Y253246D01*
X386564Y253076D01*
X386310Y252899D01*
X386061Y252716D01*
X385816Y252527D01*
X385576Y252332D01*
X385341Y252131D01*
X385111Y251925D01*
X384885Y251713D01*
X384665Y251495D01*
X384451Y251273D01*
X384241Y251045D01*
X384038Y250812D01*
X383840Y250574D01*
X383648Y250332D01*
X383462Y250085D01*
X383282Y249833D01*
X383108Y249577D01*
X382941Y249317D01*
X382780Y249053D01*
X382625Y248786D01*
X382477Y248514D01*
X382335Y248239D01*
X382201Y247961D01*
X382073Y247679D01*
X381952Y247394D01*
X381838Y247107D01*
X381731Y246817D01*
X381631Y246524D01*
X381538Y246229D01*
X381453Y245932D01*
X381375Y245632D01*
X381304Y245331D01*
X381240Y245029D01*
X381184Y244725D01*
X381135Y244419D01*
X381094Y244113D01*
X381060Y243805D01*
X381034Y243497D01*
X381015Y243188D01*
X381004Y242879D01*
X381000Y242570D01*
X327660Y595630D02*
X459740Y595630D01*
X381000Y242570D02*
X327660Y242570D01*
X327660Y595630D01*
X459740Y595630D02*
X459740Y242570D01*
D13*
X426335Y240411D02*
X426335Y224409D01*
X424557Y224409D02*
X428113Y224409D01*
X428113Y240411D02*
X424557Y240411D01*
X437907Y224409D02*
X441463Y224409D01*
X437907Y224409D02*
X437791Y224411D01*
X437674Y224417D01*
X437558Y224426D01*
X437443Y224439D01*
X437328Y224456D01*
X437213Y224477D01*
X437100Y224502D01*
X436987Y224530D01*
X436875Y224562D01*
X436764Y224598D01*
X436654Y224637D01*
X436546Y224680D01*
X436439Y224726D01*
X436334Y224776D01*
X436231Y224829D01*
X436129Y224885D01*
X436029Y224945D01*
X435931Y225008D01*
X435836Y225075D01*
X435742Y225144D01*
X435651Y225216D01*
X435562Y225291D01*
X435476Y225370D01*
X435393Y225451D01*
X435312Y225534D01*
X435233Y225620D01*
X435158Y225709D01*
X435086Y225800D01*
X435017Y225894D01*
X434950Y225989D01*
X434887Y226087D01*
X434827Y226187D01*
X434771Y226289D01*
X434718Y226392D01*
X434668Y226497D01*
X434622Y226604D01*
X434579Y226712D01*
X434540Y226822D01*
X434504Y226933D01*
X434472Y227045D01*
X434444Y227158D01*
X434419Y227271D01*
X434398Y227386D01*
X434381Y227501D01*
X434368Y227616D01*
X434359Y227732D01*
X434353Y227849D01*
X434351Y227965D01*
X434351Y236855D01*
X434353Y236971D01*
X434359Y237088D01*
X434368Y237204D01*
X434381Y237319D01*
X434398Y237434D01*
X434419Y237549D01*
X434444Y237662D01*
X434472Y237775D01*
X434504Y237887D01*
X434540Y237998D01*
X434579Y238108D01*
X434622Y238216D01*
X434668Y238323D01*
X434718Y238428D01*
X434771Y238531D01*
X434827Y238633D01*
X434887Y238733D01*
X434950Y238831D01*
X435017Y238926D01*
X435086Y239020D01*
X435158Y239111D01*
X435233Y239200D01*
X435312Y239286D01*
X435393Y239369D01*
X435476Y239450D01*
X435562Y239529D01*
X435651Y239604D01*
X435742Y239676D01*
X435836Y239745D01*
X435931Y239812D01*
X436029Y239875D01*
X436129Y239935D01*
X436231Y239991D01*
X436334Y240044D01*
X436439Y240094D01*
X436546Y240140D01*
X436654Y240183D01*
X436764Y240222D01*
X436875Y240258D01*
X436987Y240290D01*
X437100Y240318D01*
X437213Y240343D01*
X437328Y240364D01*
X437443Y240381D01*
X437558Y240394D01*
X437674Y240403D01*
X437791Y240409D01*
X437907Y240411D01*
X441463Y240411D01*
X447421Y236855D02*
X451866Y240411D01*
X451866Y224409D01*
X447421Y224409D02*
X456311Y224409D01*
D10*
X660400Y321310D02*
X838200Y321310D01*
X838200Y262890D02*
X660400Y262890D01*
X838200Y262890D02*
X838200Y321310D01*
X660400Y321310D02*
X660400Y302260D01*
X660400Y281940D02*
X660400Y262890D01*
X660400Y281940D02*
X660647Y281943D01*
X660895Y281952D01*
X661142Y281967D01*
X661388Y281988D01*
X661634Y282015D01*
X661879Y282048D01*
X662124Y282087D01*
X662367Y282132D01*
X662609Y282183D01*
X662850Y282240D01*
X663089Y282302D01*
X663327Y282371D01*
X663563Y282445D01*
X663797Y282525D01*
X664029Y282610D01*
X664259Y282702D01*
X664487Y282798D01*
X664712Y282901D01*
X664935Y283008D01*
X665155Y283122D01*
X665372Y283240D01*
X665587Y283364D01*
X665798Y283493D01*
X666006Y283627D01*
X666211Y283766D01*
X666412Y283910D01*
X666610Y284058D01*
X666804Y284212D01*
X666994Y284370D01*
X667180Y284533D01*
X667362Y284700D01*
X667540Y284872D01*
X667714Y285048D01*
X667884Y285228D01*
X668049Y285413D01*
X668209Y285601D01*
X668365Y285793D01*
X668517Y285989D01*
X668663Y286188D01*
X668805Y286391D01*
X668941Y286598D01*
X669073Y286807D01*
X669199Y287020D01*
X669320Y287236D01*
X669436Y287454D01*
X669546Y287676D01*
X669651Y287900D01*
X669751Y288126D01*
X669845Y288355D01*
X669933Y288586D01*
X670016Y288820D01*
X670093Y289055D01*
X670164Y289292D01*
X670230Y289530D01*
X670289Y289770D01*
X670343Y290012D01*
X670391Y290255D01*
X670433Y290498D01*
X670469Y290743D01*
X670499Y290989D01*
X670523Y291235D01*
X670541Y291482D01*
X670553Y291729D01*
X670559Y291976D01*
X670559Y292224D01*
X670553Y292471D01*
X670541Y292718D01*
X670523Y292965D01*
X670499Y293211D01*
X670469Y293457D01*
X670433Y293702D01*
X670391Y293945D01*
X670343Y294188D01*
X670289Y294430D01*
X670230Y294670D01*
X670164Y294908D01*
X670093Y295145D01*
X670016Y295380D01*
X669933Y295614D01*
X669845Y295845D01*
X669751Y296074D01*
X669651Y296300D01*
X669546Y296524D01*
X669436Y296746D01*
X669320Y296964D01*
X669199Y297180D01*
X669073Y297393D01*
X668941Y297602D01*
X668805Y297809D01*
X668663Y298012D01*
X668517Y298211D01*
X668365Y298407D01*
X668209Y298599D01*
X668049Y298787D01*
X667884Y298972D01*
X667714Y299152D01*
X667540Y299328D01*
X667362Y299500D01*
X667180Y299667D01*
X666994Y299830D01*
X666804Y299988D01*
X666610Y300142D01*
X666412Y300290D01*
X666211Y300434D01*
X666006Y300573D01*
X665798Y300707D01*
X665587Y300836D01*
X665372Y300960D01*
X665155Y301078D01*
X664935Y301192D01*
X664712Y301299D01*
X664487Y301402D01*
X664259Y301498D01*
X664029Y301590D01*
X663797Y301675D01*
X663563Y301755D01*
X663327Y301829D01*
X663089Y301898D01*
X662850Y301960D01*
X662609Y302017D01*
X662367Y302068D01*
X662124Y302113D01*
X661879Y302152D01*
X661634Y302185D01*
X661388Y302212D01*
X661142Y302233D01*
X660895Y302248D01*
X660647Y302257D01*
X660400Y302260D01*
D12*
X655955Y263525D02*
X644525Y263525D01*
X655955Y262255D02*
X655955Y264795D01*
X644525Y264795D02*
X644525Y262255D01*
X655955Y271997D02*
X655955Y274537D01*
X655955Y271997D02*
X655953Y271897D01*
X655947Y271798D01*
X655937Y271698D01*
X655924Y271600D01*
X655906Y271501D01*
X655885Y271404D01*
X655860Y271308D01*
X655831Y271212D01*
X655798Y271118D01*
X655762Y271025D01*
X655722Y270934D01*
X655678Y270844D01*
X655631Y270756D01*
X655581Y270670D01*
X655527Y270586D01*
X655470Y270504D01*
X655410Y270425D01*
X655346Y270347D01*
X655280Y270273D01*
X655211Y270201D01*
X655139Y270132D01*
X655065Y270066D01*
X654987Y270002D01*
X654908Y269942D01*
X654826Y269885D01*
X654742Y269831D01*
X654656Y269781D01*
X654568Y269734D01*
X654478Y269690D01*
X654387Y269650D01*
X654294Y269614D01*
X654200Y269581D01*
X654104Y269552D01*
X654008Y269527D01*
X653911Y269506D01*
X653812Y269488D01*
X653714Y269475D01*
X653614Y269465D01*
X653515Y269459D01*
X653415Y269457D01*
X647065Y269457D01*
X646965Y269459D01*
X646866Y269465D01*
X646766Y269475D01*
X646668Y269488D01*
X646569Y269506D01*
X646472Y269527D01*
X646376Y269552D01*
X646280Y269581D01*
X646186Y269614D01*
X646093Y269650D01*
X646002Y269690D01*
X645912Y269734D01*
X645824Y269781D01*
X645738Y269831D01*
X645654Y269885D01*
X645572Y269942D01*
X645493Y270002D01*
X645415Y270066D01*
X645341Y270132D01*
X645269Y270201D01*
X645200Y270273D01*
X645134Y270347D01*
X645070Y270425D01*
X645010Y270504D01*
X644953Y270586D01*
X644899Y270670D01*
X644849Y270756D01*
X644802Y270844D01*
X644758Y270934D01*
X644718Y271025D01*
X644682Y271118D01*
X644649Y271212D01*
X644620Y271308D01*
X644595Y271404D01*
X644574Y271501D01*
X644556Y271600D01*
X644543Y271698D01*
X644533Y271798D01*
X644527Y271897D01*
X644525Y271997D01*
X644525Y274537D01*
X644525Y282511D02*
X644527Y282615D01*
X644533Y282720D01*
X644542Y282824D01*
X644555Y282927D01*
X644573Y283030D01*
X644593Y283132D01*
X644618Y283234D01*
X644646Y283334D01*
X644678Y283434D01*
X644714Y283532D01*
X644753Y283629D01*
X644795Y283724D01*
X644841Y283818D01*
X644891Y283910D01*
X644943Y284000D01*
X644999Y284088D01*
X645059Y284174D01*
X645121Y284258D01*
X645186Y284339D01*
X645254Y284418D01*
X645326Y284495D01*
X645399Y284568D01*
X645476Y284640D01*
X645555Y284708D01*
X645636Y284773D01*
X645720Y284835D01*
X645806Y284895D01*
X645894Y284951D01*
X645984Y285003D01*
X646076Y285053D01*
X646170Y285099D01*
X646265Y285141D01*
X646362Y285180D01*
X646460Y285216D01*
X646560Y285248D01*
X646660Y285276D01*
X646762Y285301D01*
X646864Y285321D01*
X646967Y285339D01*
X647070Y285352D01*
X647174Y285361D01*
X647279Y285367D01*
X647383Y285369D01*
X644525Y282511D02*
X644527Y282393D01*
X644533Y282274D01*
X644542Y282156D01*
X644555Y282039D01*
X644573Y281922D01*
X644593Y281805D01*
X644618Y281689D01*
X644646Y281574D01*
X644679Y281461D01*
X644714Y281348D01*
X644754Y281236D01*
X644796Y281126D01*
X644843Y281017D01*
X644893Y280909D01*
X644946Y280804D01*
X645003Y280700D01*
X645063Y280598D01*
X645126Y280498D01*
X645193Y280400D01*
X645262Y280304D01*
X645335Y280211D01*
X645411Y280120D01*
X645489Y280031D01*
X645571Y279945D01*
X645655Y279862D01*
X645741Y279781D01*
X645831Y279704D01*
X645922Y279629D01*
X646016Y279557D01*
X646113Y279488D01*
X646211Y279423D01*
X646312Y279360D01*
X646415Y279301D01*
X646519Y279245D01*
X646625Y279193D01*
X646733Y279144D01*
X646842Y279099D01*
X646953Y279057D01*
X647065Y279019D01*
X649605Y284417D02*
X649530Y284493D01*
X649451Y284568D01*
X649370Y284639D01*
X649286Y284708D01*
X649200Y284773D01*
X649112Y284835D01*
X649022Y284895D01*
X648930Y284951D01*
X648835Y285004D01*
X648739Y285053D01*
X648641Y285099D01*
X648542Y285142D01*
X648441Y285181D01*
X648339Y285216D01*
X648236Y285248D01*
X648132Y285276D01*
X648027Y285301D01*
X647920Y285322D01*
X647814Y285339D01*
X647707Y285352D01*
X647599Y285361D01*
X647491Y285367D01*
X647383Y285369D01*
X649605Y284416D02*
X655955Y279019D01*
X655955Y285369D01*
D10*
X488950Y889000D02*
X476250Y889000D01*
X488950Y889000D02*
X495300Y882650D01*
X495300Y869950D02*
X488950Y863600D01*
X450850Y889000D02*
X444500Y882650D01*
X450850Y889000D02*
X463550Y889000D01*
X469900Y882650D01*
X469900Y869950D02*
X463550Y863600D01*
X450850Y863600D01*
X444500Y869950D01*
X469900Y882650D02*
X476250Y889000D01*
X469900Y869950D02*
X476250Y863600D01*
X488950Y863600D01*
X412750Y889000D02*
X400050Y889000D01*
X412750Y889000D02*
X419100Y882650D01*
X419100Y869950D02*
X412750Y863600D01*
X419100Y882650D02*
X425450Y889000D01*
X438150Y889000D01*
X444500Y882650D01*
X444500Y869950D02*
X438150Y863600D01*
X425450Y863600D01*
X419100Y869950D01*
X374650Y889000D02*
X368300Y882650D01*
X374650Y889000D02*
X387350Y889000D01*
X393700Y882650D01*
X393700Y869950D02*
X387350Y863600D01*
X374650Y863600D01*
X368300Y869950D01*
X393700Y882650D02*
X400050Y889000D01*
X393700Y869950D02*
X400050Y863600D01*
X412750Y863600D01*
X336550Y889000D02*
X323850Y889000D01*
X336550Y889000D02*
X342900Y882650D01*
X342900Y869950D02*
X336550Y863600D01*
X342900Y882650D02*
X349250Y889000D01*
X361950Y889000D01*
X368300Y882650D01*
X368300Y869950D02*
X361950Y863600D01*
X349250Y863600D01*
X342900Y869950D01*
X298450Y889000D02*
X292100Y882650D01*
X298450Y889000D02*
X311150Y889000D01*
X317500Y882650D01*
X317500Y869950D02*
X311150Y863600D01*
X298450Y863600D01*
X292100Y869950D01*
X317500Y882650D02*
X323850Y889000D01*
X317500Y869950D02*
X323850Y863600D01*
X336550Y863600D01*
X260350Y889000D02*
X247650Y889000D01*
X260350Y889000D02*
X266700Y882650D01*
X266700Y869950D02*
X260350Y863600D01*
X266700Y882650D02*
X273050Y889000D01*
X285750Y889000D01*
X292100Y882650D01*
X292100Y869950D02*
X285750Y863600D01*
X273050Y863600D01*
X266700Y869950D01*
X222250Y889000D02*
X215900Y882650D01*
X222250Y889000D02*
X234950Y889000D01*
X241300Y882650D01*
X241300Y869950D02*
X234950Y863600D01*
X222250Y863600D01*
X215900Y869950D01*
X241300Y882650D02*
X247650Y889000D01*
X241300Y869950D02*
X247650Y863600D01*
X260350Y863600D01*
X184150Y889000D02*
X171450Y889000D01*
X184150Y889000D02*
X190500Y882650D01*
X190500Y869950D02*
X184150Y863600D01*
X190500Y882650D02*
X196850Y889000D01*
X209550Y889000D01*
X215900Y882650D01*
X215900Y869950D02*
X209550Y863600D01*
X196850Y863600D01*
X190500Y869950D01*
X146050Y889000D02*
X139700Y882650D01*
X146050Y889000D02*
X158750Y889000D01*
X165100Y882650D01*
X165100Y869950D02*
X158750Y863600D01*
X146050Y863600D01*
X139700Y869950D01*
X165100Y882650D02*
X171450Y889000D01*
X165100Y869950D02*
X171450Y863600D01*
X184150Y863600D01*
X107950Y889000D02*
X95250Y889000D01*
X107950Y889000D02*
X114300Y882650D01*
X114300Y869950D02*
X107950Y863600D01*
X114300Y882650D02*
X120650Y889000D01*
X133350Y889000D01*
X139700Y882650D01*
X139700Y869950D02*
X133350Y863600D01*
X120650Y863600D01*
X114300Y869950D01*
X69850Y889000D02*
X63500Y882650D01*
X69850Y889000D02*
X82550Y889000D01*
X88900Y882650D01*
X88900Y869950D02*
X82550Y863600D01*
X69850Y863600D01*
X63500Y869950D01*
X88900Y882650D02*
X95250Y889000D01*
X88900Y869950D02*
X95250Y863600D01*
X107950Y863600D01*
X31750Y889000D02*
X19050Y889000D01*
X31750Y889000D02*
X38100Y882650D01*
X38100Y869950D02*
X31750Y863600D01*
X38100Y882650D02*
X44450Y889000D01*
X57150Y889000D01*
X63500Y882650D01*
X63500Y869950D02*
X57150Y863600D01*
X44450Y863600D01*
X38100Y869950D01*
X12700Y869950D02*
X12700Y882650D01*
X19050Y889000D01*
X12700Y869950D02*
X19050Y863600D01*
X31750Y863600D01*
X501650Y889000D02*
X514350Y889000D01*
X520700Y882650D01*
X520700Y869950D02*
X514350Y863600D01*
X495300Y882650D02*
X501650Y889000D01*
X495300Y869950D02*
X501650Y863600D01*
X514350Y863600D01*
X527050Y889000D02*
X539750Y889000D01*
X546100Y882650D01*
X546100Y869950D02*
X539750Y863600D01*
X520700Y882650D02*
X527050Y889000D01*
X520700Y869950D02*
X527050Y863600D01*
X539750Y863600D01*
X552450Y889000D02*
X565150Y889000D01*
X571500Y882650D01*
X571500Y869950D02*
X565150Y863600D01*
X546100Y882650D02*
X552450Y889000D01*
X546100Y869950D02*
X552450Y863600D01*
X565150Y863600D01*
X577850Y889000D02*
X590550Y889000D01*
X596900Y882650D01*
X596900Y869950D02*
X590550Y863600D01*
X571500Y882650D02*
X577850Y889000D01*
X571500Y869950D02*
X577850Y863600D01*
X590550Y863600D01*
X603250Y889000D02*
X615950Y889000D01*
X622300Y882650D01*
X622300Y869950D02*
X615950Y863600D01*
X596900Y882650D02*
X603250Y889000D01*
X596900Y869950D02*
X603250Y863600D01*
X615950Y863600D01*
X628650Y889000D02*
X641350Y889000D01*
X647700Y882650D01*
X647700Y869950D02*
X641350Y863600D01*
X622300Y882650D02*
X628650Y889000D01*
X622300Y869950D02*
X628650Y863600D01*
X641350Y863600D01*
X654050Y889000D02*
X666750Y889000D01*
X673100Y882650D01*
X673100Y869950D02*
X666750Y863600D01*
X647700Y882650D02*
X654050Y889000D01*
X647700Y869950D02*
X654050Y863600D01*
X666750Y863600D01*
X679450Y889000D02*
X692150Y889000D01*
X698500Y882650D01*
X698500Y869950D02*
X692150Y863600D01*
X673100Y882650D02*
X679450Y889000D01*
X673100Y869950D02*
X679450Y863600D01*
X692150Y863600D01*
X704850Y889000D02*
X717550Y889000D01*
X723900Y882650D01*
X723900Y869950D02*
X717550Y863600D01*
X698500Y882650D02*
X704850Y889000D01*
X698500Y869950D02*
X704850Y863600D01*
X717550Y863600D01*
X730250Y889000D02*
X742950Y889000D01*
X749300Y882650D01*
X749300Y869950D02*
X742950Y863600D01*
X723900Y882650D02*
X730250Y889000D01*
X723900Y869950D02*
X730250Y863600D01*
X742950Y863600D01*
X755650Y889000D02*
X768350Y889000D01*
X774700Y882650D01*
X774700Y869950D02*
X768350Y863600D01*
X749300Y882650D02*
X755650Y889000D01*
X749300Y869950D02*
X755650Y863600D01*
X768350Y863600D01*
X1009650Y889000D02*
X1022350Y889000D01*
X984250Y889000D02*
X977900Y882650D01*
X984250Y889000D02*
X996950Y889000D01*
X1003300Y882650D01*
X1003300Y869950D02*
X996950Y863600D01*
X984250Y863600D01*
X977900Y869950D01*
X1003300Y882650D02*
X1009650Y889000D01*
X1003300Y869950D02*
X1009650Y863600D01*
X1022350Y863600D01*
X946150Y889000D02*
X933450Y889000D01*
X946150Y889000D02*
X952500Y882650D01*
X952500Y869950D02*
X946150Y863600D01*
X952500Y882650D02*
X958850Y889000D01*
X971550Y889000D01*
X977900Y882650D01*
X977900Y869950D02*
X971550Y863600D01*
X958850Y863600D01*
X952500Y869950D01*
X908050Y889000D02*
X901700Y882650D01*
X908050Y889000D02*
X920750Y889000D01*
X927100Y882650D01*
X927100Y869950D02*
X920750Y863600D01*
X908050Y863600D01*
X901700Y869950D01*
X927100Y882650D02*
X933450Y889000D01*
X927100Y869950D02*
X933450Y863600D01*
X946150Y863600D01*
X869950Y889000D02*
X857250Y889000D01*
X869950Y889000D02*
X876300Y882650D01*
X876300Y869950D02*
X869950Y863600D01*
X876300Y882650D02*
X882650Y889000D01*
X895350Y889000D01*
X901700Y882650D01*
X901700Y869950D02*
X895350Y863600D01*
X882650Y863600D01*
X876300Y869950D01*
X831850Y889000D02*
X825500Y882650D01*
X831850Y889000D02*
X844550Y889000D01*
X850900Y882650D01*
X850900Y869950D02*
X844550Y863600D01*
X831850Y863600D01*
X825500Y869950D01*
X850900Y882650D02*
X857250Y889000D01*
X850900Y869950D02*
X857250Y863600D01*
X869950Y863600D01*
X793750Y889000D02*
X781050Y889000D01*
X793750Y889000D02*
X800100Y882650D01*
X800100Y869950D02*
X793750Y863600D01*
X800100Y882650D02*
X806450Y889000D01*
X819150Y889000D01*
X825500Y882650D01*
X825500Y869950D02*
X819150Y863600D01*
X806450Y863600D01*
X800100Y869950D01*
X781050Y889000D02*
X774700Y882650D01*
X774700Y869950D02*
X781050Y863600D01*
X793750Y863600D01*
X1028700Y869950D02*
X1028700Y882650D01*
X1022350Y889000D01*
X1028700Y869950D02*
X1022350Y863600D01*
D12*
X16383Y897763D02*
X16383Y906653D01*
X16383Y897763D02*
X16381Y897663D01*
X16375Y897564D01*
X16365Y897464D01*
X16352Y897366D01*
X16334Y897267D01*
X16313Y897170D01*
X16288Y897074D01*
X16259Y896978D01*
X16226Y896884D01*
X16190Y896791D01*
X16150Y896700D01*
X16106Y896610D01*
X16059Y896522D01*
X16009Y896436D01*
X15955Y896352D01*
X15898Y896270D01*
X15838Y896191D01*
X15774Y896113D01*
X15708Y896039D01*
X15639Y895967D01*
X15567Y895898D01*
X15493Y895832D01*
X15415Y895768D01*
X15336Y895708D01*
X15254Y895651D01*
X15170Y895597D01*
X15084Y895547D01*
X14996Y895500D01*
X14906Y895456D01*
X14815Y895416D01*
X14722Y895380D01*
X14628Y895347D01*
X14532Y895318D01*
X14436Y895293D01*
X14339Y895272D01*
X14240Y895254D01*
X14142Y895241D01*
X14042Y895231D01*
X13943Y895225D01*
X13843Y895223D01*
X12573Y895223D01*
X22363Y895223D02*
X22363Y906653D01*
X25538Y906653D01*
X25649Y906651D01*
X25759Y906645D01*
X25870Y906636D01*
X25980Y906622D01*
X26089Y906605D01*
X26198Y906584D01*
X26306Y906559D01*
X26413Y906530D01*
X26519Y906498D01*
X26624Y906462D01*
X26727Y906422D01*
X26829Y906379D01*
X26930Y906332D01*
X27029Y906281D01*
X27126Y906228D01*
X27220Y906171D01*
X27313Y906110D01*
X27404Y906047D01*
X27493Y905980D01*
X27579Y905910D01*
X27662Y905837D01*
X27744Y905762D01*
X27822Y905684D01*
X27897Y905602D01*
X27970Y905519D01*
X28040Y905433D01*
X28107Y905344D01*
X28170Y905253D01*
X28231Y905160D01*
X28288Y905065D01*
X28341Y904969D01*
X28392Y904870D01*
X28439Y904769D01*
X28482Y904667D01*
X28522Y904564D01*
X28558Y904459D01*
X28590Y904353D01*
X28619Y904246D01*
X28644Y904138D01*
X28665Y904029D01*
X28682Y903920D01*
X28696Y903810D01*
X28705Y903699D01*
X28711Y903589D01*
X28713Y903478D01*
X28711Y903367D01*
X28705Y903257D01*
X28696Y903146D01*
X28682Y903036D01*
X28665Y902927D01*
X28644Y902818D01*
X28619Y902710D01*
X28590Y902603D01*
X28558Y902497D01*
X28522Y902392D01*
X28482Y902289D01*
X28439Y902187D01*
X28392Y902086D01*
X28341Y901987D01*
X28288Y901891D01*
X28231Y901796D01*
X28170Y901703D01*
X28107Y901612D01*
X28040Y901523D01*
X27970Y901437D01*
X27897Y901354D01*
X27822Y901272D01*
X27744Y901194D01*
X27662Y901119D01*
X27579Y901046D01*
X27493Y900976D01*
X27404Y900909D01*
X27313Y900846D01*
X27220Y900785D01*
X27125Y900728D01*
X27029Y900675D01*
X26930Y900624D01*
X26829Y900577D01*
X26727Y900534D01*
X26624Y900494D01*
X26519Y900458D01*
X26413Y900426D01*
X26306Y900397D01*
X26198Y900372D01*
X26089Y900351D01*
X25980Y900334D01*
X25870Y900320D01*
X25759Y900311D01*
X25649Y900305D01*
X25538Y900303D01*
X22363Y900303D01*
X33222Y904113D02*
X36397Y906653D01*
X36397Y895223D01*
X33222Y895223D02*
X39572Y895223D01*
D10*
X218440Y289560D02*
X218340Y289558D01*
X218241Y289552D01*
X218141Y289542D01*
X218043Y289529D01*
X217944Y289511D01*
X217847Y289490D01*
X217751Y289465D01*
X217655Y289436D01*
X217561Y289403D01*
X217468Y289367D01*
X217377Y289327D01*
X217287Y289283D01*
X217199Y289236D01*
X217113Y289186D01*
X217029Y289132D01*
X216947Y289075D01*
X216868Y289015D01*
X216790Y288951D01*
X216716Y288885D01*
X216644Y288816D01*
X216575Y288744D01*
X216509Y288670D01*
X216445Y288592D01*
X216385Y288513D01*
X216328Y288431D01*
X216274Y288347D01*
X216224Y288261D01*
X216177Y288173D01*
X216133Y288083D01*
X216093Y287992D01*
X216057Y287899D01*
X216024Y287805D01*
X215995Y287709D01*
X215970Y287613D01*
X215949Y287516D01*
X215931Y287417D01*
X215918Y287319D01*
X215908Y287219D01*
X215902Y287120D01*
X215900Y287020D01*
X215900Y271780D02*
X215902Y271680D01*
X215908Y271581D01*
X215918Y271481D01*
X215931Y271383D01*
X215949Y271284D01*
X215970Y271187D01*
X215995Y271091D01*
X216024Y270995D01*
X216057Y270901D01*
X216093Y270808D01*
X216133Y270717D01*
X216177Y270627D01*
X216224Y270539D01*
X216274Y270453D01*
X216328Y270369D01*
X216385Y270287D01*
X216445Y270208D01*
X216509Y270130D01*
X216575Y270056D01*
X216644Y269984D01*
X216716Y269915D01*
X216790Y269849D01*
X216868Y269785D01*
X216947Y269725D01*
X217029Y269668D01*
X217113Y269614D01*
X217199Y269564D01*
X217287Y269517D01*
X217377Y269473D01*
X217468Y269433D01*
X217561Y269397D01*
X217655Y269364D01*
X217751Y269335D01*
X217847Y269310D01*
X217944Y269289D01*
X218043Y269271D01*
X218141Y269258D01*
X218241Y269248D01*
X218340Y269242D01*
X218440Y269240D01*
X264160Y269240D02*
X264260Y269242D01*
X264359Y269248D01*
X264459Y269258D01*
X264557Y269271D01*
X264656Y269289D01*
X264753Y269310D01*
X264849Y269335D01*
X264945Y269364D01*
X265039Y269397D01*
X265132Y269433D01*
X265223Y269473D01*
X265313Y269517D01*
X265401Y269564D01*
X265487Y269614D01*
X265571Y269668D01*
X265653Y269725D01*
X265732Y269785D01*
X265810Y269849D01*
X265884Y269915D01*
X265956Y269984D01*
X266025Y270056D01*
X266091Y270130D01*
X266155Y270208D01*
X266215Y270287D01*
X266272Y270369D01*
X266326Y270453D01*
X266376Y270539D01*
X266423Y270627D01*
X266467Y270717D01*
X266507Y270808D01*
X266543Y270901D01*
X266576Y270995D01*
X266605Y271091D01*
X266630Y271187D01*
X266651Y271284D01*
X266669Y271383D01*
X266682Y271481D01*
X266692Y271581D01*
X266698Y271680D01*
X266700Y271780D01*
X266700Y287020D02*
X266698Y287120D01*
X266692Y287219D01*
X266682Y287319D01*
X266669Y287417D01*
X266651Y287516D01*
X266630Y287613D01*
X266605Y287709D01*
X266576Y287805D01*
X266543Y287899D01*
X266507Y287992D01*
X266467Y288083D01*
X266423Y288173D01*
X266376Y288261D01*
X266326Y288347D01*
X266272Y288431D01*
X266215Y288513D01*
X266155Y288592D01*
X266091Y288670D01*
X266025Y288744D01*
X265956Y288816D01*
X265884Y288885D01*
X265810Y288951D01*
X265732Y289015D01*
X265653Y289075D01*
X265571Y289132D01*
X265487Y289186D01*
X265401Y289236D01*
X265313Y289283D01*
X265223Y289327D01*
X265132Y289367D01*
X265039Y289403D01*
X264945Y289436D01*
X264849Y289465D01*
X264753Y289490D01*
X264656Y289511D01*
X264557Y289529D01*
X264459Y289542D01*
X264359Y289552D01*
X264260Y289558D01*
X264160Y289560D01*
X215900Y287020D02*
X215900Y271780D01*
X218440Y289560D02*
X222250Y289560D01*
X223520Y288290D01*
X222250Y269240D02*
X218440Y269240D01*
X222250Y269240D02*
X223520Y270510D01*
X259080Y288290D02*
X260350Y289560D01*
X259080Y288290D02*
X223520Y288290D01*
X259080Y270510D02*
X260350Y269240D01*
X259080Y270510D02*
X223520Y270510D01*
X260350Y289560D02*
X264160Y289560D01*
X264160Y269240D02*
X260350Y269240D01*
X266700Y271780D02*
X266700Y287020D01*
D14*
X268605Y279400D03*
X213995Y279400D03*
D15*
X221742Y291592D02*
X221742Y300482D01*
X224211Y300482D01*
X224309Y300480D01*
X224407Y300474D01*
X224505Y300464D01*
X224602Y300451D01*
X224699Y300433D01*
X224795Y300412D01*
X224889Y300387D01*
X224983Y300358D01*
X225076Y300326D01*
X225167Y300289D01*
X225257Y300250D01*
X225345Y300206D01*
X225431Y300159D01*
X225516Y300109D01*
X225598Y300056D01*
X225678Y299999D01*
X225756Y299939D01*
X225831Y299876D01*
X225904Y299810D01*
X225974Y299741D01*
X226041Y299670D01*
X226106Y299596D01*
X226167Y299519D01*
X226226Y299440D01*
X226281Y299359D01*
X226333Y299276D01*
X226381Y299190D01*
X226426Y299103D01*
X226468Y299014D01*
X226506Y298924D01*
X226540Y298832D01*
X226571Y298739D01*
X226598Y298644D01*
X226621Y298549D01*
X226641Y298452D01*
X226656Y298356D01*
X226668Y298258D01*
X226676Y298160D01*
X226680Y298062D01*
X226680Y297964D01*
X226676Y297866D01*
X226668Y297768D01*
X226656Y297670D01*
X226641Y297574D01*
X226621Y297477D01*
X226598Y297382D01*
X226571Y297287D01*
X226540Y297194D01*
X226506Y297102D01*
X226468Y297012D01*
X226426Y296923D01*
X226381Y296836D01*
X226333Y296750D01*
X226281Y296667D01*
X226226Y296586D01*
X226167Y296507D01*
X226106Y296430D01*
X226041Y296356D01*
X225974Y296285D01*
X225904Y296216D01*
X225831Y296150D01*
X225756Y296087D01*
X225678Y296027D01*
X225598Y295970D01*
X225516Y295917D01*
X225431Y295867D01*
X225345Y295820D01*
X225257Y295776D01*
X225167Y295737D01*
X225076Y295700D01*
X224983Y295668D01*
X224889Y295639D01*
X224795Y295614D01*
X224699Y295593D01*
X224602Y295575D01*
X224505Y295562D01*
X224407Y295552D01*
X224309Y295546D01*
X224211Y295544D01*
X224211Y295543D02*
X221742Y295543D01*
X224705Y295543D02*
X226681Y291592D01*
X230592Y298506D02*
X233061Y300482D01*
X233061Y291592D01*
X230592Y291592D02*
X235531Y291592D01*
M02*
