G04 EAGLE Gerber RS-274X export*
G75*
%MOMM*%
%FSLAX34Y34*%
%LPD*%
%INBottom Copper*%
%IPPOS*%
%AMOC8*
5,1,8,0,0,1.08239X$1,22.5*%
G01*
%ADD10P,1.979475X8X22.500000*%
%ADD11P,1.979475X8X202.500000*%
%ADD12P,1.979475X8X112.500000*%
%ADD13C,1.828800*%
%ADD14C,2.032000*%
%ADD15P,1.979475X8X292.500000*%
%ADD16C,1.828800*%
%ADD17C,1.270000*%
%ADD18C,2.100000*%


D10*
X1155700Y-152400D03*
X1181100Y-152400D03*
D11*
X965200Y-393700D03*
X914400Y-393700D03*
X939800Y-254000D03*
X889000Y-254000D03*
D10*
X1155700Y-101600D03*
X1181100Y-101600D03*
D11*
X393700Y-381000D03*
X342900Y-381000D03*
D12*
X495300Y-165100D03*
X495300Y-114300D03*
D13*
X533400Y-98044D02*
X533400Y-79756D01*
X558800Y-79756D02*
X558800Y-98044D01*
X685800Y-98044D02*
X685800Y-79756D01*
X685800Y-155956D02*
X685800Y-174244D01*
X584200Y-98044D02*
X584200Y-79756D01*
X609600Y-79756D02*
X609600Y-98044D01*
X660400Y-98044D02*
X660400Y-79756D01*
X635000Y-79756D02*
X635000Y-98044D01*
X660400Y-155956D02*
X660400Y-174244D01*
X635000Y-174244D02*
X635000Y-155956D01*
X609600Y-155956D02*
X609600Y-174244D01*
X584200Y-174244D02*
X584200Y-155956D01*
X558800Y-155956D02*
X558800Y-174244D01*
X533400Y-174244D02*
X533400Y-155956D01*
X1003300Y-308356D02*
X1003300Y-326644D01*
X1028700Y-326644D02*
X1028700Y-308356D01*
X1155700Y-308356D02*
X1155700Y-326644D01*
X1155700Y-384556D02*
X1155700Y-402844D01*
X1054100Y-326644D02*
X1054100Y-308356D01*
X1079500Y-308356D02*
X1079500Y-326644D01*
X1130300Y-326644D02*
X1130300Y-308356D01*
X1104900Y-308356D02*
X1104900Y-326644D01*
X1130300Y-384556D02*
X1130300Y-402844D01*
X1104900Y-402844D02*
X1104900Y-384556D01*
X1079500Y-384556D02*
X1079500Y-402844D01*
X1054100Y-402844D02*
X1054100Y-384556D01*
X1028700Y-384556D02*
X1028700Y-402844D01*
X1003300Y-402844D02*
X1003300Y-384556D01*
X872744Y-215900D02*
X854456Y-215900D01*
X854456Y-190500D02*
X872744Y-190500D01*
X872744Y-63500D02*
X854456Y-63500D01*
X930656Y-63500D02*
X948944Y-63500D01*
X872744Y-165100D02*
X854456Y-165100D01*
X854456Y-139700D02*
X872744Y-139700D01*
X872744Y-88900D02*
X854456Y-88900D01*
X854456Y-114300D02*
X872744Y-114300D01*
X930656Y-88900D02*
X948944Y-88900D01*
X948944Y-114300D02*
X930656Y-114300D01*
X930656Y-139700D02*
X948944Y-139700D01*
X948944Y-165100D02*
X930656Y-165100D01*
X930656Y-190500D02*
X948944Y-190500D01*
X948944Y-215900D02*
X930656Y-215900D01*
X406400Y-689356D02*
X406400Y-707644D01*
X381000Y-707644D02*
X381000Y-689356D01*
X355600Y-689356D02*
X355600Y-707644D01*
X330200Y-707644D02*
X330200Y-689356D01*
X304800Y-689356D02*
X304800Y-707644D01*
X279400Y-707644D02*
X279400Y-689356D01*
X254000Y-689356D02*
X254000Y-707644D01*
X228600Y-707644D02*
X228600Y-689356D01*
X203200Y-689356D02*
X203200Y-707644D01*
X177800Y-707644D02*
X177800Y-689356D01*
X152400Y-689356D02*
X152400Y-707644D01*
X127000Y-707644D02*
X127000Y-689356D01*
X101600Y-689356D02*
X101600Y-707644D01*
X76200Y-707644D02*
X76200Y-689356D01*
X76200Y-555244D02*
X76200Y-536956D01*
X101600Y-536956D02*
X101600Y-555244D01*
X127000Y-555244D02*
X127000Y-536956D01*
X152400Y-536956D02*
X152400Y-555244D01*
X177800Y-555244D02*
X177800Y-536956D01*
X203200Y-536956D02*
X203200Y-555244D01*
X228600Y-555244D02*
X228600Y-536956D01*
X254000Y-536956D02*
X254000Y-555244D01*
X279400Y-555244D02*
X279400Y-536956D01*
X304800Y-536956D02*
X304800Y-555244D01*
X330200Y-555244D02*
X330200Y-536956D01*
X355600Y-536956D02*
X355600Y-555244D01*
X381000Y-555244D02*
X381000Y-536956D01*
X406400Y-536956D02*
X406400Y-555244D01*
X326644Y-342900D02*
X308356Y-342900D01*
X308356Y-317500D02*
X326644Y-317500D01*
X326644Y-190500D02*
X308356Y-190500D01*
X384556Y-190500D02*
X402844Y-190500D01*
X326644Y-292100D02*
X308356Y-292100D01*
X308356Y-266700D02*
X326644Y-266700D01*
X326644Y-215900D02*
X308356Y-215900D01*
X308356Y-241300D02*
X326644Y-241300D01*
X384556Y-215900D02*
X402844Y-215900D01*
X402844Y-241300D02*
X384556Y-241300D01*
X384556Y-266700D02*
X402844Y-266700D01*
X402844Y-292100D02*
X384556Y-292100D01*
X384556Y-317500D02*
X402844Y-317500D01*
X402844Y-342900D02*
X384556Y-342900D01*
D14*
X63500Y-894080D02*
X63500Y-914400D01*
X88900Y-914400D02*
X88900Y-894080D01*
X114300Y-894080D02*
X114300Y-914400D01*
X139700Y-914400D02*
X139700Y-894080D01*
X165100Y-894080D02*
X165100Y-914400D01*
X190500Y-914400D02*
X190500Y-894080D01*
X215900Y-894080D02*
X215900Y-914400D01*
X241300Y-914400D02*
X241300Y-894080D01*
X266700Y-894080D02*
X266700Y-914400D01*
X292100Y-914400D02*
X292100Y-894080D01*
X317500Y-894080D02*
X317500Y-914400D01*
X342900Y-914400D02*
X342900Y-894080D01*
X368300Y-894080D02*
X368300Y-914400D01*
X393700Y-914400D02*
X393700Y-894080D01*
X419100Y-894080D02*
X419100Y-914400D01*
X444500Y-914400D02*
X444500Y-894080D01*
X469900Y-894080D02*
X469900Y-914400D01*
X495300Y-914400D02*
X495300Y-894080D01*
X520700Y-894080D02*
X520700Y-914400D01*
X546100Y-914400D02*
X546100Y-894080D01*
X571500Y-894080D02*
X571500Y-914400D01*
X596900Y-914400D02*
X596900Y-894080D01*
X622300Y-894080D02*
X622300Y-914400D01*
X647700Y-914400D02*
X647700Y-894080D01*
X673100Y-894080D02*
X673100Y-914400D01*
X698500Y-914400D02*
X698500Y-894080D01*
X723900Y-894080D02*
X723900Y-914400D01*
X749300Y-914400D02*
X749300Y-894080D01*
X774700Y-894080D02*
X774700Y-914400D01*
X800100Y-914400D02*
X800100Y-894080D01*
X825500Y-894080D02*
X825500Y-914400D01*
X850900Y-914400D02*
X850900Y-894080D01*
X876300Y-894080D02*
X876300Y-914400D01*
X901700Y-914400D02*
X901700Y-894080D01*
X927100Y-894080D02*
X927100Y-914400D01*
X952500Y-914400D02*
X952500Y-894080D01*
X977900Y-894080D02*
X977900Y-914400D01*
X1003300Y-914400D02*
X1003300Y-894080D01*
X1028700Y-894080D02*
X1028700Y-914400D01*
X1054100Y-914400D02*
X1054100Y-894080D01*
X165100Y-213360D02*
X165100Y-193040D01*
X139700Y-193040D02*
X139700Y-213360D01*
X35560Y-165100D02*
X15240Y-165100D01*
X15240Y-190500D02*
X35560Y-190500D01*
X35560Y-215900D02*
X15240Y-215900D01*
X15240Y-241300D02*
X35560Y-241300D01*
X35560Y-266700D02*
X15240Y-266700D01*
X15240Y-292100D02*
X35560Y-292100D01*
D10*
X114300Y-241300D03*
X190500Y-241300D03*
X114300Y-266700D03*
X190500Y-266700D03*
D11*
X1054100Y-152400D03*
X1003300Y-152400D03*
X1054100Y-101600D03*
X1003300Y-101600D03*
D15*
X1079500Y-215900D03*
X1079500Y-292100D03*
X1003300Y-215900D03*
X1003300Y-292100D03*
D12*
X1104900Y-495300D03*
X1104900Y-419100D03*
X1028700Y-495300D03*
X1028700Y-419100D03*
D16*
X1104900Y-151130D03*
X1104900Y-102870D03*
D17*
X1155700Y-317500D02*
X1181100Y-317500D01*
X1181100Y-152400D01*
X1181100Y-101600D01*
X1181100Y-38100D01*
X901700Y-38100D01*
X863600Y-38100D01*
X863600Y-63500D01*
X901700Y-38100D02*
X901700Y-88900D01*
X939800Y-88900D01*
X469900Y-698500D02*
X406400Y-698500D01*
X469900Y-698500D02*
X469900Y-914400D01*
X127000Y-546100D02*
X101600Y-546100D01*
X127000Y-546100D02*
X127000Y-609600D01*
X203200Y-609600D01*
X203200Y-647700D01*
X203200Y-698500D01*
X342900Y-381000D02*
X355600Y-381000D01*
X355600Y-342900D01*
X355600Y-317500D01*
X355600Y-292100D01*
X355600Y-266700D01*
X355600Y-241300D01*
X355600Y-190500D01*
X317500Y-190500D01*
X317500Y-241300D02*
X355600Y-241300D01*
X355600Y-266700D02*
X317500Y-266700D01*
X317500Y-317500D02*
X355600Y-317500D01*
X355600Y-342900D02*
X317500Y-342900D01*
X635000Y-88900D02*
X635000Y-38100D01*
X685800Y-38100D01*
X685800Y-88900D01*
X901700Y-88900D02*
X901700Y-254000D01*
X889000Y-254000D01*
D18*
X317500Y-76200D03*
X495300Y-76200D03*
D17*
X317500Y-165100D02*
X317500Y-190500D01*
X317500Y-165100D02*
X317500Y-76200D01*
X495300Y-76200D02*
X495300Y-114300D01*
D18*
X317500Y-38100D03*
X609600Y-38100D03*
D17*
X317500Y-38100D02*
X317500Y-76200D01*
X609600Y-88900D02*
X609600Y-38100D01*
X685800Y-38100D02*
X863600Y-38100D01*
X406400Y-647700D02*
X406400Y-698500D01*
X406400Y-647700D02*
X203200Y-647700D01*
D18*
X101600Y-419100D03*
X101600Y-190500D03*
D17*
X101600Y-419100D02*
X101600Y-546100D01*
X609600Y-38100D02*
X635000Y-38100D01*
X901700Y-254000D02*
X901700Y-279400D01*
X914400Y-279400D01*
X914400Y-393700D01*
X393700Y-317500D02*
X355600Y-317500D01*
X355600Y-292100D02*
X393700Y-292100D01*
X101600Y-165100D02*
X25400Y-165100D01*
X101600Y-165100D02*
X317500Y-165100D01*
X101600Y-165100D02*
X101600Y-190500D01*
X1003300Y-215900D02*
X1079500Y-215900D01*
X1003300Y-215900D02*
X939800Y-215900D01*
X393700Y-342900D02*
X393700Y-381000D01*
X1028700Y-495300D02*
X1104900Y-495300D01*
X1028700Y-495300D02*
X1003300Y-495300D01*
X1003300Y-393700D01*
X76200Y-393700D02*
X76200Y-546100D01*
X76200Y-393700D02*
X279400Y-393700D01*
X279400Y-203200D02*
X165100Y-203200D01*
X279400Y-203200D02*
X279400Y-393700D01*
D18*
X495300Y-787400D03*
X1003300Y-787400D03*
D17*
X495300Y-787400D02*
X495300Y-914400D01*
D18*
X482600Y-406400D03*
X419100Y-406400D03*
D17*
X279400Y-406400D02*
X279400Y-393700D01*
X279400Y-406400D02*
X393700Y-406400D01*
X419100Y-406400D01*
X393700Y-406400D02*
X393700Y-381000D01*
X939800Y-254000D02*
X939800Y-215900D01*
X1003300Y-495300D02*
X1003300Y-787400D01*
X495300Y-787400D02*
X495300Y-406400D01*
X482600Y-406400D01*
X495300Y-165100D02*
X533400Y-165100D01*
X495300Y-165100D02*
X495300Y-406400D01*
X965200Y-393700D02*
X1003300Y-393700D01*
X965200Y-254000D02*
X939800Y-254000D01*
X965200Y-254000D02*
X965200Y-393700D01*
D18*
X368300Y-863600D03*
X571500Y-863600D03*
D17*
X571500Y-292100D02*
X660400Y-292100D01*
X660400Y-165100D01*
X571500Y-292100D02*
X571500Y-863600D01*
X368300Y-863600D02*
X368300Y-914400D01*
D18*
X355600Y-838200D03*
X355600Y-762000D03*
D17*
X355600Y-698500D01*
X393700Y-838200D02*
X393700Y-914400D01*
X393700Y-838200D02*
X355600Y-838200D01*
X76200Y-812800D02*
X76200Y-698500D01*
X76200Y-812800D02*
X419100Y-812800D01*
X419100Y-914400D01*
X101600Y-787400D02*
X101600Y-698500D01*
X101600Y-787400D02*
X444500Y-787400D01*
X444500Y-914400D01*
D18*
X330200Y-749300D03*
X546100Y-749300D03*
D17*
X546100Y-914400D01*
X330200Y-749300D02*
X330200Y-698500D01*
X355600Y-584200D02*
X355600Y-546100D01*
D18*
X431800Y-584200D03*
D17*
X355600Y-584200D01*
D18*
X596900Y-584200D03*
D17*
X596900Y-914400D01*
X647700Y-914400D02*
X647700Y-546100D01*
X647700Y-342900D01*
X736600Y-342900D01*
X736600Y-114300D01*
X863600Y-114300D01*
D18*
X431800Y-546100D03*
X635000Y-546100D03*
D17*
X647700Y-546100D01*
X431800Y-546100D02*
X406400Y-546100D01*
X673100Y-368300D02*
X673100Y-914400D01*
X673100Y-368300D02*
X787400Y-368300D01*
X787400Y-165100D01*
X863600Y-165100D01*
X698500Y-393700D02*
X698500Y-914400D01*
X698500Y-393700D02*
X863600Y-393700D01*
X863600Y-215900D01*
D18*
X152400Y-419100D03*
X723900Y-419100D03*
D17*
X152400Y-419100D02*
X152400Y-546100D01*
X723900Y-419100D02*
X723900Y-914400D01*
D18*
X177800Y-431800D03*
X749300Y-431800D03*
D17*
X177800Y-431800D02*
X177800Y-546100D01*
X749300Y-431800D02*
X749300Y-914400D01*
D18*
X203200Y-444500D03*
X774700Y-444500D03*
D17*
X203200Y-444500D02*
X203200Y-546100D01*
X774700Y-444500D02*
X774700Y-914400D01*
D18*
X228600Y-457200D03*
X800100Y-457200D03*
D17*
X228600Y-457200D02*
X228600Y-546100D01*
X800100Y-457200D02*
X800100Y-914400D01*
D18*
X254000Y-469900D03*
X825500Y-469900D03*
D17*
X254000Y-469900D02*
X254000Y-546100D01*
X825500Y-469900D02*
X825500Y-914400D01*
D18*
X279400Y-482600D03*
X850900Y-482600D03*
D17*
X279400Y-482600D02*
X279400Y-546100D01*
X850900Y-482600D02*
X850900Y-914400D01*
D18*
X304800Y-495300D03*
X876300Y-495300D03*
D17*
X304800Y-495300D02*
X304800Y-546100D01*
X876300Y-495300D02*
X876300Y-914400D01*
D18*
X330200Y-508000D03*
X901700Y-508000D03*
D17*
X330200Y-508000D02*
X330200Y-546100D01*
X901700Y-508000D02*
X901700Y-914400D01*
D18*
X228600Y-266700D03*
D17*
X177800Y-635000D02*
X177800Y-698500D01*
X177800Y-635000D02*
X50800Y-635000D01*
D18*
X228600Y-368300D03*
D17*
X50800Y-368300D01*
X50800Y-635000D01*
X190500Y-266700D02*
X228600Y-266700D01*
D18*
X254000Y-368300D03*
X889000Y-368300D03*
D17*
X889000Y-431800D01*
X927100Y-431800D01*
X927100Y-914400D01*
X254000Y-368300D02*
X228600Y-368300D01*
X127000Y-660400D02*
X127000Y-698500D01*
X127000Y-660400D02*
X25400Y-660400D01*
X25400Y-342900D01*
X254000Y-342900D02*
X254000Y-241300D01*
X190500Y-241300D01*
D18*
X952500Y-850900D03*
X330200Y-850900D03*
D17*
X25400Y-850900D02*
X25400Y-660400D01*
X25400Y-850900D02*
X330200Y-850900D01*
X254000Y-342900D02*
X25400Y-342900D01*
X952500Y-850900D02*
X952500Y-914400D01*
X520700Y-914400D02*
X520700Y-266700D01*
X584200Y-266700D01*
X584200Y-165100D01*
X114300Y-241300D02*
X25400Y-241300D01*
X25400Y-266700D02*
X114300Y-266700D01*
X139700Y-215900D02*
X139700Y-203200D01*
X139700Y-215900D02*
X25400Y-215900D01*
X1104900Y-151130D02*
X1106170Y-152400D01*
X1155700Y-152400D01*
X1104900Y-151130D02*
X1055370Y-151130D01*
X1054100Y-152400D01*
X1054100Y-190500D02*
X939800Y-190500D01*
X1054100Y-190500D02*
X1055370Y-189230D01*
X1055370Y-151130D01*
X1104900Y-102870D02*
X1154430Y-102870D01*
X1155700Y-101600D01*
X1055370Y-102870D02*
X1054100Y-101600D01*
X1055370Y-102870D02*
X1104900Y-102870D01*
X1003300Y-101600D02*
X1003300Y-139700D01*
X1003300Y-152400D01*
X939800Y-165100D02*
X939800Y-139700D01*
X1003300Y-139700D01*
X1104900Y-317500D02*
X1104900Y-355600D01*
X1079500Y-355600D01*
X1079500Y-393700D01*
X1079500Y-317500D02*
X1079500Y-292100D01*
X1003300Y-292100D02*
X1003300Y-317500D01*
X1028700Y-266700D02*
X1130300Y-266700D01*
X1028700Y-266700D02*
X1028700Y-317500D01*
X1130300Y-317500D02*
X1130300Y-266700D01*
X1104900Y-393700D02*
X1104900Y-419100D01*
X1028700Y-419100D02*
X1028700Y-393700D01*
X1155700Y-393700D02*
X1155700Y-469900D01*
X1054100Y-469900D01*
X1054100Y-393700D01*
D18*
X1130300Y-444500D03*
X1130300Y-571500D03*
X279400Y-736600D03*
X1130300Y-736600D03*
D17*
X279400Y-736600D02*
X279400Y-698500D01*
X1130300Y-736600D02*
X1130300Y-571500D01*
X1130300Y-444500D02*
X1130300Y-393700D01*
X533400Y-127000D02*
X533400Y-88900D01*
X533400Y-127000D02*
X558800Y-127000D01*
X558800Y-165100D01*
D18*
X558800Y-203200D03*
X812800Y-203200D03*
D17*
X558800Y-203200D02*
X558800Y-165100D01*
X812800Y-190500D02*
X812800Y-203200D01*
X812800Y-190500D02*
X863600Y-190500D01*
X685800Y-165100D02*
X685800Y-317500D01*
X596900Y-317500D01*
X596900Y-558800D01*
X609600Y-558800D01*
X622300Y-571500D01*
D18*
X431800Y-723900D03*
X622300Y-723900D03*
D17*
X381000Y-736600D02*
X381000Y-698500D01*
X381000Y-736600D02*
X431800Y-736600D01*
X431800Y-723900D01*
X622300Y-723900D02*
X622300Y-571500D01*
X381000Y-546100D02*
X381000Y-508000D01*
X457200Y-508000D01*
X584200Y-88900D02*
X584200Y-25400D01*
X457200Y-25400D01*
D18*
X457200Y-25400D03*
X457200Y-101600D03*
D17*
X457200Y-508000D01*
D18*
X965200Y-114300D03*
X1054100Y-292100D03*
D17*
X1054100Y-317500D01*
X393700Y-190500D02*
X393700Y-50800D01*
X558800Y-50800D01*
X558800Y-88900D01*
D18*
X711200Y-215900D03*
X431800Y-215900D03*
D17*
X711200Y-88900D02*
X863600Y-88900D01*
X711200Y-88900D02*
X711200Y-215900D01*
X431800Y-215900D02*
X393700Y-215900D01*
D18*
X762000Y-241300D03*
X431800Y-241300D03*
D17*
X762000Y-241300D02*
X762000Y-139700D01*
X863600Y-139700D01*
X431800Y-241300D02*
X393700Y-241300D01*
X609600Y-165100D02*
X635000Y-165100D01*
M02*
