M48
;GenerationSoftware,Autodesk,EAGLE,9.6.2*%
;CreationDate,2022-02-04T12:46:10Z*%
FMAT,2
ICI,OFF
METRIC,TZ,000.000
T4C0.813
T3C0.900
T2C1.016
%
G90
M71
T2
X40640Y-97790
X76200Y-97790
X73660Y-97790
X71120Y-97790
X68580Y-97790
X66040Y-97790
X63500Y-97790
X60960Y-97790
X58420Y-97790
X55880Y-97790
X53340Y-97790
X50800Y-97790
X48260Y-97790
X45720Y-97790
X43180Y-97790
X78740Y-97790
X38100Y-97790
X35560Y-97790
X33020Y-97790
X30480Y-97790
X27940Y-97790
X25400Y-97790
X22860Y-97790
X20320Y-97790
X17780Y-97790
X15240Y-97790
X12700Y-97790
X10160Y-97790
X7620Y-97790
X5080Y-97790
X93980Y-67310
X99060Y-50800
X96520Y-50800
X99060Y-53340
X96520Y-53340
X99060Y-55880
X96520Y-55880
X99060Y-58420
X96520Y-58420
X109220Y-67310
X106680Y-67310
X104140Y-67310
X101600Y-67310
X99060Y-67310
X96520Y-67310
X91440Y-67310
X88900Y-67310
X86360Y-67310
X104140Y-97790
X101600Y-97790
X99060Y-97790
X96520Y-97790
X93980Y-97790
X91440Y-97790
X88900Y-97790
X86360Y-97790
X83820Y-97790
X81280Y-97790
T3
X30480Y-60960
X48260Y-85090
X40640Y-27940
X105410Y-53340
X105410Y-45720
X58420Y-85090
X107950Y-50800
X55880Y-85090
X102870Y-55880
X60960Y-85090
X99060Y-72390
X50800Y-27940
X91440Y-72390
X45720Y-88900
X78740Y-67310
X60960Y-53340
X43180Y-53340
X43180Y-60960
X60960Y-55880
X88900Y-72390
X71120Y-78740
X55880Y-91440
X58420Y-91440
X55880Y-48260
X60960Y-48260
X101600Y-60960
X60960Y-91440
X63500Y-60960
X76200Y-80010
X48260Y-91440
X50800Y-38100
X45720Y-38100
X50800Y-35560
X35560Y-35560
X50800Y-33020
X33020Y-33020
X50800Y-30480
X38100Y-30480
T4
X86360Y-53340
X27940Y-80010
X30480Y-80010
X33020Y-80010
X35560Y-80010
X38100Y-80010
X40640Y-80010
X43180Y-58420
X43180Y-55880
X86360Y-58420
X93980Y-58420
X86360Y-55880
X93980Y-55880
X25400Y-80010
X93980Y-53340
X86360Y-50800
X93980Y-50800
X43180Y-80010
X45720Y-80010
X48260Y-80010
X50800Y-80010
X53340Y-80010
X55880Y-80010
X58420Y-80010
X60960Y-80010
X48260Y-64770
X20320Y-64770
X17780Y-64770
X35560Y-64770
X22860Y-64770
X25400Y-64770
X63500Y-80010
X30480Y-64770
X27940Y-64770
X38100Y-64770
X40640Y-64770
X43180Y-64770
X45720Y-64770
X33020Y-64770
X50800Y-64770
X53340Y-64770
X55880Y-64770
X58420Y-64770
X60960Y-64770
X63500Y-64770
X66040Y-64770
X66040Y-80010
X17780Y-80010
X20320Y-80010
X22860Y-80010
M30