M48
;GenerationSoftware,Autodesk,EAGLE,9.6.2*%
;CreationDate,2022-02-04T18:50:16Z*%
FMAT,2
ICI,OFF
METRIC,TZ,000.000
T3C0.813
T2C1.016
%
G90
M71
T2
X-71120Y-97790
X-99060Y-97790
X-96520Y-97790
X-93980Y-97790
X-91440Y-97790
X-88900Y-97790
X-86360Y-97790
X-83820Y-97790
X-81280Y-97790
X-78740Y-97790
X-76200Y-97790
X-73660Y-97790
X-154940Y-97790
X-68580Y-97790
X-66040Y-97790
X-63500Y-97790
X-60960Y-97790
X-58420Y-97790
X-114300Y-76200
X-111760Y-76200
X-109220Y-76200
X-106680Y-76200
X-157480Y-97790
X-104140Y-97790
X-101600Y-97790
X-152400Y-97790
X-149860Y-97790
X-147320Y-97790
X-144780Y-97790
X-142240Y-97790
X-139700Y-97790
X-137160Y-97790
X-134620Y-97790
X-132080Y-97790
X-127000Y-97790
X-124460Y-97790
X-121920Y-97790
X-119380Y-97790
X-116840Y-97790
X-114300Y-97790
X-111760Y-97790
X-109220Y-97790
X-106680Y-97790
X-129540Y-97790
T3
X-83820Y-93980
X-86360Y-86360
X-86360Y-93980
X-88900Y-86360
X-88900Y-93980
X-91440Y-86360
X-91440Y-93980
X-111760Y-88900
X-111760Y-81280
X-101600Y-85090
X-101600Y-77470
X-99060Y-85090
X-83820Y-86360
X-81280Y-93980
X-81280Y-86360
X-154940Y-82550
X-154940Y-90170
X-78740Y-93980
X-78740Y-86360
X-76200Y-93980
X-76200Y-86360
X-73660Y-93980
X-96520Y-93980
X-73660Y-86360
X-142240Y-82550
X-96520Y-91440
X-99060Y-88900
X-99060Y-86360
X-101600Y-93980
X-101600Y-91440
X-111760Y-93980
X-111760Y-91440
X-137160Y-82550
X-137160Y-90170
X-139700Y-82550
X-139700Y-90170
X-99060Y-77470
X-142240Y-90170
X-144780Y-82550
X-144780Y-90170
X-147320Y-82550
X-147320Y-90170
X-149860Y-82550
X-149860Y-90170
X-152400Y-82550
X-152400Y-90170
X-96520Y-77470
X-96520Y-85090
X-124460Y-71120
X-147320Y-78740
X-149860Y-71120
X-149860Y-73660
X-152400Y-76200
X-152400Y-78740
X-154940Y-71120
X-154940Y-73660
X-119380Y-71120
X-119380Y-73660
X-121920Y-76200
X-121920Y-78740
X-147320Y-76200
X-124460Y-73660
X-127000Y-76200
X-127000Y-78740
X-129540Y-71120
X-129540Y-73660
X-132080Y-76200
X-132080Y-78740
X-134620Y-71120
X-134620Y-73660
X-157480Y-76200
X-157480Y-78740
X-134620Y-82550
X-119380Y-90170
X-121920Y-82550
X-121920Y-90170
X-124460Y-82550
X-124460Y-90170
X-127000Y-82550
X-127000Y-90170
X-129540Y-82550
X-129540Y-90170
X-132080Y-82550
X-132080Y-90170
X-119380Y-82550
X-134620Y-90170
X-157480Y-82550
X-157480Y-90170
X-137160Y-76200
X-137160Y-78740
X-139700Y-71120
X-139700Y-73660
X-142240Y-76200
X-142240Y-78740
X-144780Y-71120
X-144780Y-73660
M30