G04 EAGLE Gerber RS-274X export*
G75*
%MOMM*%
%FSLAX34Y34*%
%LPD*%
%INBottom Copper*%
%IPPOS*%
%AMOC8*
5,1,8,0,0,1.08239X$1,22.5*%
G01*
%ADD10P,1.979475X8X22.500000*%
%ADD11P,1.979475X8X112.500000*%
%ADD12C,1.828800*%
%ADD13C,1.879600*%
%ADD14C,2.032000*%
%ADD15P,2.199416X8X22.500000*%
%ADD16P,1.979475X8X202.500000*%
%ADD17P,1.979475X8X292.500000*%
%ADD18C,1.270000*%
%ADD19C,2.100000*%


D10*
X381000Y-273050D03*
X431800Y-273050D03*
D11*
X882650Y-317500D03*
X882650Y-266700D03*
X1187450Y-768350D03*
X1187450Y-717550D03*
D12*
X228600Y-631444D02*
X228600Y-613156D01*
X228600Y-689356D02*
X228600Y-707644D01*
D13*
X76200Y-203200D03*
X50800Y-203200D03*
X50800Y-165100D03*
X25400Y-165100D03*
X76200Y-127000D03*
X50800Y-127000D03*
X50800Y-88900D03*
X25400Y-88900D03*
X76200Y-50800D03*
X50800Y-50800D03*
D12*
X254000Y-613156D02*
X254000Y-631444D01*
X254000Y-689356D02*
X254000Y-707644D01*
X279400Y-631444D02*
X279400Y-613156D01*
X279400Y-689356D02*
X279400Y-707644D01*
X304800Y-631444D02*
X304800Y-613156D01*
X304800Y-689356D02*
X304800Y-707644D01*
X330200Y-631444D02*
X330200Y-613156D01*
X330200Y-689356D02*
X330200Y-707644D01*
X355600Y-631444D02*
X355600Y-613156D01*
X355600Y-689356D02*
X355600Y-707644D01*
D13*
X50800Y-317500D03*
X25400Y-317500D03*
X76200Y-279400D03*
X50800Y-279400D03*
X50800Y-241300D03*
X25400Y-241300D03*
D12*
X1238250Y-689356D02*
X1238250Y-707644D01*
X1263650Y-707644D02*
X1263650Y-689356D01*
X1390650Y-689356D02*
X1390650Y-707644D01*
X1416050Y-707644D02*
X1416050Y-689356D01*
X1289050Y-689356D02*
X1289050Y-707644D01*
X1314450Y-707644D02*
X1314450Y-689356D01*
X1365250Y-689356D02*
X1365250Y-707644D01*
X1339850Y-707644D02*
X1339850Y-689356D01*
X1416050Y-765556D02*
X1416050Y-783844D01*
X1390650Y-783844D02*
X1390650Y-765556D01*
X1365250Y-765556D02*
X1365250Y-783844D01*
X1339850Y-783844D02*
X1339850Y-765556D01*
X1314450Y-765556D02*
X1314450Y-783844D01*
X1289050Y-783844D02*
X1289050Y-765556D01*
X1263650Y-765556D02*
X1263650Y-783844D01*
X1238250Y-783844D02*
X1238250Y-765556D01*
X914400Y-244094D02*
X914400Y-225806D01*
X939800Y-225806D02*
X939800Y-244094D01*
X1066800Y-244094D02*
X1066800Y-225806D01*
X1092200Y-225806D02*
X1092200Y-244094D01*
X965200Y-244094D02*
X965200Y-225806D01*
X990600Y-225806D02*
X990600Y-244094D01*
X1041400Y-244094D02*
X1041400Y-225806D01*
X1016000Y-225806D02*
X1016000Y-244094D01*
X1117600Y-244094D02*
X1117600Y-225806D01*
X1143000Y-225806D02*
X1143000Y-244094D01*
X1143000Y-302006D02*
X1143000Y-320294D01*
X1117600Y-320294D02*
X1117600Y-302006D01*
X1092200Y-302006D02*
X1092200Y-320294D01*
X1066800Y-320294D02*
X1066800Y-302006D01*
X1041400Y-302006D02*
X1041400Y-320294D01*
X1016000Y-320294D02*
X1016000Y-302006D01*
X990600Y-302006D02*
X990600Y-320294D01*
X965200Y-320294D02*
X965200Y-302006D01*
X939800Y-302006D02*
X939800Y-320294D01*
X914400Y-320294D02*
X914400Y-302006D01*
X466344Y-311150D02*
X448056Y-311150D01*
X448056Y-336550D02*
X466344Y-336550D01*
X466344Y-463550D02*
X448056Y-463550D01*
X448056Y-488950D02*
X466344Y-488950D01*
X466344Y-361950D02*
X448056Y-361950D01*
X448056Y-387350D02*
X466344Y-387350D01*
X466344Y-438150D02*
X448056Y-438150D01*
X448056Y-412750D02*
X466344Y-412750D01*
X466344Y-514350D02*
X448056Y-514350D01*
X448056Y-539750D02*
X466344Y-539750D01*
X390144Y-539750D02*
X371856Y-539750D01*
X371856Y-514350D02*
X390144Y-514350D01*
X390144Y-488950D02*
X371856Y-488950D01*
X371856Y-463550D02*
X390144Y-463550D01*
X390144Y-438150D02*
X371856Y-438150D01*
X371856Y-412750D02*
X390144Y-412750D01*
X390144Y-387350D02*
X371856Y-387350D01*
X371856Y-361950D02*
X390144Y-361950D01*
X390144Y-336550D02*
X371856Y-336550D01*
X371856Y-311150D02*
X390144Y-311150D01*
D14*
X25400Y-855980D02*
X25400Y-876300D01*
X50800Y-876300D02*
X50800Y-855980D01*
X76200Y-855980D02*
X76200Y-876300D01*
X101600Y-876300D02*
X101600Y-855980D01*
X127000Y-855980D02*
X127000Y-876300D01*
X152400Y-876300D02*
X152400Y-855980D01*
X177800Y-855980D02*
X177800Y-876300D01*
X203200Y-876300D02*
X203200Y-855980D01*
X228600Y-855980D02*
X228600Y-876300D01*
X254000Y-876300D02*
X254000Y-855980D01*
X279400Y-855980D02*
X279400Y-876300D01*
X304800Y-876300D02*
X304800Y-855980D01*
X330200Y-855980D02*
X330200Y-876300D01*
X355600Y-876300D02*
X355600Y-855980D01*
X381000Y-855980D02*
X381000Y-876300D01*
X406400Y-876300D02*
X406400Y-855980D01*
X431800Y-855980D02*
X431800Y-876300D01*
X457200Y-876300D02*
X457200Y-855980D01*
X482600Y-855980D02*
X482600Y-876300D01*
X508000Y-876300D02*
X508000Y-855980D01*
X533400Y-855980D02*
X533400Y-876300D01*
X558800Y-876300D02*
X558800Y-855980D01*
X584200Y-855980D02*
X584200Y-876300D01*
X609600Y-876300D02*
X609600Y-855980D01*
X635000Y-855980D02*
X635000Y-876300D01*
X660400Y-876300D02*
X660400Y-855980D01*
X685800Y-855980D02*
X685800Y-876300D01*
X711200Y-876300D02*
X711200Y-855980D01*
X736600Y-855980D02*
X736600Y-876300D01*
X762000Y-876300D02*
X762000Y-855980D01*
X787400Y-855980D02*
X787400Y-876300D01*
X812800Y-876300D02*
X812800Y-855980D01*
X838200Y-855980D02*
X838200Y-876300D01*
X863600Y-876300D02*
X863600Y-855980D01*
X889000Y-855980D02*
X889000Y-876300D01*
X914400Y-876300D02*
X914400Y-855980D01*
X939800Y-855980D02*
X939800Y-876300D01*
X965200Y-876300D02*
X965200Y-855980D01*
X990600Y-855980D02*
X990600Y-876300D01*
X1016000Y-876300D02*
X1016000Y-855980D01*
D15*
X1263650Y-819150D03*
X1263650Y-844550D03*
X1289050Y-819150D03*
X1289050Y-844550D03*
X1314450Y-819150D03*
X1314450Y-844550D03*
X1339850Y-819150D03*
X1339850Y-844550D03*
X1365250Y-819150D03*
X1365250Y-844550D03*
X1390650Y-819150D03*
X1390650Y-844550D03*
X1416050Y-819150D03*
X1416050Y-844550D03*
X1441450Y-819150D03*
X1441450Y-844550D03*
D14*
X1437640Y-101600D02*
X1457960Y-101600D01*
X1457960Y-127000D02*
X1437640Y-127000D01*
X1437640Y-152400D02*
X1457960Y-152400D01*
X1457960Y-177800D02*
X1437640Y-177800D01*
X1437640Y-203200D02*
X1457960Y-203200D01*
X1457960Y-228600D02*
X1437640Y-228600D01*
X1437640Y-254000D02*
X1457960Y-254000D01*
X1457960Y-279400D02*
X1437640Y-279400D01*
X1437640Y-304800D02*
X1457960Y-304800D01*
D16*
X431800Y-596900D03*
X355600Y-596900D03*
D17*
X1352550Y-25400D03*
X1352550Y-101600D03*
X1327150Y-25400D03*
X1327150Y-101600D03*
X1301750Y-25400D03*
X1301750Y-101600D03*
X1276350Y-25400D03*
X1276350Y-101600D03*
X1250950Y-25400D03*
X1250950Y-101600D03*
X1225550Y-25400D03*
X1225550Y-101600D03*
X1200150Y-25400D03*
X1200150Y-101600D03*
X1174750Y-25400D03*
X1174750Y-101600D03*
D16*
X177800Y-50800D03*
X101600Y-50800D03*
X184150Y-88900D03*
X107950Y-88900D03*
X184150Y-127000D03*
X107950Y-127000D03*
X184150Y-165100D03*
X107950Y-165100D03*
X184150Y-203200D03*
X107950Y-203200D03*
X184150Y-241300D03*
X107950Y-241300D03*
X184150Y-279400D03*
X107950Y-279400D03*
X184150Y-317500D03*
X107950Y-317500D03*
D12*
X1362456Y-520700D02*
X1380744Y-520700D01*
X1380744Y-495300D02*
X1362456Y-495300D01*
X1362456Y-368300D02*
X1380744Y-368300D01*
X1380744Y-342900D02*
X1362456Y-342900D01*
X1362456Y-469900D02*
X1380744Y-469900D01*
X1380744Y-444500D02*
X1362456Y-444500D01*
X1362456Y-393700D02*
X1380744Y-393700D01*
X1380744Y-419100D02*
X1362456Y-419100D01*
X1438656Y-342900D02*
X1456944Y-342900D01*
X1456944Y-368300D02*
X1438656Y-368300D01*
X1438656Y-393700D02*
X1456944Y-393700D01*
X1456944Y-419100D02*
X1438656Y-419100D01*
X1438656Y-444500D02*
X1456944Y-444500D01*
X1456944Y-469900D02*
X1438656Y-469900D01*
X1438656Y-495300D02*
X1456944Y-495300D01*
X1456944Y-520700D02*
X1438656Y-520700D01*
D18*
X431800Y-596900D02*
X431800Y-876300D01*
X1174750Y-25400D02*
X1200150Y-25400D01*
X1225550Y-25400D01*
X1250950Y-25400D01*
X1276350Y-25400D01*
X1301750Y-25400D01*
X1327150Y-25400D01*
X1352550Y-25400D01*
X1143000Y-25400D02*
X1143000Y-234950D01*
X1143000Y-25400D02*
X1174750Y-25400D01*
X1416050Y-571500D02*
X1416050Y-698500D01*
X1143000Y-266700D02*
X1143000Y-234950D01*
X1143000Y-266700D02*
X914400Y-266700D01*
X914400Y-234950D01*
X431800Y-565150D02*
X431800Y-596900D01*
X431800Y-565150D02*
X419100Y-552450D01*
X419100Y-311150D02*
X406400Y-298450D01*
X419100Y-539750D02*
X419100Y-552450D01*
X419100Y-539750D02*
X419100Y-311150D01*
X603250Y-222250D02*
X882650Y-222250D01*
X603250Y-209550D02*
X406400Y-209550D01*
X406400Y-273050D01*
X406400Y-298450D01*
X406400Y-273050D02*
X431800Y-273050D01*
X419100Y-539750D02*
X457200Y-539750D01*
X1416050Y-698500D02*
X1416050Y-736600D01*
X1187450Y-736600D01*
X1187450Y-717550D01*
X25400Y-317500D02*
X25400Y-279400D01*
X50800Y-279400D01*
X25400Y-279400D02*
X25400Y-241300D01*
X25400Y-203200D01*
X50800Y-203200D01*
X25400Y-203200D02*
X25400Y-165100D01*
X25400Y-127000D01*
X50800Y-127000D01*
X25400Y-127000D02*
X25400Y-88900D01*
X25400Y-50800D01*
X50800Y-50800D01*
X603250Y-209550D02*
X603250Y-222250D01*
X603250Y-209550D02*
X603250Y-19050D01*
X50800Y-19050D01*
X50800Y-50800D01*
X889000Y-349250D02*
X889000Y-571500D01*
X1416050Y-571500D01*
X457200Y-273050D02*
X431800Y-273050D01*
X457200Y-273050D02*
X457200Y-285750D01*
X768350Y-349250D02*
X889000Y-349250D01*
X882650Y-266700D02*
X914400Y-266700D01*
X882650Y-266700D02*
X882650Y-222250D01*
X762000Y-285750D02*
X762000Y-349250D01*
X762000Y-285750D02*
X457200Y-285750D01*
X381000Y-273050D02*
X381000Y-311150D01*
X1193800Y-774700D02*
X1238250Y-774700D01*
X1193800Y-774700D02*
X1187450Y-768350D01*
X1447800Y-495300D02*
X1447800Y-469900D01*
X1447800Y-444500D02*
X1447800Y-419100D01*
X1447800Y-393700D01*
X1447800Y-342900D02*
X1447800Y-304800D01*
X1447800Y-520700D02*
X1447800Y-546100D01*
X914400Y-546100D01*
D19*
X457200Y-571500D03*
X336550Y-571500D03*
X336550Y-311150D03*
D18*
X457200Y-571500D02*
X457200Y-876300D01*
X381000Y-311150D02*
X336550Y-311150D01*
D19*
X469900Y-234950D03*
X381000Y-234950D03*
D18*
X381000Y-273050D01*
X1187450Y-768350D02*
X1187450Y-800100D01*
D19*
X381000Y-571500D03*
D18*
X336550Y-571500D01*
X1060450Y-800100D02*
X1187450Y-800100D01*
D19*
X914400Y-546100D03*
X914400Y-654050D03*
D18*
X1060450Y-800100D01*
X577850Y-247650D02*
X577850Y-234950D01*
X577850Y-247650D02*
X787400Y-247650D01*
X787400Y-317500D01*
X577850Y-234950D02*
X469900Y-234950D01*
X882650Y-311150D02*
X914400Y-311150D01*
X882650Y-311150D02*
X882650Y-317500D01*
X914400Y-311150D02*
X914400Y-546100D01*
X882650Y-317500D02*
X787400Y-317500D01*
X228600Y-698500D02*
X228600Y-876300D01*
X254000Y-876300D02*
X254000Y-698500D01*
X279400Y-698500D02*
X279400Y-876300D01*
X304800Y-876300D02*
X304800Y-698500D01*
X330200Y-698500D02*
X330200Y-876300D01*
X355600Y-876300D02*
X355600Y-698500D01*
X1263650Y-698500D02*
X1263650Y-666750D01*
D19*
X381000Y-749300D03*
X1085850Y-749300D03*
D18*
X381000Y-749300D02*
X381000Y-876300D01*
X1085850Y-666750D02*
X1263650Y-666750D01*
X1085850Y-666750D02*
X1085850Y-749300D01*
X1231900Y-692150D02*
X1238250Y-698500D01*
D19*
X1111250Y-774700D03*
X406400Y-774700D03*
D18*
X406400Y-876300D01*
X1111250Y-774700D02*
X1111250Y-692150D01*
X1231900Y-692150D01*
X508000Y-539750D02*
X508000Y-876300D01*
X508000Y-539750D02*
X615950Y-539750D01*
X615950Y-311150D01*
X457200Y-311150D01*
X1289050Y-647700D02*
X1289050Y-698500D01*
D19*
X609600Y-736600D03*
X1060450Y-736600D03*
D18*
X609600Y-736600D02*
X609600Y-876300D01*
X1060450Y-647700D02*
X1289050Y-647700D01*
X1060450Y-647700D02*
X1060450Y-736600D01*
D19*
X660400Y-692150D03*
X1009650Y-692150D03*
D18*
X660400Y-692150D02*
X660400Y-876300D01*
X1339850Y-698500D02*
X1339850Y-609600D01*
X1009650Y-609600D01*
X1009650Y-692150D01*
X939800Y-234950D02*
X939800Y-196850D01*
X685800Y-196850D01*
D19*
X685800Y-196850D03*
X685800Y-323850D03*
X590550Y-361950D03*
X685800Y-361950D03*
D18*
X685800Y-876300D01*
X590550Y-361950D02*
X457200Y-361950D01*
X685800Y-361950D02*
X685800Y-323850D01*
X965200Y-234950D02*
X965200Y-171450D01*
X711200Y-171450D01*
D19*
X711200Y-349250D03*
X711200Y-171450D03*
X571500Y-387350D03*
X711200Y-387350D03*
D18*
X711200Y-876300D01*
X571500Y-387350D02*
X457200Y-387350D01*
X711200Y-387350D02*
X711200Y-349250D01*
X990600Y-234950D02*
X990600Y-146050D01*
X736600Y-146050D01*
D19*
X736600Y-146050D03*
X736600Y-368300D03*
X533400Y-463550D03*
X736600Y-463550D03*
D18*
X533400Y-463550D02*
X457200Y-463550D01*
X736600Y-463550D02*
X736600Y-876300D01*
X736600Y-463550D02*
X736600Y-368300D01*
X1016000Y-234950D02*
X1016000Y-120650D01*
D19*
X762000Y-387350D03*
X762000Y-120650D03*
D18*
X1016000Y-120650D01*
D19*
X514350Y-488950D03*
X762000Y-488950D03*
D18*
X514350Y-488950D02*
X457200Y-488950D01*
X762000Y-488950D02*
X762000Y-876300D01*
X762000Y-488950D02*
X762000Y-387350D01*
D19*
X787400Y-406400D03*
X787400Y-95250D03*
X787400Y-704850D03*
X127000Y-711200D03*
D18*
X127000Y-488950D02*
X381000Y-488950D01*
X127000Y-488950D02*
X127000Y-711200D01*
X787400Y-704850D02*
X787400Y-876300D01*
X787400Y-704850D02*
X787400Y-406400D01*
X1041400Y-234950D02*
X1041400Y-95250D01*
X787400Y-95250D01*
X1066800Y-69850D02*
X1066800Y-234950D01*
D19*
X812800Y-387350D03*
X812800Y-69850D03*
X812800Y-762000D03*
X95250Y-742950D03*
D18*
X95250Y-463550D02*
X381000Y-463550D01*
X95250Y-463550D02*
X95250Y-742950D01*
X812800Y-762000D02*
X812800Y-876300D01*
X812800Y-762000D02*
X812800Y-387350D01*
X812800Y-69850D02*
X1066800Y-69850D01*
X1092200Y-44450D02*
X1092200Y-234950D01*
D19*
X838200Y-406400D03*
X838200Y-44450D03*
D18*
X1092200Y-44450D01*
X838200Y-793750D02*
X838200Y-876300D01*
D19*
X838200Y-793750D03*
X63500Y-787400D03*
D18*
X63500Y-387350D02*
X381000Y-387350D01*
X63500Y-387350D02*
X63500Y-787400D01*
X838200Y-793750D02*
X838200Y-406400D01*
X1117600Y-234950D02*
X1117600Y-19050D01*
D19*
X863600Y-19050D03*
D18*
X1117600Y-19050D01*
D19*
X863600Y-825500D03*
X25400Y-825500D03*
X863600Y-387350D03*
D18*
X25400Y-361950D02*
X25400Y-825500D01*
X25400Y-361950D02*
X381000Y-361950D01*
X863600Y-825500D02*
X863600Y-876300D01*
X863600Y-825500D02*
X863600Y-387350D01*
D19*
X482600Y-673100D03*
X977900Y-673100D03*
D18*
X482600Y-673100D02*
X482600Y-876300D01*
X977900Y-673100D02*
X977900Y-590550D01*
X1365250Y-590550D01*
X1365250Y-698500D01*
X355600Y-622300D02*
X355600Y-596900D01*
X254000Y-622300D02*
X228600Y-622300D01*
X254000Y-622300D02*
X279400Y-622300D01*
X304800Y-622300D01*
X330200Y-622300D01*
X355600Y-622300D01*
D19*
X400050Y-717550D03*
X1035050Y-717550D03*
D18*
X1314450Y-698500D02*
X1314450Y-628650D01*
X400050Y-622300D02*
X355600Y-622300D01*
X400050Y-622300D02*
X400050Y-717550D01*
X1035050Y-717550D02*
X1035050Y-628650D01*
X1314450Y-628650D01*
X1263650Y-774700D02*
X1263650Y-819150D01*
X1289050Y-819150D02*
X1289050Y-774700D01*
X1314450Y-774700D02*
X1314450Y-819150D01*
X1339850Y-819150D02*
X1339850Y-774700D01*
X1365250Y-774700D02*
X1365250Y-819150D01*
X1390650Y-819150D02*
X1390650Y-774700D01*
X1416050Y-774700D02*
X1416050Y-819150D01*
D19*
X1441450Y-660400D03*
X1390650Y-660400D03*
D18*
X1441450Y-660400D02*
X1441450Y-819150D01*
X1390650Y-698500D02*
X1390650Y-660400D01*
D19*
X1149350Y-520700D03*
X1149350Y-844550D03*
D18*
X939800Y-520700D02*
X939800Y-311150D01*
X939800Y-520700D02*
X1149350Y-520700D01*
X1149350Y-844550D02*
X1263650Y-844550D01*
X1314450Y-844550D02*
X1339850Y-844550D01*
X1314450Y-844550D02*
X1289050Y-844550D01*
X1263650Y-844550D01*
X1416050Y-844550D02*
X1441450Y-844550D01*
X1416050Y-844550D02*
X1390650Y-844550D01*
X1365250Y-844550D01*
D19*
X1016000Y-806450D03*
X196850Y-806450D03*
D18*
X196850Y-539750D02*
X381000Y-539750D01*
X196850Y-539750D02*
X196850Y-806450D01*
X1016000Y-806450D02*
X1085850Y-876300D01*
X1365250Y-876300D01*
X1365250Y-844550D01*
D19*
X571500Y-158750D03*
X571500Y-336550D03*
D18*
X457200Y-336550D01*
X571500Y-50800D02*
X177800Y-50800D01*
X571500Y-50800D02*
X571500Y-158750D01*
D19*
X546100Y-177800D03*
X546100Y-412750D03*
D18*
X457200Y-412750D01*
X546100Y-88900D02*
X184150Y-88900D01*
X546100Y-88900D02*
X546100Y-177800D01*
D19*
X520700Y-158750D03*
X520700Y-438150D03*
D18*
X457200Y-438150D01*
X520700Y-127000D02*
X184150Y-127000D01*
X520700Y-127000D02*
X520700Y-158750D01*
D19*
X495300Y-177800D03*
X495300Y-514350D03*
D18*
X457200Y-514350D01*
X495300Y-177800D02*
X495300Y-165100D01*
X184150Y-165100D01*
X311150Y-514350D02*
X381000Y-514350D01*
D19*
X311150Y-203200D03*
X311150Y-514350D03*
D18*
X311150Y-203200D02*
X184150Y-203200D01*
X292100Y-438150D02*
X381000Y-438150D01*
D19*
X292100Y-241300D03*
X292100Y-438150D03*
D18*
X292100Y-241300D02*
X184150Y-241300D01*
D19*
X266700Y-279400D03*
X266700Y-412750D03*
D18*
X381000Y-412750D01*
X266700Y-279400D02*
X184150Y-279400D01*
X184150Y-317500D02*
X247650Y-317500D01*
X247650Y-336550D01*
X381000Y-336550D01*
X107950Y-317500D02*
X50800Y-317500D01*
D19*
X1371600Y-304800D03*
X1377950Y-101600D03*
D18*
X1447800Y-101600D01*
X1377950Y-101600D02*
X1352550Y-101600D01*
X1371600Y-304800D02*
X1371600Y-342900D01*
X1149350Y-304800D02*
X1143000Y-311150D01*
X1149350Y-304800D02*
X1371600Y-304800D01*
X1117600Y-311150D02*
X1117600Y-342900D01*
D19*
X1327150Y-342900D03*
X1327150Y-127000D03*
D18*
X1447800Y-127000D01*
X1327150Y-127000D02*
X1327150Y-101600D01*
X1327150Y-368300D02*
X1371600Y-368300D01*
X1327150Y-368300D02*
X1327150Y-342900D01*
X1117600Y-342900D01*
D19*
X1301750Y-368300D03*
X1301750Y-152400D03*
D18*
X1447800Y-152400D01*
X1301750Y-152400D02*
X1301750Y-101600D01*
X1092200Y-311150D02*
X1092200Y-368300D01*
X1301750Y-393700D02*
X1371600Y-393700D01*
X1301750Y-393700D02*
X1301750Y-368300D01*
X1092200Y-368300D01*
X1066800Y-393700D02*
X1066800Y-311150D01*
D19*
X1276350Y-393700D03*
X1276350Y-177800D03*
D18*
X1447800Y-177800D01*
X1276350Y-177800D02*
X1276350Y-101600D01*
X1276350Y-393700D02*
X1276350Y-419100D01*
X1371600Y-419100D01*
X1276350Y-393700D02*
X1066800Y-393700D01*
D19*
X1250950Y-419100D03*
X1250950Y-203200D03*
D18*
X1447800Y-203200D01*
X1250950Y-203200D02*
X1250950Y-101600D01*
X1250950Y-444500D02*
X1371600Y-444500D01*
X1250950Y-444500D02*
X1250950Y-419100D01*
X1041400Y-419100D01*
X1041400Y-311150D01*
X1016000Y-311150D02*
X1016000Y-444500D01*
D19*
X1225550Y-444500D03*
X1225550Y-228600D03*
D18*
X1447800Y-228600D01*
X1225550Y-228600D02*
X1225550Y-101600D01*
X1225550Y-444500D02*
X1016000Y-444500D01*
X1225550Y-444500D02*
X1225550Y-469900D01*
X1371600Y-469900D01*
D19*
X1200150Y-469900D03*
X1200150Y-254000D03*
D18*
X1447800Y-254000D01*
X1200150Y-254000D02*
X1200150Y-101600D01*
X1200150Y-469900D02*
X1200150Y-495300D01*
X1371600Y-495300D01*
X990600Y-469900D02*
X990600Y-311150D01*
X990600Y-469900D02*
X1200150Y-469900D01*
X965200Y-495300D02*
X965200Y-311150D01*
D19*
X1174750Y-495300D03*
X1174750Y-279400D03*
D18*
X1174750Y-101600D01*
X1174750Y-279400D02*
X1447800Y-279400D01*
X1174750Y-495300D02*
X965200Y-495300D01*
X1174750Y-495300D02*
X1174750Y-520700D01*
X1371600Y-520700D01*
M02*
