G04 EAGLE Gerber RS-274X export*
G75*
%MOMM*%
%FSLAX34Y34*%
%LPD*%
%INTop Copper*%
%IPPOS*%
%AMOC8*
5,1,8,0,0,1.08239X$1,22.5*%
G01*
%ADD10P,1.979475X8X22.500000*%
%ADD11P,1.979475X8X292.500000*%
%ADD12C,1.828800*%
%ADD13C,1.879600*%
%ADD14C,2.032000*%
%ADD15P,2.199416X8X22.500000*%
%ADD16P,1.979475X8X202.500000*%
%ADD17P,1.979475X8X112.500000*%
%ADD18C,2.100000*%


D10*
X381000Y273050D03*
X431800Y273050D03*
D11*
X882650Y317500D03*
X882650Y266700D03*
X1187450Y768350D03*
X1187450Y717550D03*
D12*
X228600Y631444D02*
X228600Y613156D01*
X228600Y689356D02*
X228600Y707644D01*
D13*
X76200Y203200D03*
X50800Y203200D03*
X50800Y165100D03*
X25400Y165100D03*
X76200Y127000D03*
X50800Y127000D03*
X50800Y88900D03*
X25400Y88900D03*
X76200Y50800D03*
X50800Y50800D03*
D12*
X254000Y613156D02*
X254000Y631444D01*
X254000Y689356D02*
X254000Y707644D01*
X279400Y631444D02*
X279400Y613156D01*
X279400Y689356D02*
X279400Y707644D01*
X304800Y631444D02*
X304800Y613156D01*
X304800Y689356D02*
X304800Y707644D01*
X330200Y631444D02*
X330200Y613156D01*
X330200Y689356D02*
X330200Y707644D01*
X355600Y631444D02*
X355600Y613156D01*
X355600Y689356D02*
X355600Y707644D01*
D13*
X50800Y317500D03*
X25400Y317500D03*
X76200Y279400D03*
X50800Y279400D03*
X50800Y241300D03*
X25400Y241300D03*
D12*
X1238250Y689356D02*
X1238250Y707644D01*
X1263650Y707644D02*
X1263650Y689356D01*
X1390650Y689356D02*
X1390650Y707644D01*
X1416050Y707644D02*
X1416050Y689356D01*
X1289050Y689356D02*
X1289050Y707644D01*
X1314450Y707644D02*
X1314450Y689356D01*
X1365250Y689356D02*
X1365250Y707644D01*
X1339850Y707644D02*
X1339850Y689356D01*
X1416050Y765556D02*
X1416050Y783844D01*
X1390650Y783844D02*
X1390650Y765556D01*
X1365250Y765556D02*
X1365250Y783844D01*
X1339850Y783844D02*
X1339850Y765556D01*
X1314450Y765556D02*
X1314450Y783844D01*
X1289050Y783844D02*
X1289050Y765556D01*
X1263650Y765556D02*
X1263650Y783844D01*
X1238250Y783844D02*
X1238250Y765556D01*
X914400Y244094D02*
X914400Y225806D01*
X939800Y225806D02*
X939800Y244094D01*
X1066800Y244094D02*
X1066800Y225806D01*
X1092200Y225806D02*
X1092200Y244094D01*
X965200Y244094D02*
X965200Y225806D01*
X990600Y225806D02*
X990600Y244094D01*
X1041400Y244094D02*
X1041400Y225806D01*
X1016000Y225806D02*
X1016000Y244094D01*
X1117600Y244094D02*
X1117600Y225806D01*
X1143000Y225806D02*
X1143000Y244094D01*
X1143000Y302006D02*
X1143000Y320294D01*
X1117600Y320294D02*
X1117600Y302006D01*
X1092200Y302006D02*
X1092200Y320294D01*
X1066800Y320294D02*
X1066800Y302006D01*
X1041400Y302006D02*
X1041400Y320294D01*
X1016000Y320294D02*
X1016000Y302006D01*
X990600Y302006D02*
X990600Y320294D01*
X965200Y320294D02*
X965200Y302006D01*
X939800Y302006D02*
X939800Y320294D01*
X914400Y320294D02*
X914400Y302006D01*
X466344Y311150D02*
X448056Y311150D01*
X448056Y336550D02*
X466344Y336550D01*
X466344Y463550D02*
X448056Y463550D01*
X448056Y488950D02*
X466344Y488950D01*
X466344Y361950D02*
X448056Y361950D01*
X448056Y387350D02*
X466344Y387350D01*
X466344Y438150D02*
X448056Y438150D01*
X448056Y412750D02*
X466344Y412750D01*
X466344Y514350D02*
X448056Y514350D01*
X448056Y539750D02*
X466344Y539750D01*
X390144Y539750D02*
X371856Y539750D01*
X371856Y514350D02*
X390144Y514350D01*
X390144Y488950D02*
X371856Y488950D01*
X371856Y463550D02*
X390144Y463550D01*
X390144Y438150D02*
X371856Y438150D01*
X371856Y412750D02*
X390144Y412750D01*
X390144Y387350D02*
X371856Y387350D01*
X371856Y361950D02*
X390144Y361950D01*
X390144Y336550D02*
X371856Y336550D01*
X371856Y311150D02*
X390144Y311150D01*
D14*
X25400Y855980D02*
X25400Y876300D01*
X50800Y876300D02*
X50800Y855980D01*
X76200Y855980D02*
X76200Y876300D01*
X101600Y876300D02*
X101600Y855980D01*
X127000Y855980D02*
X127000Y876300D01*
X152400Y876300D02*
X152400Y855980D01*
X177800Y855980D02*
X177800Y876300D01*
X203200Y876300D02*
X203200Y855980D01*
X228600Y855980D02*
X228600Y876300D01*
X254000Y876300D02*
X254000Y855980D01*
X279400Y855980D02*
X279400Y876300D01*
X304800Y876300D02*
X304800Y855980D01*
X330200Y855980D02*
X330200Y876300D01*
X355600Y876300D02*
X355600Y855980D01*
X381000Y855980D02*
X381000Y876300D01*
X406400Y876300D02*
X406400Y855980D01*
X431800Y855980D02*
X431800Y876300D01*
X457200Y876300D02*
X457200Y855980D01*
X482600Y855980D02*
X482600Y876300D01*
X508000Y876300D02*
X508000Y855980D01*
X533400Y855980D02*
X533400Y876300D01*
X558800Y876300D02*
X558800Y855980D01*
X584200Y855980D02*
X584200Y876300D01*
X609600Y876300D02*
X609600Y855980D01*
X635000Y855980D02*
X635000Y876300D01*
X660400Y876300D02*
X660400Y855980D01*
X685800Y855980D02*
X685800Y876300D01*
X711200Y876300D02*
X711200Y855980D01*
X736600Y855980D02*
X736600Y876300D01*
X762000Y876300D02*
X762000Y855980D01*
X787400Y855980D02*
X787400Y876300D01*
X812800Y876300D02*
X812800Y855980D01*
X838200Y855980D02*
X838200Y876300D01*
X863600Y876300D02*
X863600Y855980D01*
X889000Y855980D02*
X889000Y876300D01*
X914400Y876300D02*
X914400Y855980D01*
X939800Y855980D02*
X939800Y876300D01*
X965200Y876300D02*
X965200Y855980D01*
X990600Y855980D02*
X990600Y876300D01*
X1016000Y876300D02*
X1016000Y855980D01*
D15*
X1263650Y819150D03*
X1263650Y844550D03*
X1289050Y819150D03*
X1289050Y844550D03*
X1314450Y819150D03*
X1314450Y844550D03*
X1339850Y819150D03*
X1339850Y844550D03*
X1365250Y819150D03*
X1365250Y844550D03*
X1390650Y819150D03*
X1390650Y844550D03*
X1416050Y819150D03*
X1416050Y844550D03*
X1441450Y819150D03*
X1441450Y844550D03*
D14*
X1437640Y101600D02*
X1457960Y101600D01*
X1457960Y127000D02*
X1437640Y127000D01*
X1437640Y152400D02*
X1457960Y152400D01*
X1457960Y177800D02*
X1437640Y177800D01*
X1437640Y203200D02*
X1457960Y203200D01*
X1457960Y228600D02*
X1437640Y228600D01*
X1437640Y254000D02*
X1457960Y254000D01*
X1457960Y279400D02*
X1437640Y279400D01*
X1437640Y304800D02*
X1457960Y304800D01*
D16*
X431800Y596900D03*
X355600Y596900D03*
D17*
X1352550Y25400D03*
X1352550Y101600D03*
X1327150Y25400D03*
X1327150Y101600D03*
X1301750Y25400D03*
X1301750Y101600D03*
X1276350Y25400D03*
X1276350Y101600D03*
X1250950Y25400D03*
X1250950Y101600D03*
X1225550Y25400D03*
X1225550Y101600D03*
X1200150Y25400D03*
X1200150Y101600D03*
X1174750Y25400D03*
X1174750Y101600D03*
D16*
X177800Y50800D03*
X101600Y50800D03*
X184150Y88900D03*
X107950Y88900D03*
X184150Y127000D03*
X107950Y127000D03*
X184150Y165100D03*
X107950Y165100D03*
X184150Y203200D03*
X107950Y203200D03*
X184150Y241300D03*
X107950Y241300D03*
X184150Y279400D03*
X107950Y279400D03*
X184150Y317500D03*
X107950Y317500D03*
D12*
X1362456Y520700D02*
X1380744Y520700D01*
X1380744Y495300D02*
X1362456Y495300D01*
X1362456Y368300D02*
X1380744Y368300D01*
X1380744Y342900D02*
X1362456Y342900D01*
X1362456Y469900D02*
X1380744Y469900D01*
X1380744Y444500D02*
X1362456Y444500D01*
X1362456Y393700D02*
X1380744Y393700D01*
X1380744Y419100D02*
X1362456Y419100D01*
X1438656Y342900D02*
X1456944Y342900D01*
X1456944Y368300D02*
X1438656Y368300D01*
X1438656Y393700D02*
X1456944Y393700D01*
X1456944Y419100D02*
X1438656Y419100D01*
X1438656Y444500D02*
X1456944Y444500D01*
X1456944Y469900D02*
X1438656Y469900D01*
X1438656Y495300D02*
X1456944Y495300D01*
X1456944Y520700D02*
X1438656Y520700D01*
D18*
X457200Y571500D03*
X336550Y571500D03*
X336550Y311150D03*
X469900Y234950D03*
X381000Y234950D03*
X381000Y571500D03*
X914400Y546100D03*
X914400Y654050D03*
X381000Y749300D03*
X1085850Y749300D03*
X1111250Y774700D03*
X406400Y774700D03*
X609600Y736600D03*
X1060450Y736600D03*
X660400Y692150D03*
X1009650Y692150D03*
X685800Y196850D03*
X685800Y323850D03*
X590550Y361950D03*
X685800Y361950D03*
X711200Y349250D03*
X711200Y171450D03*
X571500Y387350D03*
X711200Y387350D03*
X736600Y146050D03*
X736600Y368300D03*
X533400Y463550D03*
X736600Y463550D03*
X762000Y387350D03*
X762000Y120650D03*
X514350Y488950D03*
X762000Y488950D03*
X787400Y406400D03*
X787400Y95250D03*
X787400Y704850D03*
X127000Y711200D03*
X812800Y387350D03*
X812800Y69850D03*
X812800Y762000D03*
X95250Y742950D03*
X838200Y406400D03*
X838200Y44450D03*
X838200Y793750D03*
X63500Y787400D03*
X863600Y19050D03*
X863600Y825500D03*
X25400Y825500D03*
X863600Y387350D03*
X482600Y673100D03*
X977900Y673100D03*
X400050Y717550D03*
X1035050Y717550D03*
X1441450Y660400D03*
X1390650Y660400D03*
X1149350Y520700D03*
X1149350Y844550D03*
X1016000Y806450D03*
X196850Y806450D03*
X571500Y158750D03*
X571500Y336550D03*
X546100Y177800D03*
X546100Y412750D03*
X520700Y158750D03*
X520700Y438150D03*
X495300Y177800D03*
X495300Y514350D03*
X311150Y203200D03*
X311150Y514350D03*
X292100Y241300D03*
X292100Y438150D03*
X266700Y279400D03*
X266700Y412750D03*
X1371600Y304800D03*
X1377950Y101600D03*
X1327150Y342900D03*
X1327150Y127000D03*
X1301750Y368300D03*
X1301750Y152400D03*
X1276350Y393700D03*
X1276350Y177800D03*
X1250950Y419100D03*
X1250950Y203200D03*
X1225550Y444500D03*
X1225550Y228600D03*
X1200150Y469900D03*
X1200150Y254000D03*
X1174750Y495300D03*
X1174750Y279400D03*
M02*
