M48
;GenerationSoftware,Autodesk,EAGLE,9.6.2*%
;CreationDate,2022-02-19T14:09:02Z*%
FMAT,2
ICI,OFF
METRIC,TZ,000.000
T4C0.813
T3C0.900
T2C1.016
%
G90
M71
T2
X4445Y-4445
X73025Y-89535
X75565Y-89535
X78105Y-89535
X80645Y-89535
X83185Y-89535
X85725Y-89535
X88265Y-89535
X90805Y-89535
X93345Y-89535
X95885Y-89535
X98425Y-89535
X100965Y-89535
X1905Y-4445
X1905Y-89535
X6985Y-4445
X30480Y-67945
X33020Y-67945
X35560Y-67945
X3810Y-38100
X6350Y-38100
X8890Y-38100
X1905Y-27940
X4445Y-27940
X6985Y-27940
X1905Y-13335
X4445Y-13335
X6985Y-13335
X67945Y-89535
X70485Y-89535
X4445Y-89535
X6985Y-89535
X9525Y-89535
X12065Y-89535
X14605Y-89535
X17145Y-89535
X19685Y-89535
X22225Y-89535
X24765Y-89535
X27305Y-89535
X29845Y-89535
X32385Y-89535
X37465Y-89535
X34925Y-89535
X65405Y-89535
X62865Y-89535
X60325Y-89535
X57785Y-89535
X55245Y-89535
X52705Y-89535
X50165Y-89535
X47625Y-89535
X45085Y-89535
X42545Y-89535
X40005Y-89535
T3
X45720Y-40005
X52070Y-12065
X27305Y-12065
X41910Y-33020
X52070Y-17145
X41910Y-52705
X66040Y-17145
X88265Y-73660
X81280Y-24765
X38100Y-60325
X88265Y-82550
X85725Y-73660
X79375Y-27305
X40640Y-62865
X85725Y-80645
X83185Y-73660
X77470Y-29845
X43180Y-65405
X83185Y-79375
X80645Y-73660
X46990Y-17145
X103505Y-34925
X130810Y-34925
X45085Y-12065
X1905Y-8890
X26670Y-27305
X3810Y-34290
X6350Y-34290
X11430Y-9525
X44450Y-19685
X35560Y-63500
X27305Y-19685
X11430Y-14605
X44450Y-17145
X30480Y-63500
X44450Y-14605
X31750Y-27305
X4445Y-8890
X29210Y-27305
X66040Y-22225
X21590Y-27305
X64135Y-12065
X12700Y-19685
X64135Y-6985
X10795Y-42545
X57150Y-6985
X8890Y-9525
X6985Y-9525
X46355Y-6985
X66040Y-19685
X39370Y-34925
X39370Y-55245
X49530Y-19685
X17145Y-47625
X10795Y-19685
X17145Y-57785
X46990Y-47625
X46990Y-34925
X57150Y-12065
X19685Y-57785
X19685Y-45085
X44450Y-45085
X44450Y-34925
X57150Y-9525
X64135Y-9525
X74930Y-42545
X72390Y-40005
X10160Y-4445
X24765Y-1905
X108585Y-1905
X57150Y-1905
X42545Y-1905
X29845Y-1905
X45085Y-85090
X15875Y-38735
X37465Y-39370
X48895Y-37465
X42545Y-4445
X29845Y-4445
X45720Y-67945
X103505Y-4445
X108585Y-4445
X45085Y-9525
X9525Y-47625
X47625Y-9525
X1905Y-44450
X15875Y-28575
X15875Y-31115
X12700Y-12065
X70485Y-37465
X4445Y-46355
X73025Y-73660
X57785Y-85090
X29845Y-17145
X60325Y-85090
X27305Y-14605
X62865Y-85090
X27305Y-6985
X70485Y-62865
X103505Y-27305
X70485Y-73660
X125095Y-27305
X73025Y-65405
X103505Y-29845
X22225Y-57785
X127000Y-29845
X75565Y-67945
X103505Y-32385
X75565Y-73660
X128905Y-32385
X78105Y-76835
X48260Y-70485
X73660Y-34925
X78105Y-73660
X80645Y-78105
X75565Y-32385
X123190Y-24765
X103505Y-6985
X109855Y-6985
X77470Y-45085
X103505Y-9525
X24765Y-57785
X111760Y-9525
X80010Y-47625
X103505Y-12065
X27305Y-57785
X115570Y-14605
X103505Y-24765
X103505Y-22225
X121285Y-22225
X103505Y-19685
X113665Y-12065
X119380Y-19685
X103505Y-17145
X117475Y-17145
X103505Y-14605
T4
X52070Y-42545
X52070Y-40005
X52070Y-37465
X41275Y-6985
X52070Y-45085
X41275Y-9525
X41275Y-22225
X33655Y-22225
X41275Y-12065
X41275Y-14605
X41275Y-19685
X41275Y-17145
X33655Y-19685
X33655Y-17145
X33655Y-14605
X33655Y-12065
X33655Y-9525
X33655Y-6985
X13335Y-33655
X15875Y-1905
X20955Y-1905
X33655Y-1905
X38735Y-1905
X13335Y-38735
X23495Y-9525
X85090Y-19685
X85090Y-17145
X85090Y-14605
X85090Y-12065
X85090Y-9525
X85090Y-6985
X85090Y-4445
X85090Y-1905
X23495Y-6985
X85090Y-22225
X23495Y-22225
X15875Y-22225
X23495Y-12065
X23495Y-14605
X23495Y-19685
X23495Y-17145
X15875Y-19685
X15875Y-17145
X15875Y-14605
X100330Y-24765
X100330Y-1905
X100330Y-4445
X100330Y-6985
X100330Y-9525
X100330Y-12065
X100330Y-14605
X100330Y-17145
X100330Y-19685
X100330Y-22225
X15875Y-12065
X100330Y-27305
X100330Y-29845
X100330Y-32385
X100330Y-34925
X85090Y-34925
X85090Y-32385
X85090Y-29845
X85090Y-27305
X85090Y-24765
X67310Y-70485
X67310Y-47625
X67310Y-50165
X67310Y-52705
X67310Y-55245
X67310Y-57785
X67310Y-60325
X67310Y-62865
X67310Y-65405
X67310Y-67945
X67310Y-45085
X52070Y-70485
X52070Y-67945
X52070Y-65405
X52070Y-62865
X52070Y-60325
X52070Y-57785
X52070Y-55245
X52070Y-52705
X52070Y-50165
X29210Y-31115
X15875Y-9525
X15875Y-6985
X19050Y-31115
X21590Y-31115
X34290Y-31115
X34290Y-38735
X24130Y-31115
X26670Y-31115
X31750Y-31115
X52070Y-47625
X31750Y-38735
X29210Y-38735
X26670Y-38735
X24130Y-38735
X21590Y-38735
X19050Y-38735
X67310Y-37465
X67310Y-40005
X67310Y-42545
M30