M48
;GenerationSoftware,Autodesk,EAGLE,9.6.2*%
;CreationDate,2022-02-22T11:27:13Z*%
FMAT,2
ICI,OFF
METRIC,TZ,000.000
T5C0.800
T4C0.813
T3C0.900
T2C1.016
%
G90
M71
T2
X78740Y-87630
X55880Y-87630
X58420Y-87630
X60960Y-87630
X63500Y-87630
X66040Y-87630
X68580Y-87630
X71120Y-87630
X73660Y-87630
X76200Y-87630
X53340Y-87630
X81280Y-87630
X83820Y-87630
X86360Y-87630
X88900Y-87630
X91440Y-87630
X93980Y-87630
X96520Y-87630
X99060Y-87630
X101600Y-87630
X25400Y-87630
X2540Y-87630
X5080Y-87630
X7620Y-87630
X10160Y-87630
X12700Y-87630
X15240Y-87630
X17780Y-87630
X20320Y-87630
X22860Y-87630
X50800Y-87630
X27940Y-87630
X30480Y-87630
X33020Y-87630
X35560Y-87630
X38100Y-87630
X40640Y-87630
X43180Y-87630
X45720Y-87630
X48260Y-87630
T3
X15240Y-40640
X15240Y-3810
X82550Y-19050
X20320Y-45720
X69850Y-45720
X40640Y-72390
X53340Y-72390
X38100Y-74930
X50800Y-74930
X35560Y-77470
X48260Y-77470
X45720Y-80010
X33020Y-80010
X69850Y-19050
X20320Y-33020
X17780Y-35560
X17780Y-45720
X54610Y-27940
X54610Y-16510
X54610Y-38100
X54610Y-82550
X49530Y-58420
X49530Y-19050
X50800Y-50800
X82550Y-36830
X25400Y-45720
X22860Y-48260
X86360Y-76200
X24130Y-50800
X83820Y-73660
X25400Y-53340
X81280Y-71120
X26670Y-55880
X78740Y-68580
X27940Y-58420
X76200Y-66040
X73660Y-55880
X50800Y-55880
X71120Y-53340
X50800Y-53340
X68580Y-50800
X69850Y-40640
T4
X20320Y-27940
X27940Y-27940
X67310Y-33020
X69850Y-33020
X72390Y-33020
X74930Y-33020
X77470Y-33020
X46990Y-38100
X31750Y-55880
X31750Y-58420
X46990Y-58420
X46990Y-55880
X46990Y-53340
X46990Y-50800
X46990Y-48260
X46990Y-45720
X46990Y-43180
X46990Y-40640
X77470Y-25400
X46990Y-35560
X46990Y-33020
X46990Y-30480
X46990Y-27940
X46990Y-25400
X25400Y-22860
X22860Y-22860
X63500Y-30480
X63500Y-33020
X31750Y-50800
X80010Y-33020
X80010Y-25400
X74930Y-25400
X72390Y-25400
X82550Y-33020
X82550Y-25400
X69850Y-25400
X67310Y-25400
X31750Y-25400
X31750Y-27940
X31750Y-30480
X31750Y-33020
X31750Y-35560
X31750Y-38100
X31750Y-40640
X31750Y-43180
X31750Y-45720
X31750Y-48260
X31750Y-53340
T5
X15240Y-35560
X15240Y-19050
X25400Y-30480
X17780Y-19050
X17780Y-6350
X87630Y-36830
M30