G04 EAGLE Gerber RS-274X export*
G75*
%MOMM*%
%FSLAX34Y34*%
%LPD*%
%INBottom Copper*%
%IPPOS*%
%AMOC8*
5,1,8,0,0,1.08239X$1,22.5*%
G01*
%ADD10P,1.979475X8X112.500000*%
%ADD11P,1.979475X8X292.500000*%
%ADD12P,1.979475X8X22.500000*%
%ADD13C,1.828800*%
%ADD14C,2.032000*%
%ADD15P,2.199416X8X202.500000*%
%ADD16P,1.979475X8X202.500000*%
%ADD17C,1.270000*%
%ADD18C,2.100000*%


D10*
X50800Y-571500D03*
X50800Y-520700D03*
D11*
X177800Y-558800D03*
X177800Y-609600D03*
D12*
X1308100Y-431800D03*
X1358900Y-431800D03*
D11*
X876300Y-114300D03*
X876300Y-165100D03*
D13*
X88900Y-448056D02*
X88900Y-466344D01*
X88900Y-390144D02*
X88900Y-371856D01*
X241300Y-85344D02*
X241300Y-67056D01*
X266700Y-67056D02*
X266700Y-85344D01*
X393700Y-85344D02*
X393700Y-67056D01*
X393700Y-143256D02*
X393700Y-161544D01*
X292100Y-85344D02*
X292100Y-67056D01*
X317500Y-67056D02*
X317500Y-85344D01*
X368300Y-85344D02*
X368300Y-67056D01*
X342900Y-67056D02*
X342900Y-85344D01*
X368300Y-143256D02*
X368300Y-161544D01*
X342900Y-161544D02*
X342900Y-143256D01*
X317500Y-143256D02*
X317500Y-161544D01*
X292100Y-161544D02*
X292100Y-143256D01*
X266700Y-143256D02*
X266700Y-161544D01*
X241300Y-161544D02*
X241300Y-143256D01*
X838200Y-181356D02*
X838200Y-199644D01*
X812800Y-199644D02*
X812800Y-181356D01*
X685800Y-181356D02*
X685800Y-199644D01*
X660400Y-199644D02*
X660400Y-181356D01*
X787400Y-181356D02*
X787400Y-199644D01*
X762000Y-199644D02*
X762000Y-181356D01*
X711200Y-181356D02*
X711200Y-199644D01*
X736600Y-199644D02*
X736600Y-181356D01*
X660400Y-123444D02*
X660400Y-105156D01*
X685800Y-105156D02*
X685800Y-123444D01*
X711200Y-123444D02*
X711200Y-105156D01*
X736600Y-105156D02*
X736600Y-123444D01*
X762000Y-123444D02*
X762000Y-105156D01*
X787400Y-105156D02*
X787400Y-123444D01*
X812800Y-123444D02*
X812800Y-105156D01*
X838200Y-105156D02*
X838200Y-123444D01*
X215900Y-473456D02*
X215900Y-491744D01*
X241300Y-491744D02*
X241300Y-473456D01*
X368300Y-473456D02*
X368300Y-491744D01*
X393700Y-491744D02*
X393700Y-473456D01*
X266700Y-473456D02*
X266700Y-491744D01*
X292100Y-491744D02*
X292100Y-473456D01*
X342900Y-473456D02*
X342900Y-491744D01*
X317500Y-491744D02*
X317500Y-473456D01*
X393700Y-549656D02*
X393700Y-567944D01*
X368300Y-567944D02*
X368300Y-549656D01*
X342900Y-549656D02*
X342900Y-567944D01*
X317500Y-567944D02*
X317500Y-549656D01*
X292100Y-549656D02*
X292100Y-567944D01*
X266700Y-567944D02*
X266700Y-549656D01*
X241300Y-549656D02*
X241300Y-567944D01*
X215900Y-567944D02*
X215900Y-549656D01*
X1270000Y-517144D02*
X1270000Y-498856D01*
X1244600Y-498856D02*
X1244600Y-517144D01*
X1117600Y-517144D02*
X1117600Y-498856D01*
X1092200Y-498856D02*
X1092200Y-517144D01*
X1219200Y-517144D02*
X1219200Y-498856D01*
X1193800Y-498856D02*
X1193800Y-517144D01*
X1143000Y-517144D02*
X1143000Y-498856D01*
X1168400Y-498856D02*
X1168400Y-517144D01*
X1092200Y-440944D02*
X1092200Y-422656D01*
X1117600Y-422656D02*
X1117600Y-440944D01*
X1143000Y-440944D02*
X1143000Y-422656D01*
X1168400Y-422656D02*
X1168400Y-440944D01*
X1193800Y-440944D02*
X1193800Y-422656D01*
X1219200Y-422656D02*
X1219200Y-440944D01*
X1244600Y-440944D02*
X1244600Y-422656D01*
X1270000Y-422656D02*
X1270000Y-440944D01*
X1215644Y-190500D02*
X1197356Y-190500D01*
X1197356Y-165100D02*
X1215644Y-165100D01*
X1215644Y-38100D02*
X1197356Y-38100D01*
X1273556Y-38100D02*
X1291844Y-38100D01*
X1215644Y-139700D02*
X1197356Y-139700D01*
X1197356Y-114300D02*
X1215644Y-114300D01*
X1215644Y-63500D02*
X1197356Y-63500D01*
X1197356Y-88900D02*
X1215644Y-88900D01*
X1273556Y-63500D02*
X1291844Y-63500D01*
X1291844Y-88900D02*
X1273556Y-88900D01*
X1273556Y-114300D02*
X1291844Y-114300D01*
X1291844Y-139700D02*
X1273556Y-139700D01*
X1273556Y-165100D02*
X1291844Y-165100D01*
X1291844Y-190500D02*
X1273556Y-190500D01*
D14*
X25400Y-843280D02*
X25400Y-863600D01*
X50800Y-863600D02*
X50800Y-843280D01*
X76200Y-843280D02*
X76200Y-863600D01*
X101600Y-863600D02*
X101600Y-843280D01*
X127000Y-843280D02*
X127000Y-863600D01*
X152400Y-863600D02*
X152400Y-843280D01*
X177800Y-843280D02*
X177800Y-863600D01*
X203200Y-863600D02*
X203200Y-843280D01*
X228600Y-843280D02*
X228600Y-863600D01*
X254000Y-863600D02*
X254000Y-843280D01*
X279400Y-843280D02*
X279400Y-863600D01*
X304800Y-863600D02*
X304800Y-843280D01*
X330200Y-843280D02*
X330200Y-863600D01*
X355600Y-863600D02*
X355600Y-843280D01*
X381000Y-843280D02*
X381000Y-863600D01*
X406400Y-863600D02*
X406400Y-843280D01*
X431800Y-843280D02*
X431800Y-863600D01*
X457200Y-863600D02*
X457200Y-843280D01*
X482600Y-843280D02*
X482600Y-863600D01*
X508000Y-863600D02*
X508000Y-843280D01*
X533400Y-843280D02*
X533400Y-863600D01*
X558800Y-863600D02*
X558800Y-843280D01*
X584200Y-843280D02*
X584200Y-863600D01*
X609600Y-863600D02*
X609600Y-843280D01*
X635000Y-843280D02*
X635000Y-863600D01*
X660400Y-863600D02*
X660400Y-843280D01*
X685800Y-843280D02*
X685800Y-863600D01*
X711200Y-863600D02*
X711200Y-843280D01*
X736600Y-843280D02*
X736600Y-863600D01*
X762000Y-863600D02*
X762000Y-843280D01*
X787400Y-843280D02*
X787400Y-863600D01*
X812800Y-863600D02*
X812800Y-843280D01*
X838200Y-843280D02*
X838200Y-863600D01*
X863600Y-863600D02*
X863600Y-843280D01*
X889000Y-843280D02*
X889000Y-863600D01*
X914400Y-863600D02*
X914400Y-843280D01*
X939800Y-843280D02*
X939800Y-863600D01*
X965200Y-863600D02*
X965200Y-843280D01*
X990600Y-843280D02*
X990600Y-863600D01*
X1016000Y-863600D02*
X1016000Y-843280D01*
X35560Y-76200D02*
X15240Y-76200D01*
X15240Y-101600D02*
X35560Y-101600D01*
X35560Y-127000D02*
X15240Y-127000D01*
X15240Y-152400D02*
X35560Y-152400D01*
D11*
X127000Y-25400D03*
X127000Y-101600D03*
X88900Y-50800D03*
X88900Y-127000D03*
D10*
X50800Y-457200D03*
X50800Y-381000D03*
D15*
X1244600Y-355600D03*
X1244600Y-330200D03*
X1219200Y-355600D03*
X1219200Y-330200D03*
X1193800Y-355600D03*
X1193800Y-330200D03*
X1168400Y-355600D03*
X1168400Y-330200D03*
X1143000Y-355600D03*
X1143000Y-330200D03*
X1117600Y-355600D03*
X1117600Y-330200D03*
X1092200Y-355600D03*
X1092200Y-330200D03*
X1066800Y-355600D03*
X1066800Y-330200D03*
D10*
X190500Y-152400D03*
X190500Y-101600D03*
D14*
X485140Y-215900D02*
X505460Y-215900D01*
X505460Y-190500D02*
X485140Y-190500D01*
D12*
X1308100Y-215900D03*
X1358900Y-215900D03*
D13*
X123444Y-812800D02*
X105156Y-812800D01*
X181356Y-812800D02*
X199644Y-812800D01*
X123444Y-787400D02*
X105156Y-787400D01*
X181356Y-787400D02*
X199644Y-787400D01*
X123444Y-762000D02*
X105156Y-762000D01*
X181356Y-762000D02*
X199644Y-762000D01*
X123444Y-736600D02*
X105156Y-736600D01*
X181356Y-736600D02*
X199644Y-736600D01*
X123444Y-711200D02*
X105156Y-711200D01*
X181356Y-711200D02*
X199644Y-711200D01*
D16*
X139700Y-647700D03*
X63500Y-647700D03*
D17*
X1358900Y-215900D02*
X1358900Y-88900D01*
X431800Y-482600D02*
X393700Y-482600D01*
X241300Y-76200D02*
X190500Y-76200D01*
X190500Y-101600D01*
X241300Y-76200D02*
X241300Y-25400D01*
X292100Y-25400D01*
X292100Y-76200D01*
D18*
X38100Y-774700D03*
X431800Y-774700D03*
D17*
X38100Y-774700D02*
X25400Y-774700D01*
X25400Y-609600D01*
X25400Y-152400D01*
X139700Y-609600D02*
X177800Y-609600D01*
X139700Y-609600D02*
X50800Y-609600D01*
X25400Y-609600D01*
X1282700Y-88900D02*
X1282700Y-63500D01*
X1244600Y-63500D01*
X1244600Y-38100D01*
X1206500Y-38100D01*
X1092200Y-508000D02*
X1092200Y-800100D01*
X1092200Y-850900D01*
X1092200Y-800100D02*
X965200Y-800100D01*
X965200Y-711200D01*
X965200Y-165100D01*
X876300Y-165100D01*
X1282700Y-88900D02*
X1358900Y-88900D01*
D18*
X431800Y-711200D03*
D17*
X431800Y-774700D02*
X431800Y-863600D01*
D18*
X952500Y-711200D03*
D17*
X431800Y-711200D02*
X431800Y-774700D01*
X431800Y-711200D02*
X431800Y-482600D01*
X952500Y-711200D02*
X965200Y-711200D01*
D18*
X431800Y-482600D03*
X431800Y-76200D03*
D17*
X1358900Y-215900D02*
X1358900Y-431800D01*
X1358900Y-850900D01*
X1092200Y-850900D01*
X660400Y-266700D02*
X660400Y-190500D01*
X660400Y-266700D02*
X876300Y-266700D01*
X876300Y-165100D01*
X50800Y-571500D02*
X50800Y-609600D01*
X393700Y-76200D02*
X393700Y-25400D01*
X292100Y-25400D01*
X393700Y-76200D02*
X431800Y-76200D01*
X139700Y-609600D02*
X139700Y-647700D01*
X25400Y-76200D02*
X25400Y-50800D01*
X88900Y-50800D01*
X88900Y-25400D01*
X127000Y-25400D01*
X190500Y-152400D02*
X241300Y-152400D01*
D18*
X457200Y-660400D03*
X215900Y-660400D03*
X914400Y-800100D03*
X1308100Y-800100D03*
D17*
X876300Y-114300D02*
X838200Y-114300D01*
D18*
X152400Y-25400D03*
X114300Y-152400D03*
X114300Y-558800D03*
X152400Y-152400D03*
D17*
X114300Y-152400D01*
X152400Y-152400D02*
X190500Y-152400D01*
X152400Y-25400D02*
X127000Y-25400D01*
X177800Y-558800D02*
X215900Y-558800D01*
X215900Y-660400D01*
D18*
X457200Y-685800D03*
X914400Y-685800D03*
D17*
X457200Y-685800D02*
X457200Y-660400D01*
X457200Y-685800D02*
X457200Y-863600D01*
X914400Y-800100D02*
X914400Y-685800D01*
D18*
X914400Y-317500D03*
X914400Y-114300D03*
D17*
X914400Y-317500D02*
X914400Y-685800D01*
X914400Y-114300D02*
X876300Y-114300D01*
X1308100Y-431800D02*
X1308100Y-800100D01*
X1308100Y-431800D02*
X1270000Y-431800D01*
X1308100Y-431800D02*
X1308100Y-215900D01*
X1308100Y-190500D02*
X1282700Y-190500D01*
X1308100Y-190500D02*
X1308100Y-215900D01*
X228600Y-812800D02*
X228600Y-863600D01*
X228600Y-812800D02*
X190500Y-812800D01*
X254000Y-787400D02*
X254000Y-863600D01*
X254000Y-787400D02*
X190500Y-787400D01*
X279400Y-762000D02*
X279400Y-863600D01*
X279400Y-762000D02*
X190500Y-762000D01*
X304800Y-736600D02*
X304800Y-863600D01*
X304800Y-736600D02*
X190500Y-736600D01*
X330200Y-711200D02*
X330200Y-863600D01*
X330200Y-711200D02*
X190500Y-711200D01*
D18*
X355600Y-698500D03*
X1219200Y-698500D03*
D17*
X355600Y-698500D02*
X355600Y-863600D01*
X1219200Y-698500D02*
X1219200Y-508000D01*
D18*
X381000Y-723900D03*
X1244600Y-723900D03*
D17*
X381000Y-723900D02*
X381000Y-863600D01*
X1244600Y-723900D02*
X1244600Y-508000D01*
D18*
X406400Y-749300D03*
X1270000Y-749300D03*
D17*
X406400Y-749300D02*
X406400Y-863600D01*
X1270000Y-749300D02*
X1270000Y-508000D01*
D18*
X533400Y-647700D03*
X317500Y-647700D03*
X533400Y-469900D03*
X533400Y-114300D03*
D17*
X533400Y-50800D02*
X736600Y-50800D01*
X736600Y-114300D01*
X533400Y-114300D02*
X533400Y-50800D01*
X317500Y-558800D02*
X317500Y-647700D01*
X533400Y-647700D02*
X533400Y-863600D01*
X533400Y-609600D02*
X482600Y-609600D01*
X482600Y-558800D01*
X533400Y-558800D01*
X533400Y-469900D01*
X533400Y-609600D02*
X533400Y-647700D01*
D18*
X495300Y-241300D03*
X495300Y-469900D03*
X508000Y-812800D03*
X558800Y-812800D03*
D17*
X558800Y-863600D01*
X508000Y-812800D02*
X508000Y-647700D01*
X482600Y-647700D01*
X457200Y-622300D01*
X457200Y-520700D01*
X495300Y-520700D01*
X495300Y-469900D01*
X495300Y-241300D02*
X495300Y-215900D01*
X1041400Y-190500D02*
X1206500Y-190500D01*
D18*
X609600Y-762000D03*
X1041400Y-762000D03*
D17*
X609600Y-762000D02*
X609600Y-863600D01*
X1041400Y-762000D02*
X1041400Y-190500D01*
X990600Y-114300D02*
X1206500Y-114300D01*
D18*
X635000Y-469900D03*
X990600Y-469900D03*
D17*
X990600Y-114300D01*
X1206500Y-114300D02*
X1244600Y-114300D01*
X1244600Y-139700D01*
X1282700Y-139700D01*
X635000Y-469900D02*
X635000Y-863600D01*
D18*
X660400Y-812800D03*
X1193800Y-812800D03*
D17*
X660400Y-812800D02*
X660400Y-863600D01*
X1193800Y-812800D02*
X1193800Y-508000D01*
D18*
X685800Y-228600D03*
X685800Y-444500D03*
D17*
X368300Y-444500D01*
X368300Y-482600D01*
X685800Y-444500D02*
X685800Y-863600D01*
X685800Y-228600D02*
X685800Y-190500D01*
X342900Y-419100D02*
X342900Y-482600D01*
D18*
X711200Y-228600D03*
X711200Y-419100D03*
D17*
X711200Y-228600D02*
X711200Y-190500D01*
X711200Y-419100D02*
X342900Y-419100D01*
X711200Y-419100D02*
X711200Y-863600D01*
X317500Y-482600D02*
X317500Y-393700D01*
D18*
X736600Y-228600D03*
X736600Y-393700D03*
D17*
X317500Y-393700D01*
X736600Y-393700D02*
X736600Y-863600D01*
X736600Y-228600D02*
X736600Y-190500D01*
X292100Y-368300D02*
X292100Y-482600D01*
D18*
X762000Y-228600D03*
X762000Y-368300D03*
D17*
X292100Y-368300D01*
X762000Y-368300D02*
X762000Y-863600D01*
X762000Y-228600D02*
X762000Y-190500D01*
X266700Y-342900D02*
X266700Y-482600D01*
D18*
X787400Y-228600D03*
X787400Y-342900D03*
D17*
X266700Y-342900D01*
X787400Y-342900D02*
X787400Y-863600D01*
X787400Y-228600D02*
X787400Y-190500D01*
X241300Y-317500D02*
X241300Y-482600D01*
D18*
X812800Y-228600D03*
X812800Y-317500D03*
D17*
X241300Y-317500D01*
X812800Y-317500D02*
X812800Y-863600D01*
X812800Y-228600D02*
X812800Y-190500D01*
X838200Y-292100D02*
X215900Y-292100D01*
X215900Y-482600D01*
X838200Y-292100D02*
X838200Y-863600D01*
D18*
X838200Y-228600D03*
X838200Y-292100D03*
D17*
X838200Y-228600D02*
X838200Y-190500D01*
D18*
X241300Y-635000D03*
X863600Y-635000D03*
D17*
X241300Y-635000D02*
X241300Y-558800D01*
X863600Y-635000D02*
X863600Y-863600D01*
X812800Y-114300D02*
X812800Y-76200D01*
D18*
X939800Y-292100D03*
D17*
X863600Y-292100D02*
X863600Y-635000D01*
D18*
X939800Y-114300D03*
D17*
X939800Y-292100D02*
X863600Y-292100D01*
X939800Y-114300D02*
X939800Y-76200D01*
X812800Y-76200D01*
D18*
X482600Y-787400D03*
X1143000Y-787400D03*
D17*
X482600Y-787400D02*
X482600Y-863600D01*
X1143000Y-787400D02*
X1143000Y-508000D01*
X127000Y-101600D02*
X25400Y-101600D01*
X127000Y-101600D02*
X152400Y-101600D01*
D18*
X203200Y-50800D03*
X342900Y-50800D03*
D17*
X152400Y-50800D02*
X152400Y-101600D01*
X152400Y-50800D02*
X203200Y-50800D01*
X342900Y-50800D02*
X342900Y-76200D01*
X88900Y-127000D02*
X25400Y-127000D01*
X88900Y-127000D02*
X88900Y-190500D01*
X266700Y-190500D01*
X266700Y-152400D01*
X266700Y-114300D01*
X368300Y-139700D02*
X368300Y-152400D01*
X342900Y-114300D02*
X266700Y-114300D01*
X342900Y-114300D02*
X368300Y-139700D01*
X292100Y-152400D02*
X292100Y-215900D01*
X88900Y-215900D01*
X88900Y-381000D01*
X50800Y-381000D01*
X317500Y-241300D02*
X317500Y-152400D01*
X50800Y-457200D02*
X50800Y-520700D01*
X50800Y-457200D02*
X88900Y-457200D01*
X114300Y-457200D01*
X114300Y-241300D01*
X317500Y-241300D01*
D18*
X266700Y-609600D03*
X571500Y-609600D03*
D17*
X266700Y-609600D02*
X266700Y-558800D01*
D18*
X571500Y-241300D03*
D17*
X609600Y-241300D01*
X609600Y-114300D01*
X660400Y-114300D01*
X342900Y-520700D02*
X342900Y-558800D01*
X342900Y-520700D02*
X190500Y-520700D01*
X190500Y-266700D01*
X393700Y-266700D01*
X635000Y-266700D01*
X635000Y-152400D01*
X711200Y-152400D01*
X711200Y-114300D01*
X393700Y-152400D02*
X393700Y-266700D01*
D18*
X342900Y-190500D03*
X419100Y-190500D03*
D17*
X342900Y-190500D02*
X342900Y-152400D01*
X419100Y-190500D02*
X495300Y-190500D01*
X342900Y-152400D02*
X342900Y-139700D01*
X1066800Y-355600D02*
X1066800Y-469900D01*
X1117600Y-469900D01*
X1117600Y-508000D01*
X1092200Y-431800D02*
X1092200Y-355600D01*
X1117600Y-355600D02*
X1117600Y-431800D01*
X1244600Y-431800D02*
X1244600Y-355600D01*
X1219200Y-355600D02*
X1219200Y-431800D01*
X1193800Y-431800D02*
X1193800Y-355600D01*
X1168400Y-355600D02*
X1168400Y-431800D01*
X1143000Y-431800D02*
X1143000Y-355600D01*
X1066800Y-330200D02*
X1066800Y-266700D01*
X1117600Y-266700D01*
X1117600Y-330200D01*
X1117600Y-266700D02*
X1168400Y-266700D01*
X1168400Y-330200D01*
X1168400Y-266700D02*
X1219200Y-266700D01*
D18*
X1066800Y-88900D03*
X1066800Y-254000D03*
D17*
X1066800Y-88900D02*
X1206500Y-88900D01*
X1066800Y-254000D02*
X1066800Y-266700D01*
X1219200Y-266700D02*
X1219200Y-330200D01*
D18*
X368300Y-584200D03*
X508000Y-584200D03*
D17*
X368300Y-584200D02*
X368300Y-558800D01*
D18*
X584200Y-508000D03*
X584200Y-215900D03*
D17*
X584200Y-584200D02*
X508000Y-584200D01*
X584200Y-584200D02*
X584200Y-508000D01*
X685800Y-114300D02*
X685800Y-76200D01*
D18*
X1016000Y-508000D03*
D17*
X1016000Y-139700D02*
X1206500Y-139700D01*
D18*
X584200Y-469900D03*
D17*
X1016000Y-508000D02*
X1016000Y-139700D01*
X584200Y-76200D02*
X584200Y-215900D01*
X584200Y-76200D02*
X685800Y-76200D01*
X584200Y-469900D02*
X584200Y-508000D01*
X762000Y-114300D02*
X762000Y-50800D01*
X1168400Y-50800D01*
X1168400Y-63500D01*
X1206500Y-63500D01*
D18*
X1092200Y-292100D03*
X1143000Y-292100D03*
X1193800Y-292100D03*
X1092200Y-228600D03*
X1143000Y-228600D03*
X1193800Y-228600D03*
D17*
X1143000Y-228600D02*
X1092200Y-228600D01*
X1143000Y-228600D02*
X1193800Y-228600D01*
X1244600Y-228600D01*
X1244600Y-165100D02*
X1206500Y-165100D01*
X1244600Y-165100D02*
X1244600Y-228600D01*
X1244600Y-165100D02*
X1282700Y-165100D01*
X1092200Y-292100D02*
X1092200Y-330200D01*
X1143000Y-330200D02*
X1143000Y-292100D01*
X1193800Y-292100D02*
X1193800Y-330200D01*
X1244600Y-330200D02*
X1244600Y-228600D01*
D18*
X292100Y-622300D03*
X1333500Y-622300D03*
D17*
X292100Y-622300D02*
X292100Y-558800D01*
X1282700Y-114300D02*
X1333500Y-114300D01*
X1333500Y-622300D01*
D18*
X558800Y-76200D03*
X787400Y-76200D03*
D17*
X787400Y-114300D01*
X368300Y-88900D02*
X368300Y-76200D01*
X368300Y-88900D02*
X393700Y-114300D01*
X508000Y-114300D01*
X508000Y-152400D01*
X558800Y-152400D01*
X558800Y-76200D01*
X114300Y-787400D02*
X114300Y-812800D01*
X114300Y-787400D02*
X114300Y-781558D01*
X63500Y-711200D02*
X63500Y-647700D01*
X63500Y-711200D02*
X114300Y-711200D01*
X114300Y-736600D01*
X114300Y-762000D02*
X114300Y-787400D01*
X114300Y-762000D02*
X114300Y-736600D01*
D18*
X114300Y-673100D03*
X1168400Y-673100D03*
D17*
X114300Y-673100D02*
X114300Y-711200D01*
X1168400Y-673100D02*
X1168400Y-508000D01*
M02*
