G04 EAGLE Gerber RS-274X export*
G75*
%MOMM*%
%FSLAX34Y34*%
%LPD*%
%INSilkscreen Top*%
%IPPOS*%
%AMOC8*
5,1,8,0,0,1.08239X$1,22.5*%
G01*
%ADD10C,0.304800*%
%ADD11C,0.152400*%
%ADD12C,0.127000*%
%ADD13R,2.032000X0.508000*%
%ADD14R,0.508000X0.635000*%
%ADD15R,0.508000X0.381000*%
%ADD16C,0.101600*%
%ADD17R,0.508000X2.032000*%
%ADD18R,0.635000X0.508000*%
%ADD19R,0.381000X0.508000*%


D10*
X57150Y549148D02*
X50800Y549148D01*
X44450Y549148D01*
D11*
X50800Y549148D02*
X50800Y561340D01*
D10*
X50800Y542798D02*
X57150Y542798D01*
X50800Y542798D02*
X44450Y542798D01*
D11*
X50800Y542798D02*
X50800Y530860D01*
X60960Y582930D02*
X40640Y582930D01*
X38100Y580390D02*
X38100Y511810D01*
X40640Y509270D02*
X60960Y509270D01*
X63500Y511810D02*
X63500Y580390D01*
X63500Y511810D02*
X63498Y511710D01*
X63492Y511611D01*
X63482Y511511D01*
X63469Y511413D01*
X63451Y511314D01*
X63430Y511217D01*
X63405Y511121D01*
X63376Y511025D01*
X63343Y510931D01*
X63307Y510838D01*
X63267Y510747D01*
X63223Y510657D01*
X63176Y510569D01*
X63126Y510483D01*
X63072Y510399D01*
X63015Y510317D01*
X62955Y510238D01*
X62891Y510160D01*
X62825Y510086D01*
X62756Y510014D01*
X62684Y509945D01*
X62610Y509879D01*
X62532Y509815D01*
X62453Y509755D01*
X62371Y509698D01*
X62287Y509644D01*
X62201Y509594D01*
X62113Y509547D01*
X62023Y509503D01*
X61932Y509463D01*
X61839Y509427D01*
X61745Y509394D01*
X61649Y509365D01*
X61553Y509340D01*
X61456Y509319D01*
X61357Y509301D01*
X61259Y509288D01*
X61159Y509278D01*
X61060Y509272D01*
X60960Y509270D01*
X40640Y509270D02*
X40540Y509272D01*
X40441Y509278D01*
X40341Y509288D01*
X40243Y509301D01*
X40144Y509319D01*
X40047Y509340D01*
X39951Y509365D01*
X39855Y509394D01*
X39761Y509427D01*
X39668Y509463D01*
X39577Y509503D01*
X39487Y509547D01*
X39399Y509594D01*
X39313Y509644D01*
X39229Y509698D01*
X39147Y509755D01*
X39068Y509815D01*
X38990Y509879D01*
X38916Y509945D01*
X38844Y510014D01*
X38775Y510086D01*
X38709Y510160D01*
X38645Y510238D01*
X38585Y510317D01*
X38528Y510399D01*
X38474Y510483D01*
X38424Y510569D01*
X38377Y510657D01*
X38333Y510747D01*
X38293Y510838D01*
X38257Y510931D01*
X38224Y511025D01*
X38195Y511121D01*
X38170Y511217D01*
X38149Y511314D01*
X38131Y511413D01*
X38118Y511511D01*
X38108Y511611D01*
X38102Y511710D01*
X38100Y511810D01*
X38100Y580390D02*
X38102Y580490D01*
X38108Y580589D01*
X38118Y580689D01*
X38131Y580787D01*
X38149Y580886D01*
X38170Y580983D01*
X38195Y581079D01*
X38224Y581175D01*
X38257Y581269D01*
X38293Y581362D01*
X38333Y581453D01*
X38377Y581543D01*
X38424Y581631D01*
X38474Y581717D01*
X38528Y581801D01*
X38585Y581883D01*
X38645Y581962D01*
X38709Y582040D01*
X38775Y582114D01*
X38844Y582186D01*
X38916Y582255D01*
X38990Y582321D01*
X39068Y582385D01*
X39147Y582445D01*
X39229Y582502D01*
X39313Y582556D01*
X39399Y582606D01*
X39487Y582653D01*
X39577Y582697D01*
X39668Y582737D01*
X39761Y582773D01*
X39855Y582806D01*
X39951Y582835D01*
X40047Y582860D01*
X40144Y582881D01*
X40243Y582899D01*
X40341Y582912D01*
X40441Y582922D01*
X40540Y582928D01*
X40640Y582930D01*
X60960Y582930D02*
X61060Y582928D01*
X61159Y582922D01*
X61259Y582912D01*
X61357Y582899D01*
X61456Y582881D01*
X61553Y582860D01*
X61649Y582835D01*
X61745Y582806D01*
X61839Y582773D01*
X61932Y582737D01*
X62023Y582697D01*
X62113Y582653D01*
X62201Y582606D01*
X62287Y582556D01*
X62371Y582502D01*
X62453Y582445D01*
X62532Y582385D01*
X62610Y582321D01*
X62684Y582255D01*
X62756Y582186D01*
X62825Y582114D01*
X62891Y582040D01*
X62955Y581962D01*
X63015Y581883D01*
X63072Y581801D01*
X63126Y581717D01*
X63176Y581631D01*
X63223Y581543D01*
X63267Y581453D01*
X63307Y581362D01*
X63343Y581269D01*
X63376Y581175D01*
X63405Y581079D01*
X63430Y580983D01*
X63451Y580886D01*
X63469Y580787D01*
X63482Y580689D01*
X63492Y580589D01*
X63498Y580490D01*
X63500Y580390D01*
D12*
X79375Y568923D02*
X79375Y566383D01*
X79373Y566283D01*
X79367Y566184D01*
X79357Y566084D01*
X79344Y565986D01*
X79326Y565887D01*
X79305Y565790D01*
X79280Y565694D01*
X79251Y565598D01*
X79218Y565504D01*
X79182Y565411D01*
X79142Y565320D01*
X79098Y565230D01*
X79051Y565142D01*
X79001Y565056D01*
X78947Y564972D01*
X78890Y564890D01*
X78830Y564811D01*
X78766Y564733D01*
X78700Y564659D01*
X78631Y564587D01*
X78559Y564518D01*
X78485Y564452D01*
X78407Y564388D01*
X78328Y564328D01*
X78246Y564271D01*
X78162Y564217D01*
X78076Y564167D01*
X77988Y564120D01*
X77898Y564076D01*
X77807Y564036D01*
X77714Y564000D01*
X77620Y563967D01*
X77524Y563938D01*
X77428Y563913D01*
X77331Y563892D01*
X77232Y563874D01*
X77134Y563861D01*
X77034Y563851D01*
X76935Y563845D01*
X76835Y563843D01*
X70485Y563843D01*
X70385Y563845D01*
X70286Y563851D01*
X70186Y563861D01*
X70088Y563874D01*
X69989Y563892D01*
X69892Y563913D01*
X69796Y563938D01*
X69700Y563967D01*
X69606Y564000D01*
X69513Y564036D01*
X69422Y564076D01*
X69332Y564120D01*
X69244Y564167D01*
X69158Y564217D01*
X69074Y564271D01*
X68992Y564328D01*
X68913Y564388D01*
X68835Y564452D01*
X68761Y564518D01*
X68689Y564587D01*
X68620Y564659D01*
X68554Y564733D01*
X68490Y564811D01*
X68430Y564890D01*
X68373Y564972D01*
X68319Y565056D01*
X68269Y565142D01*
X68222Y565230D01*
X68178Y565320D01*
X68138Y565411D01*
X68102Y565504D01*
X68069Y565598D01*
X68040Y565694D01*
X68015Y565790D01*
X67994Y565887D01*
X67976Y565986D01*
X67963Y566084D01*
X67953Y566184D01*
X67947Y566283D01*
X67945Y566383D01*
X67945Y568923D01*
X70485Y573405D02*
X67945Y576580D01*
X79375Y576580D01*
X79375Y573405D02*
X79375Y579755D01*
D10*
X171450Y581152D02*
X177800Y581152D01*
X184150Y581152D01*
D11*
X177800Y581152D02*
X177800Y568960D01*
D10*
X177800Y587502D02*
X171450Y587502D01*
X177800Y587502D02*
X184150Y587502D01*
D11*
X177800Y587502D02*
X177800Y599440D01*
X167640Y547370D02*
X187960Y547370D01*
X190500Y549910D02*
X190500Y618490D01*
X187960Y621030D02*
X167640Y621030D01*
X165100Y618490D02*
X165100Y549910D01*
X165100Y618490D02*
X165102Y618590D01*
X165108Y618689D01*
X165118Y618789D01*
X165131Y618887D01*
X165149Y618986D01*
X165170Y619083D01*
X165195Y619179D01*
X165224Y619275D01*
X165257Y619369D01*
X165293Y619462D01*
X165333Y619553D01*
X165377Y619643D01*
X165424Y619731D01*
X165474Y619817D01*
X165528Y619901D01*
X165585Y619983D01*
X165645Y620062D01*
X165709Y620140D01*
X165775Y620214D01*
X165844Y620286D01*
X165916Y620355D01*
X165990Y620421D01*
X166068Y620485D01*
X166147Y620545D01*
X166229Y620602D01*
X166313Y620656D01*
X166399Y620706D01*
X166487Y620753D01*
X166577Y620797D01*
X166668Y620837D01*
X166761Y620873D01*
X166855Y620906D01*
X166951Y620935D01*
X167047Y620960D01*
X167144Y620981D01*
X167243Y620999D01*
X167341Y621012D01*
X167441Y621022D01*
X167540Y621028D01*
X167640Y621030D01*
X187960Y621030D02*
X188060Y621028D01*
X188159Y621022D01*
X188259Y621012D01*
X188357Y620999D01*
X188456Y620981D01*
X188553Y620960D01*
X188649Y620935D01*
X188745Y620906D01*
X188839Y620873D01*
X188932Y620837D01*
X189023Y620797D01*
X189113Y620753D01*
X189201Y620706D01*
X189287Y620656D01*
X189371Y620602D01*
X189453Y620545D01*
X189532Y620485D01*
X189610Y620421D01*
X189684Y620355D01*
X189756Y620286D01*
X189825Y620214D01*
X189891Y620140D01*
X189955Y620062D01*
X190015Y619983D01*
X190072Y619901D01*
X190126Y619817D01*
X190176Y619731D01*
X190223Y619643D01*
X190267Y619553D01*
X190307Y619462D01*
X190343Y619369D01*
X190376Y619275D01*
X190405Y619179D01*
X190430Y619083D01*
X190451Y618986D01*
X190469Y618887D01*
X190482Y618789D01*
X190492Y618689D01*
X190498Y618590D01*
X190500Y618490D01*
X190500Y549910D02*
X190498Y549810D01*
X190492Y549711D01*
X190482Y549611D01*
X190469Y549513D01*
X190451Y549414D01*
X190430Y549317D01*
X190405Y549221D01*
X190376Y549125D01*
X190343Y549031D01*
X190307Y548938D01*
X190267Y548847D01*
X190223Y548757D01*
X190176Y548669D01*
X190126Y548583D01*
X190072Y548499D01*
X190015Y548417D01*
X189955Y548338D01*
X189891Y548260D01*
X189825Y548186D01*
X189756Y548114D01*
X189684Y548045D01*
X189610Y547979D01*
X189532Y547915D01*
X189453Y547855D01*
X189371Y547798D01*
X189287Y547744D01*
X189201Y547694D01*
X189113Y547647D01*
X189023Y547603D01*
X188932Y547563D01*
X188839Y547527D01*
X188745Y547494D01*
X188649Y547465D01*
X188553Y547440D01*
X188456Y547419D01*
X188357Y547401D01*
X188259Y547388D01*
X188159Y547378D01*
X188060Y547372D01*
X187960Y547370D01*
X167640Y547370D02*
X167540Y547372D01*
X167441Y547378D01*
X167341Y547388D01*
X167243Y547401D01*
X167144Y547419D01*
X167047Y547440D01*
X166951Y547465D01*
X166855Y547494D01*
X166761Y547527D01*
X166668Y547563D01*
X166577Y547603D01*
X166487Y547647D01*
X166399Y547694D01*
X166313Y547744D01*
X166229Y547798D01*
X166147Y547855D01*
X166068Y547915D01*
X165990Y547979D01*
X165916Y548045D01*
X165844Y548114D01*
X165775Y548186D01*
X165709Y548260D01*
X165645Y548338D01*
X165585Y548417D01*
X165528Y548499D01*
X165474Y548583D01*
X165424Y548669D01*
X165377Y548757D01*
X165333Y548847D01*
X165293Y548938D01*
X165257Y549031D01*
X165224Y549125D01*
X165195Y549221D01*
X165170Y549317D01*
X165149Y549414D01*
X165131Y549513D01*
X165118Y549611D01*
X165108Y549711D01*
X165102Y549810D01*
X165100Y549910D01*
D12*
X160655Y553085D02*
X160655Y555625D01*
X160655Y553085D02*
X160653Y552985D01*
X160647Y552886D01*
X160637Y552786D01*
X160624Y552688D01*
X160606Y552589D01*
X160585Y552492D01*
X160560Y552396D01*
X160531Y552300D01*
X160498Y552206D01*
X160462Y552113D01*
X160422Y552022D01*
X160378Y551932D01*
X160331Y551844D01*
X160281Y551758D01*
X160227Y551674D01*
X160170Y551592D01*
X160110Y551513D01*
X160046Y551435D01*
X159980Y551361D01*
X159911Y551289D01*
X159839Y551220D01*
X159765Y551154D01*
X159687Y551090D01*
X159608Y551030D01*
X159526Y550973D01*
X159442Y550919D01*
X159356Y550869D01*
X159268Y550822D01*
X159178Y550778D01*
X159087Y550738D01*
X158994Y550702D01*
X158900Y550669D01*
X158804Y550640D01*
X158708Y550615D01*
X158611Y550594D01*
X158512Y550576D01*
X158414Y550563D01*
X158314Y550553D01*
X158215Y550547D01*
X158115Y550545D01*
X151765Y550545D01*
X151665Y550547D01*
X151566Y550553D01*
X151466Y550563D01*
X151368Y550576D01*
X151269Y550594D01*
X151172Y550615D01*
X151076Y550640D01*
X150980Y550669D01*
X150886Y550702D01*
X150793Y550738D01*
X150702Y550778D01*
X150612Y550822D01*
X150524Y550869D01*
X150438Y550919D01*
X150354Y550973D01*
X150272Y551030D01*
X150193Y551090D01*
X150115Y551154D01*
X150041Y551220D01*
X149969Y551289D01*
X149900Y551361D01*
X149834Y551435D01*
X149770Y551513D01*
X149710Y551592D01*
X149653Y551674D01*
X149599Y551758D01*
X149549Y551844D01*
X149502Y551932D01*
X149458Y552022D01*
X149418Y552113D01*
X149382Y552206D01*
X149349Y552300D01*
X149320Y552396D01*
X149295Y552492D01*
X149274Y552589D01*
X149256Y552688D01*
X149243Y552786D01*
X149233Y552886D01*
X149227Y552985D01*
X149225Y553085D01*
X149225Y555625D01*
X149225Y563600D02*
X149227Y563704D01*
X149233Y563809D01*
X149242Y563913D01*
X149255Y564016D01*
X149273Y564119D01*
X149293Y564221D01*
X149318Y564323D01*
X149346Y564423D01*
X149378Y564523D01*
X149414Y564621D01*
X149453Y564718D01*
X149495Y564813D01*
X149541Y564907D01*
X149591Y564999D01*
X149643Y565089D01*
X149699Y565177D01*
X149759Y565263D01*
X149821Y565347D01*
X149886Y565428D01*
X149954Y565507D01*
X150026Y565584D01*
X150099Y565657D01*
X150176Y565729D01*
X150255Y565797D01*
X150336Y565862D01*
X150420Y565924D01*
X150506Y565984D01*
X150594Y566040D01*
X150684Y566092D01*
X150776Y566142D01*
X150870Y566188D01*
X150965Y566230D01*
X151062Y566269D01*
X151160Y566305D01*
X151260Y566337D01*
X151360Y566365D01*
X151462Y566390D01*
X151564Y566410D01*
X151667Y566428D01*
X151770Y566441D01*
X151874Y566450D01*
X151979Y566456D01*
X152083Y566458D01*
X149225Y563600D02*
X149227Y563482D01*
X149233Y563363D01*
X149242Y563245D01*
X149255Y563128D01*
X149273Y563011D01*
X149293Y562894D01*
X149318Y562778D01*
X149346Y562663D01*
X149379Y562550D01*
X149414Y562437D01*
X149454Y562325D01*
X149496Y562215D01*
X149543Y562106D01*
X149593Y561998D01*
X149646Y561893D01*
X149703Y561789D01*
X149763Y561687D01*
X149826Y561587D01*
X149893Y561489D01*
X149962Y561393D01*
X150035Y561300D01*
X150111Y561209D01*
X150189Y561120D01*
X150271Y561034D01*
X150355Y560951D01*
X150441Y560870D01*
X150531Y560793D01*
X150622Y560718D01*
X150716Y560646D01*
X150813Y560577D01*
X150911Y560512D01*
X151012Y560449D01*
X151115Y560390D01*
X151219Y560334D01*
X151325Y560282D01*
X151433Y560233D01*
X151542Y560188D01*
X151653Y560146D01*
X151765Y560108D01*
X154305Y565505D02*
X154230Y565581D01*
X154151Y565656D01*
X154070Y565727D01*
X153986Y565796D01*
X153900Y565861D01*
X153812Y565923D01*
X153722Y565983D01*
X153630Y566039D01*
X153535Y566092D01*
X153439Y566141D01*
X153341Y566187D01*
X153242Y566230D01*
X153141Y566269D01*
X153039Y566304D01*
X152936Y566336D01*
X152832Y566364D01*
X152727Y566389D01*
X152620Y566410D01*
X152514Y566427D01*
X152407Y566440D01*
X152299Y566449D01*
X152191Y566455D01*
X152083Y566457D01*
X154305Y565505D02*
X160655Y560107D01*
X160655Y566457D01*
D10*
X1330452Y438150D02*
X1330452Y431800D01*
X1330452Y425450D01*
D11*
X1330452Y431800D02*
X1318260Y431800D01*
D10*
X1336802Y431800D02*
X1336802Y438150D01*
X1336802Y431800D02*
X1336802Y425450D01*
D11*
X1336802Y431800D02*
X1348740Y431800D01*
X1296670Y441960D02*
X1296670Y421640D01*
X1299210Y419100D02*
X1367790Y419100D01*
X1370330Y421640D02*
X1370330Y441960D01*
X1367790Y444500D02*
X1299210Y444500D01*
X1367790Y444500D02*
X1367890Y444498D01*
X1367989Y444492D01*
X1368089Y444482D01*
X1368187Y444469D01*
X1368286Y444451D01*
X1368383Y444430D01*
X1368479Y444405D01*
X1368575Y444376D01*
X1368669Y444343D01*
X1368762Y444307D01*
X1368853Y444267D01*
X1368943Y444223D01*
X1369031Y444176D01*
X1369117Y444126D01*
X1369201Y444072D01*
X1369283Y444015D01*
X1369362Y443955D01*
X1369440Y443891D01*
X1369514Y443825D01*
X1369586Y443756D01*
X1369655Y443684D01*
X1369721Y443610D01*
X1369785Y443532D01*
X1369845Y443453D01*
X1369902Y443371D01*
X1369956Y443287D01*
X1370006Y443201D01*
X1370053Y443113D01*
X1370097Y443023D01*
X1370137Y442932D01*
X1370173Y442839D01*
X1370206Y442745D01*
X1370235Y442649D01*
X1370260Y442553D01*
X1370281Y442456D01*
X1370299Y442357D01*
X1370312Y442259D01*
X1370322Y442159D01*
X1370328Y442060D01*
X1370330Y441960D01*
X1370330Y421640D02*
X1370328Y421540D01*
X1370322Y421441D01*
X1370312Y421341D01*
X1370299Y421243D01*
X1370281Y421144D01*
X1370260Y421047D01*
X1370235Y420951D01*
X1370206Y420855D01*
X1370173Y420761D01*
X1370137Y420668D01*
X1370097Y420577D01*
X1370053Y420487D01*
X1370006Y420399D01*
X1369956Y420313D01*
X1369902Y420229D01*
X1369845Y420147D01*
X1369785Y420068D01*
X1369721Y419990D01*
X1369655Y419916D01*
X1369586Y419844D01*
X1369514Y419775D01*
X1369440Y419709D01*
X1369362Y419645D01*
X1369283Y419585D01*
X1369201Y419528D01*
X1369117Y419474D01*
X1369031Y419424D01*
X1368943Y419377D01*
X1368853Y419333D01*
X1368762Y419293D01*
X1368669Y419257D01*
X1368575Y419224D01*
X1368479Y419195D01*
X1368383Y419170D01*
X1368286Y419149D01*
X1368187Y419131D01*
X1368089Y419118D01*
X1367989Y419108D01*
X1367890Y419102D01*
X1367790Y419100D01*
X1299210Y419100D02*
X1299110Y419102D01*
X1299011Y419108D01*
X1298911Y419118D01*
X1298813Y419131D01*
X1298714Y419149D01*
X1298617Y419170D01*
X1298521Y419195D01*
X1298425Y419224D01*
X1298331Y419257D01*
X1298238Y419293D01*
X1298147Y419333D01*
X1298057Y419377D01*
X1297969Y419424D01*
X1297883Y419474D01*
X1297799Y419528D01*
X1297717Y419585D01*
X1297638Y419645D01*
X1297560Y419709D01*
X1297486Y419775D01*
X1297414Y419844D01*
X1297345Y419916D01*
X1297279Y419990D01*
X1297215Y420068D01*
X1297155Y420147D01*
X1297098Y420229D01*
X1297044Y420313D01*
X1296994Y420399D01*
X1296947Y420487D01*
X1296903Y420577D01*
X1296863Y420668D01*
X1296827Y420761D01*
X1296794Y420855D01*
X1296765Y420951D01*
X1296740Y421047D01*
X1296719Y421144D01*
X1296701Y421243D01*
X1296688Y421341D01*
X1296678Y421441D01*
X1296672Y421540D01*
X1296670Y421640D01*
X1296670Y441960D02*
X1296672Y442060D01*
X1296678Y442159D01*
X1296688Y442259D01*
X1296701Y442357D01*
X1296719Y442456D01*
X1296740Y442553D01*
X1296765Y442649D01*
X1296794Y442745D01*
X1296827Y442839D01*
X1296863Y442932D01*
X1296903Y443023D01*
X1296947Y443113D01*
X1296994Y443201D01*
X1297044Y443287D01*
X1297098Y443371D01*
X1297155Y443453D01*
X1297215Y443532D01*
X1297279Y443610D01*
X1297345Y443684D01*
X1297414Y443756D01*
X1297486Y443825D01*
X1297560Y443891D01*
X1297638Y443955D01*
X1297717Y444015D01*
X1297799Y444072D01*
X1297883Y444126D01*
X1297969Y444176D01*
X1298057Y444223D01*
X1298147Y444267D01*
X1298238Y444307D01*
X1298331Y444343D01*
X1298425Y444376D01*
X1298521Y444405D01*
X1298617Y444430D01*
X1298714Y444451D01*
X1298813Y444469D01*
X1298911Y444482D01*
X1299011Y444492D01*
X1299110Y444498D01*
X1299210Y444500D01*
D12*
X1302385Y448945D02*
X1304925Y448945D01*
X1302385Y448945D02*
X1302285Y448947D01*
X1302186Y448953D01*
X1302086Y448963D01*
X1301988Y448976D01*
X1301889Y448994D01*
X1301792Y449015D01*
X1301696Y449040D01*
X1301600Y449069D01*
X1301506Y449102D01*
X1301413Y449138D01*
X1301322Y449178D01*
X1301232Y449222D01*
X1301144Y449269D01*
X1301058Y449319D01*
X1300974Y449373D01*
X1300892Y449430D01*
X1300813Y449490D01*
X1300735Y449554D01*
X1300661Y449620D01*
X1300589Y449689D01*
X1300520Y449761D01*
X1300454Y449835D01*
X1300390Y449913D01*
X1300330Y449992D01*
X1300273Y450074D01*
X1300219Y450158D01*
X1300169Y450244D01*
X1300122Y450332D01*
X1300078Y450422D01*
X1300038Y450513D01*
X1300002Y450606D01*
X1299969Y450700D01*
X1299940Y450796D01*
X1299915Y450892D01*
X1299894Y450989D01*
X1299876Y451088D01*
X1299863Y451186D01*
X1299853Y451286D01*
X1299847Y451385D01*
X1299845Y451485D01*
X1299845Y457835D01*
X1299847Y457935D01*
X1299853Y458034D01*
X1299863Y458134D01*
X1299876Y458232D01*
X1299894Y458331D01*
X1299915Y458428D01*
X1299940Y458524D01*
X1299969Y458620D01*
X1300002Y458714D01*
X1300038Y458807D01*
X1300078Y458898D01*
X1300122Y458988D01*
X1300169Y459076D01*
X1300219Y459162D01*
X1300273Y459246D01*
X1300330Y459328D01*
X1300390Y459407D01*
X1300454Y459485D01*
X1300520Y459559D01*
X1300589Y459631D01*
X1300661Y459700D01*
X1300735Y459766D01*
X1300813Y459830D01*
X1300892Y459890D01*
X1300974Y459947D01*
X1301058Y460001D01*
X1301144Y460051D01*
X1301232Y460098D01*
X1301322Y460142D01*
X1301413Y460182D01*
X1301506Y460218D01*
X1301600Y460251D01*
X1301696Y460280D01*
X1301792Y460305D01*
X1301889Y460326D01*
X1301988Y460344D01*
X1302086Y460357D01*
X1302186Y460367D01*
X1302285Y460373D01*
X1302385Y460375D01*
X1304925Y460375D01*
X1309407Y448945D02*
X1312582Y448945D01*
X1312693Y448947D01*
X1312803Y448953D01*
X1312914Y448962D01*
X1313024Y448976D01*
X1313133Y448993D01*
X1313242Y449014D01*
X1313350Y449039D01*
X1313457Y449068D01*
X1313563Y449100D01*
X1313668Y449136D01*
X1313771Y449176D01*
X1313873Y449219D01*
X1313974Y449266D01*
X1314073Y449317D01*
X1314170Y449370D01*
X1314264Y449427D01*
X1314357Y449488D01*
X1314448Y449551D01*
X1314537Y449618D01*
X1314623Y449688D01*
X1314706Y449761D01*
X1314788Y449836D01*
X1314866Y449914D01*
X1314941Y449996D01*
X1315014Y450079D01*
X1315084Y450165D01*
X1315151Y450254D01*
X1315214Y450345D01*
X1315275Y450438D01*
X1315332Y450532D01*
X1315385Y450629D01*
X1315436Y450728D01*
X1315483Y450829D01*
X1315526Y450931D01*
X1315566Y451034D01*
X1315602Y451139D01*
X1315634Y451245D01*
X1315663Y451352D01*
X1315688Y451460D01*
X1315709Y451569D01*
X1315726Y451678D01*
X1315740Y451788D01*
X1315749Y451899D01*
X1315755Y452009D01*
X1315757Y452120D01*
X1315755Y452231D01*
X1315749Y452341D01*
X1315740Y452452D01*
X1315726Y452562D01*
X1315709Y452671D01*
X1315688Y452780D01*
X1315663Y452888D01*
X1315634Y452995D01*
X1315602Y453101D01*
X1315566Y453206D01*
X1315526Y453309D01*
X1315483Y453411D01*
X1315436Y453512D01*
X1315385Y453611D01*
X1315332Y453707D01*
X1315275Y453802D01*
X1315214Y453895D01*
X1315151Y453986D01*
X1315084Y454075D01*
X1315014Y454161D01*
X1314941Y454244D01*
X1314866Y454326D01*
X1314788Y454404D01*
X1314706Y454479D01*
X1314623Y454552D01*
X1314537Y454622D01*
X1314448Y454689D01*
X1314357Y454752D01*
X1314264Y454813D01*
X1314170Y454870D01*
X1314073Y454923D01*
X1313974Y454974D01*
X1313873Y455021D01*
X1313771Y455064D01*
X1313668Y455104D01*
X1313563Y455140D01*
X1313457Y455172D01*
X1313350Y455201D01*
X1313242Y455226D01*
X1313133Y455247D01*
X1313024Y455264D01*
X1312914Y455278D01*
X1312803Y455287D01*
X1312693Y455293D01*
X1312582Y455295D01*
X1313217Y460375D02*
X1309407Y460375D01*
X1313217Y460375D02*
X1313317Y460373D01*
X1313416Y460367D01*
X1313516Y460357D01*
X1313614Y460344D01*
X1313713Y460326D01*
X1313810Y460305D01*
X1313906Y460280D01*
X1314002Y460251D01*
X1314096Y460218D01*
X1314189Y460182D01*
X1314280Y460142D01*
X1314370Y460098D01*
X1314458Y460051D01*
X1314544Y460001D01*
X1314628Y459947D01*
X1314710Y459890D01*
X1314789Y459830D01*
X1314867Y459766D01*
X1314941Y459700D01*
X1315013Y459631D01*
X1315082Y459559D01*
X1315148Y459485D01*
X1315212Y459407D01*
X1315272Y459328D01*
X1315329Y459246D01*
X1315383Y459162D01*
X1315433Y459076D01*
X1315480Y458988D01*
X1315524Y458898D01*
X1315564Y458807D01*
X1315600Y458714D01*
X1315633Y458620D01*
X1315662Y458524D01*
X1315687Y458428D01*
X1315708Y458331D01*
X1315726Y458232D01*
X1315739Y458134D01*
X1315749Y458034D01*
X1315755Y457935D01*
X1315757Y457835D01*
X1315755Y457735D01*
X1315749Y457636D01*
X1315739Y457536D01*
X1315726Y457438D01*
X1315708Y457339D01*
X1315687Y457242D01*
X1315662Y457146D01*
X1315633Y457050D01*
X1315600Y456956D01*
X1315564Y456863D01*
X1315524Y456772D01*
X1315480Y456682D01*
X1315433Y456594D01*
X1315383Y456508D01*
X1315329Y456424D01*
X1315272Y456342D01*
X1315212Y456263D01*
X1315148Y456185D01*
X1315082Y456111D01*
X1315013Y456039D01*
X1314941Y455970D01*
X1314867Y455904D01*
X1314789Y455840D01*
X1314710Y455780D01*
X1314628Y455723D01*
X1314544Y455669D01*
X1314458Y455619D01*
X1314370Y455572D01*
X1314280Y455528D01*
X1314189Y455488D01*
X1314096Y455452D01*
X1314002Y455419D01*
X1313906Y455390D01*
X1313810Y455365D01*
X1313713Y455344D01*
X1313614Y455326D01*
X1313516Y455313D01*
X1313416Y455303D01*
X1313317Y455297D01*
X1313217Y455295D01*
X1310677Y455295D01*
D10*
X876300Y136652D02*
X869950Y136652D01*
X876300Y136652D02*
X882650Y136652D01*
D11*
X876300Y136652D02*
X876300Y124460D01*
D10*
X876300Y143002D02*
X869950Y143002D01*
X876300Y143002D02*
X882650Y143002D01*
D11*
X876300Y143002D02*
X876300Y154940D01*
X866140Y102870D02*
X886460Y102870D01*
X889000Y105410D02*
X889000Y173990D01*
X886460Y176530D02*
X866140Y176530D01*
X863600Y173990D02*
X863600Y105410D01*
X863600Y173990D02*
X863602Y174090D01*
X863608Y174189D01*
X863618Y174289D01*
X863631Y174387D01*
X863649Y174486D01*
X863670Y174583D01*
X863695Y174679D01*
X863724Y174775D01*
X863757Y174869D01*
X863793Y174962D01*
X863833Y175053D01*
X863877Y175143D01*
X863924Y175231D01*
X863974Y175317D01*
X864028Y175401D01*
X864085Y175483D01*
X864145Y175562D01*
X864209Y175640D01*
X864275Y175714D01*
X864344Y175786D01*
X864416Y175855D01*
X864490Y175921D01*
X864568Y175985D01*
X864647Y176045D01*
X864729Y176102D01*
X864813Y176156D01*
X864899Y176206D01*
X864987Y176253D01*
X865077Y176297D01*
X865168Y176337D01*
X865261Y176373D01*
X865355Y176406D01*
X865451Y176435D01*
X865547Y176460D01*
X865644Y176481D01*
X865743Y176499D01*
X865841Y176512D01*
X865941Y176522D01*
X866040Y176528D01*
X866140Y176530D01*
X886460Y176530D02*
X886560Y176528D01*
X886659Y176522D01*
X886759Y176512D01*
X886857Y176499D01*
X886956Y176481D01*
X887053Y176460D01*
X887149Y176435D01*
X887245Y176406D01*
X887339Y176373D01*
X887432Y176337D01*
X887523Y176297D01*
X887613Y176253D01*
X887701Y176206D01*
X887787Y176156D01*
X887871Y176102D01*
X887953Y176045D01*
X888032Y175985D01*
X888110Y175921D01*
X888184Y175855D01*
X888256Y175786D01*
X888325Y175714D01*
X888391Y175640D01*
X888455Y175562D01*
X888515Y175483D01*
X888572Y175401D01*
X888626Y175317D01*
X888676Y175231D01*
X888723Y175143D01*
X888767Y175053D01*
X888807Y174962D01*
X888843Y174869D01*
X888876Y174775D01*
X888905Y174679D01*
X888930Y174583D01*
X888951Y174486D01*
X888969Y174387D01*
X888982Y174289D01*
X888992Y174189D01*
X888998Y174090D01*
X889000Y173990D01*
X889000Y105410D02*
X888998Y105310D01*
X888992Y105211D01*
X888982Y105111D01*
X888969Y105013D01*
X888951Y104914D01*
X888930Y104817D01*
X888905Y104721D01*
X888876Y104625D01*
X888843Y104531D01*
X888807Y104438D01*
X888767Y104347D01*
X888723Y104257D01*
X888676Y104169D01*
X888626Y104083D01*
X888572Y103999D01*
X888515Y103917D01*
X888455Y103838D01*
X888391Y103760D01*
X888325Y103686D01*
X888256Y103614D01*
X888184Y103545D01*
X888110Y103479D01*
X888032Y103415D01*
X887953Y103355D01*
X887871Y103298D01*
X887787Y103244D01*
X887701Y103194D01*
X887613Y103147D01*
X887523Y103103D01*
X887432Y103063D01*
X887339Y103027D01*
X887245Y102994D01*
X887149Y102965D01*
X887053Y102940D01*
X886956Y102919D01*
X886857Y102901D01*
X886759Y102888D01*
X886659Y102878D01*
X886560Y102872D01*
X886460Y102870D01*
X866140Y102870D02*
X866040Y102872D01*
X865941Y102878D01*
X865841Y102888D01*
X865743Y102901D01*
X865644Y102919D01*
X865547Y102940D01*
X865451Y102965D01*
X865355Y102994D01*
X865261Y103027D01*
X865168Y103063D01*
X865077Y103103D01*
X864987Y103147D01*
X864899Y103194D01*
X864813Y103244D01*
X864729Y103298D01*
X864647Y103355D01*
X864568Y103415D01*
X864490Y103479D01*
X864416Y103545D01*
X864344Y103614D01*
X864275Y103686D01*
X864209Y103760D01*
X864145Y103838D01*
X864085Y103917D01*
X864028Y103999D01*
X863974Y104083D01*
X863924Y104169D01*
X863877Y104257D01*
X863833Y104347D01*
X863793Y104438D01*
X863757Y104531D01*
X863724Y104625D01*
X863695Y104721D01*
X863670Y104817D01*
X863649Y104914D01*
X863631Y105013D01*
X863618Y105111D01*
X863608Y105211D01*
X863602Y105310D01*
X863600Y105410D01*
D12*
X859155Y108585D02*
X859155Y111125D01*
X859155Y108585D02*
X859153Y108485D01*
X859147Y108386D01*
X859137Y108286D01*
X859124Y108188D01*
X859106Y108089D01*
X859085Y107992D01*
X859060Y107896D01*
X859031Y107800D01*
X858998Y107706D01*
X858962Y107613D01*
X858922Y107522D01*
X858878Y107432D01*
X858831Y107344D01*
X858781Y107258D01*
X858727Y107174D01*
X858670Y107092D01*
X858610Y107013D01*
X858546Y106935D01*
X858480Y106861D01*
X858411Y106789D01*
X858339Y106720D01*
X858265Y106654D01*
X858187Y106590D01*
X858108Y106530D01*
X858026Y106473D01*
X857942Y106419D01*
X857856Y106369D01*
X857768Y106322D01*
X857678Y106278D01*
X857587Y106238D01*
X857494Y106202D01*
X857400Y106169D01*
X857304Y106140D01*
X857208Y106115D01*
X857111Y106094D01*
X857012Y106076D01*
X856914Y106063D01*
X856814Y106053D01*
X856715Y106047D01*
X856615Y106045D01*
X850265Y106045D01*
X850165Y106047D01*
X850066Y106053D01*
X849966Y106063D01*
X849868Y106076D01*
X849769Y106094D01*
X849672Y106115D01*
X849576Y106140D01*
X849480Y106169D01*
X849386Y106202D01*
X849293Y106238D01*
X849202Y106278D01*
X849112Y106322D01*
X849024Y106369D01*
X848938Y106419D01*
X848854Y106473D01*
X848772Y106530D01*
X848693Y106590D01*
X848615Y106654D01*
X848541Y106720D01*
X848469Y106789D01*
X848400Y106861D01*
X848334Y106935D01*
X848270Y107013D01*
X848210Y107092D01*
X848153Y107174D01*
X848099Y107258D01*
X848049Y107344D01*
X848002Y107432D01*
X847958Y107522D01*
X847918Y107613D01*
X847882Y107706D01*
X847849Y107800D01*
X847820Y107896D01*
X847795Y107992D01*
X847774Y108089D01*
X847756Y108188D01*
X847743Y108286D01*
X847733Y108386D01*
X847727Y108485D01*
X847725Y108585D01*
X847725Y111125D01*
X847725Y118147D02*
X856615Y115607D01*
X856615Y121957D01*
X854075Y120052D02*
X859155Y120052D01*
D11*
X88900Y419100D02*
X88900Y425450D01*
X95250Y408940D02*
X82550Y408940D01*
X88900Y419100D01*
X88900Y403860D01*
X95250Y408940D02*
X88900Y419100D01*
X95250Y419100D01*
X88900Y419100D02*
X82550Y419100D01*
X99060Y398780D02*
X99058Y398680D01*
X99052Y398581D01*
X99042Y398481D01*
X99029Y398383D01*
X99011Y398284D01*
X98990Y398187D01*
X98965Y398091D01*
X98936Y397995D01*
X98903Y397901D01*
X98867Y397808D01*
X98827Y397717D01*
X98783Y397627D01*
X98736Y397539D01*
X98686Y397453D01*
X98632Y397369D01*
X98575Y397287D01*
X98515Y397208D01*
X98451Y397130D01*
X98385Y397056D01*
X98316Y396984D01*
X98244Y396915D01*
X98170Y396849D01*
X98092Y396785D01*
X98013Y396725D01*
X97931Y396668D01*
X97847Y396614D01*
X97761Y396564D01*
X97673Y396517D01*
X97583Y396473D01*
X97492Y396433D01*
X97399Y396397D01*
X97305Y396364D01*
X97209Y396335D01*
X97113Y396310D01*
X97016Y396289D01*
X96917Y396271D01*
X96819Y396258D01*
X96719Y396248D01*
X96620Y396242D01*
X96520Y396240D01*
X81280Y396240D01*
X81180Y396242D01*
X81081Y396248D01*
X80981Y396258D01*
X80883Y396271D01*
X80784Y396289D01*
X80687Y396310D01*
X80591Y396335D01*
X80495Y396364D01*
X80401Y396397D01*
X80308Y396433D01*
X80217Y396473D01*
X80127Y396517D01*
X80039Y396564D01*
X79953Y396614D01*
X79869Y396668D01*
X79787Y396725D01*
X79708Y396785D01*
X79630Y396849D01*
X79556Y396915D01*
X79484Y396984D01*
X79415Y397056D01*
X79349Y397130D01*
X79285Y397208D01*
X79225Y397287D01*
X79168Y397369D01*
X79114Y397453D01*
X79064Y397539D01*
X79017Y397627D01*
X78973Y397717D01*
X78933Y397808D01*
X78897Y397901D01*
X78864Y397995D01*
X78835Y398091D01*
X78810Y398187D01*
X78789Y398284D01*
X78771Y398383D01*
X78758Y398481D01*
X78748Y398581D01*
X78742Y398680D01*
X78740Y398780D01*
X99060Y439420D02*
X99058Y439520D01*
X99052Y439619D01*
X99042Y439719D01*
X99029Y439817D01*
X99011Y439916D01*
X98990Y440013D01*
X98965Y440109D01*
X98936Y440205D01*
X98903Y440299D01*
X98867Y440392D01*
X98827Y440483D01*
X98783Y440573D01*
X98736Y440661D01*
X98686Y440747D01*
X98632Y440831D01*
X98575Y440913D01*
X98515Y440992D01*
X98451Y441070D01*
X98385Y441144D01*
X98316Y441216D01*
X98244Y441285D01*
X98170Y441351D01*
X98092Y441415D01*
X98013Y441475D01*
X97931Y441532D01*
X97847Y441586D01*
X97761Y441636D01*
X97673Y441683D01*
X97583Y441727D01*
X97492Y441767D01*
X97399Y441803D01*
X97305Y441836D01*
X97209Y441865D01*
X97113Y441890D01*
X97016Y441911D01*
X96917Y441929D01*
X96819Y441942D01*
X96719Y441952D01*
X96620Y441958D01*
X96520Y441960D01*
X81280Y441960D02*
X81180Y441958D01*
X81081Y441952D01*
X80981Y441942D01*
X80883Y441929D01*
X80784Y441911D01*
X80687Y441890D01*
X80591Y441865D01*
X80495Y441836D01*
X80401Y441803D01*
X80308Y441767D01*
X80217Y441727D01*
X80127Y441683D01*
X80039Y441636D01*
X79953Y441586D01*
X79869Y441532D01*
X79787Y441475D01*
X79708Y441415D01*
X79630Y441351D01*
X79556Y441285D01*
X79484Y441216D01*
X79415Y441144D01*
X79349Y441070D01*
X79285Y440992D01*
X79225Y440913D01*
X79168Y440831D01*
X79114Y440747D01*
X79064Y440661D01*
X79017Y440573D01*
X78973Y440483D01*
X78933Y440392D01*
X78897Y440299D01*
X78864Y440205D01*
X78835Y440109D01*
X78810Y440013D01*
X78789Y439916D01*
X78771Y439817D01*
X78758Y439719D01*
X78748Y439619D01*
X78742Y439520D01*
X78740Y439420D01*
X78740Y398780D01*
X81280Y441960D02*
X96520Y441960D01*
X99060Y439420D02*
X99060Y398780D01*
D13*
X88900Y435610D03*
D14*
X88900Y393065D03*
X88900Y445135D03*
D12*
X102235Y423164D02*
X113665Y423164D01*
X102235Y423164D02*
X102235Y426339D01*
X102237Y426450D01*
X102243Y426560D01*
X102252Y426671D01*
X102266Y426781D01*
X102283Y426890D01*
X102304Y426999D01*
X102329Y427107D01*
X102358Y427214D01*
X102390Y427320D01*
X102426Y427425D01*
X102466Y427528D01*
X102509Y427630D01*
X102556Y427731D01*
X102607Y427830D01*
X102660Y427927D01*
X102717Y428021D01*
X102778Y428114D01*
X102841Y428205D01*
X102908Y428294D01*
X102978Y428380D01*
X103051Y428463D01*
X103126Y428545D01*
X103204Y428623D01*
X103286Y428698D01*
X103369Y428771D01*
X103455Y428841D01*
X103544Y428908D01*
X103635Y428971D01*
X103728Y429032D01*
X103823Y429089D01*
X103919Y429142D01*
X104018Y429193D01*
X104119Y429240D01*
X104221Y429283D01*
X104324Y429323D01*
X104429Y429359D01*
X104535Y429391D01*
X104642Y429420D01*
X104750Y429445D01*
X104859Y429466D01*
X104968Y429483D01*
X105078Y429497D01*
X105189Y429506D01*
X105299Y429512D01*
X105410Y429514D01*
X110490Y429514D01*
X110601Y429512D01*
X110711Y429506D01*
X110822Y429497D01*
X110932Y429483D01*
X111041Y429466D01*
X111150Y429445D01*
X111258Y429420D01*
X111365Y429391D01*
X111471Y429359D01*
X111576Y429323D01*
X111679Y429283D01*
X111781Y429240D01*
X111882Y429193D01*
X111981Y429142D01*
X112078Y429089D01*
X112172Y429032D01*
X112265Y428971D01*
X112356Y428908D01*
X112445Y428841D01*
X112531Y428771D01*
X112614Y428698D01*
X112696Y428623D01*
X112774Y428545D01*
X112849Y428463D01*
X112922Y428380D01*
X112992Y428294D01*
X113059Y428205D01*
X113122Y428114D01*
X113183Y428021D01*
X113240Y427927D01*
X113293Y427830D01*
X113344Y427731D01*
X113391Y427630D01*
X113434Y427528D01*
X113474Y427425D01*
X113510Y427320D01*
X113542Y427214D01*
X113571Y427107D01*
X113596Y426999D01*
X113617Y426890D01*
X113634Y426781D01*
X113648Y426671D01*
X113657Y426560D01*
X113663Y426450D01*
X113665Y426339D01*
X113665Y423164D01*
X104775Y434975D02*
X102235Y438150D01*
X113665Y438150D01*
X113665Y434975D02*
X113665Y441325D01*
D11*
X228600Y143510D02*
X406400Y143510D01*
X406400Y85090D02*
X228600Y85090D01*
X406400Y85090D02*
X406400Y143510D01*
X228600Y143510D02*
X228600Y124460D01*
X228600Y104140D02*
X228600Y85090D01*
X228600Y104140D02*
X228847Y104143D01*
X229095Y104152D01*
X229342Y104167D01*
X229588Y104188D01*
X229834Y104215D01*
X230079Y104248D01*
X230324Y104287D01*
X230567Y104332D01*
X230809Y104383D01*
X231050Y104440D01*
X231289Y104502D01*
X231527Y104571D01*
X231763Y104645D01*
X231997Y104725D01*
X232229Y104810D01*
X232459Y104902D01*
X232687Y104998D01*
X232912Y105101D01*
X233135Y105208D01*
X233355Y105322D01*
X233572Y105440D01*
X233787Y105564D01*
X233998Y105693D01*
X234206Y105827D01*
X234411Y105966D01*
X234612Y106110D01*
X234810Y106258D01*
X235004Y106412D01*
X235194Y106570D01*
X235380Y106733D01*
X235562Y106900D01*
X235740Y107072D01*
X235914Y107248D01*
X236084Y107428D01*
X236249Y107613D01*
X236409Y107801D01*
X236565Y107993D01*
X236717Y108189D01*
X236863Y108388D01*
X237005Y108591D01*
X237141Y108798D01*
X237273Y109007D01*
X237399Y109220D01*
X237520Y109436D01*
X237636Y109654D01*
X237746Y109876D01*
X237851Y110100D01*
X237951Y110326D01*
X238045Y110555D01*
X238133Y110786D01*
X238216Y111020D01*
X238293Y111255D01*
X238364Y111492D01*
X238430Y111730D01*
X238489Y111970D01*
X238543Y112212D01*
X238591Y112455D01*
X238633Y112698D01*
X238669Y112943D01*
X238699Y113189D01*
X238723Y113435D01*
X238741Y113682D01*
X238753Y113929D01*
X238759Y114176D01*
X238759Y114424D01*
X238753Y114671D01*
X238741Y114918D01*
X238723Y115165D01*
X238699Y115411D01*
X238669Y115657D01*
X238633Y115902D01*
X238591Y116145D01*
X238543Y116388D01*
X238489Y116630D01*
X238430Y116870D01*
X238364Y117108D01*
X238293Y117345D01*
X238216Y117580D01*
X238133Y117814D01*
X238045Y118045D01*
X237951Y118274D01*
X237851Y118500D01*
X237746Y118724D01*
X237636Y118946D01*
X237520Y119164D01*
X237399Y119380D01*
X237273Y119593D01*
X237141Y119802D01*
X237005Y120009D01*
X236863Y120212D01*
X236717Y120411D01*
X236565Y120607D01*
X236409Y120799D01*
X236249Y120987D01*
X236084Y121172D01*
X235914Y121352D01*
X235740Y121528D01*
X235562Y121700D01*
X235380Y121867D01*
X235194Y122030D01*
X235004Y122188D01*
X234810Y122342D01*
X234612Y122490D01*
X234411Y122634D01*
X234206Y122773D01*
X233998Y122907D01*
X233787Y123036D01*
X233572Y123160D01*
X233355Y123278D01*
X233135Y123392D01*
X232912Y123499D01*
X232687Y123602D01*
X232459Y123698D01*
X232229Y123790D01*
X231997Y123875D01*
X231763Y123955D01*
X231527Y124029D01*
X231289Y124098D01*
X231050Y124160D01*
X230809Y124217D01*
X230567Y124268D01*
X230324Y124313D01*
X230079Y124352D01*
X229834Y124385D01*
X229588Y124412D01*
X229342Y124433D01*
X229095Y124448D01*
X228847Y124457D01*
X228600Y124460D01*
D12*
X224155Y85725D02*
X212725Y85725D01*
X224155Y84455D02*
X224155Y86995D01*
X212725Y86995D02*
X212725Y84455D01*
X224155Y94197D02*
X224155Y96737D01*
X224155Y94197D02*
X224153Y94097D01*
X224147Y93998D01*
X224137Y93898D01*
X224124Y93800D01*
X224106Y93701D01*
X224085Y93604D01*
X224060Y93508D01*
X224031Y93412D01*
X223998Y93318D01*
X223962Y93225D01*
X223922Y93134D01*
X223878Y93044D01*
X223831Y92956D01*
X223781Y92870D01*
X223727Y92786D01*
X223670Y92704D01*
X223610Y92625D01*
X223546Y92547D01*
X223480Y92473D01*
X223411Y92401D01*
X223339Y92332D01*
X223265Y92266D01*
X223187Y92202D01*
X223108Y92142D01*
X223026Y92085D01*
X222942Y92031D01*
X222856Y91981D01*
X222768Y91934D01*
X222678Y91890D01*
X222587Y91850D01*
X222494Y91814D01*
X222400Y91781D01*
X222304Y91752D01*
X222208Y91727D01*
X222111Y91706D01*
X222012Y91688D01*
X221914Y91675D01*
X221814Y91665D01*
X221715Y91659D01*
X221615Y91657D01*
X215265Y91657D01*
X215165Y91659D01*
X215066Y91665D01*
X214966Y91675D01*
X214868Y91688D01*
X214769Y91706D01*
X214672Y91727D01*
X214576Y91752D01*
X214480Y91781D01*
X214386Y91814D01*
X214293Y91850D01*
X214202Y91890D01*
X214112Y91934D01*
X214024Y91981D01*
X213938Y92031D01*
X213854Y92085D01*
X213772Y92142D01*
X213693Y92202D01*
X213615Y92266D01*
X213541Y92332D01*
X213469Y92401D01*
X213400Y92473D01*
X213334Y92547D01*
X213270Y92625D01*
X213210Y92704D01*
X213153Y92786D01*
X213099Y92870D01*
X213049Y92956D01*
X213002Y93044D01*
X212958Y93134D01*
X212918Y93225D01*
X212882Y93318D01*
X212849Y93412D01*
X212820Y93508D01*
X212795Y93604D01*
X212774Y93701D01*
X212756Y93800D01*
X212743Y93898D01*
X212733Y93998D01*
X212727Y94097D01*
X212725Y94197D01*
X212725Y96737D01*
X215265Y101219D02*
X212725Y104394D01*
X224155Y104394D01*
X224155Y101219D02*
X224155Y107569D01*
D11*
X647700Y123190D02*
X850900Y123190D01*
X850900Y181610D02*
X647700Y181610D01*
X647700Y123190D01*
X850900Y123190D02*
X850900Y142240D01*
X850900Y162560D02*
X850900Y181610D01*
X850900Y162560D02*
X850653Y162557D01*
X850405Y162548D01*
X850158Y162533D01*
X849912Y162512D01*
X849666Y162485D01*
X849421Y162452D01*
X849176Y162413D01*
X848933Y162368D01*
X848691Y162317D01*
X848450Y162260D01*
X848211Y162198D01*
X847973Y162129D01*
X847737Y162055D01*
X847503Y161975D01*
X847271Y161890D01*
X847041Y161798D01*
X846813Y161702D01*
X846588Y161599D01*
X846365Y161492D01*
X846145Y161378D01*
X845928Y161260D01*
X845713Y161136D01*
X845502Y161007D01*
X845294Y160873D01*
X845089Y160734D01*
X844888Y160590D01*
X844690Y160442D01*
X844496Y160288D01*
X844306Y160130D01*
X844120Y159967D01*
X843938Y159800D01*
X843760Y159628D01*
X843586Y159452D01*
X843416Y159272D01*
X843251Y159087D01*
X843091Y158899D01*
X842935Y158707D01*
X842783Y158511D01*
X842637Y158312D01*
X842495Y158109D01*
X842359Y157902D01*
X842227Y157693D01*
X842101Y157480D01*
X841980Y157264D01*
X841864Y157046D01*
X841754Y156824D01*
X841649Y156600D01*
X841549Y156374D01*
X841455Y156145D01*
X841367Y155914D01*
X841284Y155680D01*
X841207Y155445D01*
X841136Y155208D01*
X841070Y154970D01*
X841011Y154730D01*
X840957Y154488D01*
X840909Y154245D01*
X840867Y154002D01*
X840831Y153757D01*
X840801Y153511D01*
X840777Y153265D01*
X840759Y153018D01*
X840747Y152771D01*
X840741Y152524D01*
X840741Y152276D01*
X840747Y152029D01*
X840759Y151782D01*
X840777Y151535D01*
X840801Y151289D01*
X840831Y151043D01*
X840867Y150798D01*
X840909Y150555D01*
X840957Y150312D01*
X841011Y150070D01*
X841070Y149830D01*
X841136Y149592D01*
X841207Y149355D01*
X841284Y149120D01*
X841367Y148886D01*
X841455Y148655D01*
X841549Y148426D01*
X841649Y148200D01*
X841754Y147976D01*
X841864Y147754D01*
X841980Y147536D01*
X842101Y147320D01*
X842227Y147107D01*
X842359Y146898D01*
X842495Y146691D01*
X842637Y146488D01*
X842783Y146289D01*
X842935Y146093D01*
X843091Y145901D01*
X843251Y145713D01*
X843416Y145528D01*
X843586Y145348D01*
X843760Y145172D01*
X843938Y145000D01*
X844120Y144833D01*
X844306Y144670D01*
X844496Y144512D01*
X844690Y144358D01*
X844888Y144210D01*
X845089Y144066D01*
X845294Y143927D01*
X845502Y143793D01*
X845713Y143664D01*
X845928Y143540D01*
X846145Y143422D01*
X846365Y143308D01*
X846588Y143201D01*
X846813Y143098D01*
X847041Y143002D01*
X847271Y142910D01*
X847503Y142825D01*
X847737Y142745D01*
X847973Y142671D01*
X848211Y142602D01*
X848450Y142540D01*
X848691Y142483D01*
X848933Y142432D01*
X849176Y142387D01*
X849421Y142348D01*
X849666Y142315D01*
X849912Y142288D01*
X850158Y142267D01*
X850405Y142252D01*
X850653Y142243D01*
X850900Y142240D01*
D12*
X855345Y159131D02*
X866775Y159131D01*
X866775Y157861D02*
X866775Y160401D01*
X855345Y160401D02*
X855345Y157861D01*
X866775Y167603D02*
X866775Y170143D01*
X866775Y167603D02*
X866773Y167503D01*
X866767Y167404D01*
X866757Y167304D01*
X866744Y167206D01*
X866726Y167107D01*
X866705Y167010D01*
X866680Y166914D01*
X866651Y166818D01*
X866618Y166724D01*
X866582Y166631D01*
X866542Y166540D01*
X866498Y166450D01*
X866451Y166362D01*
X866401Y166276D01*
X866347Y166192D01*
X866290Y166110D01*
X866230Y166031D01*
X866166Y165953D01*
X866100Y165879D01*
X866031Y165807D01*
X865959Y165738D01*
X865885Y165672D01*
X865807Y165608D01*
X865728Y165548D01*
X865646Y165491D01*
X865562Y165437D01*
X865476Y165387D01*
X865388Y165340D01*
X865298Y165296D01*
X865207Y165256D01*
X865114Y165220D01*
X865020Y165187D01*
X864924Y165158D01*
X864828Y165133D01*
X864731Y165112D01*
X864632Y165094D01*
X864534Y165081D01*
X864434Y165071D01*
X864335Y165065D01*
X864235Y165063D01*
X857885Y165063D01*
X857785Y165065D01*
X857686Y165071D01*
X857586Y165081D01*
X857488Y165094D01*
X857389Y165112D01*
X857292Y165133D01*
X857196Y165158D01*
X857100Y165187D01*
X857006Y165220D01*
X856913Y165256D01*
X856822Y165296D01*
X856732Y165340D01*
X856644Y165387D01*
X856558Y165437D01*
X856474Y165491D01*
X856392Y165548D01*
X856313Y165608D01*
X856235Y165672D01*
X856161Y165738D01*
X856089Y165807D01*
X856020Y165879D01*
X855954Y165953D01*
X855890Y166031D01*
X855830Y166110D01*
X855773Y166192D01*
X855719Y166276D01*
X855669Y166362D01*
X855622Y166450D01*
X855578Y166540D01*
X855538Y166631D01*
X855502Y166724D01*
X855469Y166818D01*
X855440Y166914D01*
X855415Y167010D01*
X855394Y167107D01*
X855376Y167206D01*
X855363Y167304D01*
X855353Y167404D01*
X855347Y167503D01*
X855345Y167603D01*
X855345Y170143D01*
X855345Y178118D02*
X855347Y178222D01*
X855353Y178327D01*
X855362Y178431D01*
X855375Y178534D01*
X855393Y178637D01*
X855413Y178739D01*
X855438Y178841D01*
X855466Y178941D01*
X855498Y179041D01*
X855534Y179139D01*
X855573Y179236D01*
X855615Y179331D01*
X855661Y179425D01*
X855711Y179517D01*
X855763Y179607D01*
X855819Y179695D01*
X855879Y179781D01*
X855941Y179865D01*
X856006Y179946D01*
X856074Y180025D01*
X856146Y180102D01*
X856219Y180175D01*
X856296Y180247D01*
X856375Y180315D01*
X856456Y180380D01*
X856540Y180442D01*
X856626Y180502D01*
X856714Y180558D01*
X856804Y180610D01*
X856896Y180660D01*
X856990Y180706D01*
X857085Y180748D01*
X857182Y180787D01*
X857280Y180823D01*
X857380Y180855D01*
X857480Y180883D01*
X857582Y180908D01*
X857684Y180928D01*
X857787Y180946D01*
X857890Y180959D01*
X857994Y180968D01*
X858099Y180974D01*
X858203Y180976D01*
X855345Y178118D02*
X855347Y178000D01*
X855353Y177881D01*
X855362Y177763D01*
X855375Y177646D01*
X855393Y177529D01*
X855413Y177412D01*
X855438Y177296D01*
X855466Y177181D01*
X855499Y177068D01*
X855534Y176955D01*
X855574Y176843D01*
X855616Y176733D01*
X855663Y176624D01*
X855713Y176516D01*
X855766Y176411D01*
X855823Y176307D01*
X855883Y176205D01*
X855946Y176105D01*
X856013Y176007D01*
X856082Y175911D01*
X856155Y175818D01*
X856231Y175727D01*
X856309Y175638D01*
X856391Y175552D01*
X856475Y175469D01*
X856561Y175388D01*
X856651Y175311D01*
X856742Y175236D01*
X856836Y175164D01*
X856933Y175095D01*
X857031Y175030D01*
X857132Y174967D01*
X857235Y174908D01*
X857339Y174852D01*
X857445Y174800D01*
X857553Y174751D01*
X857662Y174706D01*
X857773Y174664D01*
X857885Y174626D01*
X860425Y180023D02*
X860350Y180099D01*
X860271Y180174D01*
X860190Y180245D01*
X860106Y180314D01*
X860020Y180379D01*
X859932Y180441D01*
X859842Y180501D01*
X859750Y180557D01*
X859655Y180610D01*
X859559Y180659D01*
X859461Y180705D01*
X859362Y180748D01*
X859261Y180787D01*
X859159Y180822D01*
X859056Y180854D01*
X858952Y180882D01*
X858847Y180907D01*
X858740Y180928D01*
X858634Y180945D01*
X858527Y180958D01*
X858419Y180967D01*
X858311Y180973D01*
X858203Y180975D01*
X860425Y180023D02*
X866775Y174625D01*
X866775Y180975D01*
D11*
X406400Y549910D02*
X203200Y549910D01*
X203200Y491490D02*
X406400Y491490D01*
X406400Y549910D01*
X203200Y549910D02*
X203200Y530860D01*
X203200Y510540D02*
X203200Y491490D01*
X203200Y510540D02*
X203447Y510543D01*
X203695Y510552D01*
X203942Y510567D01*
X204188Y510588D01*
X204434Y510615D01*
X204679Y510648D01*
X204924Y510687D01*
X205167Y510732D01*
X205409Y510783D01*
X205650Y510840D01*
X205889Y510902D01*
X206127Y510971D01*
X206363Y511045D01*
X206597Y511125D01*
X206829Y511210D01*
X207059Y511302D01*
X207287Y511398D01*
X207512Y511501D01*
X207735Y511608D01*
X207955Y511722D01*
X208172Y511840D01*
X208387Y511964D01*
X208598Y512093D01*
X208806Y512227D01*
X209011Y512366D01*
X209212Y512510D01*
X209410Y512658D01*
X209604Y512812D01*
X209794Y512970D01*
X209980Y513133D01*
X210162Y513300D01*
X210340Y513472D01*
X210514Y513648D01*
X210684Y513828D01*
X210849Y514013D01*
X211009Y514201D01*
X211165Y514393D01*
X211317Y514589D01*
X211463Y514788D01*
X211605Y514991D01*
X211741Y515198D01*
X211873Y515407D01*
X211999Y515620D01*
X212120Y515836D01*
X212236Y516054D01*
X212346Y516276D01*
X212451Y516500D01*
X212551Y516726D01*
X212645Y516955D01*
X212733Y517186D01*
X212816Y517420D01*
X212893Y517655D01*
X212964Y517892D01*
X213030Y518130D01*
X213089Y518370D01*
X213143Y518612D01*
X213191Y518855D01*
X213233Y519098D01*
X213269Y519343D01*
X213299Y519589D01*
X213323Y519835D01*
X213341Y520082D01*
X213353Y520329D01*
X213359Y520576D01*
X213359Y520824D01*
X213353Y521071D01*
X213341Y521318D01*
X213323Y521565D01*
X213299Y521811D01*
X213269Y522057D01*
X213233Y522302D01*
X213191Y522545D01*
X213143Y522788D01*
X213089Y523030D01*
X213030Y523270D01*
X212964Y523508D01*
X212893Y523745D01*
X212816Y523980D01*
X212733Y524214D01*
X212645Y524445D01*
X212551Y524674D01*
X212451Y524900D01*
X212346Y525124D01*
X212236Y525346D01*
X212120Y525564D01*
X211999Y525780D01*
X211873Y525993D01*
X211741Y526202D01*
X211605Y526409D01*
X211463Y526612D01*
X211317Y526811D01*
X211165Y527007D01*
X211009Y527199D01*
X210849Y527387D01*
X210684Y527572D01*
X210514Y527752D01*
X210340Y527928D01*
X210162Y528100D01*
X209980Y528267D01*
X209794Y528430D01*
X209604Y528588D01*
X209410Y528742D01*
X209212Y528890D01*
X209011Y529034D01*
X208806Y529173D01*
X208598Y529307D01*
X208387Y529436D01*
X208172Y529560D01*
X207955Y529678D01*
X207735Y529792D01*
X207512Y529899D01*
X207287Y530002D01*
X207059Y530098D01*
X206829Y530190D01*
X206597Y530275D01*
X206363Y530355D01*
X206127Y530429D01*
X205889Y530498D01*
X205650Y530560D01*
X205409Y530617D01*
X205167Y530668D01*
X204924Y530713D01*
X204679Y530752D01*
X204434Y530785D01*
X204188Y530812D01*
X203942Y530833D01*
X203695Y530848D01*
X203447Y530857D01*
X203200Y530860D01*
D12*
X198755Y493395D02*
X187325Y493395D01*
X198755Y492125D02*
X198755Y494665D01*
X187325Y494665D02*
X187325Y492125D01*
X198755Y501867D02*
X198755Y504407D01*
X198755Y501867D02*
X198753Y501767D01*
X198747Y501668D01*
X198737Y501568D01*
X198724Y501470D01*
X198706Y501371D01*
X198685Y501274D01*
X198660Y501178D01*
X198631Y501082D01*
X198598Y500988D01*
X198562Y500895D01*
X198522Y500804D01*
X198478Y500714D01*
X198431Y500626D01*
X198381Y500540D01*
X198327Y500456D01*
X198270Y500374D01*
X198210Y500295D01*
X198146Y500217D01*
X198080Y500143D01*
X198011Y500071D01*
X197939Y500002D01*
X197865Y499936D01*
X197787Y499872D01*
X197708Y499812D01*
X197626Y499755D01*
X197542Y499701D01*
X197456Y499651D01*
X197368Y499604D01*
X197278Y499560D01*
X197187Y499520D01*
X197094Y499484D01*
X197000Y499451D01*
X196904Y499422D01*
X196808Y499397D01*
X196711Y499376D01*
X196612Y499358D01*
X196514Y499345D01*
X196414Y499335D01*
X196315Y499329D01*
X196215Y499327D01*
X189865Y499327D01*
X189765Y499329D01*
X189666Y499335D01*
X189566Y499345D01*
X189468Y499358D01*
X189369Y499376D01*
X189272Y499397D01*
X189176Y499422D01*
X189080Y499451D01*
X188986Y499484D01*
X188893Y499520D01*
X188802Y499560D01*
X188712Y499604D01*
X188624Y499651D01*
X188538Y499701D01*
X188454Y499755D01*
X188372Y499812D01*
X188293Y499872D01*
X188215Y499936D01*
X188141Y500002D01*
X188069Y500071D01*
X188000Y500143D01*
X187934Y500217D01*
X187870Y500295D01*
X187810Y500374D01*
X187753Y500456D01*
X187699Y500540D01*
X187649Y500626D01*
X187602Y500714D01*
X187558Y500804D01*
X187518Y500895D01*
X187482Y500988D01*
X187449Y501082D01*
X187420Y501178D01*
X187395Y501274D01*
X187374Y501371D01*
X187356Y501470D01*
X187343Y501568D01*
X187333Y501668D01*
X187327Y501767D01*
X187325Y501867D01*
X187325Y504407D01*
X198755Y508889D02*
X198755Y512064D01*
X198753Y512175D01*
X198747Y512285D01*
X198738Y512396D01*
X198724Y512506D01*
X198707Y512615D01*
X198686Y512724D01*
X198661Y512832D01*
X198632Y512939D01*
X198600Y513045D01*
X198564Y513150D01*
X198524Y513253D01*
X198481Y513355D01*
X198434Y513456D01*
X198383Y513555D01*
X198330Y513652D01*
X198273Y513746D01*
X198212Y513839D01*
X198149Y513930D01*
X198082Y514019D01*
X198012Y514105D01*
X197939Y514188D01*
X197864Y514270D01*
X197786Y514348D01*
X197704Y514423D01*
X197621Y514496D01*
X197535Y514566D01*
X197446Y514633D01*
X197355Y514696D01*
X197262Y514757D01*
X197168Y514814D01*
X197071Y514867D01*
X196972Y514918D01*
X196871Y514965D01*
X196769Y515008D01*
X196666Y515048D01*
X196561Y515084D01*
X196455Y515116D01*
X196348Y515145D01*
X196240Y515170D01*
X196131Y515191D01*
X196022Y515208D01*
X195912Y515222D01*
X195801Y515231D01*
X195691Y515237D01*
X195580Y515239D01*
X195469Y515237D01*
X195359Y515231D01*
X195248Y515222D01*
X195138Y515208D01*
X195029Y515191D01*
X194920Y515170D01*
X194812Y515145D01*
X194705Y515116D01*
X194599Y515084D01*
X194494Y515048D01*
X194391Y515008D01*
X194289Y514965D01*
X194188Y514918D01*
X194089Y514867D01*
X193993Y514814D01*
X193898Y514757D01*
X193805Y514696D01*
X193714Y514633D01*
X193625Y514566D01*
X193539Y514496D01*
X193456Y514423D01*
X193374Y514348D01*
X193296Y514270D01*
X193221Y514188D01*
X193148Y514105D01*
X193078Y514019D01*
X193011Y513930D01*
X192948Y513839D01*
X192887Y513746D01*
X192830Y513652D01*
X192777Y513555D01*
X192726Y513456D01*
X192679Y513355D01*
X192636Y513253D01*
X192596Y513150D01*
X192560Y513045D01*
X192528Y512939D01*
X192499Y512832D01*
X192474Y512724D01*
X192453Y512615D01*
X192436Y512506D01*
X192422Y512396D01*
X192413Y512285D01*
X192407Y512175D01*
X192405Y512064D01*
X187325Y512699D02*
X187325Y508889D01*
X187325Y512699D02*
X187327Y512799D01*
X187333Y512898D01*
X187343Y512998D01*
X187356Y513096D01*
X187374Y513195D01*
X187395Y513292D01*
X187420Y513388D01*
X187449Y513484D01*
X187482Y513578D01*
X187518Y513671D01*
X187558Y513762D01*
X187602Y513852D01*
X187649Y513940D01*
X187699Y514026D01*
X187753Y514110D01*
X187810Y514192D01*
X187870Y514271D01*
X187934Y514349D01*
X188000Y514423D01*
X188069Y514495D01*
X188141Y514564D01*
X188215Y514630D01*
X188293Y514694D01*
X188372Y514754D01*
X188454Y514811D01*
X188538Y514865D01*
X188624Y514915D01*
X188712Y514962D01*
X188802Y515006D01*
X188893Y515046D01*
X188986Y515082D01*
X189080Y515115D01*
X189176Y515144D01*
X189272Y515169D01*
X189369Y515190D01*
X189468Y515208D01*
X189566Y515221D01*
X189666Y515231D01*
X189765Y515237D01*
X189865Y515239D01*
X189965Y515237D01*
X190064Y515231D01*
X190164Y515221D01*
X190262Y515208D01*
X190361Y515190D01*
X190458Y515169D01*
X190554Y515144D01*
X190650Y515115D01*
X190744Y515082D01*
X190837Y515046D01*
X190928Y515006D01*
X191018Y514962D01*
X191106Y514915D01*
X191192Y514865D01*
X191276Y514811D01*
X191358Y514754D01*
X191437Y514694D01*
X191515Y514630D01*
X191589Y514564D01*
X191661Y514495D01*
X191730Y514423D01*
X191796Y514349D01*
X191860Y514271D01*
X191920Y514192D01*
X191977Y514110D01*
X192031Y514026D01*
X192081Y513940D01*
X192128Y513852D01*
X192172Y513762D01*
X192212Y513671D01*
X192248Y513578D01*
X192281Y513484D01*
X192310Y513388D01*
X192335Y513292D01*
X192356Y513195D01*
X192374Y513096D01*
X192387Y512998D01*
X192397Y512898D01*
X192403Y512799D01*
X192405Y512699D01*
X192405Y510159D01*
D11*
X1079500Y440690D02*
X1282700Y440690D01*
X1282700Y499110D02*
X1079500Y499110D01*
X1079500Y440690D01*
X1282700Y440690D02*
X1282700Y459740D01*
X1282700Y480060D02*
X1282700Y499110D01*
X1282700Y480060D02*
X1282453Y480057D01*
X1282205Y480048D01*
X1281958Y480033D01*
X1281712Y480012D01*
X1281466Y479985D01*
X1281221Y479952D01*
X1280976Y479913D01*
X1280733Y479868D01*
X1280491Y479817D01*
X1280250Y479760D01*
X1280011Y479698D01*
X1279773Y479629D01*
X1279537Y479555D01*
X1279303Y479475D01*
X1279071Y479390D01*
X1278841Y479298D01*
X1278613Y479202D01*
X1278388Y479099D01*
X1278165Y478992D01*
X1277945Y478878D01*
X1277728Y478760D01*
X1277513Y478636D01*
X1277302Y478507D01*
X1277094Y478373D01*
X1276889Y478234D01*
X1276688Y478090D01*
X1276490Y477942D01*
X1276296Y477788D01*
X1276106Y477630D01*
X1275920Y477467D01*
X1275738Y477300D01*
X1275560Y477128D01*
X1275386Y476952D01*
X1275216Y476772D01*
X1275051Y476587D01*
X1274891Y476399D01*
X1274735Y476207D01*
X1274583Y476011D01*
X1274437Y475812D01*
X1274295Y475609D01*
X1274159Y475402D01*
X1274027Y475193D01*
X1273901Y474980D01*
X1273780Y474764D01*
X1273664Y474546D01*
X1273554Y474324D01*
X1273449Y474100D01*
X1273349Y473874D01*
X1273255Y473645D01*
X1273167Y473414D01*
X1273084Y473180D01*
X1273007Y472945D01*
X1272936Y472708D01*
X1272870Y472470D01*
X1272811Y472230D01*
X1272757Y471988D01*
X1272709Y471745D01*
X1272667Y471502D01*
X1272631Y471257D01*
X1272601Y471011D01*
X1272577Y470765D01*
X1272559Y470518D01*
X1272547Y470271D01*
X1272541Y470024D01*
X1272541Y469776D01*
X1272547Y469529D01*
X1272559Y469282D01*
X1272577Y469035D01*
X1272601Y468789D01*
X1272631Y468543D01*
X1272667Y468298D01*
X1272709Y468055D01*
X1272757Y467812D01*
X1272811Y467570D01*
X1272870Y467330D01*
X1272936Y467092D01*
X1273007Y466855D01*
X1273084Y466620D01*
X1273167Y466386D01*
X1273255Y466155D01*
X1273349Y465926D01*
X1273449Y465700D01*
X1273554Y465476D01*
X1273664Y465254D01*
X1273780Y465036D01*
X1273901Y464820D01*
X1274027Y464607D01*
X1274159Y464398D01*
X1274295Y464191D01*
X1274437Y463988D01*
X1274583Y463789D01*
X1274735Y463593D01*
X1274891Y463401D01*
X1275051Y463213D01*
X1275216Y463028D01*
X1275386Y462848D01*
X1275560Y462672D01*
X1275738Y462500D01*
X1275920Y462333D01*
X1276106Y462170D01*
X1276296Y462012D01*
X1276490Y461858D01*
X1276688Y461710D01*
X1276889Y461566D01*
X1277094Y461427D01*
X1277302Y461293D01*
X1277513Y461164D01*
X1277728Y461040D01*
X1277945Y460922D01*
X1278165Y460808D01*
X1278388Y460701D01*
X1278613Y460598D01*
X1278841Y460502D01*
X1279071Y460410D01*
X1279303Y460325D01*
X1279537Y460245D01*
X1279773Y460171D01*
X1280011Y460102D01*
X1280250Y460040D01*
X1280491Y459983D01*
X1280733Y459932D01*
X1280976Y459887D01*
X1281221Y459848D01*
X1281466Y459815D01*
X1281712Y459788D01*
X1281958Y459767D01*
X1282205Y459752D01*
X1282453Y459743D01*
X1282700Y459740D01*
D12*
X1287145Y476631D02*
X1298575Y476631D01*
X1298575Y475361D02*
X1298575Y477901D01*
X1287145Y477901D02*
X1287145Y475361D01*
X1298575Y485103D02*
X1298575Y487643D01*
X1298575Y485103D02*
X1298573Y485003D01*
X1298567Y484904D01*
X1298557Y484804D01*
X1298544Y484706D01*
X1298526Y484607D01*
X1298505Y484510D01*
X1298480Y484414D01*
X1298451Y484318D01*
X1298418Y484224D01*
X1298382Y484131D01*
X1298342Y484040D01*
X1298298Y483950D01*
X1298251Y483862D01*
X1298201Y483776D01*
X1298147Y483692D01*
X1298090Y483610D01*
X1298030Y483531D01*
X1297966Y483453D01*
X1297900Y483379D01*
X1297831Y483307D01*
X1297759Y483238D01*
X1297685Y483172D01*
X1297607Y483108D01*
X1297528Y483048D01*
X1297446Y482991D01*
X1297362Y482937D01*
X1297276Y482887D01*
X1297188Y482840D01*
X1297098Y482796D01*
X1297007Y482756D01*
X1296914Y482720D01*
X1296820Y482687D01*
X1296724Y482658D01*
X1296628Y482633D01*
X1296531Y482612D01*
X1296432Y482594D01*
X1296334Y482581D01*
X1296234Y482571D01*
X1296135Y482565D01*
X1296035Y482563D01*
X1289685Y482563D01*
X1289585Y482565D01*
X1289486Y482571D01*
X1289386Y482581D01*
X1289288Y482594D01*
X1289189Y482612D01*
X1289092Y482633D01*
X1288996Y482658D01*
X1288900Y482687D01*
X1288806Y482720D01*
X1288713Y482756D01*
X1288622Y482796D01*
X1288532Y482840D01*
X1288444Y482887D01*
X1288358Y482937D01*
X1288274Y482991D01*
X1288192Y483048D01*
X1288113Y483108D01*
X1288035Y483172D01*
X1287961Y483238D01*
X1287889Y483307D01*
X1287820Y483379D01*
X1287754Y483453D01*
X1287690Y483531D01*
X1287630Y483610D01*
X1287573Y483692D01*
X1287519Y483776D01*
X1287469Y483862D01*
X1287422Y483950D01*
X1287378Y484040D01*
X1287338Y484131D01*
X1287302Y484224D01*
X1287269Y484318D01*
X1287240Y484414D01*
X1287215Y484510D01*
X1287194Y484607D01*
X1287176Y484706D01*
X1287163Y484804D01*
X1287153Y484904D01*
X1287147Y485003D01*
X1287145Y485103D01*
X1287145Y487643D01*
X1287145Y494665D02*
X1296035Y492125D01*
X1296035Y498475D01*
X1293495Y496570D02*
X1298575Y496570D01*
D11*
X1273810Y203200D02*
X1273810Y25400D01*
X1215390Y25400D02*
X1215390Y203200D01*
X1215390Y25400D02*
X1273810Y25400D01*
X1273810Y203200D02*
X1254760Y203200D01*
X1234440Y203200D02*
X1215390Y203200D01*
X1234440Y203200D02*
X1234443Y202953D01*
X1234452Y202705D01*
X1234467Y202458D01*
X1234488Y202212D01*
X1234515Y201966D01*
X1234548Y201721D01*
X1234587Y201476D01*
X1234632Y201233D01*
X1234683Y200991D01*
X1234740Y200750D01*
X1234802Y200511D01*
X1234871Y200273D01*
X1234945Y200037D01*
X1235025Y199803D01*
X1235110Y199571D01*
X1235202Y199341D01*
X1235298Y199113D01*
X1235401Y198888D01*
X1235508Y198665D01*
X1235622Y198445D01*
X1235740Y198228D01*
X1235864Y198013D01*
X1235993Y197802D01*
X1236127Y197594D01*
X1236266Y197389D01*
X1236410Y197188D01*
X1236558Y196990D01*
X1236712Y196796D01*
X1236870Y196606D01*
X1237033Y196420D01*
X1237200Y196238D01*
X1237372Y196060D01*
X1237548Y195886D01*
X1237728Y195716D01*
X1237913Y195551D01*
X1238101Y195391D01*
X1238293Y195235D01*
X1238489Y195083D01*
X1238688Y194937D01*
X1238891Y194795D01*
X1239098Y194659D01*
X1239307Y194527D01*
X1239520Y194401D01*
X1239736Y194280D01*
X1239954Y194164D01*
X1240176Y194054D01*
X1240400Y193949D01*
X1240626Y193849D01*
X1240855Y193755D01*
X1241086Y193667D01*
X1241320Y193584D01*
X1241555Y193507D01*
X1241792Y193436D01*
X1242030Y193370D01*
X1242270Y193311D01*
X1242512Y193257D01*
X1242755Y193209D01*
X1242998Y193167D01*
X1243243Y193131D01*
X1243489Y193101D01*
X1243735Y193077D01*
X1243982Y193059D01*
X1244229Y193047D01*
X1244476Y193041D01*
X1244724Y193041D01*
X1244971Y193047D01*
X1245218Y193059D01*
X1245465Y193077D01*
X1245711Y193101D01*
X1245957Y193131D01*
X1246202Y193167D01*
X1246445Y193209D01*
X1246688Y193257D01*
X1246930Y193311D01*
X1247170Y193370D01*
X1247408Y193436D01*
X1247645Y193507D01*
X1247880Y193584D01*
X1248114Y193667D01*
X1248345Y193755D01*
X1248574Y193849D01*
X1248800Y193949D01*
X1249024Y194054D01*
X1249246Y194164D01*
X1249464Y194280D01*
X1249680Y194401D01*
X1249893Y194527D01*
X1250102Y194659D01*
X1250309Y194795D01*
X1250512Y194937D01*
X1250711Y195083D01*
X1250907Y195235D01*
X1251099Y195391D01*
X1251287Y195551D01*
X1251472Y195716D01*
X1251652Y195886D01*
X1251828Y196060D01*
X1252000Y196238D01*
X1252167Y196420D01*
X1252330Y196606D01*
X1252488Y196796D01*
X1252642Y196990D01*
X1252790Y197188D01*
X1252934Y197389D01*
X1253073Y197594D01*
X1253207Y197802D01*
X1253336Y198013D01*
X1253460Y198228D01*
X1253578Y198445D01*
X1253692Y198665D01*
X1253799Y198888D01*
X1253902Y199113D01*
X1253998Y199341D01*
X1254090Y199571D01*
X1254175Y199803D01*
X1254255Y200037D01*
X1254329Y200273D01*
X1254398Y200511D01*
X1254460Y200750D01*
X1254517Y200991D01*
X1254568Y201233D01*
X1254613Y201476D01*
X1254652Y201721D01*
X1254685Y201966D01*
X1254712Y202212D01*
X1254733Y202458D01*
X1254748Y202705D01*
X1254757Y202953D01*
X1254760Y203200D01*
D12*
X1216025Y207645D02*
X1216025Y219075D01*
X1214755Y207645D02*
X1217295Y207645D01*
X1217295Y219075D02*
X1214755Y219075D01*
X1224497Y207645D02*
X1227037Y207645D01*
X1224497Y207645D02*
X1224397Y207647D01*
X1224298Y207653D01*
X1224198Y207663D01*
X1224100Y207676D01*
X1224001Y207694D01*
X1223904Y207715D01*
X1223808Y207740D01*
X1223712Y207769D01*
X1223618Y207802D01*
X1223525Y207838D01*
X1223434Y207878D01*
X1223344Y207922D01*
X1223256Y207969D01*
X1223170Y208019D01*
X1223086Y208073D01*
X1223004Y208130D01*
X1222925Y208190D01*
X1222847Y208254D01*
X1222773Y208320D01*
X1222701Y208389D01*
X1222632Y208461D01*
X1222566Y208535D01*
X1222502Y208613D01*
X1222442Y208692D01*
X1222385Y208774D01*
X1222331Y208858D01*
X1222281Y208944D01*
X1222234Y209032D01*
X1222190Y209122D01*
X1222150Y209213D01*
X1222114Y209306D01*
X1222081Y209400D01*
X1222052Y209496D01*
X1222027Y209592D01*
X1222006Y209689D01*
X1221988Y209788D01*
X1221975Y209886D01*
X1221965Y209986D01*
X1221959Y210085D01*
X1221957Y210185D01*
X1221957Y216535D01*
X1221959Y216635D01*
X1221965Y216734D01*
X1221975Y216834D01*
X1221988Y216932D01*
X1222006Y217031D01*
X1222027Y217128D01*
X1222052Y217224D01*
X1222081Y217320D01*
X1222114Y217414D01*
X1222150Y217507D01*
X1222190Y217598D01*
X1222234Y217688D01*
X1222281Y217776D01*
X1222331Y217862D01*
X1222385Y217946D01*
X1222442Y218028D01*
X1222502Y218107D01*
X1222566Y218185D01*
X1222632Y218259D01*
X1222701Y218331D01*
X1222773Y218400D01*
X1222847Y218466D01*
X1222925Y218530D01*
X1223004Y218590D01*
X1223086Y218647D01*
X1223170Y218701D01*
X1223256Y218751D01*
X1223344Y218798D01*
X1223434Y218842D01*
X1223525Y218882D01*
X1223618Y218918D01*
X1223712Y218951D01*
X1223808Y218980D01*
X1223904Y219005D01*
X1224001Y219026D01*
X1224100Y219044D01*
X1224198Y219057D01*
X1224298Y219067D01*
X1224397Y219073D01*
X1224497Y219075D01*
X1227037Y219075D01*
X1231519Y207645D02*
X1235329Y207645D01*
X1235429Y207647D01*
X1235528Y207653D01*
X1235628Y207663D01*
X1235726Y207676D01*
X1235825Y207694D01*
X1235922Y207715D01*
X1236018Y207740D01*
X1236114Y207769D01*
X1236208Y207802D01*
X1236301Y207838D01*
X1236392Y207878D01*
X1236482Y207922D01*
X1236570Y207969D01*
X1236656Y208019D01*
X1236740Y208073D01*
X1236822Y208130D01*
X1236901Y208190D01*
X1236979Y208254D01*
X1237053Y208320D01*
X1237125Y208389D01*
X1237194Y208461D01*
X1237260Y208535D01*
X1237324Y208613D01*
X1237384Y208692D01*
X1237441Y208774D01*
X1237495Y208858D01*
X1237545Y208944D01*
X1237592Y209032D01*
X1237636Y209122D01*
X1237676Y209213D01*
X1237712Y209306D01*
X1237745Y209400D01*
X1237774Y209496D01*
X1237799Y209592D01*
X1237820Y209689D01*
X1237838Y209788D01*
X1237851Y209886D01*
X1237861Y209986D01*
X1237867Y210085D01*
X1237869Y210185D01*
X1237869Y211455D01*
X1237867Y211555D01*
X1237861Y211654D01*
X1237851Y211754D01*
X1237838Y211852D01*
X1237820Y211951D01*
X1237799Y212048D01*
X1237774Y212144D01*
X1237745Y212240D01*
X1237712Y212334D01*
X1237676Y212427D01*
X1237636Y212518D01*
X1237592Y212608D01*
X1237545Y212696D01*
X1237495Y212782D01*
X1237441Y212866D01*
X1237384Y212948D01*
X1237324Y213027D01*
X1237260Y213105D01*
X1237194Y213179D01*
X1237125Y213251D01*
X1237053Y213320D01*
X1236979Y213386D01*
X1236901Y213450D01*
X1236822Y213510D01*
X1236740Y213567D01*
X1236656Y213621D01*
X1236570Y213671D01*
X1236482Y213718D01*
X1236392Y213762D01*
X1236301Y213802D01*
X1236208Y213838D01*
X1236114Y213871D01*
X1236018Y213900D01*
X1235922Y213925D01*
X1235825Y213946D01*
X1235726Y213964D01*
X1235628Y213977D01*
X1235528Y213987D01*
X1235429Y213993D01*
X1235329Y213995D01*
X1231519Y213995D01*
X1231519Y219075D01*
X1237869Y219075D01*
X14944Y879277D02*
X14944Y883031D01*
X14943Y879277D02*
X14941Y879212D01*
X14935Y879148D01*
X14925Y879084D01*
X14912Y879020D01*
X14894Y878958D01*
X14873Y878897D01*
X14849Y878837D01*
X14820Y878779D01*
X14788Y878722D01*
X14753Y878668D01*
X14715Y878616D01*
X14673Y878566D01*
X14629Y878519D01*
X14582Y878475D01*
X14532Y878433D01*
X14480Y878395D01*
X14426Y878360D01*
X14369Y878328D01*
X14311Y878299D01*
X14251Y878275D01*
X14190Y878254D01*
X14128Y878236D01*
X14064Y878223D01*
X14000Y878213D01*
X13936Y878207D01*
X13871Y878205D01*
X13335Y878205D01*
X17892Y881959D02*
X19232Y883031D01*
X19232Y878205D01*
X17892Y878205D02*
X20573Y878205D01*
D11*
X12700Y120650D02*
X19050Y114300D01*
X12700Y120650D02*
X12700Y133350D01*
X19050Y139700D01*
X31750Y139700D01*
X38100Y133350D01*
X38100Y120650D01*
X31750Y114300D01*
X12700Y82550D02*
X12700Y69850D01*
X12700Y82550D02*
X19050Y88900D01*
X31750Y88900D01*
X38100Y82550D01*
X19050Y88900D02*
X12700Y95250D01*
X12700Y107950D01*
X19050Y114300D01*
X31750Y114300D01*
X38100Y107950D01*
X38100Y95250D01*
X31750Y88900D01*
X31750Y63500D02*
X19050Y63500D01*
X12700Y69850D01*
X31750Y63500D02*
X38100Y69850D01*
X38100Y82550D01*
X12700Y146050D02*
X12700Y158750D01*
X19050Y165100D01*
X31750Y165100D01*
X38100Y158750D01*
X19050Y139700D02*
X12700Y146050D01*
X31750Y139700D02*
X38100Y146050D01*
X38100Y158750D01*
D12*
X3937Y67183D02*
X-4953Y67183D01*
X3937Y67183D02*
X4037Y67181D01*
X4136Y67175D01*
X4236Y67165D01*
X4334Y67152D01*
X4433Y67134D01*
X4530Y67113D01*
X4626Y67088D01*
X4722Y67059D01*
X4816Y67026D01*
X4909Y66990D01*
X5000Y66950D01*
X5090Y66906D01*
X5178Y66859D01*
X5264Y66809D01*
X5348Y66755D01*
X5430Y66698D01*
X5509Y66638D01*
X5587Y66574D01*
X5661Y66508D01*
X5733Y66439D01*
X5802Y66367D01*
X5868Y66293D01*
X5932Y66215D01*
X5992Y66136D01*
X6049Y66054D01*
X6103Y65970D01*
X6153Y65884D01*
X6200Y65796D01*
X6244Y65706D01*
X6284Y65615D01*
X6320Y65522D01*
X6353Y65428D01*
X6382Y65332D01*
X6407Y65236D01*
X6428Y65139D01*
X6446Y65040D01*
X6459Y64942D01*
X6469Y64842D01*
X6475Y64743D01*
X6477Y64643D01*
X6477Y63373D01*
X6477Y73163D02*
X-4953Y73163D01*
X-4953Y76338D01*
X-4951Y76449D01*
X-4945Y76559D01*
X-4936Y76670D01*
X-4922Y76780D01*
X-4905Y76889D01*
X-4884Y76998D01*
X-4859Y77106D01*
X-4830Y77213D01*
X-4798Y77319D01*
X-4762Y77424D01*
X-4722Y77527D01*
X-4679Y77629D01*
X-4632Y77730D01*
X-4581Y77829D01*
X-4528Y77925D01*
X-4471Y78020D01*
X-4410Y78113D01*
X-4347Y78204D01*
X-4280Y78293D01*
X-4210Y78379D01*
X-4137Y78462D01*
X-4062Y78544D01*
X-3984Y78622D01*
X-3902Y78697D01*
X-3819Y78770D01*
X-3733Y78840D01*
X-3644Y78907D01*
X-3553Y78970D01*
X-3460Y79031D01*
X-3366Y79088D01*
X-3269Y79141D01*
X-3170Y79192D01*
X-3069Y79239D01*
X-2967Y79282D01*
X-2864Y79322D01*
X-2759Y79358D01*
X-2653Y79390D01*
X-2546Y79419D01*
X-2438Y79444D01*
X-2329Y79465D01*
X-2220Y79482D01*
X-2110Y79496D01*
X-1999Y79505D01*
X-1889Y79511D01*
X-1778Y79513D01*
X-1667Y79511D01*
X-1557Y79505D01*
X-1446Y79496D01*
X-1336Y79482D01*
X-1227Y79465D01*
X-1118Y79444D01*
X-1010Y79419D01*
X-903Y79390D01*
X-797Y79358D01*
X-692Y79322D01*
X-589Y79282D01*
X-487Y79239D01*
X-386Y79192D01*
X-287Y79141D01*
X-191Y79088D01*
X-96Y79031D01*
X-3Y78970D01*
X88Y78907D01*
X177Y78840D01*
X263Y78770D01*
X346Y78697D01*
X428Y78622D01*
X506Y78544D01*
X581Y78462D01*
X654Y78379D01*
X724Y78293D01*
X791Y78204D01*
X854Y78113D01*
X915Y78020D01*
X972Y77926D01*
X1025Y77829D01*
X1076Y77730D01*
X1123Y77629D01*
X1166Y77527D01*
X1206Y77424D01*
X1242Y77319D01*
X1274Y77213D01*
X1303Y77106D01*
X1328Y76998D01*
X1349Y76889D01*
X1366Y76780D01*
X1380Y76670D01*
X1389Y76559D01*
X1395Y76449D01*
X1397Y76338D01*
X1397Y73163D01*
X-2413Y84022D02*
X-4953Y87197D01*
X6477Y87197D01*
X6477Y84022D02*
X6477Y90372D01*
D11*
X116840Y40640D02*
X116842Y40540D01*
X116848Y40441D01*
X116858Y40341D01*
X116871Y40243D01*
X116889Y40144D01*
X116910Y40047D01*
X116935Y39951D01*
X116964Y39855D01*
X116997Y39761D01*
X117033Y39668D01*
X117073Y39577D01*
X117117Y39487D01*
X117164Y39399D01*
X117214Y39313D01*
X117268Y39229D01*
X117325Y39147D01*
X117385Y39068D01*
X117449Y38990D01*
X117515Y38916D01*
X117584Y38844D01*
X117656Y38775D01*
X117730Y38709D01*
X117808Y38645D01*
X117887Y38585D01*
X117969Y38528D01*
X118053Y38474D01*
X118139Y38424D01*
X118227Y38377D01*
X118317Y38333D01*
X118408Y38293D01*
X118501Y38257D01*
X118595Y38224D01*
X118691Y38195D01*
X118787Y38170D01*
X118884Y38149D01*
X118983Y38131D01*
X119081Y38118D01*
X119181Y38108D01*
X119280Y38102D01*
X119380Y38100D01*
X134620Y38100D02*
X134720Y38102D01*
X134819Y38108D01*
X134919Y38118D01*
X135017Y38131D01*
X135116Y38149D01*
X135213Y38170D01*
X135309Y38195D01*
X135405Y38224D01*
X135499Y38257D01*
X135592Y38293D01*
X135683Y38333D01*
X135773Y38377D01*
X135861Y38424D01*
X135947Y38474D01*
X136031Y38528D01*
X136113Y38585D01*
X136192Y38645D01*
X136270Y38709D01*
X136344Y38775D01*
X136416Y38844D01*
X136485Y38916D01*
X136551Y38990D01*
X136615Y39068D01*
X136675Y39147D01*
X136732Y39229D01*
X136786Y39313D01*
X136836Y39399D01*
X136883Y39487D01*
X136927Y39577D01*
X136967Y39668D01*
X137003Y39761D01*
X137036Y39855D01*
X137065Y39951D01*
X137090Y40047D01*
X137111Y40144D01*
X137129Y40243D01*
X137142Y40341D01*
X137152Y40441D01*
X137158Y40540D01*
X137160Y40640D01*
X137160Y86360D02*
X137158Y86460D01*
X137152Y86559D01*
X137142Y86659D01*
X137129Y86757D01*
X137111Y86856D01*
X137090Y86953D01*
X137065Y87049D01*
X137036Y87145D01*
X137003Y87239D01*
X136967Y87332D01*
X136927Y87423D01*
X136883Y87513D01*
X136836Y87601D01*
X136786Y87687D01*
X136732Y87771D01*
X136675Y87853D01*
X136615Y87932D01*
X136551Y88010D01*
X136485Y88084D01*
X136416Y88156D01*
X136344Y88225D01*
X136270Y88291D01*
X136192Y88355D01*
X136113Y88415D01*
X136031Y88472D01*
X135947Y88526D01*
X135861Y88576D01*
X135773Y88623D01*
X135683Y88667D01*
X135592Y88707D01*
X135499Y88743D01*
X135405Y88776D01*
X135309Y88805D01*
X135213Y88830D01*
X135116Y88851D01*
X135017Y88869D01*
X134919Y88882D01*
X134819Y88892D01*
X134720Y88898D01*
X134620Y88900D01*
X119380Y88900D02*
X119280Y88898D01*
X119181Y88892D01*
X119081Y88882D01*
X118983Y88869D01*
X118884Y88851D01*
X118787Y88830D01*
X118691Y88805D01*
X118595Y88776D01*
X118501Y88743D01*
X118408Y88707D01*
X118317Y88667D01*
X118227Y88623D01*
X118139Y88576D01*
X118053Y88526D01*
X117969Y88472D01*
X117887Y88415D01*
X117808Y88355D01*
X117730Y88291D01*
X117656Y88225D01*
X117584Y88156D01*
X117515Y88084D01*
X117449Y88010D01*
X117385Y87932D01*
X117325Y87853D01*
X117268Y87771D01*
X117214Y87687D01*
X117164Y87601D01*
X117117Y87513D01*
X117073Y87423D01*
X117033Y87332D01*
X116997Y87239D01*
X116964Y87145D01*
X116935Y87049D01*
X116910Y86953D01*
X116889Y86856D01*
X116871Y86757D01*
X116858Y86659D01*
X116848Y86559D01*
X116842Y86460D01*
X116840Y86360D01*
X119380Y38100D02*
X134620Y38100D01*
X116840Y40640D02*
X116840Y44450D01*
X118110Y45720D01*
X137160Y44450D02*
X137160Y40640D01*
X137160Y44450D02*
X135890Y45720D01*
X118110Y81280D02*
X116840Y82550D01*
X118110Y81280D02*
X118110Y45720D01*
X135890Y81280D02*
X137160Y82550D01*
X135890Y81280D02*
X135890Y45720D01*
X116840Y82550D02*
X116840Y86360D01*
X137160Y86360D02*
X137160Y82550D01*
X134620Y88900D02*
X119380Y88900D01*
D15*
X127000Y90805D03*
X127000Y36195D03*
D16*
X113538Y38608D02*
X104648Y38608D01*
X104648Y41077D01*
X104650Y41175D01*
X104656Y41273D01*
X104666Y41371D01*
X104679Y41468D01*
X104697Y41565D01*
X104718Y41661D01*
X104743Y41755D01*
X104772Y41849D01*
X104804Y41942D01*
X104841Y42033D01*
X104880Y42123D01*
X104924Y42211D01*
X104971Y42297D01*
X105021Y42382D01*
X105074Y42464D01*
X105131Y42544D01*
X105191Y42622D01*
X105254Y42697D01*
X105320Y42770D01*
X105389Y42840D01*
X105460Y42907D01*
X105534Y42972D01*
X105611Y43033D01*
X105690Y43092D01*
X105771Y43147D01*
X105854Y43199D01*
X105940Y43247D01*
X106027Y43292D01*
X106116Y43334D01*
X106206Y43372D01*
X106298Y43406D01*
X106391Y43437D01*
X106486Y43464D01*
X106581Y43487D01*
X106678Y43507D01*
X106774Y43522D01*
X106872Y43534D01*
X106970Y43542D01*
X107068Y43546D01*
X107166Y43546D01*
X107264Y43542D01*
X107362Y43534D01*
X107460Y43522D01*
X107556Y43507D01*
X107653Y43487D01*
X107748Y43464D01*
X107843Y43437D01*
X107936Y43406D01*
X108028Y43372D01*
X108118Y43334D01*
X108207Y43292D01*
X108294Y43247D01*
X108380Y43199D01*
X108463Y43147D01*
X108544Y43092D01*
X108623Y43033D01*
X108700Y42972D01*
X108774Y42907D01*
X108845Y42840D01*
X108914Y42770D01*
X108980Y42697D01*
X109043Y42622D01*
X109103Y42544D01*
X109160Y42464D01*
X109213Y42382D01*
X109263Y42297D01*
X109310Y42211D01*
X109354Y42123D01*
X109393Y42033D01*
X109430Y41942D01*
X109462Y41849D01*
X109491Y41755D01*
X109516Y41661D01*
X109537Y41565D01*
X109555Y41468D01*
X109568Y41371D01*
X109578Y41273D01*
X109584Y41175D01*
X109586Y41077D01*
X109587Y41077D02*
X109587Y38608D01*
X109587Y41571D02*
X113538Y43547D01*
X106624Y47458D02*
X104648Y49927D01*
X113538Y49927D01*
X113538Y47458D02*
X113538Y52397D01*
D11*
X81280Y63500D02*
X81180Y63502D01*
X81081Y63508D01*
X80981Y63518D01*
X80883Y63531D01*
X80784Y63549D01*
X80687Y63570D01*
X80591Y63595D01*
X80495Y63624D01*
X80401Y63657D01*
X80308Y63693D01*
X80217Y63733D01*
X80127Y63777D01*
X80039Y63824D01*
X79953Y63874D01*
X79869Y63928D01*
X79787Y63985D01*
X79708Y64045D01*
X79630Y64109D01*
X79556Y64175D01*
X79484Y64244D01*
X79415Y64316D01*
X79349Y64390D01*
X79285Y64468D01*
X79225Y64547D01*
X79168Y64629D01*
X79114Y64713D01*
X79064Y64799D01*
X79017Y64887D01*
X78973Y64977D01*
X78933Y65068D01*
X78897Y65161D01*
X78864Y65255D01*
X78835Y65351D01*
X78810Y65447D01*
X78789Y65544D01*
X78771Y65643D01*
X78758Y65741D01*
X78748Y65841D01*
X78742Y65940D01*
X78740Y66040D01*
X96520Y63500D02*
X96620Y63502D01*
X96719Y63508D01*
X96819Y63518D01*
X96917Y63531D01*
X97016Y63549D01*
X97113Y63570D01*
X97209Y63595D01*
X97305Y63624D01*
X97399Y63657D01*
X97492Y63693D01*
X97583Y63733D01*
X97673Y63777D01*
X97761Y63824D01*
X97847Y63874D01*
X97931Y63928D01*
X98013Y63985D01*
X98092Y64045D01*
X98170Y64109D01*
X98244Y64175D01*
X98316Y64244D01*
X98385Y64316D01*
X98451Y64390D01*
X98515Y64468D01*
X98575Y64547D01*
X98632Y64629D01*
X98686Y64713D01*
X98736Y64799D01*
X98783Y64887D01*
X98827Y64977D01*
X98867Y65068D01*
X98903Y65161D01*
X98936Y65255D01*
X98965Y65351D01*
X98990Y65447D01*
X99011Y65544D01*
X99029Y65643D01*
X99042Y65741D01*
X99052Y65841D01*
X99058Y65940D01*
X99060Y66040D01*
X99060Y111760D02*
X99058Y111860D01*
X99052Y111959D01*
X99042Y112059D01*
X99029Y112157D01*
X99011Y112256D01*
X98990Y112353D01*
X98965Y112449D01*
X98936Y112545D01*
X98903Y112639D01*
X98867Y112732D01*
X98827Y112823D01*
X98783Y112913D01*
X98736Y113001D01*
X98686Y113087D01*
X98632Y113171D01*
X98575Y113253D01*
X98515Y113332D01*
X98451Y113410D01*
X98385Y113484D01*
X98316Y113556D01*
X98244Y113625D01*
X98170Y113691D01*
X98092Y113755D01*
X98013Y113815D01*
X97931Y113872D01*
X97847Y113926D01*
X97761Y113976D01*
X97673Y114023D01*
X97583Y114067D01*
X97492Y114107D01*
X97399Y114143D01*
X97305Y114176D01*
X97209Y114205D01*
X97113Y114230D01*
X97016Y114251D01*
X96917Y114269D01*
X96819Y114282D01*
X96719Y114292D01*
X96620Y114298D01*
X96520Y114300D01*
X81280Y114300D02*
X81180Y114298D01*
X81081Y114292D01*
X80981Y114282D01*
X80883Y114269D01*
X80784Y114251D01*
X80687Y114230D01*
X80591Y114205D01*
X80495Y114176D01*
X80401Y114143D01*
X80308Y114107D01*
X80217Y114067D01*
X80127Y114023D01*
X80039Y113976D01*
X79953Y113926D01*
X79869Y113872D01*
X79787Y113815D01*
X79708Y113755D01*
X79630Y113691D01*
X79556Y113625D01*
X79484Y113556D01*
X79415Y113484D01*
X79349Y113410D01*
X79285Y113332D01*
X79225Y113253D01*
X79168Y113171D01*
X79114Y113087D01*
X79064Y113001D01*
X79017Y112913D01*
X78973Y112823D01*
X78933Y112732D01*
X78897Y112639D01*
X78864Y112545D01*
X78835Y112449D01*
X78810Y112353D01*
X78789Y112256D01*
X78771Y112157D01*
X78758Y112059D01*
X78748Y111959D01*
X78742Y111860D01*
X78740Y111760D01*
X81280Y63500D02*
X96520Y63500D01*
X78740Y66040D02*
X78740Y69850D01*
X80010Y71120D01*
X99060Y69850D02*
X99060Y66040D01*
X99060Y69850D02*
X97790Y71120D01*
X80010Y106680D02*
X78740Y107950D01*
X80010Y106680D02*
X80010Y71120D01*
X97790Y106680D02*
X99060Y107950D01*
X97790Y106680D02*
X97790Y71120D01*
X78740Y107950D02*
X78740Y111760D01*
X99060Y111760D02*
X99060Y107950D01*
X96520Y114300D02*
X81280Y114300D01*
D15*
X88900Y116205D03*
X88900Y61595D03*
D16*
X75438Y64008D02*
X66548Y64008D01*
X66548Y66477D01*
X66550Y66575D01*
X66556Y66673D01*
X66566Y66771D01*
X66579Y66868D01*
X66597Y66965D01*
X66618Y67061D01*
X66643Y67155D01*
X66672Y67249D01*
X66704Y67342D01*
X66741Y67433D01*
X66780Y67523D01*
X66824Y67611D01*
X66871Y67697D01*
X66921Y67782D01*
X66974Y67864D01*
X67031Y67944D01*
X67091Y68022D01*
X67154Y68097D01*
X67220Y68170D01*
X67289Y68240D01*
X67360Y68307D01*
X67434Y68372D01*
X67511Y68433D01*
X67590Y68492D01*
X67671Y68547D01*
X67754Y68599D01*
X67840Y68647D01*
X67927Y68692D01*
X68016Y68734D01*
X68106Y68772D01*
X68198Y68806D01*
X68291Y68837D01*
X68386Y68864D01*
X68481Y68887D01*
X68578Y68907D01*
X68674Y68922D01*
X68772Y68934D01*
X68870Y68942D01*
X68968Y68946D01*
X69066Y68946D01*
X69164Y68942D01*
X69262Y68934D01*
X69360Y68922D01*
X69456Y68907D01*
X69553Y68887D01*
X69648Y68864D01*
X69743Y68837D01*
X69836Y68806D01*
X69928Y68772D01*
X70018Y68734D01*
X70107Y68692D01*
X70194Y68647D01*
X70280Y68599D01*
X70363Y68547D01*
X70444Y68492D01*
X70523Y68433D01*
X70600Y68372D01*
X70674Y68307D01*
X70745Y68240D01*
X70814Y68170D01*
X70880Y68097D01*
X70943Y68022D01*
X71003Y67944D01*
X71060Y67864D01*
X71113Y67782D01*
X71163Y67697D01*
X71210Y67611D01*
X71254Y67523D01*
X71293Y67433D01*
X71330Y67342D01*
X71362Y67249D01*
X71391Y67155D01*
X71416Y67061D01*
X71437Y66965D01*
X71455Y66868D01*
X71468Y66771D01*
X71478Y66673D01*
X71484Y66575D01*
X71486Y66477D01*
X71487Y66477D02*
X71487Y64008D01*
X71487Y66971D02*
X75438Y68947D01*
X68771Y77797D02*
X68679Y77795D01*
X68587Y77789D01*
X68496Y77780D01*
X68405Y77767D01*
X68315Y77750D01*
X68225Y77729D01*
X68137Y77705D01*
X68049Y77677D01*
X67963Y77645D01*
X67878Y77610D01*
X67795Y77571D01*
X67713Y77529D01*
X67633Y77484D01*
X67555Y77435D01*
X67479Y77383D01*
X67406Y77328D01*
X67334Y77270D01*
X67265Y77210D01*
X67199Y77146D01*
X67135Y77080D01*
X67075Y77011D01*
X67017Y76939D01*
X66962Y76866D01*
X66910Y76790D01*
X66861Y76712D01*
X66816Y76632D01*
X66774Y76550D01*
X66735Y76467D01*
X66700Y76382D01*
X66668Y76296D01*
X66640Y76208D01*
X66616Y76120D01*
X66595Y76030D01*
X66578Y75940D01*
X66565Y75849D01*
X66556Y75758D01*
X66550Y75666D01*
X66548Y75574D01*
X66550Y75468D01*
X66556Y75363D01*
X66566Y75258D01*
X66579Y75153D01*
X66597Y75049D01*
X66618Y74946D01*
X66643Y74843D01*
X66672Y74741D01*
X66705Y74641D01*
X66741Y74542D01*
X66781Y74444D01*
X66825Y74348D01*
X66872Y74253D01*
X66922Y74161D01*
X66976Y74070D01*
X67034Y73981D01*
X67094Y73895D01*
X67158Y73811D01*
X67224Y73729D01*
X67294Y73649D01*
X67367Y73573D01*
X67442Y73499D01*
X67520Y73428D01*
X67601Y73360D01*
X67684Y73294D01*
X67770Y73232D01*
X67857Y73174D01*
X67947Y73118D01*
X68039Y73066D01*
X68133Y73017D01*
X68228Y72972D01*
X68325Y72930D01*
X68424Y72892D01*
X68523Y72858D01*
X70500Y77056D02*
X70431Y77125D01*
X70361Y77191D01*
X70287Y77254D01*
X70211Y77313D01*
X70133Y77370D01*
X70053Y77424D01*
X69970Y77474D01*
X69886Y77521D01*
X69799Y77564D01*
X69711Y77604D01*
X69622Y77640D01*
X69531Y77673D01*
X69439Y77702D01*
X69345Y77727D01*
X69251Y77748D01*
X69156Y77766D01*
X69060Y77779D01*
X68964Y77789D01*
X68868Y77795D01*
X68771Y77797D01*
X70499Y77056D02*
X75438Y72858D01*
X75438Y77797D01*
D11*
X60960Y441960D02*
X60958Y442060D01*
X60952Y442159D01*
X60942Y442259D01*
X60929Y442357D01*
X60911Y442456D01*
X60890Y442553D01*
X60865Y442649D01*
X60836Y442745D01*
X60803Y442839D01*
X60767Y442932D01*
X60727Y443023D01*
X60683Y443113D01*
X60636Y443201D01*
X60586Y443287D01*
X60532Y443371D01*
X60475Y443453D01*
X60415Y443532D01*
X60351Y443610D01*
X60285Y443684D01*
X60216Y443756D01*
X60144Y443825D01*
X60070Y443891D01*
X59992Y443955D01*
X59913Y444015D01*
X59831Y444072D01*
X59747Y444126D01*
X59661Y444176D01*
X59573Y444223D01*
X59483Y444267D01*
X59392Y444307D01*
X59299Y444343D01*
X59205Y444376D01*
X59109Y444405D01*
X59013Y444430D01*
X58916Y444451D01*
X58817Y444469D01*
X58719Y444482D01*
X58619Y444492D01*
X58520Y444498D01*
X58420Y444500D01*
X43180Y444500D02*
X43080Y444498D01*
X42981Y444492D01*
X42881Y444482D01*
X42783Y444469D01*
X42684Y444451D01*
X42587Y444430D01*
X42491Y444405D01*
X42395Y444376D01*
X42301Y444343D01*
X42208Y444307D01*
X42117Y444267D01*
X42027Y444223D01*
X41939Y444176D01*
X41853Y444126D01*
X41769Y444072D01*
X41687Y444015D01*
X41608Y443955D01*
X41530Y443891D01*
X41456Y443825D01*
X41384Y443756D01*
X41315Y443684D01*
X41249Y443610D01*
X41185Y443532D01*
X41125Y443453D01*
X41068Y443371D01*
X41014Y443287D01*
X40964Y443201D01*
X40917Y443113D01*
X40873Y443023D01*
X40833Y442932D01*
X40797Y442839D01*
X40764Y442745D01*
X40735Y442649D01*
X40710Y442553D01*
X40689Y442456D01*
X40671Y442357D01*
X40658Y442259D01*
X40648Y442159D01*
X40642Y442060D01*
X40640Y441960D01*
X40640Y396240D02*
X40642Y396140D01*
X40648Y396041D01*
X40658Y395941D01*
X40671Y395843D01*
X40689Y395744D01*
X40710Y395647D01*
X40735Y395551D01*
X40764Y395455D01*
X40797Y395361D01*
X40833Y395268D01*
X40873Y395177D01*
X40917Y395087D01*
X40964Y394999D01*
X41014Y394913D01*
X41068Y394829D01*
X41125Y394747D01*
X41185Y394668D01*
X41249Y394590D01*
X41315Y394516D01*
X41384Y394444D01*
X41456Y394375D01*
X41530Y394309D01*
X41608Y394245D01*
X41687Y394185D01*
X41769Y394128D01*
X41853Y394074D01*
X41939Y394024D01*
X42027Y393977D01*
X42117Y393933D01*
X42208Y393893D01*
X42301Y393857D01*
X42395Y393824D01*
X42491Y393795D01*
X42587Y393770D01*
X42684Y393749D01*
X42783Y393731D01*
X42881Y393718D01*
X42981Y393708D01*
X43080Y393702D01*
X43180Y393700D01*
X58420Y393700D02*
X58520Y393702D01*
X58619Y393708D01*
X58719Y393718D01*
X58817Y393731D01*
X58916Y393749D01*
X59013Y393770D01*
X59109Y393795D01*
X59205Y393824D01*
X59299Y393857D01*
X59392Y393893D01*
X59483Y393933D01*
X59573Y393977D01*
X59661Y394024D01*
X59747Y394074D01*
X59831Y394128D01*
X59913Y394185D01*
X59992Y394245D01*
X60070Y394309D01*
X60144Y394375D01*
X60216Y394444D01*
X60285Y394516D01*
X60351Y394590D01*
X60415Y394668D01*
X60475Y394747D01*
X60532Y394829D01*
X60586Y394913D01*
X60636Y394999D01*
X60683Y395087D01*
X60727Y395177D01*
X60767Y395268D01*
X60803Y395361D01*
X60836Y395455D01*
X60865Y395551D01*
X60890Y395647D01*
X60911Y395744D01*
X60929Y395843D01*
X60942Y395941D01*
X60952Y396041D01*
X60958Y396140D01*
X60960Y396240D01*
X58420Y444500D02*
X43180Y444500D01*
X60960Y441960D02*
X60960Y438150D01*
X59690Y436880D01*
X40640Y438150D02*
X40640Y441960D01*
X40640Y438150D02*
X41910Y436880D01*
X59690Y401320D02*
X60960Y400050D01*
X59690Y401320D02*
X59690Y436880D01*
X41910Y401320D02*
X40640Y400050D01*
X41910Y401320D02*
X41910Y436880D01*
X60960Y400050D02*
X60960Y396240D01*
X40640Y396240D02*
X40640Y400050D01*
X43180Y393700D02*
X58420Y393700D01*
D15*
X50800Y391795D03*
X50800Y446405D03*
D16*
X64262Y430203D02*
X73152Y430203D01*
X64262Y430203D02*
X64262Y432673D01*
X64264Y432771D01*
X64270Y432869D01*
X64280Y432967D01*
X64293Y433064D01*
X64311Y433161D01*
X64332Y433257D01*
X64357Y433351D01*
X64386Y433445D01*
X64418Y433538D01*
X64455Y433629D01*
X64494Y433719D01*
X64538Y433807D01*
X64585Y433893D01*
X64635Y433978D01*
X64688Y434060D01*
X64745Y434140D01*
X64805Y434218D01*
X64868Y434293D01*
X64934Y434366D01*
X65003Y434436D01*
X65074Y434503D01*
X65148Y434568D01*
X65225Y434629D01*
X65304Y434688D01*
X65385Y434743D01*
X65468Y434795D01*
X65554Y434843D01*
X65641Y434888D01*
X65730Y434930D01*
X65820Y434968D01*
X65912Y435002D01*
X66005Y435033D01*
X66100Y435060D01*
X66195Y435083D01*
X66292Y435103D01*
X66388Y435118D01*
X66486Y435130D01*
X66584Y435138D01*
X66682Y435142D01*
X66780Y435142D01*
X66878Y435138D01*
X66976Y435130D01*
X67074Y435118D01*
X67170Y435103D01*
X67267Y435083D01*
X67362Y435060D01*
X67457Y435033D01*
X67550Y435002D01*
X67642Y434968D01*
X67732Y434930D01*
X67821Y434888D01*
X67908Y434843D01*
X67994Y434795D01*
X68077Y434743D01*
X68158Y434688D01*
X68237Y434629D01*
X68314Y434568D01*
X68388Y434503D01*
X68459Y434436D01*
X68528Y434366D01*
X68594Y434293D01*
X68657Y434218D01*
X68717Y434140D01*
X68774Y434060D01*
X68827Y433978D01*
X68877Y433893D01*
X68924Y433807D01*
X68968Y433719D01*
X69007Y433629D01*
X69044Y433538D01*
X69076Y433445D01*
X69105Y433351D01*
X69130Y433257D01*
X69151Y433161D01*
X69169Y433064D01*
X69182Y432967D01*
X69192Y432869D01*
X69198Y432771D01*
X69200Y432673D01*
X69201Y432673D02*
X69201Y430203D01*
X69201Y433167D02*
X73152Y435142D01*
X73152Y439053D02*
X73152Y441523D01*
X73150Y441621D01*
X73144Y441719D01*
X73134Y441817D01*
X73121Y441914D01*
X73103Y442011D01*
X73082Y442107D01*
X73057Y442201D01*
X73028Y442295D01*
X72996Y442388D01*
X72959Y442479D01*
X72920Y442569D01*
X72876Y442657D01*
X72829Y442743D01*
X72779Y442828D01*
X72726Y442910D01*
X72669Y442990D01*
X72609Y443068D01*
X72546Y443143D01*
X72480Y443216D01*
X72411Y443286D01*
X72340Y443353D01*
X72266Y443418D01*
X72189Y443479D01*
X72110Y443538D01*
X72029Y443593D01*
X71946Y443645D01*
X71860Y443693D01*
X71773Y443738D01*
X71684Y443780D01*
X71594Y443818D01*
X71502Y443852D01*
X71409Y443883D01*
X71314Y443910D01*
X71219Y443933D01*
X71122Y443953D01*
X71026Y443968D01*
X70928Y443980D01*
X70830Y443988D01*
X70732Y443992D01*
X70634Y443992D01*
X70536Y443988D01*
X70438Y443980D01*
X70340Y443968D01*
X70244Y443953D01*
X70147Y443933D01*
X70052Y443910D01*
X69957Y443883D01*
X69864Y443852D01*
X69772Y443818D01*
X69682Y443780D01*
X69593Y443738D01*
X69506Y443693D01*
X69420Y443645D01*
X69337Y443593D01*
X69256Y443538D01*
X69177Y443479D01*
X69100Y443418D01*
X69026Y443353D01*
X68955Y443286D01*
X68886Y443216D01*
X68820Y443143D01*
X68757Y443068D01*
X68697Y442990D01*
X68640Y442910D01*
X68587Y442828D01*
X68537Y442743D01*
X68490Y442657D01*
X68446Y442569D01*
X68407Y442479D01*
X68370Y442388D01*
X68338Y442295D01*
X68309Y442201D01*
X68284Y442107D01*
X68263Y442011D01*
X68245Y441914D01*
X68232Y441817D01*
X68222Y441719D01*
X68216Y441621D01*
X68214Y441523D01*
X64262Y442016D02*
X64262Y439053D01*
X64262Y442016D02*
X64264Y442103D01*
X64270Y442191D01*
X64279Y442278D01*
X64293Y442364D01*
X64310Y442450D01*
X64331Y442534D01*
X64356Y442618D01*
X64385Y442701D01*
X64417Y442782D01*
X64452Y442862D01*
X64491Y442940D01*
X64534Y443017D01*
X64580Y443091D01*
X64629Y443163D01*
X64681Y443233D01*
X64737Y443301D01*
X64795Y443366D01*
X64856Y443429D01*
X64920Y443488D01*
X64987Y443545D01*
X65055Y443599D01*
X65127Y443650D01*
X65200Y443697D01*
X65275Y443742D01*
X65353Y443783D01*
X65432Y443820D01*
X65512Y443854D01*
X65594Y443884D01*
X65677Y443911D01*
X65762Y443934D01*
X65847Y443953D01*
X65933Y443968D01*
X66020Y443980D01*
X66107Y443988D01*
X66194Y443992D01*
X66282Y443992D01*
X66369Y443988D01*
X66456Y443980D01*
X66543Y443968D01*
X66629Y443953D01*
X66714Y443934D01*
X66799Y443911D01*
X66882Y443884D01*
X66964Y443854D01*
X67044Y443820D01*
X67123Y443783D01*
X67201Y443742D01*
X67276Y443697D01*
X67349Y443650D01*
X67421Y443599D01*
X67489Y443545D01*
X67556Y443488D01*
X67620Y443429D01*
X67681Y443366D01*
X67739Y443301D01*
X67795Y443233D01*
X67847Y443163D01*
X67896Y443091D01*
X67942Y443017D01*
X67985Y442940D01*
X68024Y442862D01*
X68059Y442782D01*
X68091Y442701D01*
X68120Y442618D01*
X68145Y442534D01*
X68166Y442450D01*
X68183Y442364D01*
X68197Y442278D01*
X68206Y442191D01*
X68212Y442103D01*
X68214Y442016D01*
X68213Y442016D02*
X68213Y440041D01*
D11*
X1250950Y368300D02*
X1257300Y361950D01*
X1238250Y368300D02*
X1231900Y361950D01*
X1225550Y368300D01*
X1212850Y368300D02*
X1206500Y361950D01*
X1200150Y368300D01*
X1187450Y368300D02*
X1181100Y361950D01*
X1174750Y368300D01*
X1162050Y368300D02*
X1155700Y361950D01*
X1149350Y368300D01*
X1136650Y368300D02*
X1130300Y361950D01*
X1123950Y368300D01*
X1111250Y368300D02*
X1104900Y361950D01*
X1257300Y361950D02*
X1257300Y323850D01*
X1250950Y317500D01*
X1238250Y317500D01*
X1231900Y323850D01*
X1225550Y317500D01*
X1212850Y317500D01*
X1206500Y323850D01*
X1200150Y317500D01*
X1187450Y317500D01*
X1181100Y323850D01*
X1174750Y317500D01*
X1162050Y317500D01*
X1155700Y323850D01*
X1149350Y317500D01*
X1136650Y317500D01*
X1130300Y323850D01*
X1123950Y317500D01*
X1111250Y317500D01*
X1104900Y323850D01*
X1098550Y317500D01*
X1085850Y317500D01*
X1079500Y323850D01*
X1079500Y361950D02*
X1085850Y368300D01*
X1098550Y368300D02*
X1104900Y361950D01*
X1231900Y361950D02*
X1231900Y323850D01*
X1206500Y323850D02*
X1206500Y361950D01*
X1181100Y361950D02*
X1181100Y323850D01*
X1155700Y323850D02*
X1155700Y361950D01*
X1130300Y361950D02*
X1130300Y323850D01*
X1104900Y323850D02*
X1104900Y361950D01*
X1079500Y361950D02*
X1079500Y323850D01*
X1085850Y368300D02*
X1098550Y368300D01*
X1111250Y368300D02*
X1123950Y368300D01*
X1136650Y368300D02*
X1149350Y368300D01*
X1162050Y368300D02*
X1174750Y368300D01*
X1187450Y368300D02*
X1200150Y368300D01*
X1212850Y368300D02*
X1225550Y368300D01*
X1238250Y368300D02*
X1250950Y368300D01*
X1079500Y323850D02*
X1073150Y317500D01*
X1060450Y317500D01*
X1054100Y323850D01*
X1054100Y361950D02*
X1060450Y368300D01*
X1073150Y368300D02*
X1079500Y361950D01*
X1054100Y361950D02*
X1054100Y323850D01*
X1060450Y368300D02*
X1073150Y368300D01*
D12*
X1233476Y310515D02*
X1233476Y301625D01*
X1233474Y301525D01*
X1233468Y301426D01*
X1233458Y301326D01*
X1233445Y301228D01*
X1233427Y301129D01*
X1233406Y301032D01*
X1233381Y300936D01*
X1233352Y300840D01*
X1233319Y300746D01*
X1233283Y300653D01*
X1233243Y300562D01*
X1233199Y300472D01*
X1233152Y300384D01*
X1233102Y300298D01*
X1233048Y300214D01*
X1232991Y300132D01*
X1232931Y300053D01*
X1232867Y299975D01*
X1232801Y299901D01*
X1232732Y299829D01*
X1232660Y299760D01*
X1232586Y299694D01*
X1232508Y299630D01*
X1232429Y299570D01*
X1232347Y299513D01*
X1232263Y299459D01*
X1232177Y299409D01*
X1232089Y299362D01*
X1231999Y299318D01*
X1231908Y299278D01*
X1231815Y299242D01*
X1231721Y299209D01*
X1231625Y299180D01*
X1231529Y299155D01*
X1231432Y299134D01*
X1231333Y299116D01*
X1231235Y299103D01*
X1231135Y299093D01*
X1231036Y299087D01*
X1230936Y299085D01*
X1229666Y299085D01*
X1239457Y299085D02*
X1239457Y310515D01*
X1242632Y310515D01*
X1242743Y310513D01*
X1242853Y310507D01*
X1242964Y310498D01*
X1243074Y310484D01*
X1243183Y310467D01*
X1243292Y310446D01*
X1243400Y310421D01*
X1243507Y310392D01*
X1243613Y310360D01*
X1243718Y310324D01*
X1243821Y310284D01*
X1243923Y310241D01*
X1244024Y310194D01*
X1244123Y310143D01*
X1244220Y310090D01*
X1244314Y310033D01*
X1244407Y309972D01*
X1244498Y309909D01*
X1244587Y309842D01*
X1244673Y309772D01*
X1244756Y309699D01*
X1244838Y309624D01*
X1244916Y309546D01*
X1244991Y309464D01*
X1245064Y309381D01*
X1245134Y309295D01*
X1245201Y309206D01*
X1245264Y309115D01*
X1245325Y309022D01*
X1245382Y308927D01*
X1245435Y308831D01*
X1245486Y308732D01*
X1245533Y308631D01*
X1245576Y308529D01*
X1245616Y308426D01*
X1245652Y308321D01*
X1245684Y308215D01*
X1245713Y308108D01*
X1245738Y308000D01*
X1245759Y307891D01*
X1245776Y307782D01*
X1245790Y307672D01*
X1245799Y307561D01*
X1245805Y307451D01*
X1245807Y307340D01*
X1245805Y307229D01*
X1245799Y307119D01*
X1245790Y307008D01*
X1245776Y306898D01*
X1245759Y306789D01*
X1245738Y306680D01*
X1245713Y306572D01*
X1245684Y306465D01*
X1245652Y306359D01*
X1245616Y306254D01*
X1245576Y306151D01*
X1245533Y306049D01*
X1245486Y305948D01*
X1245435Y305849D01*
X1245382Y305752D01*
X1245325Y305658D01*
X1245264Y305565D01*
X1245201Y305474D01*
X1245134Y305385D01*
X1245064Y305299D01*
X1244991Y305216D01*
X1244916Y305134D01*
X1244838Y305056D01*
X1244756Y304981D01*
X1244673Y304908D01*
X1244587Y304838D01*
X1244498Y304771D01*
X1244407Y304708D01*
X1244314Y304647D01*
X1244220Y304590D01*
X1244123Y304537D01*
X1244024Y304486D01*
X1243923Y304439D01*
X1243821Y304396D01*
X1243718Y304356D01*
X1243613Y304320D01*
X1243507Y304288D01*
X1243400Y304259D01*
X1243292Y304234D01*
X1243183Y304213D01*
X1243074Y304196D01*
X1242964Y304182D01*
X1242853Y304173D01*
X1242743Y304167D01*
X1242632Y304165D01*
X1239457Y304165D01*
X1253808Y310516D02*
X1253912Y310514D01*
X1254017Y310508D01*
X1254121Y310499D01*
X1254224Y310486D01*
X1254327Y310468D01*
X1254429Y310448D01*
X1254531Y310423D01*
X1254631Y310395D01*
X1254731Y310363D01*
X1254829Y310327D01*
X1254926Y310288D01*
X1255021Y310246D01*
X1255115Y310200D01*
X1255207Y310150D01*
X1255297Y310098D01*
X1255385Y310042D01*
X1255471Y309982D01*
X1255555Y309920D01*
X1255636Y309855D01*
X1255715Y309787D01*
X1255792Y309715D01*
X1255865Y309642D01*
X1255937Y309565D01*
X1256005Y309486D01*
X1256070Y309405D01*
X1256132Y309321D01*
X1256192Y309235D01*
X1256248Y309147D01*
X1256300Y309057D01*
X1256350Y308965D01*
X1256396Y308871D01*
X1256438Y308776D01*
X1256477Y308679D01*
X1256513Y308581D01*
X1256545Y308481D01*
X1256573Y308381D01*
X1256598Y308279D01*
X1256618Y308177D01*
X1256636Y308074D01*
X1256649Y307971D01*
X1256658Y307867D01*
X1256664Y307762D01*
X1256666Y307658D01*
X1253808Y310515D02*
X1253690Y310513D01*
X1253571Y310507D01*
X1253453Y310498D01*
X1253336Y310485D01*
X1253219Y310467D01*
X1253102Y310447D01*
X1252986Y310422D01*
X1252871Y310394D01*
X1252758Y310361D01*
X1252645Y310326D01*
X1252533Y310286D01*
X1252423Y310244D01*
X1252314Y310197D01*
X1252206Y310147D01*
X1252101Y310094D01*
X1251997Y310037D01*
X1251895Y309977D01*
X1251795Y309914D01*
X1251697Y309847D01*
X1251601Y309778D01*
X1251508Y309705D01*
X1251417Y309629D01*
X1251328Y309551D01*
X1251242Y309469D01*
X1251159Y309385D01*
X1251078Y309299D01*
X1251001Y309209D01*
X1250926Y309118D01*
X1250854Y309024D01*
X1250785Y308927D01*
X1250720Y308829D01*
X1250657Y308728D01*
X1250598Y308625D01*
X1250542Y308521D01*
X1250490Y308415D01*
X1250441Y308307D01*
X1250396Y308198D01*
X1250354Y308087D01*
X1250316Y307975D01*
X1255713Y305436D02*
X1255789Y305511D01*
X1255864Y305590D01*
X1255935Y305671D01*
X1256004Y305755D01*
X1256069Y305841D01*
X1256131Y305929D01*
X1256191Y306019D01*
X1256247Y306111D01*
X1256300Y306206D01*
X1256349Y306302D01*
X1256395Y306400D01*
X1256438Y306499D01*
X1256477Y306600D01*
X1256512Y306702D01*
X1256544Y306805D01*
X1256572Y306909D01*
X1256597Y307014D01*
X1256618Y307121D01*
X1256635Y307227D01*
X1256648Y307334D01*
X1256657Y307442D01*
X1256663Y307550D01*
X1256665Y307658D01*
X1255713Y305435D02*
X1250315Y299085D01*
X1256665Y299085D01*
D10*
X196850Y130048D02*
X190500Y130048D01*
X184150Y130048D01*
D11*
X190500Y130048D02*
X190500Y142240D01*
D10*
X190500Y123698D02*
X196850Y123698D01*
X190500Y123698D02*
X184150Y123698D01*
D11*
X190500Y123698D02*
X190500Y111760D01*
X200660Y163830D02*
X180340Y163830D01*
X177800Y161290D02*
X177800Y92710D01*
X180340Y90170D02*
X200660Y90170D01*
X203200Y92710D02*
X203200Y161290D01*
X203200Y92710D02*
X203198Y92610D01*
X203192Y92511D01*
X203182Y92411D01*
X203169Y92313D01*
X203151Y92214D01*
X203130Y92117D01*
X203105Y92021D01*
X203076Y91925D01*
X203043Y91831D01*
X203007Y91738D01*
X202967Y91647D01*
X202923Y91557D01*
X202876Y91469D01*
X202826Y91383D01*
X202772Y91299D01*
X202715Y91217D01*
X202655Y91138D01*
X202591Y91060D01*
X202525Y90986D01*
X202456Y90914D01*
X202384Y90845D01*
X202310Y90779D01*
X202232Y90715D01*
X202153Y90655D01*
X202071Y90598D01*
X201987Y90544D01*
X201901Y90494D01*
X201813Y90447D01*
X201723Y90403D01*
X201632Y90363D01*
X201539Y90327D01*
X201445Y90294D01*
X201349Y90265D01*
X201253Y90240D01*
X201156Y90219D01*
X201057Y90201D01*
X200959Y90188D01*
X200859Y90178D01*
X200760Y90172D01*
X200660Y90170D01*
X180340Y90170D02*
X180240Y90172D01*
X180141Y90178D01*
X180041Y90188D01*
X179943Y90201D01*
X179844Y90219D01*
X179747Y90240D01*
X179651Y90265D01*
X179555Y90294D01*
X179461Y90327D01*
X179368Y90363D01*
X179277Y90403D01*
X179187Y90447D01*
X179099Y90494D01*
X179013Y90544D01*
X178929Y90598D01*
X178847Y90655D01*
X178768Y90715D01*
X178690Y90779D01*
X178616Y90845D01*
X178544Y90914D01*
X178475Y90986D01*
X178409Y91060D01*
X178345Y91138D01*
X178285Y91217D01*
X178228Y91299D01*
X178174Y91383D01*
X178124Y91469D01*
X178077Y91557D01*
X178033Y91647D01*
X177993Y91738D01*
X177957Y91831D01*
X177924Y91925D01*
X177895Y92021D01*
X177870Y92117D01*
X177849Y92214D01*
X177831Y92313D01*
X177818Y92411D01*
X177808Y92511D01*
X177802Y92610D01*
X177800Y92710D01*
X177800Y161290D02*
X177802Y161390D01*
X177808Y161489D01*
X177818Y161589D01*
X177831Y161687D01*
X177849Y161786D01*
X177870Y161883D01*
X177895Y161979D01*
X177924Y162075D01*
X177957Y162169D01*
X177993Y162262D01*
X178033Y162353D01*
X178077Y162443D01*
X178124Y162531D01*
X178174Y162617D01*
X178228Y162701D01*
X178285Y162783D01*
X178345Y162862D01*
X178409Y162940D01*
X178475Y163014D01*
X178544Y163086D01*
X178616Y163155D01*
X178690Y163221D01*
X178768Y163285D01*
X178847Y163345D01*
X178929Y163402D01*
X179013Y163456D01*
X179099Y163506D01*
X179187Y163553D01*
X179277Y163597D01*
X179368Y163637D01*
X179461Y163673D01*
X179555Y163706D01*
X179651Y163735D01*
X179747Y163760D01*
X179844Y163781D01*
X179943Y163799D01*
X180041Y163812D01*
X180141Y163822D01*
X180240Y163828D01*
X180340Y163830D01*
X200660Y163830D02*
X200760Y163828D01*
X200859Y163822D01*
X200959Y163812D01*
X201057Y163799D01*
X201156Y163781D01*
X201253Y163760D01*
X201349Y163735D01*
X201445Y163706D01*
X201539Y163673D01*
X201632Y163637D01*
X201723Y163597D01*
X201813Y163553D01*
X201901Y163506D01*
X201987Y163456D01*
X202071Y163402D01*
X202153Y163345D01*
X202232Y163285D01*
X202310Y163221D01*
X202384Y163155D01*
X202456Y163086D01*
X202525Y163014D01*
X202591Y162940D01*
X202655Y162862D01*
X202715Y162783D01*
X202772Y162701D01*
X202826Y162617D01*
X202876Y162531D01*
X202923Y162443D01*
X202967Y162353D01*
X203007Y162262D01*
X203043Y162169D01*
X203076Y162075D01*
X203105Y161979D01*
X203130Y161883D01*
X203151Y161786D01*
X203169Y161687D01*
X203182Y161589D01*
X203192Y161489D01*
X203198Y161390D01*
X203200Y161290D01*
D12*
X219075Y149823D02*
X219075Y147283D01*
X219073Y147183D01*
X219067Y147084D01*
X219057Y146984D01*
X219044Y146886D01*
X219026Y146787D01*
X219005Y146690D01*
X218980Y146594D01*
X218951Y146498D01*
X218918Y146404D01*
X218882Y146311D01*
X218842Y146220D01*
X218798Y146130D01*
X218751Y146042D01*
X218701Y145956D01*
X218647Y145872D01*
X218590Y145790D01*
X218530Y145711D01*
X218466Y145633D01*
X218400Y145559D01*
X218331Y145487D01*
X218259Y145418D01*
X218185Y145352D01*
X218107Y145288D01*
X218028Y145228D01*
X217946Y145171D01*
X217862Y145117D01*
X217776Y145067D01*
X217688Y145020D01*
X217598Y144976D01*
X217507Y144936D01*
X217414Y144900D01*
X217320Y144867D01*
X217224Y144838D01*
X217128Y144813D01*
X217031Y144792D01*
X216932Y144774D01*
X216834Y144761D01*
X216734Y144751D01*
X216635Y144745D01*
X216535Y144743D01*
X210185Y144743D01*
X210085Y144745D01*
X209986Y144751D01*
X209886Y144761D01*
X209788Y144774D01*
X209689Y144792D01*
X209592Y144813D01*
X209496Y144838D01*
X209400Y144867D01*
X209306Y144900D01*
X209213Y144936D01*
X209122Y144976D01*
X209032Y145020D01*
X208944Y145067D01*
X208858Y145117D01*
X208774Y145171D01*
X208692Y145228D01*
X208613Y145288D01*
X208535Y145352D01*
X208461Y145418D01*
X208389Y145487D01*
X208320Y145559D01*
X208254Y145633D01*
X208190Y145711D01*
X208130Y145790D01*
X208073Y145872D01*
X208019Y145956D01*
X207969Y146042D01*
X207922Y146130D01*
X207878Y146220D01*
X207838Y146311D01*
X207802Y146404D01*
X207769Y146498D01*
X207740Y146594D01*
X207715Y146690D01*
X207694Y146787D01*
X207676Y146886D01*
X207663Y146984D01*
X207653Y147084D01*
X207647Y147183D01*
X207645Y147283D01*
X207645Y149823D01*
X219075Y154305D02*
X219075Y158115D01*
X219073Y158215D01*
X219067Y158314D01*
X219057Y158414D01*
X219044Y158512D01*
X219026Y158611D01*
X219005Y158708D01*
X218980Y158804D01*
X218951Y158900D01*
X218918Y158994D01*
X218882Y159087D01*
X218842Y159178D01*
X218798Y159268D01*
X218751Y159356D01*
X218701Y159442D01*
X218647Y159526D01*
X218590Y159608D01*
X218530Y159687D01*
X218466Y159765D01*
X218400Y159839D01*
X218331Y159911D01*
X218259Y159980D01*
X218185Y160046D01*
X218107Y160110D01*
X218028Y160170D01*
X217946Y160227D01*
X217862Y160281D01*
X217776Y160331D01*
X217688Y160378D01*
X217598Y160422D01*
X217507Y160462D01*
X217414Y160498D01*
X217320Y160531D01*
X217224Y160560D01*
X217128Y160585D01*
X217031Y160606D01*
X216932Y160624D01*
X216834Y160637D01*
X216734Y160647D01*
X216635Y160653D01*
X216535Y160655D01*
X215265Y160655D01*
X215165Y160653D01*
X215066Y160647D01*
X214966Y160637D01*
X214868Y160624D01*
X214769Y160606D01*
X214672Y160585D01*
X214576Y160560D01*
X214480Y160531D01*
X214386Y160498D01*
X214293Y160462D01*
X214202Y160422D01*
X214112Y160378D01*
X214024Y160331D01*
X213938Y160281D01*
X213854Y160227D01*
X213772Y160170D01*
X213693Y160110D01*
X213615Y160046D01*
X213541Y159980D01*
X213469Y159911D01*
X213400Y159839D01*
X213334Y159765D01*
X213270Y159687D01*
X213210Y159608D01*
X213153Y159526D01*
X213099Y159442D01*
X213049Y159356D01*
X213002Y159268D01*
X212958Y159178D01*
X212918Y159087D01*
X212882Y158994D01*
X212849Y158900D01*
X212820Y158804D01*
X212795Y158708D01*
X212774Y158611D01*
X212756Y158512D01*
X212743Y158414D01*
X212733Y158314D01*
X212727Y158215D01*
X212725Y158115D01*
X212725Y154305D01*
X207645Y154305D01*
X207645Y160655D01*
D11*
X508000Y209550D02*
X508000Y222250D01*
X508000Y209550D02*
X501650Y203200D01*
X488950Y203200D01*
X482600Y209550D01*
X488950Y228600D02*
X501650Y228600D01*
X508000Y222250D01*
X488950Y228600D02*
X482600Y222250D01*
X482600Y209550D01*
X501650Y203200D02*
X508000Y196850D01*
X508000Y184150D01*
X501650Y177800D01*
X488950Y177800D01*
X482600Y184150D01*
X482600Y196850D01*
X488950Y203200D01*
D12*
X514223Y205538D02*
X523113Y205538D01*
X523213Y205536D01*
X523312Y205530D01*
X523412Y205520D01*
X523510Y205507D01*
X523609Y205489D01*
X523706Y205468D01*
X523802Y205443D01*
X523898Y205414D01*
X523992Y205381D01*
X524085Y205345D01*
X524176Y205305D01*
X524266Y205261D01*
X524354Y205214D01*
X524440Y205164D01*
X524524Y205110D01*
X524606Y205053D01*
X524685Y204993D01*
X524763Y204929D01*
X524837Y204863D01*
X524909Y204794D01*
X524978Y204722D01*
X525044Y204648D01*
X525108Y204570D01*
X525168Y204491D01*
X525225Y204409D01*
X525279Y204325D01*
X525329Y204239D01*
X525376Y204151D01*
X525420Y204061D01*
X525460Y203970D01*
X525496Y203877D01*
X525529Y203783D01*
X525558Y203687D01*
X525583Y203591D01*
X525604Y203494D01*
X525622Y203395D01*
X525635Y203297D01*
X525645Y203197D01*
X525651Y203098D01*
X525653Y202998D01*
X525653Y201728D01*
X525653Y211519D02*
X514223Y211519D01*
X514223Y214694D01*
X514225Y214805D01*
X514231Y214915D01*
X514240Y215026D01*
X514254Y215136D01*
X514271Y215245D01*
X514292Y215354D01*
X514317Y215462D01*
X514346Y215569D01*
X514378Y215675D01*
X514414Y215780D01*
X514454Y215883D01*
X514497Y215985D01*
X514544Y216086D01*
X514595Y216185D01*
X514648Y216282D01*
X514705Y216376D01*
X514766Y216469D01*
X514829Y216560D01*
X514896Y216649D01*
X514966Y216735D01*
X515039Y216818D01*
X515114Y216900D01*
X515192Y216978D01*
X515274Y217053D01*
X515357Y217126D01*
X515443Y217196D01*
X515532Y217263D01*
X515623Y217326D01*
X515716Y217387D01*
X515811Y217444D01*
X515907Y217497D01*
X516006Y217548D01*
X516107Y217595D01*
X516209Y217638D01*
X516312Y217678D01*
X516417Y217714D01*
X516523Y217746D01*
X516630Y217775D01*
X516738Y217800D01*
X516847Y217821D01*
X516956Y217838D01*
X517066Y217852D01*
X517177Y217861D01*
X517287Y217867D01*
X517398Y217869D01*
X517509Y217867D01*
X517619Y217861D01*
X517730Y217852D01*
X517840Y217838D01*
X517949Y217821D01*
X518058Y217800D01*
X518166Y217775D01*
X518273Y217746D01*
X518379Y217714D01*
X518484Y217678D01*
X518587Y217638D01*
X518689Y217595D01*
X518790Y217548D01*
X518889Y217497D01*
X518986Y217444D01*
X519080Y217387D01*
X519173Y217326D01*
X519264Y217263D01*
X519353Y217196D01*
X519439Y217126D01*
X519522Y217053D01*
X519604Y216978D01*
X519682Y216900D01*
X519757Y216818D01*
X519830Y216735D01*
X519900Y216649D01*
X519967Y216560D01*
X520030Y216469D01*
X520091Y216376D01*
X520148Y216282D01*
X520201Y216185D01*
X520252Y216086D01*
X520299Y215985D01*
X520342Y215883D01*
X520382Y215780D01*
X520418Y215675D01*
X520450Y215569D01*
X520479Y215462D01*
X520504Y215354D01*
X520525Y215245D01*
X520542Y215136D01*
X520556Y215026D01*
X520565Y214915D01*
X520571Y214805D01*
X520573Y214694D01*
X520573Y211519D01*
X525653Y222377D02*
X525653Y225552D01*
X525651Y225663D01*
X525645Y225773D01*
X525636Y225884D01*
X525622Y225994D01*
X525605Y226103D01*
X525584Y226212D01*
X525559Y226320D01*
X525530Y226427D01*
X525498Y226533D01*
X525462Y226638D01*
X525422Y226741D01*
X525379Y226843D01*
X525332Y226944D01*
X525281Y227043D01*
X525228Y227140D01*
X525171Y227234D01*
X525110Y227327D01*
X525047Y227418D01*
X524980Y227507D01*
X524910Y227593D01*
X524837Y227676D01*
X524762Y227758D01*
X524684Y227836D01*
X524602Y227911D01*
X524519Y227984D01*
X524433Y228054D01*
X524344Y228121D01*
X524253Y228184D01*
X524160Y228245D01*
X524066Y228302D01*
X523969Y228355D01*
X523870Y228406D01*
X523769Y228453D01*
X523667Y228496D01*
X523564Y228536D01*
X523459Y228572D01*
X523353Y228604D01*
X523246Y228633D01*
X523138Y228658D01*
X523029Y228679D01*
X522920Y228696D01*
X522810Y228710D01*
X522699Y228719D01*
X522589Y228725D01*
X522478Y228727D01*
X522367Y228725D01*
X522257Y228719D01*
X522146Y228710D01*
X522036Y228696D01*
X521927Y228679D01*
X521818Y228658D01*
X521710Y228633D01*
X521603Y228604D01*
X521497Y228572D01*
X521392Y228536D01*
X521289Y228496D01*
X521187Y228453D01*
X521086Y228406D01*
X520987Y228355D01*
X520891Y228302D01*
X520796Y228245D01*
X520703Y228184D01*
X520612Y228121D01*
X520523Y228054D01*
X520437Y227984D01*
X520354Y227911D01*
X520272Y227836D01*
X520194Y227758D01*
X520119Y227676D01*
X520046Y227593D01*
X519976Y227507D01*
X519909Y227418D01*
X519846Y227327D01*
X519785Y227234D01*
X519728Y227140D01*
X519675Y227043D01*
X519624Y226944D01*
X519577Y226843D01*
X519534Y226741D01*
X519494Y226638D01*
X519458Y226533D01*
X519426Y226427D01*
X519397Y226320D01*
X519372Y226212D01*
X519351Y226103D01*
X519334Y225994D01*
X519320Y225884D01*
X519311Y225773D01*
X519305Y225663D01*
X519303Y225552D01*
X514223Y226187D02*
X514223Y222377D01*
X514223Y226187D02*
X514225Y226287D01*
X514231Y226386D01*
X514241Y226486D01*
X514254Y226584D01*
X514272Y226683D01*
X514293Y226780D01*
X514318Y226876D01*
X514347Y226972D01*
X514380Y227066D01*
X514416Y227159D01*
X514456Y227250D01*
X514500Y227340D01*
X514547Y227428D01*
X514597Y227514D01*
X514651Y227598D01*
X514708Y227680D01*
X514768Y227759D01*
X514832Y227837D01*
X514898Y227911D01*
X514967Y227983D01*
X515039Y228052D01*
X515113Y228118D01*
X515191Y228182D01*
X515270Y228242D01*
X515352Y228299D01*
X515436Y228353D01*
X515522Y228403D01*
X515610Y228450D01*
X515700Y228494D01*
X515791Y228534D01*
X515884Y228570D01*
X515978Y228603D01*
X516074Y228632D01*
X516170Y228657D01*
X516267Y228678D01*
X516366Y228696D01*
X516464Y228709D01*
X516564Y228719D01*
X516663Y228725D01*
X516763Y228727D01*
X516863Y228725D01*
X516962Y228719D01*
X517062Y228709D01*
X517160Y228696D01*
X517259Y228678D01*
X517356Y228657D01*
X517452Y228632D01*
X517548Y228603D01*
X517642Y228570D01*
X517735Y228534D01*
X517826Y228494D01*
X517916Y228450D01*
X518004Y228403D01*
X518090Y228353D01*
X518174Y228299D01*
X518256Y228242D01*
X518335Y228182D01*
X518413Y228118D01*
X518487Y228052D01*
X518559Y227983D01*
X518628Y227911D01*
X518694Y227837D01*
X518758Y227759D01*
X518818Y227680D01*
X518875Y227598D01*
X518929Y227514D01*
X518979Y227428D01*
X519026Y227340D01*
X519070Y227250D01*
X519110Y227159D01*
X519146Y227066D01*
X519179Y226972D01*
X519208Y226876D01*
X519233Y226780D01*
X519254Y226683D01*
X519272Y226584D01*
X519285Y226486D01*
X519295Y226386D01*
X519301Y226287D01*
X519303Y226187D01*
X519303Y223647D01*
D10*
X1330452Y222250D02*
X1330452Y215900D01*
X1330452Y209550D01*
D11*
X1330452Y215900D02*
X1318260Y215900D01*
D10*
X1336802Y215900D02*
X1336802Y222250D01*
X1336802Y215900D02*
X1336802Y209550D01*
D11*
X1336802Y215900D02*
X1348740Y215900D01*
X1296670Y226060D02*
X1296670Y205740D01*
X1299210Y203200D02*
X1367790Y203200D01*
X1370330Y205740D02*
X1370330Y226060D01*
X1367790Y228600D02*
X1299210Y228600D01*
X1367790Y228600D02*
X1367890Y228598D01*
X1367989Y228592D01*
X1368089Y228582D01*
X1368187Y228569D01*
X1368286Y228551D01*
X1368383Y228530D01*
X1368479Y228505D01*
X1368575Y228476D01*
X1368669Y228443D01*
X1368762Y228407D01*
X1368853Y228367D01*
X1368943Y228323D01*
X1369031Y228276D01*
X1369117Y228226D01*
X1369201Y228172D01*
X1369283Y228115D01*
X1369362Y228055D01*
X1369440Y227991D01*
X1369514Y227925D01*
X1369586Y227856D01*
X1369655Y227784D01*
X1369721Y227710D01*
X1369785Y227632D01*
X1369845Y227553D01*
X1369902Y227471D01*
X1369956Y227387D01*
X1370006Y227301D01*
X1370053Y227213D01*
X1370097Y227123D01*
X1370137Y227032D01*
X1370173Y226939D01*
X1370206Y226845D01*
X1370235Y226749D01*
X1370260Y226653D01*
X1370281Y226556D01*
X1370299Y226457D01*
X1370312Y226359D01*
X1370322Y226259D01*
X1370328Y226160D01*
X1370330Y226060D01*
X1370330Y205740D02*
X1370328Y205640D01*
X1370322Y205541D01*
X1370312Y205441D01*
X1370299Y205343D01*
X1370281Y205244D01*
X1370260Y205147D01*
X1370235Y205051D01*
X1370206Y204955D01*
X1370173Y204861D01*
X1370137Y204768D01*
X1370097Y204677D01*
X1370053Y204587D01*
X1370006Y204499D01*
X1369956Y204413D01*
X1369902Y204329D01*
X1369845Y204247D01*
X1369785Y204168D01*
X1369721Y204090D01*
X1369655Y204016D01*
X1369586Y203944D01*
X1369514Y203875D01*
X1369440Y203809D01*
X1369362Y203745D01*
X1369283Y203685D01*
X1369201Y203628D01*
X1369117Y203574D01*
X1369031Y203524D01*
X1368943Y203477D01*
X1368853Y203433D01*
X1368762Y203393D01*
X1368669Y203357D01*
X1368575Y203324D01*
X1368479Y203295D01*
X1368383Y203270D01*
X1368286Y203249D01*
X1368187Y203231D01*
X1368089Y203218D01*
X1367989Y203208D01*
X1367890Y203202D01*
X1367790Y203200D01*
X1299210Y203200D02*
X1299110Y203202D01*
X1299011Y203208D01*
X1298911Y203218D01*
X1298813Y203231D01*
X1298714Y203249D01*
X1298617Y203270D01*
X1298521Y203295D01*
X1298425Y203324D01*
X1298331Y203357D01*
X1298238Y203393D01*
X1298147Y203433D01*
X1298057Y203477D01*
X1297969Y203524D01*
X1297883Y203574D01*
X1297799Y203628D01*
X1297717Y203685D01*
X1297638Y203745D01*
X1297560Y203809D01*
X1297486Y203875D01*
X1297414Y203944D01*
X1297345Y204016D01*
X1297279Y204090D01*
X1297215Y204168D01*
X1297155Y204247D01*
X1297098Y204329D01*
X1297044Y204413D01*
X1296994Y204499D01*
X1296947Y204587D01*
X1296903Y204677D01*
X1296863Y204768D01*
X1296827Y204861D01*
X1296794Y204955D01*
X1296765Y205051D01*
X1296740Y205147D01*
X1296719Y205244D01*
X1296701Y205343D01*
X1296688Y205441D01*
X1296678Y205541D01*
X1296672Y205640D01*
X1296670Y205740D01*
X1296670Y226060D02*
X1296672Y226160D01*
X1296678Y226259D01*
X1296688Y226359D01*
X1296701Y226457D01*
X1296719Y226556D01*
X1296740Y226653D01*
X1296765Y226749D01*
X1296794Y226845D01*
X1296827Y226939D01*
X1296863Y227032D01*
X1296903Y227123D01*
X1296947Y227213D01*
X1296994Y227301D01*
X1297044Y227387D01*
X1297098Y227471D01*
X1297155Y227553D01*
X1297215Y227632D01*
X1297279Y227710D01*
X1297345Y227784D01*
X1297414Y227856D01*
X1297486Y227925D01*
X1297560Y227991D01*
X1297638Y228055D01*
X1297717Y228115D01*
X1297799Y228172D01*
X1297883Y228226D01*
X1297969Y228276D01*
X1298057Y228323D01*
X1298147Y228367D01*
X1298238Y228407D01*
X1298331Y228443D01*
X1298425Y228476D01*
X1298521Y228505D01*
X1298617Y228530D01*
X1298714Y228551D01*
X1298813Y228569D01*
X1298911Y228582D01*
X1299011Y228592D01*
X1299110Y228598D01*
X1299210Y228600D01*
D12*
X1302385Y233045D02*
X1304925Y233045D01*
X1302385Y233045D02*
X1302285Y233047D01*
X1302186Y233053D01*
X1302086Y233063D01*
X1301988Y233076D01*
X1301889Y233094D01*
X1301792Y233115D01*
X1301696Y233140D01*
X1301600Y233169D01*
X1301506Y233202D01*
X1301413Y233238D01*
X1301322Y233278D01*
X1301232Y233322D01*
X1301144Y233369D01*
X1301058Y233419D01*
X1300974Y233473D01*
X1300892Y233530D01*
X1300813Y233590D01*
X1300735Y233654D01*
X1300661Y233720D01*
X1300589Y233789D01*
X1300520Y233861D01*
X1300454Y233935D01*
X1300390Y234013D01*
X1300330Y234092D01*
X1300273Y234174D01*
X1300219Y234258D01*
X1300169Y234344D01*
X1300122Y234432D01*
X1300078Y234522D01*
X1300038Y234613D01*
X1300002Y234706D01*
X1299969Y234800D01*
X1299940Y234896D01*
X1299915Y234992D01*
X1299894Y235089D01*
X1299876Y235188D01*
X1299863Y235286D01*
X1299853Y235386D01*
X1299847Y235485D01*
X1299845Y235585D01*
X1299845Y241935D01*
X1299847Y242035D01*
X1299853Y242134D01*
X1299863Y242234D01*
X1299876Y242332D01*
X1299894Y242431D01*
X1299915Y242528D01*
X1299940Y242624D01*
X1299969Y242720D01*
X1300002Y242814D01*
X1300038Y242907D01*
X1300078Y242998D01*
X1300122Y243088D01*
X1300169Y243176D01*
X1300219Y243262D01*
X1300273Y243346D01*
X1300330Y243428D01*
X1300390Y243507D01*
X1300454Y243585D01*
X1300520Y243659D01*
X1300589Y243731D01*
X1300661Y243800D01*
X1300735Y243866D01*
X1300813Y243930D01*
X1300892Y243990D01*
X1300974Y244047D01*
X1301058Y244101D01*
X1301144Y244151D01*
X1301232Y244198D01*
X1301322Y244242D01*
X1301413Y244282D01*
X1301506Y244318D01*
X1301600Y244351D01*
X1301696Y244380D01*
X1301792Y244405D01*
X1301889Y244426D01*
X1301988Y244444D01*
X1302086Y244457D01*
X1302186Y244467D01*
X1302285Y244473D01*
X1302385Y244475D01*
X1304925Y244475D01*
X1309407Y239395D02*
X1313217Y239395D01*
X1313317Y239393D01*
X1313416Y239387D01*
X1313516Y239377D01*
X1313614Y239364D01*
X1313713Y239346D01*
X1313810Y239325D01*
X1313906Y239300D01*
X1314002Y239271D01*
X1314096Y239238D01*
X1314189Y239202D01*
X1314280Y239162D01*
X1314370Y239118D01*
X1314458Y239071D01*
X1314544Y239021D01*
X1314628Y238967D01*
X1314710Y238910D01*
X1314789Y238850D01*
X1314867Y238786D01*
X1314941Y238720D01*
X1315013Y238651D01*
X1315082Y238579D01*
X1315148Y238505D01*
X1315212Y238427D01*
X1315272Y238348D01*
X1315329Y238266D01*
X1315383Y238182D01*
X1315433Y238096D01*
X1315480Y238008D01*
X1315524Y237918D01*
X1315564Y237827D01*
X1315600Y237734D01*
X1315633Y237640D01*
X1315662Y237544D01*
X1315687Y237448D01*
X1315708Y237351D01*
X1315726Y237252D01*
X1315739Y237154D01*
X1315749Y237054D01*
X1315755Y236955D01*
X1315757Y236855D01*
X1315757Y236220D01*
X1315755Y236109D01*
X1315749Y235999D01*
X1315740Y235888D01*
X1315726Y235778D01*
X1315709Y235669D01*
X1315688Y235560D01*
X1315663Y235452D01*
X1315634Y235345D01*
X1315602Y235239D01*
X1315566Y235134D01*
X1315526Y235031D01*
X1315483Y234929D01*
X1315436Y234828D01*
X1315385Y234729D01*
X1315332Y234632D01*
X1315275Y234538D01*
X1315214Y234445D01*
X1315151Y234354D01*
X1315084Y234265D01*
X1315014Y234179D01*
X1314941Y234096D01*
X1314866Y234014D01*
X1314788Y233936D01*
X1314706Y233861D01*
X1314623Y233788D01*
X1314537Y233718D01*
X1314448Y233651D01*
X1314357Y233588D01*
X1314264Y233527D01*
X1314170Y233470D01*
X1314073Y233417D01*
X1313974Y233366D01*
X1313873Y233319D01*
X1313771Y233276D01*
X1313668Y233236D01*
X1313563Y233200D01*
X1313457Y233168D01*
X1313350Y233139D01*
X1313242Y233114D01*
X1313133Y233093D01*
X1313024Y233076D01*
X1312914Y233062D01*
X1312803Y233053D01*
X1312693Y233047D01*
X1312582Y233045D01*
X1312471Y233047D01*
X1312361Y233053D01*
X1312250Y233062D01*
X1312140Y233076D01*
X1312031Y233093D01*
X1311922Y233114D01*
X1311814Y233139D01*
X1311707Y233168D01*
X1311601Y233200D01*
X1311496Y233236D01*
X1311393Y233276D01*
X1311291Y233319D01*
X1311190Y233366D01*
X1311091Y233417D01*
X1310995Y233470D01*
X1310900Y233527D01*
X1310807Y233588D01*
X1310716Y233651D01*
X1310627Y233718D01*
X1310541Y233788D01*
X1310458Y233861D01*
X1310376Y233936D01*
X1310298Y234014D01*
X1310223Y234096D01*
X1310150Y234179D01*
X1310080Y234265D01*
X1310013Y234354D01*
X1309950Y234445D01*
X1309889Y234538D01*
X1309832Y234633D01*
X1309779Y234729D01*
X1309728Y234828D01*
X1309681Y234929D01*
X1309638Y235031D01*
X1309598Y235134D01*
X1309562Y235239D01*
X1309530Y235345D01*
X1309501Y235452D01*
X1309476Y235560D01*
X1309455Y235669D01*
X1309438Y235778D01*
X1309424Y235888D01*
X1309415Y235999D01*
X1309409Y236109D01*
X1309407Y236220D01*
X1309407Y239395D01*
X1309409Y239535D01*
X1309415Y239675D01*
X1309424Y239815D01*
X1309438Y239954D01*
X1309455Y240093D01*
X1309476Y240231D01*
X1309501Y240369D01*
X1309530Y240506D01*
X1309562Y240642D01*
X1309599Y240777D01*
X1309639Y240911D01*
X1309682Y241044D01*
X1309730Y241176D01*
X1309780Y241307D01*
X1309835Y241436D01*
X1309893Y241563D01*
X1309954Y241689D01*
X1310019Y241813D01*
X1310088Y241935D01*
X1310159Y242055D01*
X1310234Y242173D01*
X1310312Y242290D01*
X1310394Y242404D01*
X1310478Y242515D01*
X1310566Y242624D01*
X1310656Y242731D01*
X1310750Y242836D01*
X1310846Y242937D01*
X1310945Y243036D01*
X1311046Y243132D01*
X1311151Y243226D01*
X1311258Y243316D01*
X1311367Y243404D01*
X1311478Y243488D01*
X1311592Y243570D01*
X1311709Y243648D01*
X1311827Y243723D01*
X1311947Y243794D01*
X1312069Y243863D01*
X1312193Y243928D01*
X1312319Y243989D01*
X1312446Y244047D01*
X1312575Y244102D01*
X1312706Y244152D01*
X1312838Y244200D01*
X1312971Y244243D01*
X1313105Y244283D01*
X1313240Y244320D01*
X1313376Y244352D01*
X1313513Y244381D01*
X1313651Y244406D01*
X1313789Y244427D01*
X1313928Y244444D01*
X1314067Y244458D01*
X1314207Y244467D01*
X1314347Y244473D01*
X1314487Y244475D01*
D11*
X152400Y812800D02*
X146050Y812800D01*
X162560Y819150D02*
X162560Y806450D01*
X152400Y812800D01*
X167640Y812800D01*
X162560Y819150D02*
X152400Y812800D01*
X152400Y819150D01*
X152400Y812800D02*
X152400Y806450D01*
X172720Y822960D02*
X172820Y822958D01*
X172919Y822952D01*
X173019Y822942D01*
X173117Y822929D01*
X173216Y822911D01*
X173313Y822890D01*
X173409Y822865D01*
X173505Y822836D01*
X173599Y822803D01*
X173692Y822767D01*
X173783Y822727D01*
X173873Y822683D01*
X173961Y822636D01*
X174047Y822586D01*
X174131Y822532D01*
X174213Y822475D01*
X174292Y822415D01*
X174370Y822351D01*
X174444Y822285D01*
X174516Y822216D01*
X174585Y822144D01*
X174651Y822070D01*
X174715Y821992D01*
X174775Y821913D01*
X174832Y821831D01*
X174886Y821747D01*
X174936Y821661D01*
X174983Y821573D01*
X175027Y821483D01*
X175067Y821392D01*
X175103Y821299D01*
X175136Y821205D01*
X175165Y821109D01*
X175190Y821013D01*
X175211Y820916D01*
X175229Y820817D01*
X175242Y820719D01*
X175252Y820619D01*
X175258Y820520D01*
X175260Y820420D01*
X175260Y805180D01*
X175258Y805080D01*
X175252Y804981D01*
X175242Y804881D01*
X175229Y804783D01*
X175211Y804684D01*
X175190Y804587D01*
X175165Y804491D01*
X175136Y804395D01*
X175103Y804301D01*
X175067Y804208D01*
X175027Y804117D01*
X174983Y804027D01*
X174936Y803939D01*
X174886Y803853D01*
X174832Y803769D01*
X174775Y803687D01*
X174715Y803608D01*
X174651Y803530D01*
X174585Y803456D01*
X174516Y803384D01*
X174444Y803315D01*
X174370Y803249D01*
X174292Y803185D01*
X174213Y803125D01*
X174131Y803068D01*
X174047Y803014D01*
X173961Y802964D01*
X173873Y802917D01*
X173783Y802873D01*
X173692Y802833D01*
X173599Y802797D01*
X173505Y802764D01*
X173409Y802735D01*
X173313Y802710D01*
X173216Y802689D01*
X173117Y802671D01*
X173019Y802658D01*
X172919Y802648D01*
X172820Y802642D01*
X172720Y802640D01*
X132080Y822960D02*
X131980Y822958D01*
X131881Y822952D01*
X131781Y822942D01*
X131683Y822929D01*
X131584Y822911D01*
X131487Y822890D01*
X131391Y822865D01*
X131295Y822836D01*
X131201Y822803D01*
X131108Y822767D01*
X131017Y822727D01*
X130927Y822683D01*
X130839Y822636D01*
X130753Y822586D01*
X130669Y822532D01*
X130587Y822475D01*
X130508Y822415D01*
X130430Y822351D01*
X130356Y822285D01*
X130284Y822216D01*
X130215Y822144D01*
X130149Y822070D01*
X130085Y821992D01*
X130025Y821913D01*
X129968Y821831D01*
X129914Y821747D01*
X129864Y821661D01*
X129817Y821573D01*
X129773Y821483D01*
X129733Y821392D01*
X129697Y821299D01*
X129664Y821205D01*
X129635Y821109D01*
X129610Y821013D01*
X129589Y820916D01*
X129571Y820817D01*
X129558Y820719D01*
X129548Y820619D01*
X129542Y820520D01*
X129540Y820420D01*
X129540Y805180D02*
X129542Y805080D01*
X129548Y804981D01*
X129558Y804881D01*
X129571Y804783D01*
X129589Y804684D01*
X129610Y804587D01*
X129635Y804491D01*
X129664Y804395D01*
X129697Y804301D01*
X129733Y804208D01*
X129773Y804117D01*
X129817Y804027D01*
X129864Y803939D01*
X129914Y803853D01*
X129968Y803769D01*
X130025Y803687D01*
X130085Y803608D01*
X130149Y803530D01*
X130215Y803456D01*
X130284Y803384D01*
X130356Y803315D01*
X130430Y803249D01*
X130508Y803185D01*
X130587Y803125D01*
X130669Y803068D01*
X130753Y803014D01*
X130839Y802964D01*
X130927Y802917D01*
X131017Y802873D01*
X131108Y802833D01*
X131201Y802797D01*
X131295Y802764D01*
X131391Y802735D01*
X131487Y802710D01*
X131584Y802689D01*
X131683Y802671D01*
X131781Y802658D01*
X131881Y802648D01*
X131980Y802642D01*
X132080Y802640D01*
X172720Y802640D01*
X129540Y805180D02*
X129540Y820420D01*
X132080Y822960D02*
X172720Y822960D01*
D17*
X135890Y812800D03*
D18*
X178435Y812800D03*
X126365Y812800D03*
D12*
X130175Y826135D02*
X130175Y837565D01*
X133350Y837565D01*
X133461Y837563D01*
X133571Y837557D01*
X133682Y837548D01*
X133792Y837534D01*
X133901Y837517D01*
X134010Y837496D01*
X134118Y837471D01*
X134225Y837442D01*
X134331Y837410D01*
X134436Y837374D01*
X134539Y837334D01*
X134641Y837291D01*
X134742Y837244D01*
X134841Y837193D01*
X134938Y837140D01*
X135032Y837083D01*
X135125Y837022D01*
X135216Y836959D01*
X135305Y836892D01*
X135391Y836822D01*
X135474Y836749D01*
X135556Y836674D01*
X135634Y836596D01*
X135709Y836514D01*
X135782Y836431D01*
X135852Y836345D01*
X135919Y836256D01*
X135982Y836165D01*
X136043Y836072D01*
X136100Y835978D01*
X136153Y835881D01*
X136204Y835782D01*
X136251Y835681D01*
X136294Y835579D01*
X136334Y835476D01*
X136370Y835371D01*
X136402Y835265D01*
X136431Y835158D01*
X136456Y835050D01*
X136477Y834941D01*
X136494Y834832D01*
X136508Y834722D01*
X136517Y834611D01*
X136523Y834501D01*
X136525Y834390D01*
X136525Y829310D01*
X136523Y829199D01*
X136517Y829089D01*
X136508Y828978D01*
X136494Y828868D01*
X136477Y828759D01*
X136456Y828650D01*
X136431Y828542D01*
X136402Y828435D01*
X136370Y828329D01*
X136334Y828224D01*
X136294Y828121D01*
X136251Y828019D01*
X136204Y827918D01*
X136153Y827819D01*
X136100Y827723D01*
X136043Y827628D01*
X135982Y827535D01*
X135919Y827444D01*
X135852Y827355D01*
X135782Y827269D01*
X135709Y827186D01*
X135634Y827104D01*
X135556Y827026D01*
X135474Y826951D01*
X135391Y826878D01*
X135305Y826808D01*
X135216Y826741D01*
X135125Y826678D01*
X135032Y826617D01*
X134937Y826560D01*
X134841Y826507D01*
X134742Y826456D01*
X134641Y826409D01*
X134539Y826366D01*
X134436Y826326D01*
X134331Y826290D01*
X134225Y826258D01*
X134118Y826229D01*
X134010Y826204D01*
X133901Y826183D01*
X133792Y826166D01*
X133682Y826152D01*
X133571Y826143D01*
X133461Y826137D01*
X133350Y826135D01*
X130175Y826135D01*
X145479Y837566D02*
X145583Y837564D01*
X145688Y837558D01*
X145792Y837549D01*
X145895Y837536D01*
X145998Y837518D01*
X146100Y837498D01*
X146202Y837473D01*
X146302Y837445D01*
X146402Y837413D01*
X146500Y837377D01*
X146597Y837338D01*
X146692Y837296D01*
X146786Y837250D01*
X146878Y837200D01*
X146968Y837148D01*
X147056Y837092D01*
X147142Y837032D01*
X147226Y836970D01*
X147307Y836905D01*
X147386Y836837D01*
X147463Y836765D01*
X147536Y836692D01*
X147608Y836615D01*
X147676Y836536D01*
X147741Y836455D01*
X147803Y836371D01*
X147863Y836285D01*
X147919Y836197D01*
X147971Y836107D01*
X148021Y836015D01*
X148067Y835921D01*
X148109Y835826D01*
X148148Y835729D01*
X148184Y835631D01*
X148216Y835531D01*
X148244Y835431D01*
X148269Y835329D01*
X148289Y835227D01*
X148307Y835124D01*
X148320Y835021D01*
X148329Y834917D01*
X148335Y834812D01*
X148337Y834708D01*
X145479Y837565D02*
X145361Y837563D01*
X145242Y837557D01*
X145124Y837548D01*
X145007Y837535D01*
X144890Y837517D01*
X144773Y837497D01*
X144657Y837472D01*
X144542Y837444D01*
X144429Y837411D01*
X144316Y837376D01*
X144204Y837336D01*
X144094Y837294D01*
X143985Y837247D01*
X143877Y837197D01*
X143772Y837144D01*
X143668Y837087D01*
X143566Y837027D01*
X143466Y836964D01*
X143368Y836897D01*
X143272Y836828D01*
X143179Y836755D01*
X143088Y836679D01*
X142999Y836601D01*
X142913Y836519D01*
X142830Y836435D01*
X142749Y836349D01*
X142672Y836259D01*
X142597Y836168D01*
X142525Y836074D01*
X142456Y835977D01*
X142391Y835879D01*
X142328Y835778D01*
X142269Y835675D01*
X142213Y835571D01*
X142161Y835465D01*
X142112Y835357D01*
X142067Y835248D01*
X142025Y835137D01*
X141987Y835025D01*
X147384Y832486D02*
X147460Y832561D01*
X147535Y832640D01*
X147606Y832721D01*
X147675Y832805D01*
X147740Y832891D01*
X147802Y832979D01*
X147862Y833069D01*
X147918Y833161D01*
X147971Y833256D01*
X148020Y833352D01*
X148066Y833450D01*
X148109Y833549D01*
X148148Y833650D01*
X148183Y833752D01*
X148215Y833855D01*
X148243Y833959D01*
X148268Y834064D01*
X148289Y834171D01*
X148306Y834277D01*
X148319Y834384D01*
X148328Y834492D01*
X148334Y834600D01*
X148336Y834708D01*
X147384Y832485D02*
X141986Y826135D01*
X148336Y826135D01*
D11*
X146050Y787400D02*
X152400Y787400D01*
X162560Y793750D02*
X162560Y781050D01*
X152400Y787400D01*
X167640Y787400D01*
X162560Y793750D02*
X152400Y787400D01*
X152400Y793750D01*
X152400Y787400D02*
X152400Y781050D01*
X172720Y797560D02*
X172820Y797558D01*
X172919Y797552D01*
X173019Y797542D01*
X173117Y797529D01*
X173216Y797511D01*
X173313Y797490D01*
X173409Y797465D01*
X173505Y797436D01*
X173599Y797403D01*
X173692Y797367D01*
X173783Y797327D01*
X173873Y797283D01*
X173961Y797236D01*
X174047Y797186D01*
X174131Y797132D01*
X174213Y797075D01*
X174292Y797015D01*
X174370Y796951D01*
X174444Y796885D01*
X174516Y796816D01*
X174585Y796744D01*
X174651Y796670D01*
X174715Y796592D01*
X174775Y796513D01*
X174832Y796431D01*
X174886Y796347D01*
X174936Y796261D01*
X174983Y796173D01*
X175027Y796083D01*
X175067Y795992D01*
X175103Y795899D01*
X175136Y795805D01*
X175165Y795709D01*
X175190Y795613D01*
X175211Y795516D01*
X175229Y795417D01*
X175242Y795319D01*
X175252Y795219D01*
X175258Y795120D01*
X175260Y795020D01*
X175260Y779780D01*
X175258Y779680D01*
X175252Y779581D01*
X175242Y779481D01*
X175229Y779383D01*
X175211Y779284D01*
X175190Y779187D01*
X175165Y779091D01*
X175136Y778995D01*
X175103Y778901D01*
X175067Y778808D01*
X175027Y778717D01*
X174983Y778627D01*
X174936Y778539D01*
X174886Y778453D01*
X174832Y778369D01*
X174775Y778287D01*
X174715Y778208D01*
X174651Y778130D01*
X174585Y778056D01*
X174516Y777984D01*
X174444Y777915D01*
X174370Y777849D01*
X174292Y777785D01*
X174213Y777725D01*
X174131Y777668D01*
X174047Y777614D01*
X173961Y777564D01*
X173873Y777517D01*
X173783Y777473D01*
X173692Y777433D01*
X173599Y777397D01*
X173505Y777364D01*
X173409Y777335D01*
X173313Y777310D01*
X173216Y777289D01*
X173117Y777271D01*
X173019Y777258D01*
X172919Y777248D01*
X172820Y777242D01*
X172720Y777240D01*
X132080Y797560D02*
X131980Y797558D01*
X131881Y797552D01*
X131781Y797542D01*
X131683Y797529D01*
X131584Y797511D01*
X131487Y797490D01*
X131391Y797465D01*
X131295Y797436D01*
X131201Y797403D01*
X131108Y797367D01*
X131017Y797327D01*
X130927Y797283D01*
X130839Y797236D01*
X130753Y797186D01*
X130669Y797132D01*
X130587Y797075D01*
X130508Y797015D01*
X130430Y796951D01*
X130356Y796885D01*
X130284Y796816D01*
X130215Y796744D01*
X130149Y796670D01*
X130085Y796592D01*
X130025Y796513D01*
X129968Y796431D01*
X129914Y796347D01*
X129864Y796261D01*
X129817Y796173D01*
X129773Y796083D01*
X129733Y795992D01*
X129697Y795899D01*
X129664Y795805D01*
X129635Y795709D01*
X129610Y795613D01*
X129589Y795516D01*
X129571Y795417D01*
X129558Y795319D01*
X129548Y795219D01*
X129542Y795120D01*
X129540Y795020D01*
X129540Y779780D02*
X129542Y779680D01*
X129548Y779581D01*
X129558Y779481D01*
X129571Y779383D01*
X129589Y779284D01*
X129610Y779187D01*
X129635Y779091D01*
X129664Y778995D01*
X129697Y778901D01*
X129733Y778808D01*
X129773Y778717D01*
X129817Y778627D01*
X129864Y778539D01*
X129914Y778453D01*
X129968Y778369D01*
X130025Y778287D01*
X130085Y778208D01*
X130149Y778130D01*
X130215Y778056D01*
X130284Y777984D01*
X130356Y777915D01*
X130430Y777849D01*
X130508Y777785D01*
X130587Y777725D01*
X130669Y777668D01*
X130753Y777614D01*
X130839Y777564D01*
X130927Y777517D01*
X131017Y777473D01*
X131108Y777433D01*
X131201Y777397D01*
X131295Y777364D01*
X131391Y777335D01*
X131487Y777310D01*
X131584Y777289D01*
X131683Y777271D01*
X131781Y777258D01*
X131881Y777248D01*
X131980Y777242D01*
X132080Y777240D01*
X172720Y777240D01*
X129540Y779780D02*
X129540Y795020D01*
X132080Y797560D02*
X172720Y797560D01*
D17*
X135890Y787400D03*
D18*
X178435Y787400D03*
X126365Y787400D03*
D12*
X130175Y800735D02*
X130175Y812165D01*
X133350Y812165D01*
X133461Y812163D01*
X133571Y812157D01*
X133682Y812148D01*
X133792Y812134D01*
X133901Y812117D01*
X134010Y812096D01*
X134118Y812071D01*
X134225Y812042D01*
X134331Y812010D01*
X134436Y811974D01*
X134539Y811934D01*
X134641Y811891D01*
X134742Y811844D01*
X134841Y811793D01*
X134938Y811740D01*
X135032Y811683D01*
X135125Y811622D01*
X135216Y811559D01*
X135305Y811492D01*
X135391Y811422D01*
X135474Y811349D01*
X135556Y811274D01*
X135634Y811196D01*
X135709Y811114D01*
X135782Y811031D01*
X135852Y810945D01*
X135919Y810856D01*
X135982Y810765D01*
X136043Y810672D01*
X136100Y810578D01*
X136153Y810481D01*
X136204Y810382D01*
X136251Y810281D01*
X136294Y810179D01*
X136334Y810076D01*
X136370Y809971D01*
X136402Y809865D01*
X136431Y809758D01*
X136456Y809650D01*
X136477Y809541D01*
X136494Y809432D01*
X136508Y809322D01*
X136517Y809211D01*
X136523Y809101D01*
X136525Y808990D01*
X136525Y803910D01*
X136523Y803799D01*
X136517Y803689D01*
X136508Y803578D01*
X136494Y803468D01*
X136477Y803359D01*
X136456Y803250D01*
X136431Y803142D01*
X136402Y803035D01*
X136370Y802929D01*
X136334Y802824D01*
X136294Y802721D01*
X136251Y802619D01*
X136204Y802518D01*
X136153Y802419D01*
X136100Y802323D01*
X136043Y802228D01*
X135982Y802135D01*
X135919Y802044D01*
X135852Y801955D01*
X135782Y801869D01*
X135709Y801786D01*
X135634Y801704D01*
X135556Y801626D01*
X135474Y801551D01*
X135391Y801478D01*
X135305Y801408D01*
X135216Y801341D01*
X135125Y801278D01*
X135032Y801217D01*
X134937Y801160D01*
X134841Y801107D01*
X134742Y801056D01*
X134641Y801009D01*
X134539Y800966D01*
X134436Y800926D01*
X134331Y800890D01*
X134225Y800858D01*
X134118Y800829D01*
X134010Y800804D01*
X133901Y800783D01*
X133792Y800766D01*
X133682Y800752D01*
X133571Y800743D01*
X133461Y800737D01*
X133350Y800735D01*
X130175Y800735D01*
X141986Y800735D02*
X145161Y800735D01*
X145272Y800737D01*
X145382Y800743D01*
X145493Y800752D01*
X145603Y800766D01*
X145712Y800783D01*
X145821Y800804D01*
X145929Y800829D01*
X146036Y800858D01*
X146142Y800890D01*
X146247Y800926D01*
X146350Y800966D01*
X146452Y801009D01*
X146553Y801056D01*
X146652Y801107D01*
X146748Y801160D01*
X146843Y801217D01*
X146936Y801278D01*
X147027Y801341D01*
X147116Y801408D01*
X147202Y801478D01*
X147285Y801551D01*
X147367Y801626D01*
X147445Y801704D01*
X147520Y801786D01*
X147593Y801869D01*
X147663Y801955D01*
X147730Y802044D01*
X147793Y802135D01*
X147854Y802228D01*
X147911Y802323D01*
X147964Y802419D01*
X148015Y802518D01*
X148062Y802619D01*
X148105Y802721D01*
X148145Y802824D01*
X148181Y802929D01*
X148213Y803035D01*
X148242Y803142D01*
X148267Y803250D01*
X148288Y803359D01*
X148305Y803468D01*
X148319Y803578D01*
X148328Y803689D01*
X148334Y803799D01*
X148336Y803910D01*
X148334Y804021D01*
X148328Y804131D01*
X148319Y804242D01*
X148305Y804352D01*
X148288Y804461D01*
X148267Y804570D01*
X148242Y804678D01*
X148213Y804785D01*
X148181Y804891D01*
X148145Y804996D01*
X148105Y805099D01*
X148062Y805201D01*
X148015Y805302D01*
X147964Y805401D01*
X147911Y805497D01*
X147854Y805592D01*
X147793Y805685D01*
X147730Y805776D01*
X147663Y805865D01*
X147593Y805951D01*
X147520Y806034D01*
X147445Y806116D01*
X147367Y806194D01*
X147285Y806269D01*
X147202Y806342D01*
X147116Y806412D01*
X147027Y806479D01*
X146936Y806542D01*
X146843Y806603D01*
X146749Y806660D01*
X146652Y806713D01*
X146553Y806764D01*
X146452Y806811D01*
X146350Y806854D01*
X146247Y806894D01*
X146142Y806930D01*
X146036Y806962D01*
X145929Y806991D01*
X145821Y807016D01*
X145712Y807037D01*
X145603Y807054D01*
X145493Y807068D01*
X145382Y807077D01*
X145272Y807083D01*
X145161Y807085D01*
X145796Y812165D02*
X141986Y812165D01*
X145796Y812165D02*
X145896Y812163D01*
X145995Y812157D01*
X146095Y812147D01*
X146193Y812134D01*
X146292Y812116D01*
X146389Y812095D01*
X146485Y812070D01*
X146581Y812041D01*
X146675Y812008D01*
X146768Y811972D01*
X146859Y811932D01*
X146949Y811888D01*
X147037Y811841D01*
X147123Y811791D01*
X147207Y811737D01*
X147289Y811680D01*
X147368Y811620D01*
X147446Y811556D01*
X147520Y811490D01*
X147592Y811421D01*
X147661Y811349D01*
X147727Y811275D01*
X147791Y811197D01*
X147851Y811118D01*
X147908Y811036D01*
X147962Y810952D01*
X148012Y810866D01*
X148059Y810778D01*
X148103Y810688D01*
X148143Y810597D01*
X148179Y810504D01*
X148212Y810410D01*
X148241Y810314D01*
X148266Y810218D01*
X148287Y810121D01*
X148305Y810022D01*
X148318Y809924D01*
X148328Y809824D01*
X148334Y809725D01*
X148336Y809625D01*
X148334Y809525D01*
X148328Y809426D01*
X148318Y809326D01*
X148305Y809228D01*
X148287Y809129D01*
X148266Y809032D01*
X148241Y808936D01*
X148212Y808840D01*
X148179Y808746D01*
X148143Y808653D01*
X148103Y808562D01*
X148059Y808472D01*
X148012Y808384D01*
X147962Y808298D01*
X147908Y808214D01*
X147851Y808132D01*
X147791Y808053D01*
X147727Y807975D01*
X147661Y807901D01*
X147592Y807829D01*
X147520Y807760D01*
X147446Y807694D01*
X147368Y807630D01*
X147289Y807570D01*
X147207Y807513D01*
X147123Y807459D01*
X147037Y807409D01*
X146949Y807362D01*
X146859Y807318D01*
X146768Y807278D01*
X146675Y807242D01*
X146581Y807209D01*
X146485Y807180D01*
X146389Y807155D01*
X146292Y807134D01*
X146193Y807116D01*
X146095Y807103D01*
X145995Y807093D01*
X145896Y807087D01*
X145796Y807085D01*
X143256Y807085D01*
D11*
X146050Y762000D02*
X152400Y762000D01*
X162560Y768350D02*
X162560Y755650D01*
X152400Y762000D01*
X167640Y762000D01*
X162560Y768350D02*
X152400Y762000D01*
X152400Y768350D01*
X152400Y762000D02*
X152400Y755650D01*
X172720Y772160D02*
X172820Y772158D01*
X172919Y772152D01*
X173019Y772142D01*
X173117Y772129D01*
X173216Y772111D01*
X173313Y772090D01*
X173409Y772065D01*
X173505Y772036D01*
X173599Y772003D01*
X173692Y771967D01*
X173783Y771927D01*
X173873Y771883D01*
X173961Y771836D01*
X174047Y771786D01*
X174131Y771732D01*
X174213Y771675D01*
X174292Y771615D01*
X174370Y771551D01*
X174444Y771485D01*
X174516Y771416D01*
X174585Y771344D01*
X174651Y771270D01*
X174715Y771192D01*
X174775Y771113D01*
X174832Y771031D01*
X174886Y770947D01*
X174936Y770861D01*
X174983Y770773D01*
X175027Y770683D01*
X175067Y770592D01*
X175103Y770499D01*
X175136Y770405D01*
X175165Y770309D01*
X175190Y770213D01*
X175211Y770116D01*
X175229Y770017D01*
X175242Y769919D01*
X175252Y769819D01*
X175258Y769720D01*
X175260Y769620D01*
X175260Y754380D01*
X175258Y754280D01*
X175252Y754181D01*
X175242Y754081D01*
X175229Y753983D01*
X175211Y753884D01*
X175190Y753787D01*
X175165Y753691D01*
X175136Y753595D01*
X175103Y753501D01*
X175067Y753408D01*
X175027Y753317D01*
X174983Y753227D01*
X174936Y753139D01*
X174886Y753053D01*
X174832Y752969D01*
X174775Y752887D01*
X174715Y752808D01*
X174651Y752730D01*
X174585Y752656D01*
X174516Y752584D01*
X174444Y752515D01*
X174370Y752449D01*
X174292Y752385D01*
X174213Y752325D01*
X174131Y752268D01*
X174047Y752214D01*
X173961Y752164D01*
X173873Y752117D01*
X173783Y752073D01*
X173692Y752033D01*
X173599Y751997D01*
X173505Y751964D01*
X173409Y751935D01*
X173313Y751910D01*
X173216Y751889D01*
X173117Y751871D01*
X173019Y751858D01*
X172919Y751848D01*
X172820Y751842D01*
X172720Y751840D01*
X132080Y772160D02*
X131980Y772158D01*
X131881Y772152D01*
X131781Y772142D01*
X131683Y772129D01*
X131584Y772111D01*
X131487Y772090D01*
X131391Y772065D01*
X131295Y772036D01*
X131201Y772003D01*
X131108Y771967D01*
X131017Y771927D01*
X130927Y771883D01*
X130839Y771836D01*
X130753Y771786D01*
X130669Y771732D01*
X130587Y771675D01*
X130508Y771615D01*
X130430Y771551D01*
X130356Y771485D01*
X130284Y771416D01*
X130215Y771344D01*
X130149Y771270D01*
X130085Y771192D01*
X130025Y771113D01*
X129968Y771031D01*
X129914Y770947D01*
X129864Y770861D01*
X129817Y770773D01*
X129773Y770683D01*
X129733Y770592D01*
X129697Y770499D01*
X129664Y770405D01*
X129635Y770309D01*
X129610Y770213D01*
X129589Y770116D01*
X129571Y770017D01*
X129558Y769919D01*
X129548Y769819D01*
X129542Y769720D01*
X129540Y769620D01*
X129540Y754380D02*
X129542Y754280D01*
X129548Y754181D01*
X129558Y754081D01*
X129571Y753983D01*
X129589Y753884D01*
X129610Y753787D01*
X129635Y753691D01*
X129664Y753595D01*
X129697Y753501D01*
X129733Y753408D01*
X129773Y753317D01*
X129817Y753227D01*
X129864Y753139D01*
X129914Y753053D01*
X129968Y752969D01*
X130025Y752887D01*
X130085Y752808D01*
X130149Y752730D01*
X130215Y752656D01*
X130284Y752584D01*
X130356Y752515D01*
X130430Y752449D01*
X130508Y752385D01*
X130587Y752325D01*
X130669Y752268D01*
X130753Y752214D01*
X130839Y752164D01*
X130927Y752117D01*
X131017Y752073D01*
X131108Y752033D01*
X131201Y751997D01*
X131295Y751964D01*
X131391Y751935D01*
X131487Y751910D01*
X131584Y751889D01*
X131683Y751871D01*
X131781Y751858D01*
X131881Y751848D01*
X131980Y751842D01*
X132080Y751840D01*
X172720Y751840D01*
X129540Y754380D02*
X129540Y769620D01*
X132080Y772160D02*
X172720Y772160D01*
D17*
X135890Y762000D03*
D18*
X178435Y762000D03*
X126365Y762000D03*
D12*
X130175Y775335D02*
X130175Y786765D01*
X133350Y786765D01*
X133461Y786763D01*
X133571Y786757D01*
X133682Y786748D01*
X133792Y786734D01*
X133901Y786717D01*
X134010Y786696D01*
X134118Y786671D01*
X134225Y786642D01*
X134331Y786610D01*
X134436Y786574D01*
X134539Y786534D01*
X134641Y786491D01*
X134742Y786444D01*
X134841Y786393D01*
X134938Y786340D01*
X135032Y786283D01*
X135125Y786222D01*
X135216Y786159D01*
X135305Y786092D01*
X135391Y786022D01*
X135474Y785949D01*
X135556Y785874D01*
X135634Y785796D01*
X135709Y785714D01*
X135782Y785631D01*
X135852Y785545D01*
X135919Y785456D01*
X135982Y785365D01*
X136043Y785272D01*
X136100Y785178D01*
X136153Y785081D01*
X136204Y784982D01*
X136251Y784881D01*
X136294Y784779D01*
X136334Y784676D01*
X136370Y784571D01*
X136402Y784465D01*
X136431Y784358D01*
X136456Y784250D01*
X136477Y784141D01*
X136494Y784032D01*
X136508Y783922D01*
X136517Y783811D01*
X136523Y783701D01*
X136525Y783590D01*
X136525Y778510D01*
X136523Y778399D01*
X136517Y778289D01*
X136508Y778178D01*
X136494Y778068D01*
X136477Y777959D01*
X136456Y777850D01*
X136431Y777742D01*
X136402Y777635D01*
X136370Y777529D01*
X136334Y777424D01*
X136294Y777321D01*
X136251Y777219D01*
X136204Y777118D01*
X136153Y777019D01*
X136100Y776923D01*
X136043Y776828D01*
X135982Y776735D01*
X135919Y776644D01*
X135852Y776555D01*
X135782Y776469D01*
X135709Y776386D01*
X135634Y776304D01*
X135556Y776226D01*
X135474Y776151D01*
X135391Y776078D01*
X135305Y776008D01*
X135216Y775941D01*
X135125Y775878D01*
X135032Y775817D01*
X134937Y775760D01*
X134841Y775707D01*
X134742Y775656D01*
X134641Y775609D01*
X134539Y775566D01*
X134436Y775526D01*
X134331Y775490D01*
X134225Y775458D01*
X134118Y775429D01*
X134010Y775404D01*
X133901Y775383D01*
X133792Y775366D01*
X133682Y775352D01*
X133571Y775343D01*
X133461Y775337D01*
X133350Y775335D01*
X130175Y775335D01*
X141986Y777875D02*
X144526Y786765D01*
X141986Y777875D02*
X148336Y777875D01*
X146431Y780415D02*
X146431Y775335D01*
D11*
X146050Y736600D02*
X152400Y736600D01*
X162560Y742950D02*
X162560Y730250D01*
X152400Y736600D01*
X167640Y736600D01*
X162560Y742950D02*
X152400Y736600D01*
X152400Y742950D01*
X152400Y736600D02*
X152400Y730250D01*
X172720Y746760D02*
X172820Y746758D01*
X172919Y746752D01*
X173019Y746742D01*
X173117Y746729D01*
X173216Y746711D01*
X173313Y746690D01*
X173409Y746665D01*
X173505Y746636D01*
X173599Y746603D01*
X173692Y746567D01*
X173783Y746527D01*
X173873Y746483D01*
X173961Y746436D01*
X174047Y746386D01*
X174131Y746332D01*
X174213Y746275D01*
X174292Y746215D01*
X174370Y746151D01*
X174444Y746085D01*
X174516Y746016D01*
X174585Y745944D01*
X174651Y745870D01*
X174715Y745792D01*
X174775Y745713D01*
X174832Y745631D01*
X174886Y745547D01*
X174936Y745461D01*
X174983Y745373D01*
X175027Y745283D01*
X175067Y745192D01*
X175103Y745099D01*
X175136Y745005D01*
X175165Y744909D01*
X175190Y744813D01*
X175211Y744716D01*
X175229Y744617D01*
X175242Y744519D01*
X175252Y744419D01*
X175258Y744320D01*
X175260Y744220D01*
X175260Y728980D01*
X175258Y728880D01*
X175252Y728781D01*
X175242Y728681D01*
X175229Y728583D01*
X175211Y728484D01*
X175190Y728387D01*
X175165Y728291D01*
X175136Y728195D01*
X175103Y728101D01*
X175067Y728008D01*
X175027Y727917D01*
X174983Y727827D01*
X174936Y727739D01*
X174886Y727653D01*
X174832Y727569D01*
X174775Y727487D01*
X174715Y727408D01*
X174651Y727330D01*
X174585Y727256D01*
X174516Y727184D01*
X174444Y727115D01*
X174370Y727049D01*
X174292Y726985D01*
X174213Y726925D01*
X174131Y726868D01*
X174047Y726814D01*
X173961Y726764D01*
X173873Y726717D01*
X173783Y726673D01*
X173692Y726633D01*
X173599Y726597D01*
X173505Y726564D01*
X173409Y726535D01*
X173313Y726510D01*
X173216Y726489D01*
X173117Y726471D01*
X173019Y726458D01*
X172919Y726448D01*
X172820Y726442D01*
X172720Y726440D01*
X132080Y746760D02*
X131980Y746758D01*
X131881Y746752D01*
X131781Y746742D01*
X131683Y746729D01*
X131584Y746711D01*
X131487Y746690D01*
X131391Y746665D01*
X131295Y746636D01*
X131201Y746603D01*
X131108Y746567D01*
X131017Y746527D01*
X130927Y746483D01*
X130839Y746436D01*
X130753Y746386D01*
X130669Y746332D01*
X130587Y746275D01*
X130508Y746215D01*
X130430Y746151D01*
X130356Y746085D01*
X130284Y746016D01*
X130215Y745944D01*
X130149Y745870D01*
X130085Y745792D01*
X130025Y745713D01*
X129968Y745631D01*
X129914Y745547D01*
X129864Y745461D01*
X129817Y745373D01*
X129773Y745283D01*
X129733Y745192D01*
X129697Y745099D01*
X129664Y745005D01*
X129635Y744909D01*
X129610Y744813D01*
X129589Y744716D01*
X129571Y744617D01*
X129558Y744519D01*
X129548Y744419D01*
X129542Y744320D01*
X129540Y744220D01*
X129540Y728980D02*
X129542Y728880D01*
X129548Y728781D01*
X129558Y728681D01*
X129571Y728583D01*
X129589Y728484D01*
X129610Y728387D01*
X129635Y728291D01*
X129664Y728195D01*
X129697Y728101D01*
X129733Y728008D01*
X129773Y727917D01*
X129817Y727827D01*
X129864Y727739D01*
X129914Y727653D01*
X129968Y727569D01*
X130025Y727487D01*
X130085Y727408D01*
X130149Y727330D01*
X130215Y727256D01*
X130284Y727184D01*
X130356Y727115D01*
X130430Y727049D01*
X130508Y726985D01*
X130587Y726925D01*
X130669Y726868D01*
X130753Y726814D01*
X130839Y726764D01*
X130927Y726717D01*
X131017Y726673D01*
X131108Y726633D01*
X131201Y726597D01*
X131295Y726564D01*
X131391Y726535D01*
X131487Y726510D01*
X131584Y726489D01*
X131683Y726471D01*
X131781Y726458D01*
X131881Y726448D01*
X131980Y726442D01*
X132080Y726440D01*
X172720Y726440D01*
X129540Y728980D02*
X129540Y744220D01*
X132080Y746760D02*
X172720Y746760D01*
D17*
X135890Y736600D03*
D18*
X178435Y736600D03*
X126365Y736600D03*
D12*
X130175Y749935D02*
X130175Y761365D01*
X133350Y761365D01*
X133461Y761363D01*
X133571Y761357D01*
X133682Y761348D01*
X133792Y761334D01*
X133901Y761317D01*
X134010Y761296D01*
X134118Y761271D01*
X134225Y761242D01*
X134331Y761210D01*
X134436Y761174D01*
X134539Y761134D01*
X134641Y761091D01*
X134742Y761044D01*
X134841Y760993D01*
X134938Y760940D01*
X135032Y760883D01*
X135125Y760822D01*
X135216Y760759D01*
X135305Y760692D01*
X135391Y760622D01*
X135474Y760549D01*
X135556Y760474D01*
X135634Y760396D01*
X135709Y760314D01*
X135782Y760231D01*
X135852Y760145D01*
X135919Y760056D01*
X135982Y759965D01*
X136043Y759872D01*
X136100Y759778D01*
X136153Y759681D01*
X136204Y759582D01*
X136251Y759481D01*
X136294Y759379D01*
X136334Y759276D01*
X136370Y759171D01*
X136402Y759065D01*
X136431Y758958D01*
X136456Y758850D01*
X136477Y758741D01*
X136494Y758632D01*
X136508Y758522D01*
X136517Y758411D01*
X136523Y758301D01*
X136525Y758190D01*
X136525Y753110D01*
X136523Y752999D01*
X136517Y752889D01*
X136508Y752778D01*
X136494Y752668D01*
X136477Y752559D01*
X136456Y752450D01*
X136431Y752342D01*
X136402Y752235D01*
X136370Y752129D01*
X136334Y752024D01*
X136294Y751921D01*
X136251Y751819D01*
X136204Y751718D01*
X136153Y751619D01*
X136100Y751523D01*
X136043Y751428D01*
X135982Y751335D01*
X135919Y751244D01*
X135852Y751155D01*
X135782Y751069D01*
X135709Y750986D01*
X135634Y750904D01*
X135556Y750826D01*
X135474Y750751D01*
X135391Y750678D01*
X135305Y750608D01*
X135216Y750541D01*
X135125Y750478D01*
X135032Y750417D01*
X134937Y750360D01*
X134841Y750307D01*
X134742Y750256D01*
X134641Y750209D01*
X134539Y750166D01*
X134436Y750126D01*
X134331Y750090D01*
X134225Y750058D01*
X134118Y750029D01*
X134010Y750004D01*
X133901Y749983D01*
X133792Y749966D01*
X133682Y749952D01*
X133571Y749943D01*
X133461Y749937D01*
X133350Y749935D01*
X130175Y749935D01*
X141986Y749935D02*
X145796Y749935D01*
X145896Y749937D01*
X145995Y749943D01*
X146095Y749953D01*
X146193Y749966D01*
X146292Y749984D01*
X146389Y750005D01*
X146485Y750030D01*
X146581Y750059D01*
X146675Y750092D01*
X146768Y750128D01*
X146859Y750168D01*
X146949Y750212D01*
X147037Y750259D01*
X147123Y750309D01*
X147207Y750363D01*
X147289Y750420D01*
X147368Y750480D01*
X147446Y750544D01*
X147520Y750610D01*
X147592Y750679D01*
X147661Y750751D01*
X147727Y750825D01*
X147791Y750903D01*
X147851Y750982D01*
X147908Y751064D01*
X147962Y751148D01*
X148012Y751234D01*
X148059Y751322D01*
X148103Y751412D01*
X148143Y751503D01*
X148179Y751596D01*
X148212Y751690D01*
X148241Y751786D01*
X148266Y751882D01*
X148287Y751979D01*
X148305Y752078D01*
X148318Y752176D01*
X148328Y752276D01*
X148334Y752375D01*
X148336Y752475D01*
X148336Y753745D01*
X148334Y753845D01*
X148328Y753944D01*
X148318Y754044D01*
X148305Y754142D01*
X148287Y754241D01*
X148266Y754338D01*
X148241Y754434D01*
X148212Y754530D01*
X148179Y754624D01*
X148143Y754717D01*
X148103Y754808D01*
X148059Y754898D01*
X148012Y754986D01*
X147962Y755072D01*
X147908Y755156D01*
X147851Y755238D01*
X147791Y755317D01*
X147727Y755395D01*
X147661Y755469D01*
X147592Y755541D01*
X147520Y755610D01*
X147446Y755676D01*
X147368Y755740D01*
X147289Y755800D01*
X147207Y755857D01*
X147123Y755911D01*
X147037Y755961D01*
X146949Y756008D01*
X146859Y756052D01*
X146768Y756092D01*
X146675Y756128D01*
X146581Y756161D01*
X146485Y756190D01*
X146389Y756215D01*
X146292Y756236D01*
X146193Y756254D01*
X146095Y756267D01*
X145995Y756277D01*
X145896Y756283D01*
X145796Y756285D01*
X141986Y756285D01*
X141986Y761365D01*
X148336Y761365D01*
D11*
X146050Y711200D02*
X152400Y711200D01*
X162560Y717550D02*
X162560Y704850D01*
X152400Y711200D01*
X167640Y711200D01*
X162560Y717550D02*
X152400Y711200D01*
X152400Y717550D01*
X152400Y711200D02*
X152400Y704850D01*
X172720Y721360D02*
X172820Y721358D01*
X172919Y721352D01*
X173019Y721342D01*
X173117Y721329D01*
X173216Y721311D01*
X173313Y721290D01*
X173409Y721265D01*
X173505Y721236D01*
X173599Y721203D01*
X173692Y721167D01*
X173783Y721127D01*
X173873Y721083D01*
X173961Y721036D01*
X174047Y720986D01*
X174131Y720932D01*
X174213Y720875D01*
X174292Y720815D01*
X174370Y720751D01*
X174444Y720685D01*
X174516Y720616D01*
X174585Y720544D01*
X174651Y720470D01*
X174715Y720392D01*
X174775Y720313D01*
X174832Y720231D01*
X174886Y720147D01*
X174936Y720061D01*
X174983Y719973D01*
X175027Y719883D01*
X175067Y719792D01*
X175103Y719699D01*
X175136Y719605D01*
X175165Y719509D01*
X175190Y719413D01*
X175211Y719316D01*
X175229Y719217D01*
X175242Y719119D01*
X175252Y719019D01*
X175258Y718920D01*
X175260Y718820D01*
X175260Y703580D01*
X175258Y703480D01*
X175252Y703381D01*
X175242Y703281D01*
X175229Y703183D01*
X175211Y703084D01*
X175190Y702987D01*
X175165Y702891D01*
X175136Y702795D01*
X175103Y702701D01*
X175067Y702608D01*
X175027Y702517D01*
X174983Y702427D01*
X174936Y702339D01*
X174886Y702253D01*
X174832Y702169D01*
X174775Y702087D01*
X174715Y702008D01*
X174651Y701930D01*
X174585Y701856D01*
X174516Y701784D01*
X174444Y701715D01*
X174370Y701649D01*
X174292Y701585D01*
X174213Y701525D01*
X174131Y701468D01*
X174047Y701414D01*
X173961Y701364D01*
X173873Y701317D01*
X173783Y701273D01*
X173692Y701233D01*
X173599Y701197D01*
X173505Y701164D01*
X173409Y701135D01*
X173313Y701110D01*
X173216Y701089D01*
X173117Y701071D01*
X173019Y701058D01*
X172919Y701048D01*
X172820Y701042D01*
X172720Y701040D01*
X132080Y721360D02*
X131980Y721358D01*
X131881Y721352D01*
X131781Y721342D01*
X131683Y721329D01*
X131584Y721311D01*
X131487Y721290D01*
X131391Y721265D01*
X131295Y721236D01*
X131201Y721203D01*
X131108Y721167D01*
X131017Y721127D01*
X130927Y721083D01*
X130839Y721036D01*
X130753Y720986D01*
X130669Y720932D01*
X130587Y720875D01*
X130508Y720815D01*
X130430Y720751D01*
X130356Y720685D01*
X130284Y720616D01*
X130215Y720544D01*
X130149Y720470D01*
X130085Y720392D01*
X130025Y720313D01*
X129968Y720231D01*
X129914Y720147D01*
X129864Y720061D01*
X129817Y719973D01*
X129773Y719883D01*
X129733Y719792D01*
X129697Y719699D01*
X129664Y719605D01*
X129635Y719509D01*
X129610Y719413D01*
X129589Y719316D01*
X129571Y719217D01*
X129558Y719119D01*
X129548Y719019D01*
X129542Y718920D01*
X129540Y718820D01*
X129540Y703580D02*
X129542Y703480D01*
X129548Y703381D01*
X129558Y703281D01*
X129571Y703183D01*
X129589Y703084D01*
X129610Y702987D01*
X129635Y702891D01*
X129664Y702795D01*
X129697Y702701D01*
X129733Y702608D01*
X129773Y702517D01*
X129817Y702427D01*
X129864Y702339D01*
X129914Y702253D01*
X129968Y702169D01*
X130025Y702087D01*
X130085Y702008D01*
X130149Y701930D01*
X130215Y701856D01*
X130284Y701784D01*
X130356Y701715D01*
X130430Y701649D01*
X130508Y701585D01*
X130587Y701525D01*
X130669Y701468D01*
X130753Y701414D01*
X130839Y701364D01*
X130927Y701317D01*
X131017Y701273D01*
X131108Y701233D01*
X131201Y701197D01*
X131295Y701164D01*
X131391Y701135D01*
X131487Y701110D01*
X131584Y701089D01*
X131683Y701071D01*
X131781Y701058D01*
X131881Y701048D01*
X131980Y701042D01*
X132080Y701040D01*
X172720Y701040D01*
X129540Y703580D02*
X129540Y718820D01*
X132080Y721360D02*
X172720Y721360D01*
D17*
X135890Y711200D03*
D18*
X178435Y711200D03*
X126365Y711200D03*
D12*
X130175Y724535D02*
X130175Y735965D01*
X133350Y735965D01*
X133461Y735963D01*
X133571Y735957D01*
X133682Y735948D01*
X133792Y735934D01*
X133901Y735917D01*
X134010Y735896D01*
X134118Y735871D01*
X134225Y735842D01*
X134331Y735810D01*
X134436Y735774D01*
X134539Y735734D01*
X134641Y735691D01*
X134742Y735644D01*
X134841Y735593D01*
X134938Y735540D01*
X135032Y735483D01*
X135125Y735422D01*
X135216Y735359D01*
X135305Y735292D01*
X135391Y735222D01*
X135474Y735149D01*
X135556Y735074D01*
X135634Y734996D01*
X135709Y734914D01*
X135782Y734831D01*
X135852Y734745D01*
X135919Y734656D01*
X135982Y734565D01*
X136043Y734472D01*
X136100Y734378D01*
X136153Y734281D01*
X136204Y734182D01*
X136251Y734081D01*
X136294Y733979D01*
X136334Y733876D01*
X136370Y733771D01*
X136402Y733665D01*
X136431Y733558D01*
X136456Y733450D01*
X136477Y733341D01*
X136494Y733232D01*
X136508Y733122D01*
X136517Y733011D01*
X136523Y732901D01*
X136525Y732790D01*
X136525Y727710D01*
X136523Y727599D01*
X136517Y727489D01*
X136508Y727378D01*
X136494Y727268D01*
X136477Y727159D01*
X136456Y727050D01*
X136431Y726942D01*
X136402Y726835D01*
X136370Y726729D01*
X136334Y726624D01*
X136294Y726521D01*
X136251Y726419D01*
X136204Y726318D01*
X136153Y726219D01*
X136100Y726123D01*
X136043Y726028D01*
X135982Y725935D01*
X135919Y725844D01*
X135852Y725755D01*
X135782Y725669D01*
X135709Y725586D01*
X135634Y725504D01*
X135556Y725426D01*
X135474Y725351D01*
X135391Y725278D01*
X135305Y725208D01*
X135216Y725141D01*
X135125Y725078D01*
X135032Y725017D01*
X134937Y724960D01*
X134841Y724907D01*
X134742Y724856D01*
X134641Y724809D01*
X134539Y724766D01*
X134436Y724726D01*
X134331Y724690D01*
X134225Y724658D01*
X134118Y724629D01*
X134010Y724604D01*
X133901Y724583D01*
X133792Y724566D01*
X133682Y724552D01*
X133571Y724543D01*
X133461Y724537D01*
X133350Y724535D01*
X130175Y724535D01*
X141986Y730885D02*
X145796Y730885D01*
X145896Y730883D01*
X145995Y730877D01*
X146095Y730867D01*
X146193Y730854D01*
X146292Y730836D01*
X146389Y730815D01*
X146485Y730790D01*
X146581Y730761D01*
X146675Y730728D01*
X146768Y730692D01*
X146859Y730652D01*
X146949Y730608D01*
X147037Y730561D01*
X147123Y730511D01*
X147207Y730457D01*
X147289Y730400D01*
X147368Y730340D01*
X147446Y730276D01*
X147520Y730210D01*
X147592Y730141D01*
X147661Y730069D01*
X147727Y729995D01*
X147791Y729917D01*
X147851Y729838D01*
X147908Y729756D01*
X147962Y729672D01*
X148012Y729586D01*
X148059Y729498D01*
X148103Y729408D01*
X148143Y729317D01*
X148179Y729224D01*
X148212Y729130D01*
X148241Y729034D01*
X148266Y728938D01*
X148287Y728841D01*
X148305Y728742D01*
X148318Y728644D01*
X148328Y728544D01*
X148334Y728445D01*
X148336Y728345D01*
X148336Y727710D01*
X148334Y727599D01*
X148328Y727489D01*
X148319Y727378D01*
X148305Y727268D01*
X148288Y727159D01*
X148267Y727050D01*
X148242Y726942D01*
X148213Y726835D01*
X148181Y726729D01*
X148145Y726624D01*
X148105Y726521D01*
X148062Y726419D01*
X148015Y726318D01*
X147964Y726219D01*
X147911Y726123D01*
X147854Y726028D01*
X147793Y725935D01*
X147730Y725844D01*
X147663Y725755D01*
X147593Y725669D01*
X147520Y725586D01*
X147445Y725504D01*
X147367Y725426D01*
X147285Y725351D01*
X147202Y725278D01*
X147116Y725208D01*
X147027Y725141D01*
X146936Y725078D01*
X146843Y725017D01*
X146748Y724960D01*
X146652Y724907D01*
X146553Y724856D01*
X146452Y724809D01*
X146350Y724766D01*
X146247Y724726D01*
X146142Y724690D01*
X146036Y724658D01*
X145929Y724629D01*
X145821Y724604D01*
X145712Y724583D01*
X145603Y724566D01*
X145493Y724552D01*
X145382Y724543D01*
X145272Y724537D01*
X145161Y724535D01*
X145050Y724537D01*
X144940Y724543D01*
X144829Y724552D01*
X144719Y724566D01*
X144610Y724583D01*
X144501Y724604D01*
X144393Y724629D01*
X144286Y724658D01*
X144180Y724690D01*
X144075Y724726D01*
X143972Y724766D01*
X143870Y724809D01*
X143769Y724856D01*
X143670Y724907D01*
X143574Y724960D01*
X143479Y725017D01*
X143386Y725078D01*
X143295Y725141D01*
X143206Y725208D01*
X143120Y725278D01*
X143037Y725351D01*
X142955Y725426D01*
X142877Y725504D01*
X142802Y725586D01*
X142729Y725669D01*
X142659Y725755D01*
X142592Y725844D01*
X142529Y725935D01*
X142468Y726028D01*
X142411Y726123D01*
X142358Y726219D01*
X142307Y726318D01*
X142260Y726419D01*
X142217Y726521D01*
X142177Y726624D01*
X142141Y726729D01*
X142109Y726835D01*
X142080Y726942D01*
X142055Y727050D01*
X142034Y727159D01*
X142017Y727268D01*
X142003Y727378D01*
X141994Y727489D01*
X141988Y727599D01*
X141986Y727710D01*
X141986Y730885D01*
X141988Y731025D01*
X141994Y731165D01*
X142003Y731305D01*
X142017Y731444D01*
X142034Y731583D01*
X142055Y731721D01*
X142080Y731859D01*
X142109Y731996D01*
X142141Y732132D01*
X142178Y732267D01*
X142218Y732401D01*
X142261Y732534D01*
X142309Y732666D01*
X142359Y732797D01*
X142414Y732926D01*
X142472Y733053D01*
X142533Y733179D01*
X142598Y733303D01*
X142667Y733425D01*
X142738Y733545D01*
X142813Y733663D01*
X142891Y733780D01*
X142973Y733894D01*
X143057Y734005D01*
X143145Y734114D01*
X143235Y734221D01*
X143329Y734326D01*
X143425Y734427D01*
X143524Y734526D01*
X143625Y734622D01*
X143730Y734716D01*
X143837Y734806D01*
X143946Y734894D01*
X144057Y734978D01*
X144171Y735060D01*
X144288Y735138D01*
X144406Y735213D01*
X144526Y735284D01*
X144648Y735353D01*
X144772Y735418D01*
X144898Y735479D01*
X145025Y735537D01*
X145154Y735592D01*
X145285Y735642D01*
X145417Y735690D01*
X145550Y735733D01*
X145684Y735773D01*
X145819Y735810D01*
X145955Y735842D01*
X146092Y735871D01*
X146230Y735896D01*
X146368Y735917D01*
X146507Y735934D01*
X146646Y735948D01*
X146786Y735957D01*
X146926Y735963D01*
X147066Y735965D01*
D11*
X127000Y640080D02*
X126998Y639980D01*
X126992Y639881D01*
X126982Y639781D01*
X126969Y639683D01*
X126951Y639584D01*
X126930Y639487D01*
X126905Y639391D01*
X126876Y639295D01*
X126843Y639201D01*
X126807Y639108D01*
X126767Y639017D01*
X126723Y638927D01*
X126676Y638839D01*
X126626Y638753D01*
X126572Y638669D01*
X126515Y638587D01*
X126455Y638508D01*
X126391Y638430D01*
X126325Y638356D01*
X126256Y638284D01*
X126184Y638215D01*
X126110Y638149D01*
X126032Y638085D01*
X125953Y638025D01*
X125871Y637968D01*
X125787Y637914D01*
X125701Y637864D01*
X125613Y637817D01*
X125523Y637773D01*
X125432Y637733D01*
X125339Y637697D01*
X125245Y637664D01*
X125149Y637635D01*
X125053Y637610D01*
X124956Y637589D01*
X124857Y637571D01*
X124759Y637558D01*
X124659Y637548D01*
X124560Y637542D01*
X124460Y637540D01*
X127000Y655320D02*
X126998Y655420D01*
X126992Y655519D01*
X126982Y655619D01*
X126969Y655717D01*
X126951Y655816D01*
X126930Y655913D01*
X126905Y656009D01*
X126876Y656105D01*
X126843Y656199D01*
X126807Y656292D01*
X126767Y656383D01*
X126723Y656473D01*
X126676Y656561D01*
X126626Y656647D01*
X126572Y656731D01*
X126515Y656813D01*
X126455Y656892D01*
X126391Y656970D01*
X126325Y657044D01*
X126256Y657116D01*
X126184Y657185D01*
X126110Y657251D01*
X126032Y657315D01*
X125953Y657375D01*
X125871Y657432D01*
X125787Y657486D01*
X125701Y657536D01*
X125613Y657583D01*
X125523Y657627D01*
X125432Y657667D01*
X125339Y657703D01*
X125245Y657736D01*
X125149Y657765D01*
X125053Y657790D01*
X124956Y657811D01*
X124857Y657829D01*
X124759Y657842D01*
X124659Y657852D01*
X124560Y657858D01*
X124460Y657860D01*
X78740Y657860D02*
X78640Y657858D01*
X78541Y657852D01*
X78441Y657842D01*
X78343Y657829D01*
X78244Y657811D01*
X78147Y657790D01*
X78051Y657765D01*
X77955Y657736D01*
X77861Y657703D01*
X77768Y657667D01*
X77677Y657627D01*
X77587Y657583D01*
X77499Y657536D01*
X77413Y657486D01*
X77329Y657432D01*
X77247Y657375D01*
X77168Y657315D01*
X77090Y657251D01*
X77016Y657185D01*
X76944Y657116D01*
X76875Y657044D01*
X76809Y656970D01*
X76745Y656892D01*
X76685Y656813D01*
X76628Y656731D01*
X76574Y656647D01*
X76524Y656561D01*
X76477Y656473D01*
X76433Y656383D01*
X76393Y656292D01*
X76357Y656199D01*
X76324Y656105D01*
X76295Y656009D01*
X76270Y655913D01*
X76249Y655816D01*
X76231Y655717D01*
X76218Y655619D01*
X76208Y655519D01*
X76202Y655420D01*
X76200Y655320D01*
X76200Y640080D02*
X76202Y639980D01*
X76208Y639881D01*
X76218Y639781D01*
X76231Y639683D01*
X76249Y639584D01*
X76270Y639487D01*
X76295Y639391D01*
X76324Y639295D01*
X76357Y639201D01*
X76393Y639108D01*
X76433Y639017D01*
X76477Y638927D01*
X76524Y638839D01*
X76574Y638753D01*
X76628Y638669D01*
X76685Y638587D01*
X76745Y638508D01*
X76809Y638430D01*
X76875Y638356D01*
X76944Y638284D01*
X77016Y638215D01*
X77090Y638149D01*
X77168Y638085D01*
X77247Y638025D01*
X77329Y637968D01*
X77413Y637914D01*
X77499Y637864D01*
X77587Y637817D01*
X77677Y637773D01*
X77768Y637733D01*
X77861Y637697D01*
X77955Y637664D01*
X78051Y637635D01*
X78147Y637610D01*
X78244Y637589D01*
X78343Y637571D01*
X78441Y637558D01*
X78541Y637548D01*
X78640Y637542D01*
X78740Y637540D01*
X127000Y640080D02*
X127000Y655320D01*
X124460Y637540D02*
X120650Y637540D01*
X119380Y638810D01*
X120650Y657860D02*
X124460Y657860D01*
X120650Y657860D02*
X119380Y656590D01*
X83820Y638810D02*
X82550Y637540D01*
X83820Y638810D02*
X119380Y638810D01*
X83820Y656590D02*
X82550Y657860D01*
X83820Y656590D02*
X119380Y656590D01*
X82550Y637540D02*
X78740Y637540D01*
X78740Y657860D02*
X82550Y657860D01*
X76200Y655320D02*
X76200Y640080D01*
D19*
X74295Y647700D03*
X128905Y647700D03*
D16*
X112703Y634238D02*
X112703Y625348D01*
X112703Y634238D02*
X115173Y634238D01*
X115271Y634236D01*
X115369Y634230D01*
X115467Y634220D01*
X115564Y634207D01*
X115661Y634189D01*
X115757Y634168D01*
X115851Y634143D01*
X115945Y634114D01*
X116038Y634082D01*
X116129Y634045D01*
X116219Y634006D01*
X116307Y633962D01*
X116393Y633915D01*
X116478Y633865D01*
X116560Y633812D01*
X116640Y633755D01*
X116718Y633695D01*
X116793Y633632D01*
X116866Y633566D01*
X116936Y633497D01*
X117003Y633426D01*
X117068Y633352D01*
X117129Y633275D01*
X117188Y633196D01*
X117243Y633115D01*
X117295Y633032D01*
X117343Y632946D01*
X117388Y632859D01*
X117430Y632770D01*
X117468Y632680D01*
X117502Y632588D01*
X117533Y632495D01*
X117560Y632400D01*
X117583Y632305D01*
X117603Y632208D01*
X117618Y632112D01*
X117630Y632014D01*
X117638Y631916D01*
X117642Y631818D01*
X117642Y631720D01*
X117638Y631622D01*
X117630Y631524D01*
X117618Y631426D01*
X117603Y631330D01*
X117583Y631233D01*
X117560Y631138D01*
X117533Y631043D01*
X117502Y630950D01*
X117468Y630858D01*
X117430Y630768D01*
X117388Y630679D01*
X117343Y630592D01*
X117295Y630506D01*
X117243Y630423D01*
X117188Y630342D01*
X117129Y630263D01*
X117068Y630186D01*
X117003Y630112D01*
X116936Y630041D01*
X116866Y629972D01*
X116793Y629906D01*
X116718Y629843D01*
X116640Y629783D01*
X116560Y629726D01*
X116478Y629673D01*
X116393Y629623D01*
X116307Y629576D01*
X116219Y629532D01*
X116129Y629493D01*
X116038Y629456D01*
X115945Y629424D01*
X115851Y629395D01*
X115757Y629370D01*
X115661Y629349D01*
X115564Y629331D01*
X115467Y629318D01*
X115369Y629308D01*
X115271Y629302D01*
X115173Y629300D01*
X115173Y629299D02*
X112703Y629299D01*
X115667Y629299D02*
X117642Y625348D01*
X121553Y627324D02*
X123529Y634238D01*
X121553Y627324D02*
X126492Y627324D01*
X125010Y629299D02*
X125010Y625348D01*
M02*
